<svg width="26" height="32" viewBox="0 0 26 32" fill="none" xmlns="http://www.w3.org/2000/svg">
<path d="M15.0055 3.37146L15.0056 3.37148L15.0097 3.36594C15.8979 2.17187 16.9584 1.58347 17.7939 1.28944C17.9279 1.24231 18.0559 1.20281 18.1764 1.16971C18.1665 1.26248 18.1539 1.36014 18.1378 1.46212C18.0081 2.28667 17.6581 3.38752 16.7644 4.47444C15.8008 5.63007 14.8154 6.08102 14.1081 6.2593C13.9976 6.28716 13.8929 6.30858 13.795 6.32493C13.8009 6.25681 13.8087 6.18514 13.8187 6.11017C13.9105 5.42403 14.1953 4.4451 15.0055 3.37146Z" stroke="#FF244C" stroke-width="2"/>
<path d="M24.5178 23.851C24.4623 23.9865 24.3997 24.1358 24.3304 24.2966C24.0009 25.061 23.5243 26.0723 22.9318 27.0765C22.3347 28.0884 21.6449 29.0501 20.9009 29.7473C20.1487 30.4522 19.4452 30.7916 18.802 30.7916C18.094 30.7916 17.4483 30.5504 16.5859 30.2191L16.5617 30.2098C15.7501 29.898 14.7494 29.5136 13.5734 29.5136C12.3793 29.5136 11.2427 29.8916 10.3465 30.2105C10.2338 30.2506 10.1259 30.2894 10.0221 30.3268C9.69015 30.4463 9.39948 30.5509 9.12246 30.6354C8.75723 30.7468 8.51112 30.7916 8.34472 30.7916H8.33751L8.33031 30.7917C7.7626 30.7999 7.01288 30.4905 6.14229 29.7234C5.28943 28.9719 4.42563 27.8706 3.65067 26.5366C2.09573 23.8598 1 20.4237 1 17.4136C1 11.5159 4.56719 8.77496 7.60531 8.77496H7.61651L7.62771 8.77471C8.61254 8.75264 9.51738 9.03798 10.4087 9.38067C10.5422 9.43197 10.6821 9.4873 10.824 9.54345C11.1251 9.66256 11.4356 9.78535 11.7134 9.88111C12.1291 10.0244 12.6103 10.1595 13.098 10.1595C13.5574 10.1595 14.029 10.0055 14.4103 9.8642C14.6243 9.78487 14.8882 9.67764 15.1527 9.57017C15.3452 9.49195 15.538 9.41361 15.7121 9.34583C16.634 8.98683 17.6434 8.66846 18.7492 8.66846C20.7059 8.66846 22.0347 9.36681 22.8747 10.0444C23.1237 10.2452 23.331 10.4454 23.499 10.6271C23.1856 10.8769 22.824 11.2034 22.4625 11.6128C21.4796 12.7259 20.4956 14.4569 20.4956 16.8811C20.4956 19.6118 21.726 21.4825 22.9426 22.6486C23.5102 23.1927 24.0761 23.586 24.5178 23.851ZM24.0538 11.3482C24.0541 11.3487 24.054 11.3485 24.0534 11.3475L24.0538 11.3482Z" stroke="#FF244C" stroke-width="2"/>
</svg>
