<svg width="147" height="27" viewBox="0 0 147 27" fill="none" xmlns="http://www.w3.org/2000/svg">
<path d="M14.587 7.46012V5.20141C14.8134 5.1859 15.0425 5.17384 15.2761 5.16695C21.6675 4.97312 25.8598 10.4743 25.8598 10.4743C25.8598 10.4743 21.3314 16.5527 16.4759 16.5527C15.777 16.5527 15.1504 16.4433 14.587 16.2606V9.41301C17.0749 9.70332 17.575 10.7655 19.0708 13.1749L22.3975 10.464C22.3975 10.464 19.9693 7.38603 15.876 7.38603C15.4303 7.38603 15.0042 7.41618 14.587 7.46012ZM14.587 0V3.37342C14.8161 3.35533 15.0461 3.34156 15.2761 3.3338C24.1643 3.04435 29.954 10.377 29.954 10.377C29.954 10.377 23.3032 18.1929 16.3743 18.1929C15.7396 18.1929 15.145 18.136 14.587 18.0404V20.1259C15.0639 20.1845 15.5595 20.219 16.0757 20.219C22.5232 20.219 27.1862 17.0368 31.7021 13.2706C32.45 13.8503 35.5146 15.2588 36.1457 15.8764C31.8518 19.3498 21.8467 22.1495 16.1746 22.1495C15.6282 22.1495 15.1023 22.1176 14.587 22.0694V25H39.0936V0H14.587ZM14.587 16.2606V18.0404C8.6226 17.0135 6.96726 11.0222 6.96726 11.0222C6.96726 11.0222 9.83135 7.95632 14.587 7.46012V9.41301C14.5826 9.41301 14.5808 9.41215 14.5772 9.41215C12.0822 9.12271 10.1318 11.3754 10.1318 11.3754C10.1318 11.3754 11.2246 15.1692 14.587 16.2606ZM3.99441 10.7629C3.99441 10.7629 7.52884 5.72258 14.587 5.20141V3.37342C6.76936 3.97902 0 10.377 0 10.377C0 10.377 3.83395 21.089 14.587 22.0694V20.1259C6.69626 19.1663 3.99441 10.7629 3.99441 10.7629Z" fill="white"/>
<path d="M144.978 15.9194V22.8326L139.384 15.9194H137.418V25.9999H139.467V19.0868L145.034 25.9999H147V15.9194H144.978Z" fill="#FF244C"/>
<path d="M75.6593 15.9194L71.1729 25.9999H73.4161L76.9609 17.9576V17.93L78.5672 21.6207H76.7948L76.7394 21.6482L76.7948 21.6207L75.05 23.3559H75.0777H79.3703L80.5335 25.9999H82.7767L78.2626 15.9194H75.6593Z" fill="#FF244C"/>
<path d="M106.068 15.9194V25.9999H113.629V24.2923H108.09V21.841H112.881V20.0783H108.09V17.6546H112.687L114.432 15.9194H106.068Z" fill="#FF244C"/>
<path d="M122.601 23.466V18.4533L123.543 17.5169H127.448L128.389 18.4533V23.466L127.448 24.4025H123.543L122.601 23.466ZM122.49 15.9194L120.773 17.6271V24.2923L122.49 25.9999H128.5L130.217 24.2923V17.6271L128.5 15.9194H122.49Z" fill="#FF244C"/>
<path d="M57.0217 17.6546H61.3697L62.1728 18.4533V20.1885L61.3697 20.9597H57.0217V17.6546ZM55 15.9194V26.0275H57.0217V22.7224H60.1511L62.5328 26.0275H64.9145L62.4774 22.6122L64.0283 21.0699V17.5995L62.339 15.9194H55Z" fill="#FF244C"/>
<path d="M91.3619 17.6546H95.9314L96.873 18.591V23.3559L95.9314 24.2923H91.3619V17.6546ZM89.3125 15.9194V25.9999H96.8453L98.867 23.9893V17.93L96.8453 15.9194H89.3125Z" fill="#FF244C"/>
<path d="M65.3022 9.72237H62.8651L62.1174 7.93212H58.0741L57.4094 9.72237H55L58.6556 0.688477H61.2866L65.3022 9.72237ZM60.0126 2.86432L58.6833 6.36221H61.4804L60.0126 2.86432Z" fill="white"/>
<path d="M74.1365 0.688477H76.1028V9.72237H73.8319V4.07619L71.3948 6.91305H71.0625L68.6254 4.07619V9.72237H66.3545V0.688477H68.3208L71.2287 4.04865L74.1365 0.688477Z" fill="white"/>
<path d="M81.8356 0.688477C85.1589 0.688477 86.8483 2.72661 86.8483 5.20543C86.8483 7.79441 85.1866 9.69483 81.5864 9.69483H77.8477V0.688477H81.8356ZM80.1186 8.06983H81.5864C83.8573 8.06983 84.5496 6.52746 84.5496 5.20543C84.5496 3.66305 83.7188 2.34102 81.5587 2.34102H80.1186V8.06983Z" fill="white"/>
<path d="M96.0416 2.83686H91.3613L88.5088 0H98.8941V10.3284L96.0416 7.49153V2.83686Z" fill="white"/>
<path d="M91.3623 7.49155V3.41528L88.4268 6.33477V10.411H92.5255L95.4611 7.49155H91.3623Z" fill="white"/>
</svg>
