<svg width="24" height="21" viewBox="0 0 24 21" fill="none" xmlns="http://www.w3.org/2000/svg">
<path d="M1.15787 9.45898H23.0348C23.5679 9.45898 24 9.89137 24 10.4242C24 10.9569 23.5679 11.3893 23.0348 11.3893H1.15787C0.624804 11.3893 0.192705 10.9573 0.192705 10.4242C0.192705 9.89104 0.624758 9.45898 1.15787 9.45898Z" fill="white"/>
<path d="M0.282894 9.74117L9.74113 0.282555C10.1182 -0.0941849 10.7288 -0.0941849 11.1059 0.282555C11.4829 0.659622 11.4829 1.27088 11.1059 1.64762L2.33 10.4238L11.1059 19.2001C11.4829 19.5768 11.4829 20.1881 11.1059 20.5648C10.9173 20.7533 10.6706 20.8476 10.4235 20.8476C10.1764 20.8476 9.92967 20.7533 9.74113 20.5648L0.282894 11.1062C-0.0941734 10.7292 -0.0941734 10.1179 0.282894 9.74117Z" fill="white"/>
</svg>
