<svg width="65" height="46" viewBox="0 0 65 46" fill="none" xmlns="http://www.w3.org/2000/svg">
<path d="M9.47059 0C6.50751 0 4.05882 2.44874 4.05882 5.41176V35.1765H2.02941C0.921962 35.1765 0.000473529 36.1941 0 37.2059V39.9118C0 43.2495 2.75046 46 6.08824 46H58.853C62.1908 46 64.9412 43.2495 64.9412 39.9118V37.2059C64.9411 36.1433 63.9744 35.1765 62.9118 35.1765H60.8824V5.41176C60.8824 2.44874 58.4337 0 55.4707 0H9.47059ZM9.47059 4.05882H55.4707C56.2553 4.05882 56.8236 4.62713 56.8236 5.41176V35.1765H8.11765V5.41176C8.11765 4.62713 8.68595 4.05882 9.47059 4.05882ZM4.05882 39.2353H60.8824V39.9118C60.8824 41.0712 60.0123 41.9412 58.853 41.9412H6.08824C4.92883 41.9412 3.9997 41.0696 4.05882 39.9118V39.2353Z" fill="white"/>
</svg>
