<?xml version="1.0" standalone="no"?>
<!DOCTYPE svg PUBLIC "-//W3C//DTD SVG 20010904//EN"
 "http://www.w3.org/TR/2001/REC-SVG-20010904/DTD/svg10.dtd">
<svg version="1.0" xmlns="http://www.w3.org/2000/svg"
 width="139.000000pt" height="139.000000pt" viewBox="0 0 139.000000 139.000000"
 preserveAspectRatio="xMidYMid meet">
<metadata>
Created by potrace 1.11, written by Peter Selinger 2001-2013
</metadata>
<g transform="translate(0.000000,139.000000) scale(0.100000,-0.100000)"
fill="#000000" stroke="none">
<path d="M466 1329 c-33 -26 -37 -86 -6 -114 22 -20 26 -50 8 -61 -6 -4 -67
-8 -134 -8 -68 -1 -126 -4 -129 -8 -4 -4 -7 -60 -6 -125 0 -65 -2 -126 -5
-135 -7 -24 -30 -23 -61 2 -37 29 -87 26 -112 -6 -52 -67 9 -151 86 -119 17 7
34 18 37 24 10 16 43 14 49 -3 3 -8 6 -69 6 -137 1 -82 5 -125 13 -130 14 -9
234 -6 243 3 4 4 -2 19 -14 34 -24 30 -28 91 -8 116 17 22 59 45 77 43 8 -1
22 -3 31 -3 9 -1 28 -14 43 -28 33 -33 35 -89 6 -127 -11 -14 -20 -29 -20 -34
0 -8 218 -11 253 -4 4 0 7 143 7 316 0 245 -3 315 -12 317 -7 0 -66 2 -131 2
-143 2 -162 12 -122 66 34 46 33 92 -1 119 -15 12 -37 21 -49 21 -12 0 -34 -9
-49 -21z"/>
<path d="M1048 1009 c-22 -12 -23 -47 -2 -77 14 -20 14 -23 -1 -28 -9 -4 -49
-7 -88 -8 l-72 -1 -1 -77 c-1 -80 3 -87 35 -67 45 29 97 -20 79 -74 -13 -35
-52 -46 -89 -24 l-27 15 1 -81 2 -82 78 -1 c86 -2 110 -13 83 -39 -32 -32 -14
-85 29 -85 44 0 59 46 29 88 -14 20 -14 23 1 28 8 4 48 7 88 8 l72 1 3 88 c1
48 7 87 12 87 4 0 22 -8 38 -17 29 -17 31 -17 51 1 35 32 25 71 -21 80 -16 3
-32 -1 -39 -10 -28 -34 -38 -16 -41 74 l-3 87 -71 1 c-39 0 -78 4 -88 7 -16 6
-16 9 -2 29 39 56 -1 110 -56 77z"/>
<path d="M650 384 c0 -64 0 -65 21 -50 34 23 69 3 69 -41 0 -31 -35 -49 -67
-34 l-24 11 3 -62 3 -63 58 -1 c32 -1 61 -5 64 -8 4 -3 1 -17 -5 -31 -15 -33
-5 -55 24 -55 33 0 46 28 28 62 -14 27 -14 28 13 29 29 1 79 5 101 7 8 1 12
22 12 62 0 59 -1 60 -21 50 -25 -14 -65 -6 -73 15 -7 20 9 61 27 68 8 3 26 -1
41 -8 l26 -14 0 65 0 64 -150 0 -150 0 0 -66z"/>
</g>
</svg>
