<svg width="24" height="24" viewBox="0 0 24 24" fill="none" xmlns="http://www.w3.org/2000/svg">
<path d="M1 1H23V23H1V1Z" fill="#2A0034" stroke="#EA77FF" stroke-width="2"/>
<path fill-rule="evenodd" clip-rule="evenodd" d="M6.38306 6.79488C6.38306 6.7323 6.3987 6.68536 6.47692 6.68536C7.08707 6.65407 7.97882 6.63843 8.91751 6.63843C11.5458 6.63843 12.6879 8.07775 12.6879 9.92383C12.6879 12.3331 10.9447 13.3657 8.80136 13.3657C8.44153 13.3657 8.31637 13.3501 8.06605 13.3501V16.9939C8.06605 17.0722 8.03476 17.1035 7.95654 17.1035H6.49257C6.41435 17.1035 6.38306 17.0722 6.38306 16.9939V6.79488ZM8.06605 11.8324C8.28508 11.8481 8.45717 11.8481 8.83265 11.8481C9.94342 11.8481 10.9826 11.457 10.9826 9.95512C10.9826 8.75047 10.2407 8.14023 8.97345 8.14023C8.59797 8.14023 8.23815 8.15597 8.06605 8.17152V11.8324ZM14.1342 10.9719C14.1342 10.8625 14.1342 10.5808 14.0874 10.049C14.0874 9.97067 14.0983 9.95512 14.1609 9.92383C14.7396 9.68915 16.0945 9.26675 17.6277 9.26675C17.706 9.26675 17.7373 9.2823 17.7373 9.36052V10.7373C17.7373 10.8154 17.712 10.8311 17.6339 10.8311C17.0393 10.7998 16.1695 10.878 15.8409 11.0188V16.9937C15.8409 17.0721 15.8096 17.1033 15.7313 17.1033H14.2437C14.1655 17.1033 14.1342 17.0721 14.1342 16.9937V10.9719Z" fill="#EA77FF"/>
</svg>
