<svg width="20" height="24" viewBox="0 0 20 24" fill="none" xmlns="http://www.w3.org/2000/svg">
<path fill-rule="evenodd" clip-rule="evenodd" d="M10.7057 2.08667C12.2579 0 14.4468 0 14.4468 0C14.4468 0 14.7652 1.96628 13.213 3.85231C11.5415 5.85872 9.67095 5.53769 9.67095 5.53769C9.67095 5.53769 9.31277 3.93256 10.7057 2.08667Z" fill="white"/>
<path fill-rule="evenodd" clip-rule="evenodd" d="M9.87006 6.90215C10.666 6.90215 12.1784 5.77856 14.1285 5.77856C17.4716 5.77856 18.7849 8.18626 18.7849 8.18626C18.7849 8.18626 16.198 9.51049 16.198 12.7207C16.198 16.3323 19.4217 17.6164 19.4217 17.6164C19.4217 17.6164 17.193 23.9566 14.1683 23.9566C12.7754 23.9566 11.7008 22.9936 10.2282 22.9936C8.7159 22.9936 7.24335 23.9566 6.28818 23.9566C3.50228 23.9968 0 17.9775 0 13.122C0 8.34677 2.9451 5.85882 5.731 5.85882C7.52194 5.81869 8.91489 6.90215 9.87006 6.90215Z" fill="white"/>
</svg>
