<svg width="341" height="354" viewBox="0 0 341 354" fill="none" xmlns="http://www.w3.org/2000/svg">
<circle cx="168" cy="208" r="146" fill="#051227"/>
<mask id="mask0" mask-type="alpha" maskUnits="userSpaceOnUse" x="22" y="62" width="292" height="292">
<circle cx="168" cy="208" r="146" fill="#051227"/>
</mask>
<g mask="url(#mask0)">
<path d="M194.461 366.131L91.7102 376.622L102.991 284.792L198.557 318.851L194.461 366.131Z" fill="#FF244C"/>
<path d="M164.786 313.175L91.7102 376.622L194.461 366.131L164.786 313.175Z" fill="#FF244C"/>
<path opacity="0.2" d="M197.839 318.636L102.991 284.792L161.337 351.401L197.839 318.636Z" fill="#070707"/>
<path d="M197.839 318.636L102.991 284.792L161.552 345.222L197.839 318.636Z" fill="white"/>
<rect x="155.33" y="323.452" width="0.466633" height="0.466633" transform="rotate(8.55519 155.33 323.452)" fill="#051227"/>
<rect x="155.932" y="319.452" width="0.466633" height="0.466633" transform="rotate(8.55519 155.932 319.452)" fill="#051227"/>
<rect x="154.729" y="327.451" width="0.466633" height="0.466633" transform="rotate(8.55519 154.729 327.451)" fill="#051227"/>
<rect x="156.534" y="315.453" width="0.466633" height="0.466633" transform="rotate(8.55519 156.534 315.453)" fill="#051227"/>
<rect x="157.33" y="323.752" width="0.466633" height="0.466633" transform="rotate(8.55519 157.33 323.752)" fill="#051227"/>
<rect x="157.932" y="319.753" width="0.466633" height="0.466633" transform="rotate(8.55519 157.932 319.753)" fill="#051227"/>
<rect x="156.728" y="327.751" width="0.466633" height="0.466633" transform="rotate(8.55519 156.728 327.751)" fill="#051227"/>
<rect x="158.533" y="315.754" width="0.466633" height="0.466633" transform="rotate(8.55519 158.533 315.754)" fill="#051227"/>
<rect x="159.33" y="324.053" width="0.466633" height="0.466633" transform="rotate(8.55519 159.33 324.053)" fill="#051227"/>
<rect x="159.931" y="320.054" width="0.466633" height="0.466633" transform="rotate(8.55519 159.931 320.054)" fill="#051227"/>
<rect x="158.728" y="328.052" width="0.466633" height="0.466633" transform="rotate(8.55519 158.728 328.052)" fill="#051227"/>
<rect x="160.533" y="316.055" width="0.466633" height="0.466633" transform="rotate(8.55519 160.533 316.055)" fill="#051227"/>
<rect x="161.329" y="324.354" width="0.466633" height="0.466633" transform="rotate(8.55519 161.329 324.354)" fill="#051227"/>
<rect x="161.931" y="320.355" width="0.466633" height="0.466633" transform="rotate(8.55519 161.931 320.355)" fill="#051227"/>
<rect x="163.329" y="324.655" width="0.466633" height="0.466633" transform="rotate(8.55519 163.329 324.655)" fill="#051227"/>
<rect x="163.93" y="320.655" width="0.466633" height="0.466633" transform="rotate(8.55519 163.93 320.655)" fill="#051227"/>
<rect x="165.328" y="324.956" width="0.466633" height="0.466633" transform="rotate(8.55519 165.328 324.956)" fill="#051227"/>
<rect x="165.93" y="320.957" width="0.466633" height="0.466633" transform="rotate(8.55519 165.93 320.957)" fill="#051227"/>
<rect x="164.727" y="328.955" width="0.466633" height="0.466633" transform="rotate(8.55519 164.727 328.955)" fill="#051227"/>
<rect x="166.531" y="316.957" width="0.466633" height="0.466633" transform="rotate(8.55519 166.531 316.957)" fill="#051227"/>
<rect x="167.328" y="325.256" width="0.466633" height="0.466633" transform="rotate(8.55519 167.328 325.256)" fill="#051227"/>
<rect x="167.929" y="321.257" width="0.466633" height="0.466633" transform="rotate(8.55519 167.929 321.257)" fill="#051227"/>
<rect x="166.726" y="329.256" width="0.466633" height="0.466633" transform="rotate(8.55519 166.726 329.256)" fill="#051227"/>
<rect x="168.531" y="317.258" width="0.466633" height="0.466633" transform="rotate(8.55519 168.531 317.258)" fill="#051227"/>
<rect x="169.327" y="325.557" width="0.466633" height="0.466633" transform="rotate(8.55519 169.327 325.557)" fill="#051227"/>
<rect x="169.929" y="321.558" width="0.466633" height="0.466633" transform="rotate(8.55519 169.929 321.558)" fill="#051227"/>
<rect x="168.726" y="329.556" width="0.466633" height="0.466633" transform="rotate(8.55519 168.726 329.556)" fill="#051227"/>
<rect x="170.531" y="317.559" width="0.466633" height="0.466633" transform="rotate(8.55519 170.531 317.559)" fill="#051227"/>
<rect x="155.03" y="325.451" width="0.466633" height="0.466633" transform="rotate(8.55519 155.03 325.451)" fill="#051227"/>
<rect x="155.631" y="321.452" width="0.466633" height="0.466633" transform="rotate(8.55519 155.631 321.452)" fill="#051227"/>
<rect x="156.835" y="313.454" width="0.466633" height="0.466633" transform="rotate(8.55519 156.835 313.454)" fill="#051227"/>
<rect x="154.428" y="329.45" width="0.466633" height="0.466633" transform="rotate(8.55519 154.428 329.45)" fill="#051227"/>
<rect x="156.233" y="317.453" width="0.466633" height="0.466633" transform="rotate(8.55519 156.233 317.453)" fill="#051227"/>
<rect x="157.029" y="325.752" width="0.466633" height="0.466633" transform="rotate(8.55519 157.029 325.752)" fill="#051227"/>
<rect x="157.631" y="321.753" width="0.466633" height="0.466633" transform="rotate(8.55519 157.631 321.753)" fill="#051227"/>
<rect x="158.834" y="313.754" width="0.466633" height="0.466633" transform="rotate(8.55519 158.834 313.754)" fill="#051227"/>
<rect x="156.427" y="329.751" width="0.466633" height="0.466633" transform="rotate(8.55519 156.427 329.751)" fill="#051227"/>
<rect x="158.232" y="317.753" width="0.466633" height="0.466633" transform="rotate(8.55519 158.232 317.753)" fill="#051227"/>
<rect x="159.029" y="326.053" width="0.466633" height="0.466633" transform="rotate(8.55519 159.029 326.053)" fill="#051227"/>
<rect x="159.63" y="322.054" width="0.466633" height="0.466633" transform="rotate(8.55519 159.63 322.054)" fill="#051227"/>
<rect x="160.833" y="314.055" width="0.466633" height="0.466633" transform="rotate(8.55519 160.833 314.055)" fill="#051227"/>
<rect x="158.427" y="330.052" width="0.466633" height="0.466633" transform="rotate(8.55519 158.427 330.052)" fill="#051227"/>
<rect x="160.232" y="318.055" width="0.466633" height="0.466633" transform="rotate(8.55519 160.232 318.055)" fill="#051227"/>
<rect x="161.63" y="322.354" width="0.466633" height="0.466633" transform="rotate(8.55519 161.63 322.354)" fill="#051227"/>
<rect x="162.231" y="318.355" width="0.466633" height="0.466633" transform="rotate(8.55519 162.231 318.355)" fill="#051227"/>
<rect x="163.028" y="326.654" width="0.466633" height="0.466633" transform="rotate(8.55519 163.028 326.654)" fill="#051227"/>
<rect x="163.629" y="322.655" width="0.466633" height="0.466633" transform="rotate(8.55519 163.629 322.655)" fill="#051227"/>
<rect x="165.027" y="326.955" width="0.466633" height="0.466633" transform="rotate(8.55519 165.027 326.955)" fill="#051227"/>
<rect x="165.629" y="322.956" width="0.466633" height="0.466633" transform="rotate(8.55519 165.629 322.956)" fill="#051227"/>
<rect x="166.832" y="314.958" width="0.466633" height="0.466633" transform="rotate(8.55519 166.832 314.958)" fill="#051227"/>
<rect x="164.426" y="330.955" width="0.466633" height="0.466633" transform="rotate(8.55519 164.426 330.955)" fill="#051227"/>
<rect x="166.231" y="318.957" width="0.466633" height="0.466633" transform="rotate(8.55519 166.231 318.957)" fill="#051227"/>
<rect x="167.027" y="327.256" width="0.466633" height="0.466633" transform="rotate(8.55519 167.027 327.256)" fill="#051227"/>
<rect x="167.629" y="323.257" width="0.466633" height="0.466633" transform="rotate(8.55519 167.629 323.257)" fill="#051227"/>
<rect x="168.832" y="315.258" width="0.466633" height="0.466633" transform="rotate(8.55519 168.832 315.258)" fill="#051227"/>
<rect x="166.425" y="331.255" width="0.466633" height="0.466633" transform="rotate(8.55519 166.425 331.255)" fill="#051227"/>
<rect x="168.23" y="319.258" width="0.466633" height="0.466633" transform="rotate(8.55519 168.23 319.258)" fill="#051227"/>
<rect x="169.027" y="327.557" width="0.466633" height="0.466633" transform="rotate(8.55519 169.027 327.557)" fill="#051227"/>
<rect x="169.628" y="323.558" width="0.466633" height="0.466633" transform="rotate(8.55519 169.628 323.558)" fill="#051227"/>
<rect x="170.831" y="315.559" width="0.466633" height="0.466633" transform="rotate(8.55519 170.831 315.559)" fill="#051227"/>
<rect x="168.425" y="331.556" width="0.466633" height="0.466633" transform="rotate(8.55519 168.425 331.556)" fill="#051227"/>
<rect x="170.23" y="319.559" width="0.466633" height="0.466633" transform="rotate(8.55519 170.23 319.559)" fill="#051227"/>
<path opacity="0.2" d="M145.026 332.863L91.7102 376.622L143.804 331.354L145.026 332.863Z" fill="#070707"/>
<path opacity="0.2" d="M176.857 337.39L194.461 366.131L177.791 336.527L176.857 337.39Z" fill="#070707"/>
</g>
<path d="M341 89.7848L137.471 0L87.127 114.123L290.656 203.908L341 89.7848Z" fill="#FF244C"/>
<path d="M232.807 55.6377L87.1589 114.199L290.721 204.016L232.807 55.6377Z" fill="#FF244C"/>
<path opacity="0.2" d="M338.145 88.547L137.528 0.0229492L202.7 125.911L338.145 88.547Z" fill="#070707"/>
<path d="M338.145 88.547L137.528 0.0229492L206.867 114.486L338.145 88.547Z" fill="white"/>
<rect x="213.282" y="71.6641" width="0.940415" height="0.940415" transform="rotate(23.6533 213.282 71.6641)" fill="#051227"/>
<rect x="216.552" y="64.1982" width="0.940415" height="0.940415" transform="rotate(23.6533 216.552 64.1982)" fill="#051227"/>
<rect x="210.012" y="79.1294" width="0.940415" height="0.940415" transform="rotate(23.6533 210.012 79.1294)" fill="#051227"/>
<rect x="219.822" y="56.7329" width="0.940415" height="0.940415" transform="rotate(23.6533 219.822 56.7329)" fill="#051227"/>
<rect x="217.015" y="73.2988" width="0.940415" height="0.940415" transform="rotate(23.6533 217.015 73.2988)" fill="#051227"/>
<rect x="220.285" y="65.833" width="0.940415" height="0.940415" transform="rotate(23.6533 220.285 65.833)" fill="#051227"/>
<rect x="213.745" y="80.7646" width="0.940415" height="0.940415" transform="rotate(23.6533 213.745 80.7646)" fill="#051227"/>
<rect x="223.555" y="58.3677" width="0.940415" height="0.940415" transform="rotate(23.6533 223.555 58.3677)" fill="#051227"/>
<rect x="220.748" y="74.9341" width="0.940415" height="0.940415" transform="rotate(23.6533 220.748 74.9341)" fill="#051227"/>
<rect x="224.018" y="67.4683" width="0.940415" height="0.940415" transform="rotate(23.6533 224.018 67.4683)" fill="#051227"/>
<rect x="217.478" y="82.3994" width="0.940415" height="0.940415" transform="rotate(23.6533 217.478 82.3994)" fill="#051227"/>
<rect x="227.288" y="60.0024" width="0.940415" height="0.940415" transform="rotate(23.6533 227.288 60.0024)" fill="#051227"/>
<rect x="224.481" y="76.5688" width="0.940415" height="0.940415" transform="rotate(23.6533 224.481 76.5688)" fill="#051227"/>
<rect x="227.751" y="69.103" width="0.940415" height="0.940415" transform="rotate(23.6533 227.751 69.103)" fill="#051227"/>
<rect x="228.213" y="78.2036" width="0.940415" height="0.940415" transform="rotate(23.6533 228.213 78.2036)" fill="#051227"/>
<rect x="231.483" y="70.7383" width="0.940415" height="0.940415" transform="rotate(23.6533 231.483 70.7383)" fill="#051227"/>
<rect x="231.946" y="79.8389" width="0.940415" height="0.940415" transform="rotate(23.6533 231.946 79.8389)" fill="#051227"/>
<rect x="235.216" y="72.373" width="0.940415" height="0.940415" transform="rotate(23.6533 235.216 72.373)" fill="#051227"/>
<rect x="228.676" y="87.3042" width="0.940415" height="0.940415" transform="rotate(23.6533 228.676 87.3042)" fill="#051227"/>
<rect x="238.486" y="64.9077" width="0.940415" height="0.940415" transform="rotate(23.6533 238.486 64.9077)" fill="#051227"/>
<rect x="235.679" y="81.4736" width="0.940415" height="0.940415" transform="rotate(23.6533 235.679 81.4736)" fill="#051227"/>
<rect x="238.949" y="74.0078" width="0.940415" height="0.940415" transform="rotate(23.6533 238.949 74.0078)" fill="#051227"/>
<rect x="232.409" y="88.9395" width="0.940415" height="0.940415" transform="rotate(23.6533 232.409 88.9395)" fill="#051227"/>
<rect x="242.219" y="66.5425" width="0.940415" height="0.940415" transform="rotate(23.6533 242.219 66.5425)" fill="#051227"/>
<rect x="239.412" y="83.1084" width="0.940415" height="0.940415" transform="rotate(23.6533 239.412 83.1084)" fill="#051227"/>
<rect x="242.682" y="75.6431" width="0.940415" height="0.940415" transform="rotate(23.6533 242.682 75.6431)" fill="#051227"/>
<rect x="236.142" y="90.5742" width="0.940415" height="0.940415" transform="rotate(23.6533 236.142 90.5742)" fill="#051227"/>
<rect x="245.951" y="68.1772" width="0.940415" height="0.940415" transform="rotate(23.6533 245.951 68.1772)" fill="#051227"/>
<rect x="211.647" y="75.3965" width="0.940415" height="0.940415" transform="rotate(23.6533 211.647 75.3965)" fill="#051227"/>
<rect x="214.917" y="67.9312" width="0.940415" height="0.940415" transform="rotate(23.6533 214.917 67.9312)" fill="#051227"/>
<rect x="221.457" y="53.0005" width="0.940415" height="0.940415" transform="rotate(23.6533 221.457 53.0005)" fill="#051227"/>
<rect x="208.377" y="82.8623" width="0.940415" height="0.940415" transform="rotate(23.6533 208.377 82.8623)" fill="#051227"/>
<rect x="218.187" y="60.4658" width="0.940415" height="0.940415" transform="rotate(23.6533 218.187 60.4658)" fill="#051227"/>
<rect x="215.38" y="77.0317" width="0.940415" height="0.940415" transform="rotate(23.6533 215.38 77.0317)" fill="#051227"/>
<rect x="218.65" y="69.5659" width="0.940415" height="0.940415" transform="rotate(23.6533 218.65 69.5659)" fill="#051227"/>
<rect x="225.19" y="54.6348" width="0.940415" height="0.940415" transform="rotate(23.6533 225.19 54.6348)" fill="#051227"/>
<rect x="212.11" y="84.4971" width="0.940415" height="0.940415" transform="rotate(23.6533 212.11 84.4971)" fill="#051227"/>
<rect x="221.92" y="62.1006" width="0.940415" height="0.940415" transform="rotate(23.6533 221.92 62.1006)" fill="#051227"/>
<rect x="219.113" y="78.6665" width="0.940415" height="0.940415" transform="rotate(23.6533 219.113 78.6665)" fill="#051227"/>
<rect x="222.383" y="71.2012" width="0.940415" height="0.940415" transform="rotate(23.6533 222.383 71.2012)" fill="#051227"/>
<rect x="228.923" y="56.27" width="0.940415" height="0.940415" transform="rotate(23.6533 228.923 56.27)" fill="#051227"/>
<rect x="215.843" y="86.1323" width="0.940415" height="0.940415" transform="rotate(23.6533 215.843 86.1323)" fill="#051227"/>
<rect x="225.653" y="63.7354" width="0.940415" height="0.940415" transform="rotate(23.6533 225.653 63.7354)" fill="#051227"/>
<rect x="226.116" y="72.8359" width="0.940415" height="0.940415" transform="rotate(23.6533 226.116 72.8359)" fill="#051227"/>
<rect x="229.385" y="65.3706" width="0.940415" height="0.940415" transform="rotate(23.6533 229.385 65.3706)" fill="#051227"/>
<rect x="226.578" y="81.9365" width="0.940415" height="0.940415" transform="rotate(23.6533 226.578 81.9365)" fill="#051227"/>
<rect x="229.848" y="74.4707" width="0.940415" height="0.940415" transform="rotate(23.6533 229.848 74.4707)" fill="#051227"/>
<rect x="230.311" y="83.5713" width="0.940415" height="0.940415" transform="rotate(23.6533 230.311 83.5713)" fill="#051227"/>
<rect x="233.581" y="76.106" width="0.940415" height="0.940415" transform="rotate(23.6533 233.581 76.106)" fill="#051227"/>
<rect x="240.121" y="61.1748" width="0.940415" height="0.940415" transform="rotate(23.6533 240.121 61.1748)" fill="#051227"/>
<rect x="227.041" y="91.0371" width="0.940415" height="0.940415" transform="rotate(23.6533 227.041 91.0371)" fill="#051227"/>
<rect x="236.851" y="68.6406" width="0.940415" height="0.940415" transform="rotate(23.6533 236.851 68.6406)" fill="#051227"/>
<rect x="234.044" y="85.2065" width="0.940415" height="0.940415" transform="rotate(23.6533 234.044 85.2065)" fill="#051227"/>
<rect x="237.314" y="77.7407" width="0.940415" height="0.940415" transform="rotate(23.6533 237.314 77.7407)" fill="#051227"/>
<rect x="243.854" y="62.8096" width="0.940415" height="0.940415" transform="rotate(23.6533 243.854 62.8096)" fill="#051227"/>
<rect x="230.774" y="92.6719" width="0.940415" height="0.940415" transform="rotate(23.6533 230.774 92.6719)" fill="#051227"/>
<rect x="240.584" y="70.2754" width="0.940415" height="0.940415" transform="rotate(23.6533 240.584 70.2754)" fill="#051227"/>
<rect x="237.777" y="86.8413" width="0.940415" height="0.940415" transform="rotate(23.6533 237.777 86.8413)" fill="#051227"/>
<rect x="241.047" y="79.376" width="0.940415" height="0.940415" transform="rotate(23.6533 241.047 79.376)" fill="#051227"/>
<rect x="247.586" y="64.4448" width="0.940415" height="0.940415" transform="rotate(23.6533 247.586 64.4448)" fill="#051227"/>
<rect x="234.507" y="94.3071" width="0.940415" height="0.940415" transform="rotate(23.6533 234.507 94.3071)" fill="#051227"/>
<rect x="244.316" y="71.9102" width="0.940415" height="0.940415" transform="rotate(23.6533 244.316 71.9102)" fill="#051227"/>
<path opacity="0.2" d="M179.348 80.8588L87.1589 114.199L177.767 77.769L179.348 80.8588Z" fill="#070707"/>
<path opacity="0.2" d="M250.986 112.474L290.721 204.016L254.435 111.54L250.986 112.474Z" fill="#070707"/>
<path d="M158.582 255.895L10.4907 270.625L0 165.144L151.612 179.874L158.582 255.895Z" fill="#FF244C"/>
<path d="M87.8774 182.46L10.4907 270.625L158.582 255.895L87.8774 182.46Z" fill="#FF244C"/>
<path opacity="0.2" d="M150.031 179.658L0 165.144L93.6257 236.71L150.031 179.658Z" fill="#070707"/>
<path d="M150.031 179.658L0 165.144L92.2605 228.159L150.031 179.658Z" fill="white"/>
<rect x="79.595" y="200.878" width="0.64757" height="0.64757" transform="rotate(-2.42955 79.595 200.878)" fill="#051227"/>
<rect x="79.3569" y="195.271" width="0.64757" height="0.64757" transform="rotate(-2.42955 79.3569 195.271)" fill="#051227"/>
<rect x="79.833" y="206.486" width="0.64757" height="0.64757" transform="rotate(-2.42955 79.833 206.486)" fill="#051227"/>
<rect x="79.1191" y="189.664" width="0.64757" height="0.64757" transform="rotate(-2.42955 79.1191 189.664)" fill="#051227"/>
<rect x="82.3984" y="200.76" width="0.64757" height="0.64757" transform="rotate(-2.42955 82.3984 200.76)" fill="#051227"/>
<rect x="82.1606" y="195.152" width="0.64757" height="0.64757" transform="rotate(-2.42955 82.1606 195.152)" fill="#051227"/>
<rect x="82.6365" y="206.367" width="0.64757" height="0.64757" transform="rotate(-2.42955 82.6365 206.367)" fill="#051227"/>
<rect x="81.9229" y="189.545" width="0.64757" height="0.64757" transform="rotate(-2.42955 81.9229 189.545)" fill="#051227"/>
<rect x="85.2021" y="200.641" width="0.64757" height="0.64757" transform="rotate(-2.42955 85.2021 200.641)" fill="#051227"/>
<rect x="84.9644" y="195.033" width="0.64757" height="0.64757" transform="rotate(-2.42955 84.9644 195.033)" fill="#051227"/>
<rect x="85.4399" y="206.248" width="0.64757" height="0.64757" transform="rotate(-2.42955 85.4399 206.248)" fill="#051227"/>
<rect x="84.7266" y="189.426" width="0.64757" height="0.64757" transform="rotate(-2.42955 84.7266 189.426)" fill="#051227"/>
<rect x="88.0059" y="200.522" width="0.64757" height="0.64757" transform="rotate(-2.42955 88.0059 200.522)" fill="#051227"/>
<rect x="87.7678" y="194.915" width="0.64757" height="0.64757" transform="rotate(-2.42955 87.7678 194.915)" fill="#051227"/>
<rect x="90.8093" y="200.403" width="0.64757" height="0.64757" transform="rotate(-2.42955 90.8093 200.403)" fill="#051227"/>
<rect x="90.5715" y="194.795" width="0.64757" height="0.64757" transform="rotate(-2.42955 90.5715 194.795)" fill="#051227"/>
<rect x="93.613" y="200.284" width="0.64757" height="0.64757" transform="rotate(-2.42955 93.613 200.284)" fill="#051227"/>
<rect x="93.3752" y="194.676" width="0.64757" height="0.64757" transform="rotate(-2.42955 93.3752 194.676)" fill="#051227"/>
<rect x="93.8511" y="205.891" width="0.64757" height="0.64757" transform="rotate(-2.42955 93.8511 205.891)" fill="#051227"/>
<rect x="93.1375" y="189.069" width="0.64757" height="0.64757" transform="rotate(-2.42955 93.1375 189.069)" fill="#051227"/>
<rect x="96.4167" y="200.165" width="0.64757" height="0.64757" transform="rotate(-2.42955 96.4167 200.165)" fill="#051227"/>
<rect x="96.1787" y="194.558" width="0.64757" height="0.64757" transform="rotate(-2.42955 96.1787 194.558)" fill="#051227"/>
<rect x="96.6548" y="205.772" width="0.64757" height="0.64757" transform="rotate(-2.42955 96.6548 205.772)" fill="#051227"/>
<rect x="95.9409" y="188.95" width="0.64757" height="0.64757" transform="rotate(-2.42955 95.9409 188.95)" fill="#051227"/>
<rect x="99.2202" y="200.046" width="0.64757" height="0.64757" transform="rotate(-2.42955 99.2202 200.046)" fill="#051227"/>
<rect x="98.9824" y="194.438" width="0.64757" height="0.64757" transform="rotate(-2.42955 98.9824 194.438)" fill="#051227"/>
<rect x="99.4583" y="205.653" width="0.64757" height="0.64757" transform="rotate(-2.42955 99.4583 205.653)" fill="#051227"/>
<rect x="98.7444" y="188.832" width="0.64757" height="0.64757" transform="rotate(-2.42955 98.7444 188.832)" fill="#051227"/>
<rect x="79.7141" y="203.682" width="0.64757" height="0.64757" transform="rotate(-2.42955 79.7141 203.682)" fill="#051227"/>
<rect x="79.4758" y="198.075" width="0.64757" height="0.64757" transform="rotate(-2.42955 79.4758 198.075)" fill="#051227"/>
<rect x="79.0002" y="186.861" width="0.64757" height="0.64757" transform="rotate(-2.42955 79.0002 186.861)" fill="#051227"/>
<rect x="79.9519" y="209.29" width="0.64757" height="0.64757" transform="rotate(-2.42955 79.9519 209.29)" fill="#051227"/>
<rect x="79.238" y="192.468" width="0.64757" height="0.64757" transform="rotate(-2.42955 79.238 192.468)" fill="#051227"/>
<rect x="82.5173" y="203.563" width="0.64757" height="0.64757" transform="rotate(-2.42955 82.5173 203.563)" fill="#051227"/>
<rect x="82.2795" y="197.956" width="0.64757" height="0.64757" transform="rotate(-2.42955 82.2795 197.956)" fill="#051227"/>
<rect x="81.8037" y="186.742" width="0.64757" height="0.64757" transform="rotate(-2.42955 81.8037 186.742)" fill="#051227"/>
<rect x="82.7556" y="209.17" width="0.64757" height="0.64757" transform="rotate(-2.42955 82.7556 209.17)" fill="#051227"/>
<rect x="82.0417" y="192.349" width="0.64757" height="0.64757" transform="rotate(-2.42955 82.0417 192.349)" fill="#051227"/>
<rect x="85.321" y="203.444" width="0.64757" height="0.64757" transform="rotate(-2.42955 85.321 203.444)" fill="#051227"/>
<rect x="85.0835" y="197.837" width="0.64757" height="0.64757" transform="rotate(-2.42955 85.0835 197.837)" fill="#051227"/>
<rect x="84.6074" y="186.623" width="0.64757" height="0.64757" transform="rotate(-2.42955 84.6074 186.623)" fill="#051227"/>
<rect x="85.5591" y="209.052" width="0.64757" height="0.64757" transform="rotate(-2.42955 85.5591 209.052)" fill="#051227"/>
<rect x="84.8455" y="192.23" width="0.64757" height="0.64757" transform="rotate(-2.42955 84.8455 192.23)" fill="#051227"/>
<rect x="87.8872" y="197.718" width="0.64757" height="0.64757" transform="rotate(-2.42955 87.8872 197.718)" fill="#051227"/>
<rect x="87.6489" y="192.111" width="0.64757" height="0.64757" transform="rotate(-2.42955 87.6489 192.111)" fill="#051227"/>
<rect x="90.9287" y="203.207" width="0.64757" height="0.64757" transform="rotate(-2.42955 90.9287 203.207)" fill="#051227"/>
<rect x="90.6904" y="197.599" width="0.64757" height="0.64757" transform="rotate(-2.42955 90.6904 197.599)" fill="#051227"/>
<rect x="93.7319" y="203.087" width="0.64757" height="0.64757" transform="rotate(-2.42955 93.7319 203.087)" fill="#051227"/>
<rect x="93.4941" y="197.48" width="0.64757" height="0.64757" transform="rotate(-2.42955 93.4941 197.48)" fill="#051227"/>
<rect x="93.0183" y="186.266" width="0.64757" height="0.64757" transform="rotate(-2.42955 93.0183 186.266)" fill="#051227"/>
<rect x="93.9697" y="208.695" width="0.64757" height="0.64757" transform="rotate(-2.42955 93.9697 208.695)" fill="#051227"/>
<rect x="93.2563" y="191.873" width="0.64757" height="0.64757" transform="rotate(-2.42955 93.2563 191.873)" fill="#051227"/>
<rect x="96.5356" y="202.968" width="0.64757" height="0.64757" transform="rotate(-2.42955 96.5356 202.968)" fill="#051227"/>
<rect x="96.2979" y="197.361" width="0.64757" height="0.64757" transform="rotate(-2.42955 96.2979 197.361)" fill="#051227"/>
<rect x="95.822" y="186.147" width="0.64757" height="0.64757" transform="rotate(-2.42955 95.822 186.147)" fill="#051227"/>
<rect x="96.7737" y="208.576" width="0.64757" height="0.64757" transform="rotate(-2.42955 96.7737 208.576)" fill="#051227"/>
<rect x="96.0598" y="191.754" width="0.64757" height="0.64757" transform="rotate(-2.42955 96.0598 191.754)" fill="#051227"/>
<rect x="99.3394" y="202.85" width="0.64757" height="0.64757" transform="rotate(-2.42955 99.3394 202.85)" fill="#051227"/>
<rect x="99.1013" y="197.242" width="0.64757" height="0.64757" transform="rotate(-2.42955 99.1013 197.242)" fill="#051227"/>
<rect x="98.6255" y="186.028" width="0.64757" height="0.64757" transform="rotate(-2.42955 98.6255 186.028)" fill="#051227"/>
<rect x="99.5771" y="208.457" width="0.64757" height="0.64757" transform="rotate(-2.42955 99.5771 208.457)" fill="#051227"/>
<rect x="98.8635" y="191.635" width="0.64757" height="0.64757" transform="rotate(-2.42955 98.8635 191.635)" fill="#051227"/>
<path opacity="0.2" d="M63.8782 214.004L10.4907 270.625L61.6507 212.28L63.8782 214.004Z" fill="#070707"/>
<path opacity="0.2" d="M115.613 214.363L158.582 255.895L117.05 212.926L115.613 214.363Z" fill="#070707"/>
</svg>
