<svg width="381" height="299" viewBox="0 0 381 299" fill="none" xmlns="http://www.w3.org/2000/svg">
   <path d="M190.1 292C270.734 292 336.1 226.634 336.1 146C336.1 65.3664 270.734 0 190.1 0C109.466 0 44.1 65.3664 44.1 146C44.1 226.634 109.466 292 190.1 292Z" fill="#051227"/>
   <path d="M310.198 57.1231L309.615 57.8093L310.301 58.3917L310.884 57.7055L310.198 57.1231Z" fill="white"/>
   <path d="M303.973 51.8216L303.391 52.5078L304.077 53.0901L304.659 52.404L303.973 51.8216Z" fill="white"/>
   <path d="M316.422 62.4247L315.84 63.1109L316.526 63.6933L317.109 63.0071L316.422 62.4247Z" fill="white"/>
   <path d="M297.749 46.5209L297.166 47.207L297.852 47.7894L298.435 47.1033L297.749 46.5209Z" fill="white"/>
   <path d="M312.816 54.049L312.234 54.7352L312.92 55.3176L313.502 54.6314L312.816 54.049Z" fill="white"/>
   <path d="M306.591 48.7473L306.009 49.4335L306.695 50.0159L307.278 49.3297L306.591 48.7473Z" fill="white"/>
   <path d="M319.041 59.3506L318.458 60.0367L319.144 60.6191L319.727 59.9329L319.041 59.3506Z" fill="white"/>
   <path d="M300.367 43.4466L299.785 44.1328L300.471 44.7151L301.053 44.029L300.367 43.4466Z" fill="white"/>
   <path d="M315.499 50.8985L314.917 51.5847L315.603 52.167L316.185 51.4809L315.499 50.8985Z" fill="white"/>
   <path d="M309.21 45.6732L308.627 46.3594L309.313 46.9418L309.896 46.2556L309.21 45.6732Z" fill="white"/>
   <path d="M321.648 56.1354L321.065 56.8215L321.751 57.4039L322.334 56.7177L321.648 56.1354Z" fill="white"/>
   <path d="M302.985 40.3723L302.403 41.0585L303.089 41.6409L303.672 40.9547L302.985 40.3723Z" fill="white"/>
   <path d="M318.117 47.8243L317.535 48.5104L318.221 49.0928L318.804 48.4066L318.117 47.8243Z" fill="white"/>
   <path d="M311.893 42.5234L311.311 43.2096L311.997 43.792L312.579 43.1058L311.893 42.5234Z" fill="white"/>
   <path d="M320.736 44.7501L320.153 45.4363L320.839 46.0187L321.422 45.3325L320.736 44.7501Z" fill="white"/>
   <path d="M314.511 39.4493L313.929 40.1354L314.615 40.7178L315.198 40.0316L314.511 39.4493Z" fill="white"/>
   <path d="M323.343 41.5349L322.76 42.2211L323.446 42.8035L324.029 42.1173L323.343 41.5349Z" fill="white"/>
   <path d="M317.194 36.2981L316.612 36.9843L317.298 37.5666L317.88 36.8805L317.194 36.2981Z" fill="white"/>
   <path d="M329.567 46.8365L328.985 47.5226L329.671 48.105L330.253 47.4188L329.567 46.8365Z" fill="white"/>
   <path d="M310.905 31.0735L310.323 31.7596L311.009 32.342L311.591 31.6558L310.905 31.0735Z" fill="white"/>
   <path d="M325.961 38.4615L325.379 39.1476L326.065 39.73L326.647 39.0438L325.961 38.4615Z" fill="white"/>
   <path d="M319.813 33.2245L319.23 33.9107L319.917 34.4931L320.499 33.8069L319.813 33.2245Z" fill="white"/>
   <path d="M332.186 43.7622L331.603 44.4484L332.289 45.0308L332.872 44.3446L332.186 43.7622Z" fill="white"/>
   <path d="M313.588 27.9231L313.006 28.6092L313.692 29.1916L314.274 28.5055L313.588 27.9231Z" fill="white"/>
   <path d="M328.579 35.3865L327.997 36.0727L328.683 36.6551L329.265 35.9689L328.579 35.3865Z" fill="white"/>
   <path d="M322.431 30.1504L321.849 30.8365L322.535 31.4189L323.117 30.7328L322.431 30.1504Z" fill="white"/>
   <path d="M334.869 40.6118L334.286 41.298L334.972 41.8804L335.555 41.1942L334.869 40.6118Z" fill="white"/>
   <path d="M316.206 24.8488L315.624 25.535L316.31 26.1174L316.893 25.4312L316.206 24.8488Z" fill="white"/>
   <path d="M313.272 59.7416L312.69 60.4277L313.376 61.0101L313.958 60.324L313.272 59.7416Z" fill="white"/>
   <path d="M307.047 54.44L306.465 55.1262L307.151 55.7086L307.733 55.0224L307.047 54.44Z" fill="white"/>
   <path d="M294.674 43.9024L294.092 44.5886L294.778 45.171L295.36 44.4848L294.674 43.9024Z" fill="white"/>
   <path d="M319.497 65.0431L318.914 65.7293L319.6 66.3117L320.183 65.6255L319.497 65.0431Z" fill="white"/>
   <path d="M300.899 49.204L300.317 49.8901L301.003 50.4725L301.585 49.7864L300.899 49.204Z" fill="white"/>
   <path d="M315.89 56.6674L315.308 57.3536L315.994 57.936L316.576 57.2498L315.89 56.6674Z" fill="white"/>
   <path d="M309.666 51.3659L309.083 52.052L309.769 52.6344L310.352 51.9482L309.666 51.3659Z" fill="white"/>
   <path d="M297.293 40.8282L296.71 41.5143L297.396 42.0967L297.979 41.4106L297.293 40.8282Z" fill="white"/>
   <path d="M322.115 61.969L321.532 62.6551L322.219 63.2375L322.801 62.5514L322.115 61.969Z" fill="white"/>
   <path d="M303.517 46.1298L302.935 46.816L303.621 47.3984L304.203 46.7122L303.517 46.1298Z" fill="white"/>
   <path d="M318.573 53.5168L317.991 54.203L318.677 54.7854L319.26 54.0992L318.573 53.5168Z" fill="white"/>
   <path d="M312.349 48.2154L311.766 48.9016L312.452 49.4839L313.035 48.7978L312.349 48.2154Z" fill="white"/>
   <path d="M299.911 37.7539L299.329 38.4401L300.015 39.0225L300.597 38.3363L299.911 37.7539Z" fill="white"/>
   <path d="M324.798 58.8185L324.216 59.5046L324.902 60.087L325.484 59.4009L324.798 58.8185Z" fill="white"/>
   <path d="M306.136 43.0556L305.553 43.7417L306.24 44.3241L306.822 43.638L306.136 43.0556Z" fill="white"/>
   <path d="M314.967 45.1411L314.385 45.8273L315.071 46.4097L315.653 45.7235L314.967 45.1411Z" fill="white"/>
   <path d="M308.819 39.9051L308.236 40.5912L308.923 41.1736L309.505 40.4875L308.819 39.9051Z" fill="white"/>
   <path d="M323.81 47.3684L323.228 48.0546L323.914 48.637L324.496 47.9508L323.81 47.3684Z" fill="white"/>
   <path d="M317.585 42.0669L317.003 42.753L317.689 43.3354L318.272 42.6493L317.585 42.0669Z" fill="white"/>
   <path d="M326.493 44.2181L325.911 44.9042L326.597 45.4866L327.179 44.8004L326.493 44.2181Z" fill="white"/>
   <path d="M320.268 38.9165L319.686 39.6027L320.372 40.1851L320.954 39.4989L320.268 38.9165Z" fill="white"/>
   <path d="M307.831 28.455L307.248 29.1412L307.935 29.7236L308.517 29.0374L307.831 28.455Z" fill="white"/>
   <path d="M332.718 49.5196L332.135 50.2058L332.821 50.7882L333.404 50.102L332.718 49.5196Z" fill="white"/>
   <path d="M314.044 33.6157L313.462 34.3019L314.148 34.8843L314.73 34.1981L314.044 33.6157Z" fill="white"/>
   <path d="M329.111 41.1438L328.529 41.83L329.215 42.4123L329.798 41.7262L329.111 41.1438Z" fill="white"/>
   <path d="M322.887 35.8431L322.305 36.5292L322.991 37.1116L323.573 36.4254L322.887 35.8431Z" fill="white"/>
   <path d="M310.514 25.3046L309.932 25.9907L310.618 26.5731L311.2 25.887L310.514 25.3046Z" fill="white"/>
   <path d="M335.336 46.4453L334.754 47.1315L335.44 47.7139L336.022 47.0277L335.336 46.4453Z" fill="white"/>
   <path d="M316.662 30.5415L316.08 31.2277L316.766 31.8101L317.349 31.1239L316.662 30.5415Z" fill="white"/>
   <path d="M331.794 37.9934L331.212 38.6796L331.898 39.262L332.481 38.5758L331.794 37.9934Z" fill="white"/>
   <path d="M325.505 32.7681L324.923 33.4543L325.609 34.0366L326.191 33.3505L325.505 32.7681Z" fill="white"/>
   <path d="M313.056 22.1657L312.474 22.8518L313.16 23.4342L313.742 22.7481L313.056 22.1657Z" fill="white"/>
   <path d="M337.943 43.2302L337.36 43.9164L338.047 44.4988L338.629 43.8126L337.943 43.2302Z" fill="white"/>
   <path d="M319.281 27.4673L318.698 28.1535L319.384 28.7359L319.967 28.0497L319.281 27.4673Z" fill="white"/>
   <path d="M380.2 32.3H0V207.1H380.2V32.3Z" fill="#FF244C"/>
   <path d="M221.9 188.4L94.1 298.6L116.3 188.4H135.5L123.4 248.5L193.1 188.4H221.9Z" fill="#FF244C"/>
   <path d="M361.3 51.1V188.4H193.1L123.4 248.5L135.5 188.4H18.8V51.1H361.3Z" fill="white"/>
   <path d="M62.8 137.5V100.9H88.7V107.8H70.6V115.5H88.3V122.4H70.6V137.6H62.8V137.5Z" fill="#051227"/>
   <path d="M93.2 133.6C93.2 131.2 95.2 129.1 97.6 129.1C100 129.1 102.1 131.1 102.1 133.6C102.1 136 100.1 138 97.6 138C95.1 138 93.2 136 93.2 133.6ZM94.5 125.5L93.3 100.8H101.7L100.6 125.5H94.5Z" fill="#051227"/>
   <path d="M107.2 133.6C107.2 131.2 109.2 129.1 111.6 129.1C114 129.1 116.1 131.1 116.1 133.6C116.1 136 114.1 138 111.6 138C109.1 138 107.2 136 107.2 133.6ZM108.6 125.5L107.4 100.8H115.8L114.7 125.5H108.6Z" fill="#051227"/>
   <path d="M120.5 119.2C120.5 107.9 129 100.2 140 100.2C148.1 100.2 152.7 104.6 155.3 109.2L148.6 112.5C147.1 109.5 143.8 107.2 140 107.2C133.4 107.2 128.5 112.3 128.5 119.2C128.5 126.1 133.3 131.2 140 131.2C143.8 131.2 147.1 128.9 148.6 125.9L155.3 129.1C152.7 133.7 148 138.1 140 138.1C129.1 138.1 120.5 130.4 120.5 119.2Z" fill="#051227"/>
   <path d="M181.8 137.5L170.7 122.8L167.8 126.2V137.5H160V100.9H167.8V117.3L180.8 100.9H190.4L175.9 118L191.4 137.5H181.8Z" fill="#051227"/>
   <path d="M219.3 137.5V122.5L205.2 100.9H214.1L223.2 115.6L232.2 100.9H241.1L227.1 122.5V137.5H219.3Z" fill="#051227"/>
   <path d="M240.5 119.2C240.5 108.2 248.6 100.2 259.6 100.2C270.7 100.2 278.8 108.1 278.8 119.2C278.8 130.3 270.7 138.2 259.6 138.2C248.6 138.1 240.5 130.2 240.5 119.2ZM270.8 119.2C270.8 112.3 266.4 107.2 259.6 107.2C252.8 107.2 248.5 112.4 248.5 119.2C248.5 126 252.8 131.2 259.6 131.2C266.4 131.2 270.8 126 270.8 119.2Z" fill="#051227"/>
   <path d="M284.3 122.8V100.8H292.2V122.6C292.2 127.7 295.2 131.2 300.8 131.2C306.4 131.2 309.4 127.7 309.4 122.6V100.8H317.4V122.8C317.4 131.9 312 138.1 300.9 138.1C289.8 138.1 284.3 131.9 284.3 122.8Z" fill="#051227"/>
</svg>