<?xml version="1.0" encoding="UTF-8"?> <svg xmlns="http://www.w3.org/2000/svg" width="25.77" height="31.98" viewBox="0 0 25.77 31.98"><title>mac-purple</title><g id="eeeec555-ba81-4ba7-811b-128a79c38195" data-name="Слой 2"><g id="c091580a-207d-4ef0-b51e-b2f08a1f660d" data-name="Слой 1"><path d="M15,3.56h0a5.87,5.87,0,0,1,2.78-2.08l.38-.12c0,.09,0,.19,0,.29a6.25,6.25,0,0,1-1.37,3,5.08,5.08,0,0,1-2.66,1.78l-.31.07q0-.1,0-.21A5.83,5.83,0,0,1,15,3.56Z" style="fill:none;stroke:#fe38ff;stroke-width:2px"></path><path d="M24.52,24l-.19.45a25.25,25.25,0,0,1-1.4,2.78,12.25,12.25,0,0,1-2,2.67,3.2,3.2,0,0,1-2.1,1,6.21,6.21,0,0,1-2.22-.57h0a8.16,8.16,0,0,0-3-.7,9.74,9.74,0,0,0-3.23.7l-.32.12c-.33.12-.62.22-.9.31a2.88,2.88,0,0,1-.78.16h0a3.49,3.49,0,0,1-2.19-1.07,13,13,0,0,1-2.49-3.19A19.26,19.26,0,0,1,1,17.6C1,11.7,4.57,9,7.61,9h0a7.25,7.25,0,0,1,2.78.61l.42.16.89.34a4.33,4.33,0,0,0,1.38.28,3.92,3.92,0,0,0,1.31-.3l.74-.29.56-.22a8.34,8.34,0,0,1,3-.68,6.39,6.39,0,0,1,4.13,1.38,5.87,5.87,0,0,1,.62.58,8.23,8.23,0,0,0-1,1,7.8,7.8,0,0,0-2,5.27,7.79,7.79,0,0,0,2.45,5.77A8.93,8.93,0,0,0,24.52,24Z" style="fill:none;stroke:#fe38ff;stroke-width:2px"></path></g></g></svg> 