<?xml version="1.0" encoding="UTF-8"?> <svg xmlns="http://www.w3.org/2000/svg" width="53" height="44" viewBox="0 0 53 44"><path fill-rule="evenodd" clip-rule="evenodd" d="M49.1415 24.1061L49.3106 24.0857C51.7418 23.6786 53.3485 21.4593 52.9257 19.1179L52.8834 18.8736L52.6297 18.9347C51.5515 19.1179 50.6213 19.6677 49.966 20.421C50.0717 19.7084 50.1351 18.9958 50.1562 18.2832L50.2408 18.2425C52.3337 17.4077 53.3485 15.0867 52.4817 13.0711L52.3972 12.8675L52.1858 12.9489C51.1921 13.3357 50.4522 14.0687 50.0294 14.9238C49.9448 14.1705 49.818 13.4375 49.6489 12.7046C51.2556 11.6255 51.6784 9.52846 50.6002 7.94039L50.4945 7.77751L50.3254 7.87931C49.5643 8.36795 49.0569 9.1009 48.8455 9.89493C48.6341 9.3045 48.3804 8.73442 48.1267 8.16435L48.169 8.12363C49.4797 6.8206 49.4375 4.72353 48.0633 3.48158L47.9153 3.35942L47.7885 3.50194C47.1331 4.15346 46.816 5.00857 46.8371 5.84333C46.7526 5.72117 46.6892 5.59901 46.6046 5.47685C45.9281 2.78935 44.6596 0.651565 42.1016 0.183289C42.4187 2.91151 45.3361 4.5403 46.52 5.82297C46.5623 5.88405 46.5835 5.94513 46.6257 6.0062C45.8858 5.39541 44.871 5.13073 43.8563 5.37505L43.6872 5.41577L43.7294 5.57865C44.1523 7.18708 45.8435 8.14399 47.4925 7.75715H47.5136C47.5136 7.77751 47.5348 7.77751 47.5348 7.79787C47.7673 8.30687 47.9999 8.83622 48.1901 9.36558C48.2747 9.63026 48.3804 9.87457 48.4438 10.1393C47.8308 9.4063 46.8794 8.93802 45.8224 8.95838H45.6321V9.14162C45.6744 10.8722 47.1754 12.2567 48.9935 12.216H49.0146C49.0358 12.3381 49.0781 12.4603 49.0992 12.5824C49.2472 13.3357 49.374 14.0891 49.4375 14.8627C48.8878 14.0076 47.9787 13.3765 46.8794 13.1932L46.668 13.1525L46.6257 13.3561C46.2875 15.2699 47.5771 17.082 49.522 17.4892C49.5009 18.4257 49.4163 19.3623 49.2683 20.2988C48.8878 19.2808 48.1056 18.4257 46.9851 17.9982L46.7737 17.9167L46.6892 18.1203C45.8858 20.0341 46.7526 22.1923 48.6552 23.0881C48.4016 23.9229 48.1056 24.7576 47.7673 25.5517C47.7039 25.6942 47.6405 25.8367 47.5771 25.9589C47.5348 24.9001 47.0697 23.8618 46.1818 23.1288L46.0126 22.9863L45.8647 23.1492C44.4271 24.7373 44.5751 27.1397 46.1818 28.5649C45.6744 29.3589 45.1247 30.1326 44.5117 30.8452C44.6596 29.8679 44.4271 28.8296 43.814 27.9338L43.6872 27.7302L43.4757 27.8523C41.6154 29.0739 41.0446 31.456 42.1016 33.3291C41.2348 34.1028 40.3046 34.795 39.3322 35.4262C39.8818 34.3471 39.9875 33.0644 39.4801 31.8632L39.3956 31.6392L39.163 31.7207C36.9432 32.5554 35.7805 34.8765 36.4147 37.0346C35.3154 37.5436 34.1949 37.9508 33.0322 38.2969C32.8842 38.3376 32.7574 38.3784 32.6094 38.3987C33.4973 37.5232 34.047 36.322 34.047 34.9986V34.7136H33.751C31.1295 34.7136 28.9732 36.6274 28.6983 39.0706C27.895 39.152 27.0916 39.1724 26.2883 39.1724C25.6118 39.1724 24.9564 39.1317 24.2799 39.0706C24.0051 36.6274 21.8487 34.7136 19.2272 34.7136H18.9313V34.9986C18.9313 36.322 19.4809 37.5029 20.3689 38.3987C20.094 38.3376 19.8192 38.2562 19.5655 38.1748C18.5507 37.8694 17.5571 37.4825 16.5846 37.0346C17.2189 34.8765 16.0561 32.5554 13.8363 31.7207L13.6038 31.6392L13.5192 31.8632C13.033 33.0644 13.1176 34.3267 13.6461 35.4058C13.5827 35.3651 13.5404 35.3244 13.4769 35.304C12.5679 34.7136 11.7223 34.0417 10.8978 33.3291C11.9548 31.456 11.384 29.0943 9.52362 27.8727L9.31221 27.7505L9.18537 27.9541C8.57228 28.8296 8.33973 29.8476 8.46658 30.8249C8.10719 30.4177 7.79007 29.9697 7.47296 29.5218C7.26155 29.1961 7.02901 28.8703 6.83874 28.5446C8.40316 27.1194 8.55114 24.7373 7.13471 23.1492L6.98672 22.9863L6.8176 23.1288C5.92968 23.8618 5.46459 24.8798 5.4223 25.9181C5.3166 25.6738 5.18976 25.4091 5.08405 25.1445C4.80922 24.4522 4.55553 23.76 4.34412 23.0474C6.22565 22.1516 7.09243 19.9934 6.28908 18.0796L6.20451 17.876L5.99311 17.9574C4.89378 18.385 4.11157 19.2197 3.73104 20.2174C3.58305 19.3012 3.51963 18.385 3.47735 17.4484C5.40116 17.0209 6.66961 15.2292 6.33136 13.3357L6.28908 13.1321L6.07767 13.1729C4.99949 13.3561 4.11157 13.9465 3.56191 14.7813C3.64648 13.9058 3.77332 13.0507 3.96359 12.1956C5.76056 12.2363 7.26155 10.8722 7.30383 9.12126V8.93802H7.11357C6.07767 8.91766 5.14747 9.34522 4.53439 10.0578C4.57667 9.95601 4.61895 9.85421 4.64009 9.73206C4.7458 9.46738 4.80922 9.2027 4.93607 8.93802C5.08405 8.53083 5.27432 8.12363 5.46459 7.73679C7.13471 8.14399 8.82597 7.16672 9.22765 5.55829L9.26993 5.39541L9.1008 5.35469C8.10719 5.11037 7.11357 5.37505 6.37364 5.94513C6.37364 5.92477 6.39478 5.92477 6.39478 5.90441C6.43706 5.84333 6.47934 5.78225 6.50048 5.72117C7.74779 4.47922 10.5595 2.87079 10.8766 0.203648C8.31859 0.671925 7.02901 2.85043 6.37364 5.55829C6.31022 5.66009 6.22565 5.78225 6.16223 5.88405C6.18337 5.02893 5.86626 4.17382 5.2109 3.5223L5.06291 3.37978L4.91492 3.50194C3.56191 4.76425 3.49849 6.84096 4.80922 8.14399L4.8515 8.20507C4.57667 8.77514 4.34412 9.36558 4.13272 9.95601C3.92131 9.14162 3.41393 8.40867 2.63172 7.89967L2.46259 7.79787L2.35689 7.96075C1.27871 9.52846 1.70152 11.6662 3.30822 12.725C3.1391 13.4579 3.01225 14.2112 2.92769 14.9645C2.50487 14.0891 1.76494 13.3561 0.771327 12.9489L0.559919 12.8675L0.475356 13.0711C-0.370276 15.1071 0.623342 17.4281 2.73742 18.2628L2.84313 18.3036V18.3646L2.86427 18.7922C2.88541 19.3419 2.94883 19.8916 3.03339 20.4413C2.37803 19.6677 1.44783 19.1179 0.369652 18.9347L0.115962 18.894L0.0736807 19.1383C-0.349135 21.4797 1.27871 23.6989 3.68876 24.1061L3.87903 24.1468C4.02701 24.5947 4.175 25.0223 4.34412 25.4499C4.44983 25.7349 4.57667 26.0199 4.70352 26.305C3.85788 25.8367 2.84313 25.6331 1.80723 25.7756L1.55354 25.8163L1.59582 26.0607C1.95521 28.3613 4.15386 29.9494 6.54277 29.6643C7.05015 30.438 7.62095 31.171 8.21289 31.8836C7.11357 31.5375 5.90854 31.5375 4.76694 32.0261L4.51325 32.1279L4.61895 32.3722C5.67599 34.6932 8.48772 35.7519 10.9189 34.7339L11.0458 34.6729C11.6588 35.1819 12.2931 35.6501 12.9484 36.0981C12.9696 36.1184 13.0119 36.1388 13.033 36.1591C11.9548 36.1388 10.8766 36.4442 9.94643 37.0957L9.71389 37.2586L9.88301 37.4825C11.532 39.6407 14.7031 40.1089 16.9652 38.5209L17.1766 38.3784C18.2971 38.8466 19.4598 39.2131 20.6437 39.5185C19.3964 39.885 18.2548 40.6587 17.5148 41.8192L17.3457 42.0839L17.6205 42.2467C20.242 43.8144 23.6668 43.0408 25.2947 40.5161L25.4638 40.2515L25.4004 40.2107C25.7175 40.2311 26.0346 40.2311 26.3306 40.2311C26.7957 40.2311 27.2396 40.2311 27.7047 40.2107L27.6413 40.2515L27.8104 40.5161C29.4383 43.0408 32.8842 43.8144 35.4845 42.2467L35.7594 42.0839L35.5902 41.8192C34.8503 40.6587 33.7298 39.885 32.4614 39.5185C33.6453 39.2335 34.808 38.8466 35.9285 38.3784L36.1399 38.5209C38.3808 40.1089 41.5519 39.661 43.2221 37.4825L43.3912 37.2586L43.1586 37.0957C42.2284 36.4442 41.1503 36.1388 40.0721 36.1591C40.7486 35.7112 41.4251 35.2022 42.0382 34.6932L42.1439 34.7339C44.5539 35.7519 47.3657 34.6932 48.4438 32.3722L48.5495 32.1279L48.2959 32.0261C47.1754 31.5578 45.9704 31.5375 44.871 31.8836C45.463 31.171 46.0338 30.438 46.5412 29.6643C48.9089 29.929 51.0864 28.341 51.467 26.0607L51.5093 25.8163L51.2556 25.7756C50.2197 25.6127 49.226 25.8367 48.3804 26.2846C48.4438 26.1421 48.5073 25.9996 48.5707 25.8367C48.7398 25.2666 48.9512 24.6965 49.1415 24.1061Z"></path><path d="M41.6363 21.724C41.6363 22.8031 40.8753 24.1468 39.9451 24.7373L28.1485 32.2908C27.2183 32.8812 25.6962 32.8812 24.7871 32.2908L13.0328 24.7373C12.1026 24.1468 11.3416 22.7827 11.3416 21.724V11.0351C11.3416 9.956 12.1026 8.61225 13.0328 8.02182L24.7871 0.447954C25.7173 -0.142482 27.2394 -0.142482 28.1696 0.447954L39.9662 8.00146C40.8964 8.59189 41.6575 9.956 41.6575 11.0147V21.724H41.6363Z"></path><path d="M22.4617 12.9896H30.5375V14.4555H22.4617V12.9896ZM21.4469 15.4124H31.5522V16.8784H21.4469V15.4124ZM20.1785 17.8353H32.7996V19.3012H20.1785V17.8353ZM26.4996 7.39067C31.6579 7.39067 35.8438 11.4219 35.8438 16.3897C35.8438 21.3575 31.6579 25.3888 26.4996 25.3888C21.3412 25.3888 17.1554 21.3575 17.1554 16.3897C17.1554 11.4219 21.3412 7.39067 26.4996 7.39067ZM26.4996 6.65771C20.9184 6.65771 16.3943 11.0147 16.3943 16.3897C16.3943 21.7647 20.9184 26.1217 26.4996 26.1217C32.0808 26.1217 36.6049 21.7647 36.6049 16.3897C36.6049 11.0147 32.0596 6.65771 26.4996 6.65771Z" fill="white"></path><path opacity="0.08" d="M39.9452 8.02178L28.1909 0.427557C27.7469 0.142519 27.1339 0 26.4996 0V32.759C27.1127 32.759 27.7047 32.6165 28.1909 32.3314L39.9875 24.7779C40.9177 24.1875 41.6787 22.8234 41.6787 21.7647V11.035C41.6364 9.95597 40.8754 8.61222 39.9452 8.02178Z"></path><path d="M26.4995 0.977273C26.9223 0.977273 27.324 1.07907 27.62 1.26231L39.4165 8.81581C40.0719 9.22301 40.6427 10.2817 40.6427 11.035V21.724C40.6427 22.4773 40.0719 23.5156 39.4165 23.9432L27.62 31.4967C27.3451 31.6596 26.9435 31.7817 26.4995 31.7817C26.0767 31.7817 25.675 31.6799 25.379 31.4967L13.5825 23.9432C12.9271 23.536 12.3563 22.4773 12.3563 21.724V11.035C12.3563 10.2817 12.9271 9.24337 13.5825 8.81581L25.379 1.26231C25.6539 1.07907 26.0555 0.977273 26.4995 0.977273ZM26.4995 0C25.8864 0 25.2945 0.142519 24.8082 0.427557L13.0328 8.02178C12.1026 8.61222 11.3416 9.97633 11.3416 11.035V21.724C11.3416 22.803 12.1026 24.1468 13.0328 24.7372L24.8294 32.2907C25.2733 32.5758 25.8864 32.7183 26.5206 32.7183C27.1549 32.7183 27.7257 32.5758 28.2119 32.2907L40.0085 24.7372C40.9387 24.1468 41.6997 22.7827 41.6997 21.724V11.035C41.6997 9.95597 40.9387 8.61222 40.0085 8.02178L28.1908 0.427557C27.7045 0.142519 27.0914 0 26.4995 0Z"></path></svg> 