<?xml version="1.0" encoding="UTF-8"?> <svg xmlns="http://www.w3.org/2000/svg" width="40" height="25" viewBox="0 0 40 25" fill="none"><path d="M14.587 7.46012V5.20141C14.8134 5.1859 15.0425 5.17384 15.2761 5.16695C21.6675 4.97312 25.8598 10.4743 25.8598 10.4743C25.8598 10.4743 21.3314 16.5527 16.4759 16.5527C15.777 16.5527 15.1504 16.4433 14.587 16.2606V9.41301C17.0749 9.70332 17.575 10.7655 19.0708 13.1749L22.3975 10.464C22.3975 10.464 19.9693 7.38603 15.876 7.38603C15.4303 7.38603 15.0042 7.41618 14.587 7.46012ZM14.587 0V3.37342C14.8161 3.35533 15.0461 3.34156 15.2761 3.3338C24.1643 3.04435 29.954 10.377 29.954 10.377C29.954 10.377 23.3032 18.1929 16.3743 18.1929C15.7396 18.1929 15.145 18.136 14.587 18.0404V20.1259C15.0639 20.1845 15.5595 20.219 16.0757 20.219C22.5232 20.219 27.1862 17.0368 31.7021 13.2706C32.45 13.8503 35.5146 15.2588 36.1457 15.8764C31.8518 19.3498 21.8467 22.1495 16.1746 22.1495C15.6282 22.1495 15.1023 22.1176 14.587 22.0694V25H39.0936V0H14.587ZM14.587 16.2606V18.0404C8.6226 17.0135 6.96726 11.0222 6.96726 11.0222C6.96726 11.0222 9.83135 7.95632 14.587 7.46012V9.41301C14.5826 9.41301 14.5808 9.41215 14.5772 9.41215C12.0822 9.12271 10.1318 11.3754 10.1318 11.3754C10.1318 11.3754 11.2246 15.1692 14.587 16.2606ZM3.99441 10.7629C3.99441 10.7629 7.52884 5.72258 14.587 5.20141V3.37342C6.76936 3.97902 0 10.377 0 10.377C0 10.377 3.83395 21.089 14.587 22.0694V20.1259C6.69626 19.1663 3.99441 10.7629 3.99441 10.7629Z" fill="white"></path></svg> 