<svg width="53" height="44" viewBox="0 0 53 44" fill="none" xmlns="http://www.w3.org/2000/svg">
<path fill-rule="evenodd" clip-rule="evenodd" d="M49.1415 24.1062L49.3106 24.0858C51.7418 23.6786 53.3485 21.4594 52.9257 19.118L52.8834 18.8737L52.6297 18.9348C51.5515 19.118 50.6213 19.6677 49.966 20.421C50.0717 19.7084 50.1351 18.9958 50.1562 18.2833L50.2408 18.2425C52.3337 17.4078 53.3485 15.0868 52.4817 13.0711L52.3972 12.8675L52.1858 12.949C51.1921 13.3358 50.4522 14.0688 50.0294 14.9239C49.9448 14.1706 49.818 13.4376 49.6489 12.7047C51.2556 11.6256 51.6784 9.52852 50.6002 7.94045L50.4945 7.77757L50.3254 7.87937C49.5643 8.36801 49.0569 9.10096 48.8455 9.895C48.6341 9.30456 48.3804 8.73448 48.1267 8.16441L48.169 8.12369C49.4797 6.82066 49.4375 4.7236 48.0633 3.48164L47.9153 3.35949L47.7885 3.502C47.1331 4.15352 46.816 5.00863 46.8371 5.84339C46.7526 5.72123 46.6892 5.59907 46.6046 5.47691C45.9281 2.78941 44.6596 0.651626 42.1016 0.18335C42.4187 2.91157 45.3361 4.54036 46.52 5.82303C46.5623 5.88411 46.5835 5.94519 46.6257 6.00627C45.8858 5.39547 44.871 5.13079 43.8563 5.37511L43.6872 5.41583L43.7294 5.57871C44.1523 7.18714 45.8435 8.14405 47.4925 7.75721H47.5136C47.5136 7.77757 47.5348 7.77757 47.5348 7.79793C47.7673 8.30693 47.9999 8.83628 48.1901 9.36564C48.2747 9.63032 48.3804 9.87464 48.4438 10.1393C47.8308 9.40636 46.8794 8.93808 45.8224 8.95844H45.6321V9.14168C45.6744 10.8723 47.1754 12.2567 48.9935 12.216H49.0146C49.0358 12.3382 49.0781 12.4603 49.0992 12.5825C49.2472 13.3358 49.374 14.0891 49.4375 14.8628C48.8878 14.0077 47.9787 13.3765 46.8794 13.1933L46.668 13.1526L46.6257 13.3562C46.2875 15.27 47.5771 17.082 49.522 17.4892C49.5009 18.4258 49.4163 19.3623 49.2683 20.2989C48.8878 19.2809 48.1056 18.4258 46.9851 17.9982L46.7737 17.9168L46.6892 18.1204C45.8858 20.0342 46.7526 22.1923 48.6552 23.0882C48.4016 23.9229 48.1056 24.7577 47.7673 25.5517C47.7039 25.6942 47.6405 25.8368 47.5771 25.9589C47.5348 24.9002 47.0697 23.8618 46.1818 23.1289L46.0126 22.9864L45.8647 23.1493C44.4271 24.7373 44.5751 27.1398 46.1818 28.565C45.6744 29.359 45.1247 30.1327 44.5117 30.8453C44.6596 29.868 44.4271 28.8297 43.814 27.9338L43.6872 27.7302L43.4757 27.8524C41.6154 29.074 41.0446 31.4561 42.1016 33.3292C41.2348 34.1029 40.3046 34.7951 39.3322 35.4262C39.8818 34.3472 39.9875 33.0645 39.4801 31.8633L39.3956 31.6393L39.163 31.7208C36.9432 32.5555 35.7805 34.8765 36.4147 37.0347C35.3154 37.5437 34.1949 37.9509 33.0322 38.297C32.8842 38.3377 32.7574 38.3784 32.6094 38.3988C33.4973 37.5233 34.047 36.3221 34.047 34.9987V34.7136H33.751C31.1295 34.7136 28.9732 36.6275 28.6983 39.0707C27.895 39.1521 27.0916 39.1725 26.2883 39.1725C25.6118 39.1725 24.9564 39.1317 24.2799 39.0707C24.0051 36.6275 21.8487 34.7136 19.2272 34.7136H18.9313V34.9987C18.9313 36.3221 19.4809 37.5029 20.3689 38.3988C20.094 38.3377 19.8192 38.2563 19.5655 38.1748C18.5507 37.8694 17.5571 37.4826 16.5846 37.0347C17.2189 34.8765 16.0561 32.5555 13.8363 31.7208L13.6038 31.6393L13.5192 31.8633C13.033 33.0645 13.1176 34.3268 13.6461 35.4059C13.5827 35.3652 13.5404 35.3244 13.4769 35.3041C12.5679 34.7136 11.7223 34.0418 10.8978 33.3292C11.9548 31.4561 11.384 29.0943 9.52362 27.8727L9.31221 27.7506L9.18537 27.9542C8.57228 28.8297 8.33973 29.8476 8.46658 30.8249C8.10719 30.4177 7.79007 29.9698 7.47296 29.5219C7.26155 29.1961 7.02901 28.8704 6.83874 28.5446C8.40316 27.1194 8.55114 24.7373 7.13471 23.1493L6.98672 22.9864L6.8176 23.1289C5.92968 23.8618 5.46459 24.8798 5.4223 25.9182C5.3166 25.6739 5.18976 25.4092 5.08405 25.1445C4.80922 24.4523 4.55553 23.76 4.34412 23.0475C6.22565 22.1516 7.09243 19.9935 6.28908 18.0797L6.20451 17.8761L5.99311 17.9575C4.89378 18.385 4.11157 19.2198 3.73104 20.2174C3.58305 19.3012 3.51963 18.385 3.47735 17.4485C5.40116 17.0209 6.66961 15.2293 6.33136 13.3358L6.28908 13.1322L6.07767 13.1729C4.99949 13.3562 4.11157 13.9466 3.56191 14.7814C3.64648 13.9059 3.77332 13.0508 3.96359 12.1957C5.76056 12.2364 7.26155 10.8723 7.30383 9.12132V8.93808H7.11357C6.07767 8.91772 5.14747 9.34528 4.53439 10.0579C4.57667 9.95608 4.61895 9.85428 4.64009 9.73212C4.7458 9.46744 4.80922 9.20276 4.93607 8.93808C5.08405 8.53089 5.27432 8.12369 5.46459 7.73685C7.13471 8.14405 8.82597 7.16678 9.22765 5.55835L9.26993 5.39547L9.1008 5.35475C8.10719 5.11043 7.11357 5.37511 6.37364 5.94519C6.37364 5.92483 6.39478 5.92483 6.39478 5.90447C6.43706 5.84339 6.47934 5.78231 6.50048 5.72123C7.74779 4.47928 10.5595 2.87085 10.8766 0.203709C8.31859 0.671986 7.02901 2.85049 6.37364 5.55835C6.31022 5.66015 6.22565 5.78231 6.16223 5.88411C6.18337 5.02899 5.86626 4.17388 5.2109 3.52236L5.06291 3.37985L4.91492 3.502C3.56191 4.76432 3.49849 6.84102 4.80922 8.14405L4.8515 8.20513C4.57667 8.7752 4.34412 9.36564 4.13272 9.95608C3.92131 9.14168 3.41393 8.40873 2.63172 7.89973L2.46259 7.79793L2.35689 7.96081C1.27871 9.52852 1.70152 11.6663 3.30822 12.725C3.1391 13.458 3.01225 14.2113 2.92769 14.9646C2.50487 14.0891 1.76494 13.3562 0.771327 12.949L0.559919 12.8675L0.475356 13.0711C-0.370276 15.1071 0.623342 17.4281 2.73742 18.2629L2.84313 18.3036V18.3647L2.86427 18.7922C2.88541 19.342 2.94883 19.8917 3.03339 20.4414C2.37803 19.6677 1.44783 19.118 0.369652 18.9348L0.115962 18.894L0.0736807 19.1384C-0.349135 21.4797 1.27871 23.699 3.68876 24.1062L3.87903 24.1469C4.02701 24.5948 4.175 25.0224 4.34412 25.4499C4.44983 25.735 4.57667 26.02 4.70352 26.305C3.85788 25.8368 2.84313 25.6332 1.80723 25.7757L1.55354 25.8164L1.59582 26.0607C1.95521 28.3614 4.15386 29.9494 6.54277 29.6644C7.05015 30.4381 7.62095 31.171 8.21289 31.8836C7.11357 31.5375 5.90854 31.5375 4.76694 32.0261L4.51325 32.1279L4.61895 32.3723C5.67599 34.6933 8.48772 35.752 10.9189 34.734L11.0458 34.6729C11.6588 35.1819 12.2931 35.6502 12.9484 36.0981C12.9696 36.1185 13.0119 36.1388 13.033 36.1592C11.9548 36.1388 10.8766 36.4442 9.94643 37.0957L9.71389 37.2586L9.88301 37.4826C11.532 39.6407 14.7031 40.109 16.9652 38.5209L17.1766 38.3784C18.2971 38.8467 19.4598 39.2132 20.6437 39.5186C19.3964 39.8851 18.2548 40.6587 17.5148 41.8192L17.3457 42.0839L17.6205 42.2468C20.242 43.8145 23.6668 43.0408 25.2947 40.5162L25.4638 40.2515L25.4004 40.2108C25.7175 40.2312 26.0346 40.2312 26.3306 40.2312C26.7957 40.2312 27.2396 40.2312 27.7047 40.2108L27.6413 40.2515L27.8104 40.5162C29.4383 43.0408 32.8842 43.8145 35.4845 42.2468L35.7594 42.0839L35.5902 41.8192C34.8503 40.6587 33.7298 39.8851 32.4614 39.5186C33.6453 39.2335 34.808 38.8467 35.9285 38.3784L36.1399 38.5209C38.3808 40.109 41.5519 39.6611 43.2221 37.4826L43.3912 37.2586L43.1586 37.0957C42.2284 36.4442 41.1503 36.1388 40.0721 36.1592C40.7486 35.7113 41.4251 35.2023 42.0382 34.6933L42.1439 34.734C44.5539 35.752 47.3657 34.6933 48.4438 32.3723L48.5495 32.1279L48.2959 32.0261C47.1754 31.5579 45.9704 31.5375 44.871 31.8836C45.463 31.171 46.0338 30.4381 46.5412 29.6644C48.9089 29.9291 51.0864 28.341 51.467 26.0607L51.5093 25.8164L51.2556 25.7757C50.2197 25.6128 49.226 25.8368 48.3804 26.2847C48.4438 26.1422 48.5073 25.9996 48.5707 25.8368C48.7398 25.2667 48.9512 24.6966 49.1415 24.1062Z" fill="#E8AC43"/>
<path d="M41.6366 21.724C41.6366 22.8031 40.8755 24.1468 39.9453 24.7373L28.1487 32.2908C27.2185 32.8812 25.6964 32.8812 24.7873 32.2908L13.0331 24.7373C12.1029 24.1468 11.3418 22.7827 11.3418 21.724V11.0351C11.3418 9.956 12.1029 8.61225 13.0331 8.02182L24.7873 0.447954C25.7175 -0.142482 27.2397 -0.142482 28.1699 0.447954L39.9664 8.00146C40.8966 8.59189 41.6577 9.956 41.6577 11.0147V21.724H41.6366Z" fill="#E8AC43"/>
<path d="M30.0377 13.4896V13.9555H22.9619V13.4896H30.0377ZM31.0525 15.9124V16.3784H21.9472V15.9124H31.0525ZM20.6787 18.3353H32.2998V18.8012H20.6787V18.3353Z" fill="#E8AC43" stroke="white"/>
<path opacity="0.08" d="M39.9451 8.02178L28.1908 0.427557C27.7468 0.142519 27.1337 0 26.4995 0V32.759C27.1126 32.759 27.7045 32.6165 28.1908 32.3314L39.9873 24.7779C40.9175 24.1875 41.6786 22.8234 41.6786 21.7647V11.035C41.6363 9.95597 40.8753 8.61222 39.9451 8.02178Z" fill="#E8AC43"/>
<path d="M26.4997 0.977273C26.9226 0.977273 27.3242 1.07907 27.6202 1.26231L39.4168 8.81581C40.0721 9.22301 40.6429 10.2817 40.6429 11.035V21.724C40.6429 22.4773 40.0721 23.5156 39.4168 23.9432L27.6202 31.4967C27.3454 31.6596 26.9437 31.7817 26.4997 31.7817C26.0769 31.7817 25.6753 31.6799 25.3793 31.4967L13.5827 23.9432C12.9274 23.536 12.3566 22.4773 12.3566 21.724V11.035C12.3566 10.2817 12.9274 9.24337 13.5827 8.81581L25.3793 1.26231C25.6541 1.07907 26.0558 0.977273 26.4997 0.977273ZM26.4997 0C25.8867 0 25.2947 0.142519 24.8085 0.427557L13.0331 8.02178C12.1029 8.61222 11.3418 9.97633 11.3418 11.035V21.724C11.3418 22.803 12.1029 24.1468 13.0331 24.7372L24.8296 32.2907C25.2736 32.5758 25.8867 32.7183 26.5209 32.7183C27.1551 32.7183 27.7259 32.5758 28.2122 32.2907L40.0087 24.7372C40.9389 24.1468 41.7 22.7827 41.7 21.724V11.035C41.7 9.95597 40.9389 8.61222 40.0087 8.02178L28.191 0.427557C27.7048 0.142519 27.0917 0 26.4997 0Z" fill="#E8AC43"/>
</svg>
