<svg width="283" height="244" viewBox="0 0 283 244" fill="none" xmlns="http://www.w3.org/2000/svg">
<g filter="url(#filter0_d)">
<path d="M199.864 203.007L230.531 186.961L251.633 190.086L220.967 206.124L199.864 203.007Z" fill="white"/>
<path d="M220.966 206.124L251.632 190.086L251.587 212.954L220.92 229L220.966 206.124Z" fill="#CDCDCD"/>
<path d="M220.921 229L199.818 225.876L199.863 203.007L220.966 206.124L220.921 229Z" fill="#FF244C"/>
<path d="M31.012 178.017L61.6861 161.971L82.7887 165.096L52.1222 181.142L31.012 178.017Z" fill="white"/>
<path d="M30.9741 200.886L31.012 178.017L52.1222 181.142L52.0768 204.01L30.9741 200.886Z" fill="#FF244C"/>
<path d="M52.1221 181.142L82.7886 165.096L82.7508 187.972L52.0767 204.01L52.1221 181.142Z" fill="#CDCDCD"/>
<path d="M73.2776 161.398L103.944 145.352L103.906 168.22L73.2322 184.266L73.2776 161.398Z" fill="#CDCDCD"/>
<path d="M31.1858 86.5349L61.8524 70.4966L82.9626 73.6212L52.296 89.6595L31.1858 86.5349Z" fill="white"/>
<path d="M10.1741 37.6728L40.8406 21.627L61.9433 24.7516L31.2692 40.7899L10.1741 37.6728Z" fill="white"/>
<path d="M31.269 40.79L61.9431 24.7517L61.8524 70.4966L31.1858 86.5349L31.269 40.79Z" fill="#CDCDCD"/>
<path d="M73.4062 92.7841L104.073 76.7458L104.035 99.607L73.3608 115.653L73.4062 92.7841Z" fill="#CDCDCD"/>
<path d="M73.3608 115.653L104.035 99.6069L125.13 102.732L94.4635 118.777L73.3608 115.653Z" fill="white"/>
<path d="M52.334 66.7907L83.0081 50.7449L104.118 53.8695L73.4518 69.9153L52.334 66.7907Z" fill="white"/>
<path d="M94.5923 50.1637L125.259 34.1179L125.221 56.9942L94.5469 73.0324L94.5923 50.1637Z" fill="#CDCDCD"/>
<path d="M73.4895 47.0393L104.164 31.001L125.259 34.1181L94.5921 50.1639L73.4895 47.0393Z" fill="white"/>
<path d="M157.824 105.283L188.499 89.2368L188.453 112.106L157.787 128.144L157.824 105.283Z" fill="#CDCDCD"/>
<path d="M199.901 180.138L230.575 164.092L230.53 186.961L199.863 203.007L199.901 180.138Z" fill="#CDCDCD"/>
<path d="M157.787 128.144L188.453 112.105L209.556 115.223L178.882 131.268L157.787 128.144Z" fill="white"/>
<path d="M94.5469 73.0324L125.221 56.9941L188.537 66.3605L157.87 82.4063L94.5469 73.0324Z" fill="white"/>
<path d="M221.049 160.386L251.716 144.341L251.67 167.217L221.004 183.263L221.049 160.386Z" fill="#CDCDCD"/>
<path d="M179.01 62.6547L209.684 46.6165L209.639 69.4851L178.972 85.531L179.01 62.6547Z" fill="#CDCDCD"/>
<path d="M157.915 59.5378L188.582 43.4919L209.684 46.6166L179.01 62.6549L157.915 59.5378Z" fill="white"/>
<path d="M178.972 85.5309L209.639 69.4851L230.742 72.6097L200.075 88.6556L178.972 85.5309Z" fill="white"/>
<path d="M200.075 88.6557L230.742 72.6099L230.704 95.4861L200.03 111.524L200.075 88.6557Z" fill="#CDCDCD"/>
<path d="M200.03 111.524L230.704 95.4861L251.807 98.6032L221.132 114.649L200.03 111.524Z" fill="white"/>
<path d="M242.205 140.642L272.871 124.596L272.826 147.465L242.159 163.511L242.205 140.642Z" fill="#CDCDCD"/>
<path d="M221.223 68.904L251.89 52.8582L273 55.9828L242.333 72.0286L221.223 68.904Z" fill="white"/>
<path d="M221.223 68.9041L242.333 72.0287L242.205 140.642L242.159 163.511L221.049 160.386L221.004 183.263L199.901 180.138L199.856 203.007L178.746 199.882L178.791 177.013L73.2777 161.398L73.2323 184.266L52.1221 181.142L52.1675 158.273L31.0573 155.148L31.1026 132.272L10 129.155L10.174 37.6729L31.2767 40.7975L31.1859 86.5349L52.2961 89.6595L52.3415 66.7908L73.4517 69.9154L73.4971 47.0392L94.5998 50.1638L94.5544 73.0401L157.877 82.414L157.923 59.5377L179.025 62.6624L178.98 85.5386L200.09 88.6632L200.045 111.532L221.148 114.657L221.223 68.9041ZM94.4636 118.777L94.509 95.9088L73.4063 92.7841L73.3609 115.653L94.4636 118.777ZM178.882 131.268L178.927 108.4L157.824 105.275L157.779 128.144L178.882 131.268Z" fill="#FF244C"/>
<path d="M242.333 72.0287L273 55.9829L272.871 124.597L242.205 140.642L242.333 72.0287Z" fill="#CDCDCD"/>
<path d="M200.166 42.9108L230.833 26.865L230.787 49.7412L200.121 65.7795L200.166 42.9108Z" fill="#CDCDCD"/>
<path d="M179.056 39.7861L209.723 23.7402L230.833 26.8649L200.167 42.9107L179.056 39.7861Z" fill="white"/>
<path d="M200.166 42.9108L200.12 65.7795L179.01 62.6548L179.056 39.7861L200.166 42.9108Z" fill="#FF244C"/>
<path d="M52.4255 21.0458L83.0921 5L104.202 8.12463L73.5358 24.1705L52.4255 21.0458Z" fill="white"/>
<path d="M73.5351 24.1706L104.202 8.12476L104.164 31.001L73.4897 47.0393L73.5351 24.1706Z" fill="#CDCDCD"/>
<path d="M52.4248 21.0459L73.535 24.1705L73.4896 47.0392L52.3794 43.9146L52.4248 21.0459Z" fill="#FF244C"/>
</g>
<defs>
<filter id="filter0_d" x="0" y="0" width="283" height="244" filterUnits="userSpaceOnUse" color-interpolation-filters="sRGB">
<feFlood flood-opacity="0" result="BackgroundImageFix"/>
<feColorMatrix in="SourceAlpha" type="matrix" values="0 0 0 0 0 0 0 0 0 0 0 0 0 0 0 0 0 0 127 0"/>
<feOffset dy="5"/>
<feGaussianBlur stdDeviation="5"/>
<feColorMatrix type="matrix" values="0 0 0 0 0.0196078 0 0 0 0 0.0705882 0 0 0 0 0.152941 0 0 0 0.2 0"/>
<feBlend mode="normal" in2="BackgroundImageFix" result="effect1_dropShadow"/>
<feBlend mode="normal" in="SourceGraphic" in2="effect1_dropShadow" result="shape"/>
</filter>
</defs>
</svg>
