<svg width="20" height="24" viewBox="0 0 20 24" fill="none" xmlns="http://www.w3.org/2000/svg">
<path fill-rule="evenodd" clip-rule="evenodd" d="M10.706 2.08664C12.2581 -3.05176e-05 14.447 -3.05176e-05 14.447 -3.05176e-05C14.447 -3.05176e-05 14.7654 1.96625 13.2133 3.85228C11.5417 5.85869 9.6712 5.53766 9.6712 5.53766C9.6712 5.53766 9.31301 3.93253 10.706 2.08664Z" fill="black"/>
<path fill-rule="evenodd" clip-rule="evenodd" d="M9.87006 6.90212C10.666 6.90212 12.1784 5.77853 14.1285 5.77853C17.4716 5.77853 18.7849 8.18623 18.7849 8.18623C18.7849 8.18623 16.198 9.51046 16.198 12.7207C16.198 16.3323 19.4217 17.6164 19.4217 17.6164C19.4217 17.6164 17.193 23.9566 14.1683 23.9566C12.7754 23.9566 11.7008 22.9935 10.2282 22.9935C8.7159 22.9935 7.24335 23.9566 6.28818 23.9566C3.50228 23.9967 0 17.9775 0 13.122C0 8.34674 2.9451 5.85879 5.731 5.85879C7.52194 5.81866 8.91489 6.90212 9.87006 6.90212Z" fill="black"/>
</svg>
