<svg width="1440" height="381" viewBox="0 0 1440 381" fill="none" xmlns="http://www.w3.org/2000/svg">
<g opacity="0.5">
<path d="M70.5894 218.926L70.543 218.915L70.4962 218.907C53.3868 215.74 36.5791 211.068 20.2621 204.944L20.2506 204.94C6.17847 199.756 -7.01016 192.359 -18.835 183.016C-29.4109 174.607 -38.0979 163.987 -44.3098 151.87C-50.3638 140.017 -53.4234 126.175 -53.4234 110.287V110.273L-53.4236 110.26C-53.6302 95.0565 -50.2655 80.0245 -43.6116 66.416C-37.1343 53.3492 -28.1664 41.7293 -17.2329 32.2336C-5.87493 22.4522 7.15819 14.8921 21.2101 9.93225L21.2224 9.92781C35.9024 4.63794 51.366 1.95857 66.937 2.00638L66.9442 2.00637C78.0517 2.00091 89.13 3.16529 100.002 5.48102L100.01 5.48266C110.604 7.69459 120.915 11.13 130.744 15.7224C140.207 20.1446 149.039 25.8489 157.003 32.6809L157.007 32.6849C164.722 39.2628 171.278 47.1348 176.393 55.9623L176.409 55.9904L176.426 56.018C177.979 58.5077 178.948 61.3308 179.255 64.2678C179.521 67.091 179.337 69.9393 178.711 72.7025C178.087 75.4359 177.091 78.0661 175.751 80.5164L175.744 80.5281L175.738 80.5399C174.538 82.8058 172.979 84.8525 171.126 86.5979L171.102 86.6202L171.079 86.6432C169.025 88.7069 166.604 90.3495 163.947 91.4839L163.933 91.4902L163.918 91.4967C161.031 92.7843 157.952 93.5665 154.81 93.811L154.805 93.8114C151.454 94.0816 148.081 93.8069 144.814 92.9975C141.293 92.1096 137.951 90.5977 134.942 88.5299C129.76 83.9964 124.852 80.076 120.218 76.7743C115.604 73.4396 110.673 70.5831 105.499 68.2476L105.49 68.2436C100.148 65.8637 94.544 64.1439 88.7984 63.1212L88.7907 63.1198L88.7829 63.1185C81.9796 61.9626 75.0894 61.4185 68.1922 61.4924C59.8589 61.4294 51.557 62.5348 43.5205 64.7771C36.3203 66.7442 29.5322 70.0246 23.4858 74.4578L23.4852 74.4582C17.9676 78.5065 13.3659 83.7061 9.98615 89.7072L9.98135 89.7157L9.97665 89.7243C6.61575 95.8306 4.89568 102.728 4.98706 109.722C4.98931 118.263 7.19643 125.455 11.755 131.137L11.7682 131.153L11.7818 131.169C16.7603 137.113 22.9894 141.844 30.0103 145.011C38.5565 149.013 47.4893 152.099 56.6643 154.217C66.6859 156.654 77.5597 159.141 89.2853 161.679C102.518 165.142 115.522 169.455 128.22 174.59L128.224 174.592C140.258 179.431 151.513 186.081 161.611 194.322C171.351 202.334 179.348 212.326 185.088 223.664L185.09 223.668C190.939 235.148 193.91 248.914 193.921 265.035V265.043L193.922 265.051C194.057 280.543 190.695 295.859 184.096 309.816C177.547 323.551 168.376 335.816 157.121 345.897C145.262 356.443 131.541 364.593 116.691 369.912L116.682 369.916C100.558 375.778 83.546 378.7 66.4266 378.549L66.4126 378.549L66.3987 378.549C52.4812 378.62 38.621 376.724 25.215 372.914L25.2097 372.912C12.6624 369.384 0.607018 364.243 -10.6652 357.612L-10.6702 357.609C-21.1367 351.493 -30.6851 343.874 -39.0215 334.987L-39.0275 334.981C-46.7377 326.832 -53.1169 317.477 -57.9215 307.27L-57.9394 307.232L-57.959 307.195C-60.1589 302.991 -61.5038 298.376 -61.9119 293.628C-62.2205 289.745 -61.7164 285.84 -60.4335 282.171C-59.2221 278.788 -57.3626 275.686 -54.965 273.045C-52.5892 270.462 -49.8064 268.305 -46.733 266.661L-46.7266 266.657L-46.7202 266.654C-39.22 262.571 -32.4878 261.805 -26.3601 263.993C-20.1125 266.224 -13.469 271.759 -6.48124 280.981C1.44684 292.865 12.1457 302.57 24.6625 309.224C37.245 315.932 51.943 319.249 68.6929 319.25C76.8808 319.263 85.0333 318.159 92.9322 315.967C100.551 313.922 107.788 310.621 114.357 306.196C120.525 302.055 125.763 296.637 129.73 290.299L129.737 290.288L129.743 290.278C133.73 283.727 135.778 276.149 135.645 268.449C135.642 259.598 133.661 252.194 129.53 246.399L129.525 246.392C125.449 240.722 120.158 236.068 114.049 232.783C107.482 229.155 100.5 226.366 93.2599 224.479L93.2495 224.477C85.6352 222.536 78.0818 220.686 70.5894 218.926Z" stroke="url(#paint0_linear)" stroke-width="4"/>
<path d="M300.007 105.015L300.005 107.018H302.007L402.001 107.018L402.005 107.018C405.877 107.01 409.706 107.845 413.237 109.469L413.248 109.475C420.352 112.687 426.04 118.473 429.203 125.722L429.208 125.735C430.808 129.332 431.632 133.239 431.624 137.19L431.624 137.198L431.624 137.206C431.646 141.113 430.865 144.981 429.331 148.56L429.328 148.568L429.324 148.576C427.865 152.065 425.744 155.223 423.084 157.87C420.356 160.566 417.168 162.729 413.679 164.255C410.022 165.813 406.095 166.601 402.133 166.572L402.125 166.572H402.118H302.007H300.007V168.572V242.573C299.945 252.86 302.008 263.046 306.064 272.47L306.064 272.47C312.071 286.421 321.961 298.28 334.52 306.58C347.075 314.878 361.745 319.254 376.72 319.165C385.605 319.25 394.446 317.885 402.906 315.123L402.919 315.118L402.932 315.114C411.279 312.262 418.956 307.685 425.479 301.672C427.388 299.913 429.389 298.26 431.474 296.722C433.488 295.289 435.688 294.149 438.009 293.335L438.023 293.33L438.037 293.325C442.53 291.674 447.348 291.155 452.079 291.811C457.183 292.621 461.918 295.031 465.623 298.713L465.644 298.734L465.665 298.754C468.729 301.626 471.066 305.214 472.471 309.214C473.803 313.185 474.336 317.391 474.037 321.578L474.036 321.591C473.753 325.958 472.681 330.232 470.873 334.2L470.869 334.208L470.866 334.215C469.052 338.287 466.468 341.952 463.266 345.004L463.254 345.015L463.242 345.027C452.088 356.015 438.83 364.543 424.299 370.078C409.083 375.823 392.967 378.693 376.741 378.549L376.724 378.549L376.708 378.549C358.682 378.685 340.818 375.056 324.222 367.885L324.218 367.884C308.241 361.019 293.68 351.142 281.303 338.769C268.958 326.36 259.1 311.624 252.277 295.381L252.275 295.379C245.156 278.5 241.548 260.302 241.68 241.931L241.68 241.924V241.917V54.195V54.184L241.68 54.173C241.636 50.1909 242.372 46.2406 243.845 42.5532C245.317 38.8658 247.495 35.5164 250.25 32.6996C253.005 29.8828 256.282 27.6553 259.888 26.1451C263.494 24.6349 267.358 23.8718 271.255 23.8995L271.268 23.8996L271.28 23.8996C275.098 23.8794 278.879 24.6663 282.384 26.2113L282.384 26.2114L282.397 26.217C285.817 27.6955 288.916 29.8523 291.514 32.5638L291.515 32.5654C294.171 35.3321 296.3 38.5804 297.789 42.1446C299.324 45.8794 300.101 49.893 300.074 53.9436H300.074L300.074 53.9544L300.007 105.015Z" stroke="url(#paint1_linear)" stroke-width="4"/>
<path d="M758.197 114.245C755.401 111.36 752.085 109.052 748.43 107.445L758.197 114.245ZM758.197 114.245C761.003 117.122 763.201 120.552 764.659 124.324L758.197 114.245ZM589.767 297.733L589.76 297.726C583.306 291.017 578.194 283.1 574.704 274.412C571.02 265.312 569.16 255.555 569.233 245.714L569.183 136.614L569.183 136.609C569.192 132.652 568.415 128.734 566.899 125.093L566.895 125.084L566.892 125.075C565.458 121.538 563.335 118.335 560.654 115.66L560.652 115.658C557.943 112.947 554.756 110.785 551.26 109.283L589.767 297.733ZM589.767 297.733L589.773 297.739M589.767 297.733L589.773 297.739M589.773 297.739C596.456 304.563 604.407 309.967 613.166 313.634C621.917 317.298 631.298 319.154 640.762 319.094C650.27 319.26 659.693 317.249 668.334 313.212L668.345 313.206M589.773 297.739L668.345 313.206M668.345 313.206C676.294 309.428 683.354 303.965 689.053 297.185L689.059 297.177M668.345 313.206L689.059 297.177M689.059 297.177L689.066 297.17M689.059 297.177L689.066 297.17M689.066 297.17C694.813 290.198 699.221 282.189 702.06 273.563C705.141 264.316 706.682 254.611 706.619 244.848L706.619 136.613L706.619 136.607M689.066 297.17L706.619 136.607M706.619 136.607C706.607 132.651 707.426 128.738 709.02 125.133L709.022 125.127M706.619 136.607L709.022 125.127M709.022 125.127C710.584 121.564 712.826 118.356 715.618 115.691L715.624 115.685M709.022 125.127L715.624 115.685M715.624 115.685C718.428 112.983 721.682 110.815 725.231 109.281L725.237 109.279M715.624 115.685L725.237 109.279M725.237 109.279C728.798 107.727 732.631 106.934 736.502 106.947L736.511 106.947M725.237 109.279L736.511 106.947M736.511 106.947L736.52 106.947M736.511 106.947L736.52 106.947M736.52 106.947C740.337 106.926 744.117 107.718 747.618 109.273L747.626 109.276M736.52 106.947L747.626 109.276M747.626 109.276C751.042 110.778 754.144 112.937 756.762 115.637L756.766 115.641M747.626 109.276L756.766 115.641M756.766 115.641C759.381 118.323 761.433 121.523 762.793 125.045L762.797 125.056M756.766 115.641L762.797 125.056M762.797 125.056C764.241 128.728 764.976 132.65 764.963 136.607V136.613M762.797 125.056L764.963 136.613M764.963 136.613L764.963 243.97L764.963 243.983M764.963 136.613L764.963 243.983M764.963 243.983C765.077 261.825 761.955 279.534 755.755 296.221L755.753 296.227M764.963 243.983L755.753 296.227M755.753 296.227C749.946 312.015 741.249 326.534 730.125 339.015C718.797 351.629 704.986 361.667 689.596 368.478C674.203 375.289 657.574 378.719 640.794 378.546L640.775 378.546M755.753 296.227L640.775 378.546M640.775 378.546L640.757 378.546M640.775 378.546L640.757 378.546M640.757 378.546C623.307 378.682 606.02 375.104 590.005 368.041L590.005 368.041M640.757 378.546L590.005 368.041M590.005 368.041C574.621 361.262 560.662 351.525 548.895 339.364C537.109 327.148 527.691 312.775 521.138 297L521.136 296.996M590.005 368.041L521.136 296.996M521.136 296.996C514.322 280.689 510.857 263.133 510.956 245.409V245.398M521.136 296.996L510.956 245.398M510.956 245.398V136.615C510.966 128.752 514.017 121.217 519.44 115.639L519.441 115.637M510.956 245.398L519.441 115.637M519.441 115.637C522.057 112.939 525.156 110.781 528.57 109.28M519.441 115.637L528.57 109.28M528.57 109.28C532.161 107.74 536.017 106.947 539.911 106.947C543.808 106.947 547.667 107.741 551.26 109.283L528.57 109.28Z" stroke="url(#paint2_linear)" stroke-width="4"/>
<path d="M996.031 185.802L996.035 185.805C1003.07 192.891 1008.69 201.306 1012.56 210.578C1016.61 220.204 1018.67 230.576 1018.61 241.046C1018.67 251.412 1016.62 261.68 1012.61 271.207C1004.77 289.931 990.156 304.878 971.778 312.941C962.344 317.084 952.163 319.18 941.886 319.093C931.588 319.164 921.387 317.07 911.922 312.944C902.808 308.998 894.539 303.283 887.578 296.118L887.574 296.114C880.645 288.94 875.138 280.478 871.35 271.191C871.349 271.191 871.349 271.191 871.349 271.19L873.201 270.435C869.365 261.131 867.411 251.136 867.457 241.046L996.031 185.802ZM996.031 185.802C989.024 178.783 980.804 173.139 971.782 169.153L971.774 169.149L971.766 169.145C962.334 165.078 952.194 162.981 941.948 162.981C931.702 162.981 921.561 165.078 912.129 169.145L912.118 169.15C903.054 173.123 894.792 178.768 887.75 185.799L887.744 185.805C880.714 192.878 875.142 201.306 871.35 210.593C867.397 220.24 865.393 230.597 865.457 241.048L996.031 185.802ZM1076.97 240.756V240.757V242.207C1076.81 254.447 1075.09 266.614 1071.86 278.405C1068.73 289.834 1064.11 300.784 1058.12 310.963L1059.81 311.956L1058.12 310.964C1040.1 341.629 1011.2 364.072 977.411 373.674C948.255 381.841 917.246 379.765 889.389 367.78C873.41 360.808 858.89 350.779 846.617 338.236C834.357 325.613 824.554 310.739 817.729 294.398C810.723 277.466 807.113 259.277 807.113 240.902C807.113 222.526 810.723 204.336 817.73 187.404C831.393 154.49 857.086 128.284 889.369 114.313C918.345 101.845 950.696 100.114 980.795 109.421C993.046 113.309 1004.72 118.884 1015.49 125.993L1018.59 128.04V124.323V33.0633V33.0537L1018.59 33.0441C1018.55 28.8422 1019.29 24.6709 1020.76 20.7491C1022.15 17.0846 1024.21 13.726 1026.83 10.8537C1029.39 8.06385 1032.49 5.84023 1035.92 4.31803C1039.62 2.73502 1043.59 1.94712 1047.6 2.00275L1047.62 2.00304L1047.64 2.0029C1051.6 1.97525 1055.53 2.76396 1059.19 4.32257C1062.68 5.82583 1065.83 8.05114 1068.43 10.8596C1071.1 13.7558 1073.23 17.1207 1074.72 20.7926C1076.29 24.6778 1077.07 28.8435 1077.03 33.0441L1077.03 33.0534V33.0627L1076.97 240.756Z" stroke="url(#paint3_linear)" stroke-width="4"/>
<path d="M1142.72 40.3729L1142.72 40.3632C1142.7 35.9065 1143.58 31.4935 1145.3 27.4006L1145.31 27.3928L1145.31 27.3849C1148.57 19.4739 1154.74 13.1931 1162.5 9.88425L1162.5 9.88034L1162.51 9.87633C1166.43 8.15613 1170.66 7.26941 1174.93 7.26941C1179.19 7.26941 1183.42 8.15612 1187.34 9.87634L1187.34 9.87796C1191.21 11.5682 1194.76 13.9566 1197.8 16.9298C1200.86 19.9804 1203.28 23.6245 1204.93 27.6483C1206.58 31.6755 1207.43 36.0003 1207.41 40.3666L1207.41 40.3747L1207.41 40.3827C1207.43 44.6893 1206.55 48.9501 1204.84 52.885L1204.83 52.8957C1203.17 56.7731 1200.79 60.2806 1197.81 63.2223C1194.77 66.2058 1191.23 68.5952 1187.35 70.2732L1187.33 70.2787C1183.42 72.0059 1179.19 72.8964 1174.93 72.8964C1170.66 72.8964 1166.43 72.0059 1162.52 70.2787L1162.51 70.2747L1162.5 70.2708C1158.66 68.6247 1155.17 66.2395 1152.22 63.2443C1149.29 60.2705 1146.95 56.7611 1145.3 52.8987L1145.3 52.8919L1145.29 52.885C1143.58 48.9501 1142.7 44.6893 1142.72 40.3827L1142.72 40.3729ZM1204.24 345.481V345.491L1204.24 345.501C1204.28 349.496 1203.5 353.456 1201.96 357.128C1200.47 360.612 1198.35 363.773 1195.7 366.442L1195.7 366.446C1191.6 370.604 1186.39 373.424 1180.72 374.555C1175.06 375.686 1169.19 375.08 1163.87 372.811C1160.38 371.3 1157.19 369.137 1154.47 366.433L1154.46 366.423C1151.71 363.72 1149.53 360.469 1148.05 356.872L1146.2 357.63L1148.05 356.872C1146.57 353.274 1145.83 349.405 1145.88 345.504L1145.88 345.493V345.481L1145.88 136.615L1145.88 136.602C1145.85 132.701 1146.68 128.844 1148.29 125.307L1148.29 125.295C1149.88 121.751 1152.08 118.53 1154.79 115.787L1154.79 115.785C1157.54 112.983 1160.82 110.766 1164.42 109.262C1168.01 107.758 1171.87 106.995 1175.76 107.016L1175.77 107.016L1175.78 107.016C1179.6 106.995 1183.38 107.788 1186.88 109.343L1186.89 109.347L1186.9 109.351C1190.31 110.829 1193.41 112.985 1196.01 115.696C1201.33 121.268 1204.28 128.752 1204.22 136.532L1204.22 136.54V136.547L1204.24 345.481Z" stroke="url(#paint4_linear)" stroke-width="4"/>
<path d="M1254.51 241.057L1254.51 241.045L1254.51 241.032C1254.38 222.643 1258.04 204.432 1265.27 187.578L1265.27 187.574C1272.22 171.265 1282.12 156.436 1294.46 143.862C1306.8 131.322 1321.39 121.293 1337.42 114.312C1353.99 107.184 1371.8 103.513 1389.78 103.513C1407.77 103.513 1425.58 107.184 1442.15 114.312C1458.13 121.28 1472.65 131.308 1484.92 143.854C1497.12 156.447 1506.89 171.267 1513.71 187.541C1520.73 204.444 1524.34 222.609 1524.34 240.961C1524.34 259.313 1520.73 277.477 1513.71 294.379C1506.89 310.721 1497.08 325.596 1484.82 338.22C1472.55 350.766 1458.03 360.795 1442.05 367.763C1425.48 374.891 1407.67 378.563 1389.68 378.563C1371.7 378.563 1353.89 374.891 1337.32 367.764C1304.95 353.618 1279.15 327.348 1265.25 294.373L1265.25 294.364C1258.07 277.551 1254.41 259.395 1254.51 241.057ZM1312.93 239.046H1312.86L1312.85 241.038C1312.81 251.411 1314.87 261.684 1318.9 271.211C1326.74 289.939 1341.36 304.887 1359.74 312.942C1369.16 317.078 1379.31 319.174 1389.57 319.094C1399.87 319.162 1410.07 317.068 1419.53 312.945C1428.64 308.995 1436.9 303.28 1443.86 296.119L1443.87 296.114C1450.79 288.941 1456.3 280.482 1460.09 271.197C1464.02 261.651 1466.03 251.397 1465.98 241.047C1466.05 230.598 1464.04 220.241 1460.09 210.595C1456.32 201.34 1450.8 192.922 1443.86 185.817L1443.85 185.808C1436.86 178.738 1428.6 173.084 1419.53 169.148L1419.53 169.146C1410.1 165.078 1399.96 162.981 1389.71 162.981C1379.46 162.981 1369.32 165.078 1359.89 169.146L1359.89 169.148C1350.78 173.101 1342.49 178.749 1335.43 185.8L1335.42 185.805C1328.38 192.892 1322.77 201.309 1318.9 210.581C1315.13 219.597 1313.1 229.263 1312.93 239.046Z" stroke="url(#paint5_linear)" stroke-width="4"/>
</g>
<defs>
<linearGradient id="paint0_linear" x1="65.9627" y1="0.0057373" x2="65.9627" y2="380.555" gradientUnits="userSpaceOnUse">
<stop/>
<stop offset="1" stop-opacity="0"/>
</linearGradient>
<linearGradient id="paint1_linear" x1="357.897" y1="21.8988" x2="357.897" y2="380.554" gradientUnits="userSpaceOnUse">
<stop/>
<stop offset="1" stop-opacity="0"/>
</linearGradient>
<linearGradient id="paint2_linear" x1="637.96" y1="104.946" x2="637.96" y2="380.552" gradientUnits="userSpaceOnUse">
<stop/>
<stop offset="1" stop-opacity="0"/>
</linearGradient>
<linearGradient id="paint3_linear" x1="942.073" y1="0" x2="942.073" y2="380.579" gradientUnits="userSpaceOnUse">
<stop/>
<stop offset="1" stop-opacity="0"/>
</linearGradient>
<linearGradient id="paint4_linear" x1="1175.07" y1="5.26941" x2="1175.07" y2="377.11" gradientUnits="userSpaceOnUse">
<stop/>
<stop offset="1" stop-opacity="0"/>
</linearGradient>
<linearGradient id="paint5_linear" x1="1389.42" y1="101.513" x2="1389.42" y2="380.563" gradientUnits="userSpaceOnUse">
<stop/>
<stop offset="1" stop-opacity="0"/>
</linearGradient>
</defs>
</svg>
