<svg width="341" height="354" viewBox="0 0 341 354" fill="none" xmlns="http://www.w3.org/2000/svg">
   <path d="M314 208C314 279.1 263.1 338.4 195.7 351.4C192.8 351.9 189.9 352.4 186.9 352.8C186.7 352.8 186.5 352.8 186.3 352.9C180.3 353.7 174.2 354 168 354C153.6 354 139.7 351.9 126.5 348C126 347.9 125.6 347.7 125.1 347.6C115.2 344.6 105.7 340.5 96.8 335.5C69.7 320.3 47.9 296.7 35 268.2C32.5 262.8 30.4 257.2 28.6 251.4C28.5 251.1 28.4 250.7 28.3 250.4C24.2 237 22 222.7 22 208C22 199.7 22.7 191.5 24 183.5C24.1 182.9 24.2 182.3 24.3 181.7C25.2 177 26.2 172.3 27.5 167.7C39 127.9 66.9 95 103.5 77C122.9 67.4 144.8 62 168 62C168.5 62 169.1 62 169.6 62C171.5 62 173.3 62.1 175.2 62.2C185.5 62.7 195.5 64.3 205.1 66.8C218.8 70.4 231.7 75.9 243.5 83C252.6 88.5 261.1 95 268.7 102.2C270.2 103.6 271.6 105 273 106.5C288.8 122.9 300.9 143 307.7 165.3C311.8 178.8 314 193.2 314 208Z" fill="#051227"/>
   <path d="M314 208C314 279.1 263.1 338.4 195.7 351.4C192.8 351.9 189.9 352.4 186.9 352.8C186.7 352.8 186.5 352.8 186.3 352.9C180.3 353.7 174.2 354 168 354C153.6 354 139.7 351.9 126.5 348C126 347.9 125.6 347.7 125.1 347.6C115.2 344.6 105.7 340.5 96.8 335.5C69.7 320.3 47.9 296.7 35 268.2C32.5 262.8 30.4 257.2 28.6 251.4C28.5 251.1 28.4 250.7 28.3 250.4C24.2 237 22 222.7 22 208C22 199.7 22.7 191.5 24 183.5C24.1 182.9 24.2 182.3 24.3 181.7C25.2 177 26.2 172.3 27.5 167.7C39 127.9 66.9 95 103.5 77C122.9 67.4 144.8 62 168 62C168.5 62 169.1 62 169.6 62C171.5 62 173.3 62.1 175.2 62.2C185.5 62.7 195.5 64.3 205.1 66.8C218.8 70.4 231.7 75.9 243.5 83C252.6 88.5 261.1 95 268.7 102.2C270.2 103.6 271.6 105 273 106.5C288.8 122.9 300.9 143 307.7 165.3C311.8 178.8 314 193.2 314 208Z" fill="#051227"/>
   <path d="M341 89.8L137.5 0L87.1 114.1L290.6 203.9L341 89.8Z" fill="#FF244C"/>
   <path d="M232.8 55.6L87.2 114.2L290.7 204L232.8 55.6Z" fill="#FF244C"/>
   <path opacity="0.2" d="M338.1 88.5L137.5 0L202.7 125.9L338.1 88.5Z" fill="#070707"/>
   <path d="M338.1 88.5L137.5 0L206.8 114.5L338.1 88.5Z" fill="white"/>
   <path d="M213.273 71.6512L212.912 72.4756L213.736 72.8367L214.097 72.0123L213.273 71.6512Z" fill="#051227"/>
   <path d="M216.483 64.2358L216.122 65.0602L216.946 65.4213L217.308 64.5969L216.483 64.2358Z" fill="#051227"/>
   <path d="M210.022 79.1581L209.661 79.9825L210.486 80.3436L210.847 79.5192L210.022 79.1581Z" fill="#051227"/>
   <path d="M219.825 56.7691L219.464 57.5935L220.288 57.9546L220.649 57.1302L219.825 56.7691Z" fill="#051227"/>
   <path d="M216.961 73.3023L216.599 74.1267L217.424 74.4878L217.785 73.6634L216.961 73.3023Z" fill="#051227"/>
   <path d="M220.303 65.8354L219.942 66.6598L220.766 67.0209L221.127 66.1965L220.303 65.8354Z" fill="#051227"/>
   <path d="M213.71 80.8092L213.349 81.6336L214.173 81.9947L214.534 81.1703L213.71 80.8092Z" fill="#051227"/>
   <path d="M223.513 58.4202L223.152 59.2446L223.976 59.6057L224.337 58.7813L223.513 58.4202Z" fill="#051227"/>
   <path d="M220.74 74.9935L220.379 75.8179L221.203 76.179L221.564 75.3546L220.74 74.9935Z" fill="#051227"/>
   <path d="M223.99 67.4865L223.629 68.3109L224.454 68.672L224.815 67.8476L223.99 67.4865Z" fill="#051227"/>
   <path d="M217.398 82.4603L217.037 83.2847L217.861 83.6458L218.222 82.8214L217.398 82.4603Z" fill="#051227"/>
   <path d="M227.332 60.0198L226.971 60.8442L227.796 61.2053L228.157 60.3809L227.332 60.0198Z" fill="#051227"/>
   <path d="M224.467 76.5521L224.106 77.3765L224.931 77.7376L225.292 76.9132L224.467 76.5521Z" fill="#051227"/>
   <path d="M227.769 69.1769L227.408 70.0013L228.232 70.3624L228.594 69.538L227.769 69.1769Z" fill="#051227"/>
   <path d="M228.246 78.2434L227.885 79.0677L228.71 79.4288L229.071 78.6044L228.246 78.2434Z" fill="#051227"/>
   <path d="M231.497 70.7364L231.136 71.5608L231.96 71.9219L232.321 71.0975L231.497 70.7364Z" fill="#051227"/>
   <path d="M231.934 79.8944L231.573 80.7188L232.398 81.0799L232.759 80.2555L231.934 79.8944Z" fill="#051227"/>
   <path d="M235.185 72.3875L234.824 73.2119L235.648 73.573L236.009 72.7486L235.185 72.3875Z" fill="#051227"/>
   <path d="M228.684 87.4014L228.323 88.2258L229.147 88.5869L229.508 87.7625L228.684 87.4014Z" fill="#051227"/>
   <path d="M238.527 64.9207L238.166 65.7451L238.99 66.1062L239.351 65.2818L238.527 64.9207Z" fill="#051227"/>
   <path d="M235.662 81.454L235.301 82.2784L236.126 82.6395L236.487 81.8151L235.662 81.454Z" fill="#051227"/>
   <path d="M238.964 74.0787L238.603 74.9031L239.428 75.2642L239.789 74.4398L238.964 74.0787Z" fill="#051227"/>
   <path d="M232.412 88.9608L232.051 89.7852L232.875 90.1463L233.236 89.3219L232.412 88.9608Z" fill="#051227"/>
   <path d="M242.214 66.572L241.853 67.3964L242.678 67.7574L243.039 66.933L242.214 66.572Z" fill="#051227"/>
   <path d="M239.442 83.1453L239.08 83.9697L239.905 84.3307L240.266 83.5063L239.442 83.1453Z" fill="#051227"/>
   <path d="M242.692 75.6383L242.331 76.4626L243.155 76.8237L243.517 75.9993L242.692 75.6383Z" fill="#051227"/>
   <path d="M236.099 90.6121L235.738 91.4365L236.563 91.7975L236.924 90.9731L236.099 90.6121Z" fill="#051227"/>
   <path d="M245.902 68.223L245.541 69.0474L246.366 69.4084L246.727 68.584L245.902 68.223Z" fill="#051227"/>
   <path d="M211.582 75.4303L211.221 76.2547L212.045 76.6158L212.406 75.7914L211.582 75.4303Z" fill="#051227"/>
   <path d="M214.924 67.9636L214.563 68.788L215.387 69.1491L215.748 68.3247L214.924 67.9636Z" fill="#051227"/>
   <path d="M221.384 53.0415L221.023 53.8659L221.848 54.227L222.209 53.4026L221.384 53.0415Z" fill="#051227"/>
   <path d="M208.331 82.9372L207.97 83.7616L208.795 84.1227L209.156 83.2983L208.331 82.9372Z" fill="#051227"/>
   <path d="M218.174 60.4567L217.813 61.2811L218.637 61.6422L218.998 60.8178L218.174 60.4567Z" fill="#051227"/>
   <path d="M215.401 77.03L215.04 77.8544L215.865 78.2155L216.226 77.391L215.401 77.03Z" fill="#051227"/>
   <path d="M218.612 69.6146L218.251 70.439L219.075 70.8001L219.436 69.9757L218.612 69.6146Z" fill="#051227"/>
   <path d="M225.204 54.6409L224.843 55.4653L225.667 55.8264L226.028 55.002L225.204 54.6409Z" fill="#051227"/>
   <path d="M212.059 84.4968L211.698 85.3212L212.523 85.6823L212.884 84.8579L212.059 84.4968Z" fill="#051227"/>
   <path d="M221.862 62.1078L221.501 62.9323L222.325 63.2933L222.686 62.4689L221.862 62.1078Z" fill="#051227"/>
   <path d="M219.089 78.6811L218.728 79.5055L219.552 79.8666L219.914 79.0422L219.089 78.6811Z" fill="#051227"/>
   <path d="M222.431 71.2143L222.07 72.0387L222.894 72.3998L223.255 71.5754L222.431 71.2143Z" fill="#051227"/>
   <path d="M228.891 56.2912L228.53 57.1156L229.354 57.4767L229.716 56.6523L228.891 56.2912Z" fill="#051227"/>
   <path d="M215.839 86.1879L215.478 87.0123L216.302 87.3734L216.663 86.549L215.839 86.1879Z" fill="#051227"/>
   <path d="M225.641 63.7991L225.28 64.6235L226.104 64.9846L226.466 64.1601L225.641 63.7991Z" fill="#051227"/>
   <path d="M226.119 72.8654L225.758 73.6898L226.582 74.0509L226.943 73.2265L226.119 72.8654Z" fill="#051227"/>
   <path d="M229.369 65.3577L229.007 66.1821L229.832 66.5432L230.193 65.7188L229.369 65.3577Z" fill="#051227"/>
   <path d="M226.596 81.9318L226.235 82.7562L227.06 83.1173L227.421 82.2929L226.596 81.9318Z" fill="#051227"/>
   <path d="M229.806 74.5156L229.445 75.34L230.269 75.7011L230.63 74.8767L229.806 74.5156Z" fill="#051227"/>
   <path d="M230.283 83.582L229.922 84.4064L230.747 84.7675L231.108 83.9431L230.283 83.582Z" fill="#051227"/>
   <path d="M233.625 76.1152L233.264 76.9396L234.089 77.3007L234.45 76.4762L233.625 76.1152Z" fill="#051227"/>
   <path d="M240.086 61.193L239.725 62.0175L240.549 62.3785L240.911 61.5541L240.086 61.193Z" fill="#051227"/>
   <path d="M227.033 91.0889L226.672 91.9133L227.496 92.2744L227.857 91.45L227.033 91.0889Z" fill="#051227"/>
   <path d="M236.836 68.7001L236.474 69.5245L237.299 69.8856L237.66 69.0612L236.836 68.7001Z" fill="#051227"/>
   <path d="M234.063 85.2733L233.702 86.0977L234.526 86.4587L234.887 85.6343L234.063 85.2733Z" fill="#051227"/>
   <path d="M237.313 77.7664L236.952 78.5908L237.777 78.9518L238.138 78.1274L237.313 77.7664Z" fill="#051227"/>
   <path d="M243.865 62.8843L243.504 63.7087L244.329 64.0698L244.69 63.2454L243.865 62.8843Z" fill="#051227"/>
   <path d="M230.721 92.7401L230.36 93.5645L231.184 93.9255L231.545 93.1011L230.721 92.7401Z" fill="#051227"/>
   <path d="M240.563 70.2596L240.202 71.084L241.027 71.4451L241.388 70.6207L240.563 70.2596Z" fill="#051227"/>
   <path d="M237.751 86.9243L237.39 87.7487L238.214 88.1098L238.575 87.2854L237.751 86.9243Z" fill="#051227"/>
   <path d="M241.001 79.4175L240.64 80.2419L241.464 80.603L241.825 79.7786L241.001 79.4175Z" fill="#051227"/>
   <path d="M247.593 64.4429L247.232 65.2673L248.056 65.6284L248.417 64.804L247.593 64.4429Z" fill="#051227"/>
   <path d="M234.54 94.3396L234.179 95.164L235.004 95.5251L235.365 94.7007L234.54 94.3396Z" fill="#051227"/>
   <path d="M244.342 71.9498L243.981 72.7742L244.806 73.1353L245.167 72.3109L244.342 71.9498Z" fill="#051227"/>
   <path opacity="0.2" d="M179.3 80.9L87.1 114.2L177.7 77.8L179.3 80.9Z" fill="#070707"/>
   <path opacity="0.2" d="M251 112.5L290.7 204L254.4 111.5L251 112.5Z" fill="#070707"/>
   <path d="M158.6 255.9L10.5 270.6L0 165.1L151.6 179.8L158.6 255.9Z" fill="#FF244C"/>
   <path d="M87.9 182.5L10.5 270.7L158.6 256L87.9 182.5Z" fill="#FF244C"/>
   <path opacity="0.2" d="M150 179.7L0 165.1L93.6 236.7L150 179.7Z" fill="#070707"/>
   <path d="M150 179.7L0 165.1L92.3 228.1L150 179.7Z" fill="white"/>
   <path d="M79 200.5L79.7 200.4L79.8 201L79.1 201.1L79 200.5Z" fill="#051227"/>
   <path d="M78.5 194.9H79.2L79.3 195.5L78.6 195.6L78.5 194.9Z" fill="#051227"/>
   <path d="M79.6 206L80.3 205.9V206.6L79.6 206.7V206Z" fill="#051227"/>
   <path d="M78 189.4H78.7V190L78 190.1V189.4Z" fill="#051227"/>
   <path d="M82.6614 200.061L81.9648 200.13L82.0239 200.727L82.7205 200.658L82.6614 200.061Z" fill="#051227"/>
   <path d="M81.5 194.7H82.2V195.3H81.5V194.7Z" fill="#051227"/>
   <path d="M82.5 205.6L83.2 205.5L83.3 206.2L82.6 206.3L82.5 205.6Z" fill="#051227"/>
   <path d="M80.8999 189.3H81.5999L81.6999 189.9H80.9999L80.8999 189.3Z" fill="#051227"/>
   <path d="M85.5601 199.759L84.8635 199.827L84.9226 200.425L85.6191 200.356L85.5601 199.759Z" fill="#051227"/>
   <path d="M84.3999 194.5H84.9999L85.0999 195.1H84.3999V194.5Z" fill="#051227"/>
   <path d="M85.3999 205.2H86.0999V205.8L85.4999 205.9L85.3999 205.2Z" fill="#051227"/>
   <path d="M83.7999 189.2H84.4999V189.8H83.8999L83.7999 189.2Z" fill="#051227"/>
   <path d="M88.2682 199.566L87.6711 199.625L87.7302 200.222L88.3273 200.163L88.2682 199.566Z" fill="#051227"/>
   <path d="M87.2 194.3H87.8V194.9H87.2V194.3Z" fill="#051227"/>
   <path d="M90.9652 199.265L90.3682 199.324L90.4272 199.921L91.0243 199.862L90.9652 199.265Z" fill="#051227"/>
   <path d="M89.8999 194.2L90.4999 194.1V194.7L89.8999 194.8V194.2Z" fill="#051227"/>
   <path d="M93 199.1L93.6 199L93.7 199.6L93.1 199.7L93 199.1Z" fill="#051227"/>
   <path d="M92.5 194L93.1 193.9V194.5L92.5 194.6V194Z" fill="#051227"/>
   <path d="M93.5 204.2L94.1 204.1L94.2 204.7L93.6 204.8L93.5 204.2Z" fill="#051227"/>
   <path d="M91.8999 188.9H92.4999L92.5999 189.5H91.9999L91.8999 188.9Z" fill="#051227"/>
   <path d="M95.5 198.8H96.1L96.2 199.3L95.6 199.4L95.5 198.8Z" fill="#051227"/>
   <path d="M95 193.8H95.6V194.3L95.1 194.4L95 193.8Z" fill="#051227"/>
   <path d="M96.1 203.9L96.6 203.8L96.7 204.4H96.1V203.9Z" fill="#051227"/>
   <path d="M94.5 188.8H95.1V189.4H94.5V188.8Z" fill="#051227"/>
   <path d="M98 198.6L98.5 198.5L98.6 199.1H98V198.6Z" fill="#051227"/>
   <path d="M97.5 193.6H98L98.1 194.2H97.5V193.6Z" fill="#051227"/>
   <path d="M98.5 203.5H99.1V204L98.6 204.1L98.5 203.5Z" fill="#051227"/>
   <path d="M96.8999 188.7H97.4999V189.3H96.9999L96.8999 188.7Z" fill="#051227"/>
   <path d="M79.2999 203.2H79.9999L80.0999 203.8L79.3999 203.9L79.2999 203.2Z" fill="#051227"/>
   <path d="M78.7999 197.7L79.4999 197.6V198.3H78.7999V197.7Z" fill="#051227"/>
   <path d="M77.7 186.7H78.4L78.5 187.3H77.8L77.7 186.7Z" fill="#051227"/>
   <path d="M79.7999 208.8L80.4999 208.7L80.5999 209.4L79.8999 209.5L79.7999 208.8Z" fill="#051227"/>
   <path d="M78.2 192.2L78.9 192.1L79 192.8H78.3L78.2 192.2Z" fill="#051227"/>
   <path d="M82.2999 202.9L82.9999 202.8V203.4L82.2999 203.5V202.9Z" fill="#051227"/>
   <path d="M81.7 197.4H82.4L82.5 198L81.8 198.1L81.7 197.4Z" fill="#051227"/>
   <path d="M80.7 186.6H81.4V187.2H80.7V186.6Z" fill="#051227"/>
   <path d="M82.7999 208.4L83.4999 208.3L83.5999 208.9L82.8999 209L82.7999 208.4Z" fill="#051227"/>
   <path d="M81.2 192H81.9V192.6H81.3L81.2 192Z" fill="#051227"/>
   <path d="M85.2 202.6L85.8 202.5L85.9 203.1L85.2 203.2V202.6Z" fill="#051227"/>
   <path d="M84.6 197.2L85.3 197.1V197.8H84.7L84.6 197.2Z" fill="#051227"/>
   <path d="M83.6 186.6H84.2L84.3 187.2H83.6V186.6Z" fill="#051227"/>
   <path d="M85.7 207.9H86.4V208.5L85.8 208.6L85.7 207.9Z" fill="#051227"/>
   <path d="M84.1 191.9L84.7 191.8L84.8 192.4L84.2 192.5L84.1 191.9Z" fill="#051227"/>
   <path d="M87.3999 197L88.0999 196.9V197.5L87.4999 197.6L87.3999 197Z" fill="#051227"/>
   <path d="M86.8999 191.7H87.4999L87.5999 192.3H86.8999V191.7Z" fill="#051227"/>
   <path d="M90.7 201.9H91.3V202.5H90.7V201.9Z" fill="#051227"/>
   <path d="M90.1 196.7H90.7L90.8 197.3H90.2L90.1 196.7Z" fill="#051227"/>
   <path d="M93.2999 201.6H93.8999V202.1L93.2999 202.2V201.6Z" fill="#051227"/>
   <path d="M92.7 196.5H93.3L93.4 197.1H92.8L92.7 196.5Z" fill="#051227"/>
   <path d="M91.7 186.4H92.3V187H91.7V186.4Z" fill="#051227"/>
   <path d="M93.7999 206.8L94.3999 206.7L94.4999 207.3H93.8999L93.7999 206.8Z" fill="#051227"/>
   <path d="M92.2 191.4H92.8L92.9 192H92.3L92.2 191.4Z" fill="#051227"/>
   <path d="M95.7999 201.3H96.3999V201.8L95.8999 201.9L95.7999 201.3Z" fill="#051227"/>
   <path d="M95.2999 196.3H95.7999L95.8999 196.8L95.2999 196.9V196.3Z" fill="#051227"/>
   <path d="M94.2 186.3H94.8V186.9H94.3L94.2 186.3Z" fill="#051227"/>
   <path d="M96.2999 206.4L96.8999 206.3L96.9999 206.9L96.3999 207L96.2999 206.4Z" fill="#051227"/>
   <path d="M94.7 191.3H95.3L95.4 191.9H94.8L94.7 191.3Z" fill="#051227"/>
   <path d="M98.2 201.1L98.8 201L98.9 201.6H98.3L98.2 201.1Z" fill="#051227"/>
   <path d="M97.7 196.1H98.3V196.6L97.8 196.7L97.7 196.1Z" fill="#051227"/>
   <path d="M96.7 186.3H97.2L97.3 186.8L96.7 186.9V186.3Z" fill="#051227"/>
   <path d="M98.7999 206L99.2999 205.9L99.3999 206.5L98.7999 206.6V206Z" fill="#051227"/>
   <path d="M97.2 191.2H97.8V191.7L97.3 191.8L97.2 191.2Z" fill="#051227"/>
   <path opacity="0.2" d="M63.9 214L10.5 270.6L61.7 212.3L63.9 214Z" fill="#070707"/>
   <path opacity="0.2" d="M115.6 214.4L158.6 255.9L117.1 212.9L115.6 214.4Z" fill="#070707"/>
   <path d="M198.6 318.8L195.8 351.3C192.9 351.8 190 352.3 187 352.7C186.8 352.7 186.6 352.7 186.4 352.8C180.4 353.6 174.3 353.9 168.1 353.9C153.7 353.9 139.8 351.8 126.6 347.9C126.1 347.8 125.7 347.6 125.2 347.5C115.3 344.5 105.8 340.4 96.8999 335.4L103.1 284.7L198.6 318.8Z" fill="#FF244C"/>
   <path d="M187 352.8C186.8 352.8 186.6 352.8 186.3 352.9C180.3 353.7 174.2 354 168 354C153.6 354 139.7 351.9 126.5 348C126 347.9 125.6 347.7 125.1 347.6L143.8 331.4L146.1 329.4L160.8 316.6L160.9 316.5L164.7 313.2L166.9 317L167 317.1L168.2 319.3L168.4 319.8L176.5 334.3L177.8 336.6L187 352.8Z" fill="#FF244C"/>
   <path opacity="0.2" d="M197.8 318.6L103 284.8L161.3 351.4L197.8 318.6Z" fill="#070707"/>
   <path d="M197.8 318.6L103 284.8L161.6 345.2L197.8 318.6Z" fill="white"/>
   <path d="M153.6 322.3L154 322.4V322.9L153.5 322.8L153.6 322.3Z" fill="#051227"/>
   <path d="M154.2 318.1L154.6 318.3V318.8L154.1 318.6L154.2 318.1Z" fill="#051227"/>
   <path d="M152.9 326.5L153.4 326.6L153.3 327.1L152.9 327V326.5Z" fill="#051227"/>
   <path d="M154.8 313.9L155.3 314.1L155.2 314.6L154.7 314.4L154.8 313.9Z" fill="#051227"/>
   <path d="M155.6 322.8L156 322.9V323.4L155.5 323.3L155.6 322.8Z" fill="#051227"/>
   <path d="M156.2 318.7L156.7 318.8L156.6 319.3L156.1 319.2L156.2 318.7Z" fill="#051227"/>
   <path d="M155 327L155.4 327.1V327.5L154.9 327.4L155 327Z" fill="#051227"/>
   <path d="M156.8 314.5L157.3 314.6L157.2 315.1L156.7 315L156.8 314.5Z" fill="#051227"/>
   <path d="M157.6 323.3L158 323.4L157.9 323.9L157.5 323.8L157.6 323.3Z" fill="#051227"/>
   <path d="M158.2 319.2L158.6 319.3V319.8L158.1 319.7L158.2 319.2Z" fill="#051227"/>
   <path d="M157 327.4L157.4 327.5L157.3 328L156.9 327.9L157 327.4Z" fill="#051227"/>
   <path d="M158.8 315.1L159.3 315.2L159.2 315.7L158.7 315.6L158.8 315.1Z" fill="#051227"/>
   <path d="M159.5 323.8L160 323.9L159.9 324.4L159.5 324.3V323.8Z" fill="#051227"/>
   <path d="M160.1 319.7L160.6 319.9L160.5 320.3L160.1 320.2V319.7Z" fill="#051227"/>
   <path d="M161.5 324.3L161.9 324.4L161.8 324.9L161.4 324.8L161.5 324.3Z" fill="#051227"/>
   <path d="M162.1 320.3L162.5 320.4L162.4 320.8L162 320.7L162.1 320.3Z" fill="#051227"/>
   <path d="M163.4 324.8L163.8 324.9L163.7 325.4L163.3 325.2L163.4 324.8Z" fill="#051227"/>
   <path d="M164 320.8L164.4 320.9L164.3 321.3L163.9 321.2L164 320.8Z" fill="#051227"/>
   <path d="M162.8 328.8L163.2 328.9L163.1 329.4L162.7 329.3L162.8 328.8Z" fill="#051227"/>
   <path d="M164.6 316.7L165 316.8V317.3L164.5 317.2L164.6 316.7Z" fill="#051227"/>
   <path d="M165.2 325.3L165.7 325.4L165.6 325.8L165.2 325.7V325.3Z" fill="#051227"/>
   <path d="M165.9 321.3L166.3 321.4L166.2 321.8L165.8 321.7L165.9 321.3Z" fill="#051227"/>
   <path d="M164.6 329.2L165.1 329.3L165 329.8L164.6 329.7V329.2Z" fill="#051227"/>
   <path d="M166.5 317.2L166.9 317.4L166.8 317.8L166.4 317.7L166.5 317.2Z" fill="#051227"/>
   <path d="M167.1 325.7L167.5 325.8L167.4 326.3L167 326.2L167.1 325.7Z" fill="#051227"/>
   <path d="M167.7 321.8L168.1 321.9V322.3L167.6 322.2L167.7 321.8Z" fill="#051227"/>
   <path d="M166.5 329.7L166.9 329.8L166.8 330.2L166.4 330.1L166.5 329.7Z" fill="#051227"/>
   <path d="M168.3 317.8L168.7 317.9V318.4L168.3 318.2V317.8Z" fill="#051227"/>
   <path d="M153.2 324.4L153.7 324.5L153.6 325L153.2 324.9V324.4Z" fill="#051227"/>
   <path d="M153.9 320.2L154.3 320.4V320.8L153.8 320.7L153.9 320.2Z" fill="#051227"/>
   <path d="M155.1 311.8L155.6 312L155.5 312.5L155 312.3L155.1 311.8Z" fill="#051227"/>
   <path d="M152.6 328.6L153.1 328.7L153 329.1L152.6 329V328.6Z" fill="#051227"/>
   <path d="M154.5 316L154.9 316.2V316.7L154.4 316.5L154.5 316Z" fill="#051227"/>
   <path d="M155.3 324.9L155.7 325V325.5L155.2 325.4L155.3 324.9Z" fill="#051227"/>
   <path d="M155.9 320.8L156.3 320.9V321.4L155.8 321.2L155.9 320.8Z" fill="#051227"/>
   <path d="M157.1 312.4L157.6 312.6L157.5 313L157 312.9L157.1 312.4Z" fill="#051227"/>
   <path d="M154.7 329L155.1 329.1V329.6L154.6 329.5L154.7 329Z" fill="#051227"/>
   <path d="M156.5 316.6L157 316.7L156.9 317.2L156.4 317.1L156.5 316.6Z" fill="#051227"/>
   <path d="M157.3 325.4L157.7 325.5L157.6 326L157.2 325.9L157.3 325.4Z" fill="#051227"/>
   <path d="M157.9 321.3L158.3 321.4V321.9L157.8 321.8L157.9 321.3Z" fill="#051227"/>
   <path d="M159.1 313L159.6 313.1L159.5 313.6L159 313.5L159.1 313Z" fill="#051227"/>
   <path d="M156.6 329.5L157.1 329.6L157 330L156.6 329.9V329.5Z" fill="#051227"/>
   <path d="M158.5 317.1L158.9 317.3V317.7L158.4 317.6L158.5 317.1Z" fill="#051227"/>
   <path d="M159.8 321.8L160.3 321.9L160.2 322.4L159.8 322.3V321.8Z" fill="#051227"/>
   <path d="M160.4 317.7L160.9 317.8L160.8 318.3L160.4 318.2V317.7Z" fill="#051227"/>
   <path d="M161.2 326.3L161.6 326.4L161.5 326.9L161.1 326.8L161.2 326.3Z" fill="#051227"/>
   <path d="M161.8 322.3L162.2 322.4L162.1 322.9L161.7 322.8L161.8 322.3Z" fill="#051227"/>
   <path d="M163.1 326.8L163.5 326.9L163.4 327.4L163 327.3L163.1 326.8Z" fill="#051227"/>
   <path d="M163.7 322.8L164.1 322.9L164 323.4L163.6 323.2L163.7 322.8Z" fill="#051227"/>
   <path d="M164.9 314.7L165.3 314.8V315.3L164.8 315.2L164.9 314.7Z" fill="#051227"/>
   <path d="M162.4 330.8L162.9 330.9L162.8 331.3L162.4 331.2V330.8Z" fill="#051227"/>
   <path d="M164.3 318.7L164.7 318.9V319.3L164.2 319.2L164.3 318.7Z" fill="#051227"/>
   <path d="M164.9 327.2L165.4 327.4L165.3 327.8L164.9 327.7V327.2Z" fill="#051227"/>
   <path d="M165.5 323.3L166 323.4L165.9 323.8L165.5 323.7V323.3Z" fill="#051227"/>
   <path d="M166.8 315.2L167.2 315.4L167.1 315.8L166.7 315.7L166.8 315.2Z" fill="#051227"/>
   <path d="M164.3 331.2L164.7 331.3V331.8L164.3 331.7V331.2Z" fill="#051227"/>
   <path d="M166.2 319.3L166.6 319.4L166.5 319.8L166.1 319.7L166.2 319.3Z" fill="#051227"/>
   <path d="M166.8 327.7L167.2 327.8L167.1 328.3L166.7 328.2L166.8 327.7Z" fill="#051227"/>
   <path d="M167.4 323.7L167.8 323.9L167.7 324.3L167.3 324.2L167.4 323.7Z" fill="#051227"/>
   <path d="M168.6 315.8L169.1 315.9L169 316.4L168.6 316.2V315.8Z" fill="#051227"/>
   <path d="M166.2 331.6L166.6 331.7L166.5 332.2L166.1 332.1L166.2 331.6Z" fill="#051227"/>
   <path d="M168 319.8L168.4 319.9V320.3L167.9 320.2L168 319.8Z" fill="#051227"/>
   <path opacity="0.2" d="M145 332.9L126.6 348C126.1 347.9 125.7 347.7 125.2 347.6L143.9 331.4L144.1 331.6L145 332.9Z" fill="#070707"/>
   <path opacity="0.2" d="M186.9 352.8C186.7 352.8 186.5 352.8 186.3 352.9L176.9 337.5V337.4L177.8 336.5V336.6L186.9 352.8Z" fill="#070707"/>
</svg>