<svg width="289" height="289" viewBox="0 0 289 289" fill="none" xmlns="http://www.w3.org/2000/svg">
<path d="M144.5 289C224.305 289 289 224.305 289 144.5C289 64.6948 224.305 0 144.5 0C64.6948 0 0 64.6948 0 144.5C0 224.305 64.6948 289 144.5 289Z" fill="#051227"/>
<mask id="mask0" mask-type="alpha" maskUnits="userSpaceOnUse" x="0" y="0" width="289" height="289">
<path d="M144.5 289C224.305 289 289 224.305 289 144.5C289 64.6949 224.305 0 144.5 0C64.6949 0 0 64.6949 0 144.5C0 224.305 64.6949 289 144.5 289Z" fill="#051227"/>
</mask>
<g mask="url(#mask0)">
<path d="M278.67 52.4214V52.3811H67.6735V306.337H278.67V100.874V52.4214Z" fill="#FF244C"/>
<path d="M43.2795 199.282L42.5106 200.049L43.2764 200.818L44.0453 200.052L43.2795 199.282Z" fill="white"/>
<path d="M36.4211 192.418L35.6522 193.185L36.418 193.954L37.1869 193.188L36.4211 192.418Z" fill="white"/>
<path d="M50.1386 206.146L49.3698 206.912L50.1355 207.682L50.9044 206.915L50.1386 206.146Z" fill="white"/>
<path d="M29.5622 185.554L28.7933 186.321L29.5591 187.091L30.328 186.324L29.5622 185.554Z" fill="white"/>
<path d="M46.6733 195.814L45.9044 196.58L46.6702 197.35L47.4391 196.583L46.6733 195.814Z" fill="white"/>
<path d="M39.8846 189.02L39.1157 189.786L39.8815 190.556L40.6504 189.789L39.8846 189.02Z" fill="white"/>
<path d="M53.5324 202.677L52.7635 203.444L53.5293 204.213L54.2982 203.447L53.5324 202.677Z" fill="white"/>
<path d="M33.0255 182.156L32.2566 182.923L33.0224 183.692L33.7912 182.926L33.0255 182.156Z" fill="white"/>
<path d="M50.1377 192.415L49.3688 193.182L50.1345 193.951L50.9034 193.185L50.1377 192.415Z" fill="white"/>
<path d="M43.2787 185.551L42.5098 186.318L43.2755 187.088L44.0444 186.321L43.2787 185.551Z" fill="white"/>
<path d="M56.9267 199.348L56.1578 200.115L56.9236 200.885L57.6925 200.118L56.9267 199.348Z" fill="white"/>
<path d="M36.4193 178.688L35.6504 179.454L36.4162 180.224L37.185 179.457L36.4193 178.688Z" fill="white"/>
<path d="M53.6012 189.017L52.8323 189.783L53.598 190.553L54.3669 189.786L53.6012 189.017Z" fill="white"/>
<path d="M46.742 182.153L45.9731 182.92L46.7389 183.689L47.5078 182.923L46.742 182.153Z" fill="white"/>
<path d="M56.9251 185.618L56.1562 186.385L56.922 187.154L57.6909 186.388L56.9251 185.618Z" fill="white"/>
<path d="M50.1357 178.685L49.3668 179.451L50.1326 180.221L50.9015 179.454L50.1357 178.685Z" fill="white"/>
<path d="M60.3885 182.22L59.6196 182.986L60.3854 183.756L61.1543 182.989L60.3885 182.22Z" fill="white"/>
<path d="M53.5993 175.286L52.8304 176.053L53.5962 176.823L54.3651 176.056L53.5993 175.286Z" fill="white"/>
<path d="M67.2477 189.083L66.4788 189.85L67.2445 190.62L68.0134 189.853L67.2477 189.083Z" fill="white"/>
<path d="M46.7398 168.423L45.9709 169.189L46.7367 169.959L47.5056 169.192L46.7398 168.423Z" fill="white"/>
<path d="M63.7822 178.752L63.0133 179.518L63.7791 180.288L64.5479 179.521L63.7822 178.752Z" fill="white"/>
<path d="M57.0626 171.888L56.2937 172.655L57.0595 173.424L57.8283 172.658L57.0626 171.888Z" fill="white"/>
<path d="M70.6414 185.615L69.8726 186.382L70.6383 187.151L71.4072 186.385L70.6414 185.615Z" fill="white"/>
<path d="M50.2035 165.025L49.4346 165.791L50.2003 166.561L50.9692 165.794L50.2035 165.025Z" fill="white"/>
<path d="M67.2458 175.353L66.4769 176.12L67.2427 176.889L68.0116 176.123L67.2458 175.353Z" fill="white"/>
<path d="M60.3866 168.489L59.6177 169.256L60.3834 170.026L61.1523 169.259L60.3866 168.489Z" fill="white"/>
<path d="M74.1047 182.217L73.3358 182.983L74.1016 183.753L74.8705 182.986L74.1047 182.217Z" fill="white"/>
<path d="M53.5971 161.556L52.8282 162.323L53.594 163.092L54.3629 162.326L53.5971 161.556Z" fill="white"/>
<path d="M46.6746 202.748L45.9058 203.515L46.6715 204.285L47.4404 203.518L46.6746 202.748Z" fill="white"/>
<path d="M39.8154 195.885L39.0465 196.651L39.8123 197.421L40.5812 196.654L39.8154 195.885Z" fill="white"/>
<path d="M26.1671 182.088L25.3982 182.855L26.164 183.624L26.9328 182.858L26.1671 182.088Z" fill="white"/>
<path d="M53.4642 209.542L52.6953 210.309L53.4611 211.078L54.2299 210.312L53.4642 209.542Z" fill="white"/>
<path d="M33.0262 188.952L32.2573 189.718L33.0231 190.488L33.792 189.721L33.0262 188.952Z" fill="white"/>
<path d="M50.0683 199.28L49.2994 200.047L50.0652 200.816L50.8341 200.05L50.0683 199.28Z" fill="white"/>
<path d="M43.2092 192.416L42.4403 193.183L43.2061 193.953L43.975 193.186L43.2092 192.416Z" fill="white"/>
<path d="M29.6303 178.689L28.8615 179.456L29.6272 180.226L30.3961 179.459L29.6303 178.689Z" fill="white"/>
<path d="M56.9276 206.144L56.1587 206.91L56.9245 207.68L57.6934 206.913L56.9276 206.144Z" fill="white"/>
<path d="M36.4896 185.553L35.7207 186.32L36.4865 187.089L37.2554 186.323L36.4896 185.553Z" fill="white"/>
<path d="M53.5319 195.882L52.7631 196.648L53.5288 197.418L54.2977 196.651L53.5319 195.882Z" fill="white"/>
<path d="M46.6727 189.018L45.9038 189.785L46.6696 190.554L47.4385 189.788L46.6727 189.018Z" fill="white"/>
<path d="M33.0251 175.221L32.2562 175.988L33.022 176.757L33.7909 175.991L33.0251 175.221Z" fill="white"/>
<path d="M60.3908 202.745L59.6219 203.512L60.3877 204.282L61.1566 203.515L60.3908 202.745Z" fill="white"/>
<path d="M39.8833 182.085L39.1144 182.852L39.8801 183.621L40.649 182.855L39.8833 182.085Z" fill="white"/>
<path d="M50.1361 185.62L49.3672 186.386L50.1329 187.156L50.9018 186.389L50.1361 185.62Z" fill="white"/>
<path d="M43.2768 178.756L42.5079 179.523L43.2737 180.293L44.0426 179.526L43.2768 178.756Z" fill="white"/>
<path d="M60.389 189.015L59.6201 189.782L60.3859 190.551L61.1548 189.785L60.389 189.015Z" fill="white"/>
<path d="M53.5309 182.151L52.762 182.918L53.5277 183.688L54.2966 182.921L53.5309 182.151Z" fill="white"/>
<path d="M63.8525 185.617L63.0836 186.383L63.8494 187.153L64.6183 186.386L63.8525 185.617Z" fill="white"/>
<path d="M56.9944 178.753L56.2255 179.52L56.9912 180.289L57.7601 179.523L56.9944 178.753Z" fill="white"/>
<path d="M43.2761 165.026L42.5072 165.792L43.273 166.562L44.0418 165.795L43.2761 165.026Z" fill="white"/>
<path d="M70.7118 192.48L69.9429 193.247L70.7086 194.017L71.4775 193.25L70.7118 192.48Z" fill="white"/>
<path d="M50.1352 171.889L49.3663 172.656L50.1321 173.426L50.901 172.659L50.1352 171.889Z" fill="white"/>
<path d="M67.2473 182.148L66.4784 182.915L67.2441 183.684L68.013 182.918L67.2473 182.148Z" fill="white"/>
<path d="M60.4577 175.355L59.6888 176.121L60.4546 176.891L61.2235 176.124L60.4577 175.355Z" fill="white"/>
<path d="M46.7396 161.627L45.9707 162.394L46.7365 163.164L47.5054 162.397L46.7396 161.627Z" fill="white"/>
<path d="M74.0355 189.082L73.2666 189.849L74.0324 190.618L74.8013 189.852L74.0355 189.082Z" fill="white"/>
<path d="M53.5987 168.491L52.8298 169.258L53.5956 170.027L54.3645 169.261L53.5987 168.491Z" fill="white"/>
<path d="M70.7107 178.75L69.9418 179.517L70.7075 180.286L71.4764 179.52L70.7107 178.75Z" fill="white"/>
<path d="M63.8514 171.886L63.0825 172.653L63.8483 173.422L64.6172 172.656L63.8514 171.886Z" fill="white"/>
<path d="M50.2029 158.229L49.434 158.996L50.1997 159.765L50.9686 158.999L50.2029 158.229Z" fill="white"/>
<path d="M77.499 185.684L76.7301 186.45L77.4959 187.22L78.2648 186.453L77.499 185.684Z" fill="white"/>
<path d="M56.9923 165.023L56.2234 165.789L56.9891 166.559L57.758 165.792L56.9923 165.023Z" fill="white"/>
<path d="M46.2795 118.282L45.5106 119.049L46.2764 119.818L47.0453 119.052L46.2795 118.282Z" fill="white"/>
<path d="M39.4211 111.418L38.6522 112.185L39.418 112.954L40.1869 112.188L39.4211 111.418Z" fill="white"/>
<path d="M53.1386 125.146L52.3698 125.912L53.1355 126.682L53.9044 125.915L53.1386 125.146Z" fill="white"/>
<path d="M32.5622 104.554L31.7933 105.321L32.5591 106.091L33.328 105.324L32.5622 104.554Z" fill="white"/>
<path d="M49.6733 114.814L48.9044 115.58L49.6702 116.35L50.4391 115.583L49.6733 114.814Z" fill="white"/>
<path d="M42.8846 108.02L42.1157 108.786L42.8815 109.556L43.6504 108.789L42.8846 108.02Z" fill="white"/>
<path d="M56.5324 121.677L55.7635 122.444L56.5293 123.213L57.2982 122.447L56.5324 121.677Z" fill="white"/>
<path d="M36.0255 101.156L35.2566 101.923L36.0224 102.692L36.7912 101.926L36.0255 101.156Z" fill="white"/>
<path d="M53.1377 111.415L52.3688 112.182L53.1345 112.951L53.9034 112.185L53.1377 111.415Z" fill="white"/>
<path d="M46.2787 104.551L45.5098 105.318L46.2755 106.088L47.0444 105.321L46.2787 104.551Z" fill="white"/>
<path d="M59.9267 118.348L59.1578 119.115L59.9236 119.885L60.6925 119.118L59.9267 118.348Z" fill="white"/>
<path d="M39.4193 97.6877L38.6504 98.4543L39.4162 99.2239L40.185 98.4573L39.4193 97.6877Z" fill="white"/>
<path d="M56.6012 108.017L55.8323 108.783L56.598 109.553L57.3669 108.786L56.6012 108.017Z" fill="white"/>
<path d="M49.742 101.153L48.9731 101.92L49.7389 102.689L50.5078 101.923L49.742 101.153Z" fill="white"/>
<path d="M59.9251 104.618L59.1562 105.385L59.922 106.154L60.6909 105.388L59.9251 104.618Z" fill="white"/>
<path d="M53.1357 97.6848L52.3668 98.4514L53.1326 99.221L53.9015 98.4544L53.1357 97.6848Z" fill="white"/>
<path d="M63.3885 101.22L62.6196 101.986L63.3854 102.756L64.1543 101.989L63.3885 101.22Z" fill="white"/>
<path d="M56.5993 94.2863L55.8304 95.0529L56.5962 95.8225L57.3651 95.0559L56.5993 94.2863Z" fill="white"/>
<path d="M70.2477 108.083L69.4788 108.85L70.2445 109.62L71.0134 108.853L70.2477 108.083Z" fill="white"/>
<path d="M49.7398 87.4228L48.9709 88.1894L49.7367 88.9589L50.5056 88.1923L49.7398 87.4228Z" fill="white"/>
<path d="M66.7822 97.7516L66.0133 98.5182L66.7791 99.2878L67.5479 98.5212L66.7822 97.7516Z" fill="white"/>
<path d="M60.0626 90.888L59.2937 91.6546L60.0595 92.4242L60.8283 91.6576L60.0626 90.888Z" fill="white"/>
<path d="M73.6414 104.615L72.8726 105.382L73.6383 106.151L74.4072 105.385L73.6414 104.615Z" fill="white"/>
<path d="M53.2035 84.0245L52.4346 84.7911L53.2003 85.5607L53.9692 84.7941L53.2035 84.0245Z" fill="white"/>
<path d="M70.2458 94.3531L69.4769 95.1198L70.2427 95.8894L71.0116 95.1227L70.2458 94.3531Z" fill="white"/>
<path d="M63.3866 87.4895L62.6177 88.2561L63.3834 89.0257L64.1523 88.2591L63.3866 87.4895Z" fill="white"/>
<path d="M77.1047 101.217L76.3358 101.983L77.1016 102.753L77.8705 101.986L77.1047 101.217Z" fill="white"/>
<path d="M56.5971 80.5561L55.8282 81.3227L56.594 82.0923L57.3629 81.3257L56.5971 80.5561Z" fill="white"/>
<path d="M49.6746 121.748L48.9058 122.515L49.6715 123.285L50.4404 122.518L49.6746 121.748Z" fill="white"/>
<path d="M42.8154 114.885L42.0465 115.651L42.8123 116.421L43.5812 115.654L42.8154 114.885Z" fill="white"/>
<path d="M29.1671 101.088L28.3982 101.855L29.164 102.624L29.9328 101.858L29.1671 101.088Z" fill="white"/>
<path d="M56.4642 128.542L55.6953 129.309L56.4611 130.078L57.2299 129.312L56.4642 128.542Z" fill="white"/>
<path d="M36.0262 107.952L35.2573 108.718L36.0231 109.488L36.792 108.721L36.0262 107.952Z" fill="white"/>
<path d="M53.0683 118.28L52.2994 119.047L53.0652 119.816L53.8341 119.05L53.0683 118.28Z" fill="white"/>
<path d="M46.2092 111.416L45.4403 112.183L46.2061 112.953L46.975 112.186L46.2092 111.416Z" fill="white"/>
<path d="M32.6303 97.6895L31.8615 98.4561L32.6272 99.2257L33.3961 98.4591L32.6303 97.6895Z" fill="white"/>
<path d="M59.9276 125.144L59.1587 125.91L59.9245 126.68L60.6934 125.913L59.9276 125.144Z" fill="white"/>
<path d="M39.4896 104.553L38.7207 105.32L39.4865 106.089L40.2554 105.323L39.4896 104.553Z" fill="white"/>
<path d="M56.5319 114.882L55.7631 115.648L56.5288 116.418L57.2977 115.651L56.5319 114.882Z" fill="white"/>
<path d="M49.6727 108.018L48.9038 108.785L49.6696 109.554L50.4385 108.788L49.6727 108.018Z" fill="white"/>
<path d="M36.0251 94.221L35.2562 94.9876L36.022 95.7572L36.7909 94.9906L36.0251 94.221Z" fill="white"/>
<path d="M63.3908 121.745L62.6219 122.512L63.3877 123.282L64.1566 122.515L63.3908 121.745Z" fill="white"/>
<path d="M42.8833 101.085L42.1144 101.852L42.8801 102.621L43.649 101.855L42.8833 101.085Z" fill="white"/>
<path d="M53.1361 104.62L52.3672 105.386L53.1329 106.156L53.9018 105.389L53.1361 104.62Z" fill="white"/>
<path d="M46.2768 97.7564L45.5079 98.523L46.2737 99.2926L47.0426 98.526L46.2768 97.7564Z" fill="white"/>
<path d="M63.389 108.015L62.6201 108.782L63.3859 109.551L64.1548 108.785L63.389 108.015Z" fill="white"/>
<path d="M56.5309 101.151L55.762 101.918L56.5277 102.688L57.2966 101.921L56.5309 101.151Z" fill="white"/>
<path d="M66.8525 104.617L66.0836 105.383L66.8494 106.153L67.6183 105.386L66.8525 104.617Z" fill="white"/>
<path d="M59.9944 97.753L59.2255 98.5196L59.9912 99.2892L60.7601 98.5226L59.9944 97.753Z" fill="white"/>
<path d="M46.2761 84.0256L45.5072 84.7923L46.273 85.5618L47.0418 84.7952L46.2761 84.0256Z" fill="white"/>
<path d="M73.7118 111.48L72.9429 112.247L73.7086 113.017L74.4775 112.25L73.7118 111.48Z" fill="white"/>
<path d="M53.1352 90.8894L52.3663 91.656L53.1321 92.4256L53.901 91.659L53.1352 90.8894Z" fill="white"/>
<path d="M70.2473 101.148L69.4784 101.915L70.2441 102.684L71.013 101.918L70.2473 101.148Z" fill="white"/>
<path d="M63.4577 94.3546L62.6888 95.1212L63.4546 95.8908L64.2235 95.1242L63.4577 94.3546Z" fill="white"/>
<path d="M49.7396 80.6273L48.9707 81.3939L49.7365 82.1635L50.5054 81.3969L49.7396 80.6273Z" fill="white"/>
<path d="M77.0355 108.082L76.2666 108.849L77.0324 109.618L77.8013 108.852L77.0355 108.082Z" fill="white"/>
<path d="M56.5987 87.4911L55.8298 88.2578L56.5956 89.0273L57.3645 88.2607L56.5987 87.4911Z" fill="white"/>
<path d="M73.7107 97.75L72.9418 98.5166L73.7075 99.2861L74.4764 98.5195L73.7107 97.75Z" fill="white"/>
<path d="M66.8514 90.8862L66.0825 91.6528L66.8483 92.4224L67.6172 91.6558L66.8514 90.8862Z" fill="white"/>
<path d="M53.2029 77.229L52.434 77.9956L53.1997 78.7652L53.9686 77.9986L53.2029 77.229Z" fill="white"/>
<path d="M80.499 104.684L79.7301 105.45L80.4959 106.22L81.2648 105.453L80.499 104.684Z" fill="white"/>
<path d="M59.9923 84.0227L59.2234 84.7893L59.9891 85.5589L60.758 84.7923L59.9923 84.0227Z" fill="white"/>
<path d="M252.118 45L259.863 52.3701H67.7202V306.305L57 296.924V45H252.118Z" fill="white"/>
<path d="M213.033 253.296C210.598 253.296 208.606 251.304 208.606 248.87C208.606 229.895 193.152 214.441 174.178 214.441C155.203 214.441 139.749 229.895 139.749 248.87C139.749 251.304 137.778 253.296 135.323 253.296C132.888 253.296 130.896 251.304 130.896 248.87C130.896 225.005 150.313 205.588 174.178 205.588C198.042 205.588 217.459 225.005 217.459 248.87C217.439 251.324 215.467 253.296 213.033 253.296Z" fill="white"/>
<path d="M154.136 165.123L136.007 146.993L154.136 128.844L144.699 119.407L126.57 137.536L108.44 119.407L98.9828 128.864L117.112 146.993L98.9828 165.123L108.44 174.56L126.57 156.431L144.699 174.56L154.136 165.123Z" fill="white"/>
<path d="M249.372 165.123L231.223 146.993L249.372 128.844L239.915 119.407L221.786 137.536L203.656 119.407L194.199 128.864L212.349 146.993L194.199 165.123L203.656 174.56L221.786 156.431L239.915 174.56L249.372 165.123Z" fill="white"/>
</g>
</svg>
