<svg width="185" height="42" viewBox="0 0 185 42" fill="none" xmlns="http://www.w3.org/2000/svg">
<rect width="3" height="3" fill="#BFBFBF"/>
<rect y="26" width="3" height="3" fill="#BFBFBF"/>
<rect x="13" width="3" height="3" fill="#BFBFBF"/>
<rect x="13" y="26" width="3" height="3" fill="#BFBFBF"/>
<rect x="26" width="3" height="3" fill="#BFBFBF"/>
<rect x="26" y="26" width="3" height="3" fill="#BFBFBF"/>
<rect x="39" width="3" height="3" fill="#BFBFBF"/>
<rect x="39" y="26" width="3" height="3" fill="#BFBFBF"/>
<rect x="52" width="3" height="3" fill="#BFBFBF"/>
<rect x="52" y="26" width="3" height="3" fill="#BFBFBF"/>
<rect x="65" width="3" height="3" fill="#BFBFBF"/>
<rect x="65" y="26" width="3" height="3" fill="#BFBFBF"/>
<rect x="78" width="3" height="3" fill="#BFBFBF"/>
<rect x="78" y="26" width="3" height="3" fill="#BFBFBF"/>
<rect x="91" width="3" height="3" fill="#BFBFBF"/>
<rect x="91" y="26" width="3" height="3" fill="#BFBFBF"/>
<rect x="104" width="3" height="3" fill="#BFBFBF"/>
<rect x="104" y="26" width="3" height="3" fill="#BFBFBF"/>
<rect x="117" width="3" height="3" fill="#BFBFBF"/>
<rect x="117" y="26" width="3" height="3" fill="#BFBFBF"/>
<rect x="130" width="3" height="3" fill="#BFBFBF"/>
<rect x="130" y="26" width="3" height="3" fill="#BFBFBF"/>
<rect x="143" width="3" height="3" fill="#BFBFBF"/>
<rect x="143" y="26" width="3" height="3" fill="#BFBFBF"/>
<rect x="156" width="3" height="3" fill="#BFBFBF"/>
<rect x="156" y="26" width="3" height="3" fill="#BFBFBF"/>
<rect x="169" width="3" height="3" fill="#BFBFBF"/>
<rect x="169" y="26" width="3" height="3" fill="#BFBFBF"/>
<rect x="182" width="3" height="3" fill="#BFBFBF"/>
<rect x="182" y="26" width="3" height="3" fill="#BFBFBF"/>
<rect y="13" width="3" height="3" fill="#BFBFBF"/>
<rect y="39" width="3" height="3" fill="#BFBFBF"/>
<rect x="13" y="13" width="3" height="3" fill="#BFBFBF"/>
<rect x="13" y="39" width="3" height="3" fill="#BFBFBF"/>
<rect x="26" y="13" width="3" height="3" fill="#BFBFBF"/>
<rect x="26" y="39" width="3" height="3" fill="#BFBFBF"/>
<rect x="39" y="13" width="3" height="3" fill="#BFBFBF"/>
<rect x="39" y="39" width="3" height="3" fill="#BFBFBF"/>
<rect x="52" y="13" width="3" height="3" fill="#BFBFBF"/>
<rect x="52" y="39" width="3" height="3" fill="#BFBFBF"/>
<rect x="65" y="13" width="3" height="3" fill="#BFBFBF"/>
<rect x="65" y="39" width="3" height="3" fill="#BFBFBF"/>
<rect x="78" y="13" width="3" height="3" fill="#BFBFBF"/>
<rect x="78" y="39" width="3" height="3" fill="#BFBFBF"/>
<rect x="91" y="13" width="3" height="3" fill="#BFBFBF"/>
<rect x="91" y="39" width="3" height="3" fill="#BFBFBF"/>
<rect x="104" y="13" width="3" height="3" fill="#BFBFBF"/>
<rect x="104" y="39" width="3" height="3" fill="#BFBFBF"/>
<rect x="117" y="13" width="3" height="3" fill="#BFBFBF"/>
<rect x="117" y="39" width="3" height="3" fill="#BFBFBF"/>
<rect x="130" y="13" width="3" height="3" fill="#BFBFBF"/>
<rect x="130" y="39" width="3" height="3" fill="#BFBFBF"/>
<rect x="143" y="13" width="3" height="3" fill="#BFBFBF"/>
<rect x="143" y="39" width="3" height="3" fill="#BFBFBF"/>
<rect x="156" y="13" width="3" height="3" fill="#BFBFBF"/>
<rect x="156" y="39" width="3" height="3" fill="#BFBFBF"/>
<rect x="169" y="13" width="3" height="3" fill="#BFBFBF"/>
<rect x="169" y="39" width="3" height="3" fill="#BFBFBF"/>
<rect x="182" y="13" width="3" height="3" fill="#BFBFBF"/>
<rect x="182" y="39" width="3" height="3" fill="#BFBFBF"/>
</svg>
