<svg width="301" height="65" viewBox="0 0 301 65" fill="none" xmlns="http://www.w3.org/2000/svg">
<rect width="4.88108" height="4.64286" fill="#434343"/>
<rect y="40.2381" width="4.88108" height="4.64285" fill="#434343"/>
<rect x="21.1514" width="4.88108" height="4.64286" fill="#434343"/>
<rect x="21.1514" y="40.2381" width="4.88108" height="4.64285" fill="#434343"/>
<rect x="42.3027" width="4.88108" height="4.64286" fill="#434343"/>
<rect x="42.3027" y="40.2381" width="4.88108" height="4.64285" fill="#434343"/>
<rect x="63.4541" width="4.88108" height="4.64286" fill="#434343"/>
<rect x="63.4541" y="40.2381" width="4.88108" height="4.64285" fill="#434343"/>
<rect x="84.6055" width="4.88108" height="4.64286" fill="#434343"/>
<rect x="84.6055" y="40.2381" width="4.88108" height="4.64285" fill="#434343"/>
<rect x="105.757" width="4.88108" height="4.64286" fill="#434343"/>
<rect x="105.757" y="40.2381" width="4.88108" height="4.64285" fill="#434343"/>
<rect x="126.908" width="4.88107" height="4.64286" fill="#434343"/>
<rect x="126.908" y="40.2381" width="4.88107" height="4.64285" fill="#434343"/>
<rect x="148.06" width="4.88109" height="4.64286" fill="#434343"/>
<rect x="148.06" y="40.2381" width="4.88109" height="4.64285" fill="#434343"/>
<rect x="169.211" width="4.88107" height="4.64286" fill="#434343"/>
<rect x="169.211" y="40.2381" width="4.88107" height="4.64285" fill="#434343"/>
<rect x="190.362" width="4.8811" height="4.64286" fill="#434343"/>
<rect x="190.362" y="40.2381" width="4.8811" height="4.64285" fill="#434343"/>
<rect x="211.514" width="4.88107" height="4.64286" fill="#434343"/>
<rect x="211.514" y="40.2381" width="4.88107" height="4.64285" fill="#434343"/>
<rect x="232.665" width="4.88107" height="4.64286" fill="#434343"/>
<rect x="232.665" y="40.2381" width="4.88107" height="4.64285" fill="#434343"/>
<rect x="253.816" width="4.88107" height="4.64286" fill="#434343"/>
<rect x="253.816" y="40.2381" width="4.88107" height="4.64285" fill="#434343"/>
<rect x="274.968" width="4.88104" height="4.64286" fill="#434343"/>
<rect x="274.968" y="40.2381" width="4.88104" height="4.64285" fill="#434343"/>
<rect x="296.119" width="4.88107" height="4.64286" fill="#434343"/>
<rect x="296.119" y="40.2381" width="4.88107" height="4.64285" fill="#434343"/>
<rect y="20.119" width="4.88108" height="4.64286" fill="#434343"/>
<rect y="60.3571" width="4.88108" height="4.64286" fill="#434343"/>
<rect x="21.1514" y="20.119" width="4.88108" height="4.64286" fill="#434343"/>
<rect x="21.1514" y="60.3571" width="4.88108" height="4.64286" fill="#434343"/>
<rect x="42.3027" y="20.119" width="4.88108" height="4.64286" fill="#434343"/>
<rect x="42.3027" y="60.3571" width="4.88108" height="4.64286" fill="#434343"/>
<rect x="63.4541" y="20.119" width="4.88108" height="4.64286" fill="#434343"/>
<rect x="63.4541" y="60.3571" width="4.88108" height="4.64286" fill="#434343"/>
<rect x="84.6055" y="20.119" width="4.88108" height="4.64286" fill="#434343"/>
<rect x="84.6055" y="60.3571" width="4.88108" height="4.64286" fill="#434343"/>
<rect x="105.757" y="20.119" width="4.88108" height="4.64286" fill="#434343"/>
<rect x="105.757" y="60.3571" width="4.88108" height="4.64286" fill="#434343"/>
<rect x="126.908" y="20.119" width="4.88107" height="4.64286" fill="#434343"/>
<rect x="126.908" y="60.3571" width="4.88107" height="4.64286" fill="#434343"/>
<rect x="148.06" y="20.119" width="4.88109" height="4.64286" fill="#434343"/>
<rect x="148.06" y="60.3571" width="4.88109" height="4.64286" fill="#434343"/>
<rect x="169.211" y="20.119" width="4.88107" height="4.64286" fill="#434343"/>
<rect x="169.211" y="60.3571" width="4.88107" height="4.64286" fill="#434343"/>
<rect x="190.362" y="20.119" width="4.8811" height="4.64286" fill="#434343"/>
<rect x="190.362" y="60.3571" width="4.8811" height="4.64286" fill="#434343"/>
<rect x="211.514" y="20.119" width="4.88107" height="4.64286" fill="#434343"/>
<rect x="211.514" y="60.3571" width="4.88107" height="4.64286" fill="#434343"/>
<rect x="232.665" y="20.119" width="4.88107" height="4.64286" fill="#434343"/>
<rect x="232.665" y="60.3571" width="4.88107" height="4.64286" fill="#434343"/>
<rect x="253.816" y="20.119" width="4.88107" height="4.64286" fill="#434343"/>
<rect x="253.816" y="60.3571" width="4.88107" height="4.64286" fill="#434343"/>
<rect x="274.968" y="20.119" width="4.88104" height="4.64286" fill="#434343"/>
<rect x="274.968" y="60.3571" width="4.88104" height="4.64286" fill="#434343"/>
<rect x="296.119" y="20.119" width="4.88107" height="4.64286" fill="#434343"/>
<rect x="296.119" y="60.3571" width="4.88107" height="4.64286" fill="#434343"/>
</svg>
