<svg width="472" height="211" viewBox="0 0 472 211" fill="none" xmlns="http://www.w3.org/2000/svg">
<path d="M119.844 139.234H148.25V160.469H119.844V208H93.6875V160.469H0.453125V145.141L92.1406 3.25H119.844V139.234ZM29.9844 139.234H93.6875V38.8281L90.5938 44.4531L29.9844 139.234ZM300.125 120.672C300.125 151.141 294.922 173.781 284.516 188.594C274.109 203.406 257.844 210.812 235.719 210.812C213.875 210.812 197.703 203.594 187.203 189.156C176.703 174.625 171.266 152.969 170.891 124.188V89.4531C170.891 59.3594 176.094 37 186.5 22.375C196.906 7.75 213.219 0.4375 235.438 0.4375C257.469 0.4375 273.688 7.51562 284.094 21.6719C294.5 35.7344 299.844 57.4844 300.125 86.9219V120.672ZM274.109 85.0938C274.109 63.0625 271.016 47.0312 264.828 37C258.641 26.875 248.844 21.8125 235.438 21.8125C222.125 21.8125 212.422 26.8281 206.328 36.8594C200.234 46.8906 197.094 62.3125 196.906 83.125V124.75C196.906 146.875 200.094 163.234 206.469 173.828C212.938 184.328 222.688 189.578 235.719 189.578C248.562 189.578 258.078 184.609 264.266 174.672C270.547 164.734 273.828 149.078 274.109 127.703V85.0938ZM443.281 139.234H471.688V160.469H443.281V208H417.125V160.469H323.891V145.141L415.578 3.25H443.281V139.234ZM353.422 139.234H417.125V38.8281L414.031 44.4531L353.422 139.234Z" fill="url(#paint0_radial)"/>
<defs>
<radialGradient id="paint0_radial" cx="0" cy="0" r="1" gradientUnits="userSpaceOnUse" gradientTransform="translate(236.5 -14.5) rotate(88.3877) scale(337.634 542.358)">
<stop stop-color="#F70631"/>
<stop offset="1" stop-color="#FF244C" stop-opacity="0"/>
</radialGradient>
</defs>
</svg>
