<svg width="60" height="25" viewBox="0 0 60 25" fill="none" xmlns="http://www.w3.org/2000/svg">
<g opacity="0.5">
<path fill-rule="evenodd" clip-rule="evenodd" d="M60 0H0V25H60V0ZM12.3271 7.46484C14.9822 7.46484 17.1394 9.62447 17.1394 12.2301V17.0188H14.6029V16.4555C13.9154 16.8076 13.1568 17.0188 12.3271 17.0188C9.67202 17.0188 7.51477 14.8827 7.51477 12.2536C7.51477 9.601 9.67202 7.46484 12.3271 7.46484ZM12.3271 10.0001C11.0944 10.0001 10.0513 11.0094 10.0513 12.2536C10.0513 13.4742 11.0707 14.5071 12.3271 14.5071C13.5124 14.5071 14.4606 13.6386 14.6029 12.4648V12.2301C14.6029 11.0094 13.5598 10.0001 12.3271 10.0001ZM23.3979 12.277L23.4216 17.0423H20.8613V12.2535C20.8613 9.62443 23.0186 7.48828 25.6737 7.48828H28.1154V10.0235H25.6737C24.4409 10.0235 23.3979 11.0329 23.3979 12.277ZM39.1149 14.5305L39.0675 16.9953H36.6258C33.9707 16.9953 31.8135 14.8592 31.8135 12.2301V7.48828H36.7443V10.0235H34.3974V12.277C34.3974 13.4977 35.4168 14.5305 36.6732 14.5305H39.1149ZM47.6729 16.9954C45.0178 16.9954 42.8606 14.8592 42.8606 12.2301V7.44141H45.3971V12.2301C45.3971 13.4508 46.4165 14.4837 47.6729 14.4837C48.9056 14.4837 49.9487 13.4743 49.9487 12.2301V7.44141H52.509V12.2301C52.4852 14.8592 50.328 16.9954 47.6729 16.9954Z" fill="white"/>
</g>
</svg>
