<svg xmlns="http://www.w3.org/2000/svg" xmlns:xlink="http://www.w3.org/1999/xlink" viewBox="0 0 956.25 228.22"><defs><style>.cls-1,.cls-2,.cls-3,.cls-4,.cls-5,.cls-6{fill:none;stroke-width:3px;}.cls-1{stroke:url(#linear-gradient);}.cls-2{stroke:url(#linear-gradient-2);}.cls-3{stroke:url(#linear-gradient-3);}.cls-4{stroke:url(#linear-gradient-4);}.cls-5{stroke:url(#linear-gradient-5);}.cls-6{stroke:url(#linear-gradient-6);}</style><linearGradient id="linear-gradient" x1="79.84" y1="227.89" x2="79.84" y2="0.08" gradientUnits="userSpaceOnUse"><stop offset="0" stop-opacity="0"/><stop offset="1"/></linearGradient><linearGradient id="linear-gradient-2" x1="254.35" y1="228" x2="254.35" y2="13.08" xlink:href="#linear-gradient"/><linearGradient id="linear-gradient-3" x1="422.36" y1="227.83" x2="422.36" y2="61.88" xlink:href="#linear-gradient"/><linearGradient id="linear-gradient-4" x1="604.5" y1="227.68" x2="604.5" y2="0" xlink:href="#linear-gradient"/><linearGradient id="linear-gradient-5" x1="744.19" y1="225.85" x2="744.19" y2="3.63" xlink:href="#linear-gradient"/><linearGradient id="linear-gradient-6" x1="872.4" y1="228.22" x2="872.4" y2="59.59" xlink:href="#linear-gradient"/></defs><g id="Layer_2" data-name="Layer 2"><g id="logo"><path class="cls-1" d="M82.4,132c-27.46-5.4-56.28-14.66-69.62-40C-4.11,58.92,18.09,17.33,52.71,6.83,73.93-.75,98.82,1,119.23,10.27,136.19,17,163.71,43,139,57c-18,7.57-28.43-15.86-45.69-16.61-23.4-5.92-61.29,9.83-45,38.12,19.18,19.73,64,14,89.66,37,28.89,21.78,24.3,69-2.66,91C96.8,241.59,16.68,227.91,2.11,174.88.6,163.05,14.47,152.46,25,156.21c11.22,4.29,18.34,22.06,30.72,26.67,14.77,7.77,37.8,8.21,52.48-1.72,11.13-6.45,16.21-23,8.78-33.55C109.25,136.89,94.53,135.11,82.4,132Z"/><path class="cls-2" d="M221.28,63.88h59.89c10-.06,19,8.92,18.93,18.93.18,10.14-8.9,18.59-18.93,18.42H221.28c1,12.61-2.72,49.46,3.53,60.66A44.67,44.67,0,0,0,266,188.65c24.22,1.61,27.85-17.55,45.26-16.09,15.53,2.19,18.6,23.83,7.4,33.3C304.53,219.58,286,226,266,226a82.17,82.17,0,0,1-75.64-49.65,79.22,79.22,0,0,1-6.46-31.92c2-9-5.44-120.33,5.51-123.91,8.81-9.34,25.85-6.18,30.38,6C222.42,30.75,220.92,58.68,221.28,63.88Z"/><path class="cls-3" d="M382.53,146.66c-1.68,35.48,46,57.17,69.61,29.51,17.29-16.81,8.05-72.28,10.24-93.7-.14-10.13,9.14-18.69,19.11-18.59,10-.17,18.51,8.61,18.24,18.59-1.37,21.88,3.89,74.38-5.6,94.3C476,229.44,405.86,242.3,368.24,202.59c-31.89-28.69-21.53-82.33-23.06-120.12-.52-16.19,20.74-24.8,31.84-13.17C387.48,75.63,380.74,136.57,382.53,146.66Z"/><path class="cls-4" d="M686.62,143.73c-1.23,89.16-121.79,114-157.55,32C497.88,101.8,581.94,31.13,649.28,75.24V21.55c-.1-7.64,4.08-15,11.1-18C672.6-2,687.2,8.1,686.62,21.55Zm-37.34.18c-1.73-59-87.81-59.21-89.32,0C561.71,203.21,647.28,202.89,649.28,143.91Z"/><path class="cls-5" d="M723.62,25.85c0-27,41-26.9,41.13,0C764.4,52.29,723.91,52.4,723.62,25.85Zm39.24,179.49c.6,16.21-20.82,24.76-31.84,13.17a18,18,0,0,1-5.51-13.17V82.47a16.83,16.83,0,0,1,1.55-7.14c5.89-14.75,28.82-15.26,34.42,0a18.54,18.54,0,0,1,1.38,7.14Z"/><path class="cls-6" d="M790.56,143.91c-1.23-57,62.07-99.25,114-75.64,66.24,28.1,66.21,123.15,0,151.27C852.6,243.15,789.38,200.92,790.56,143.91Zm37.35,0c2,59,87.57,59.29,89.32,0C915.76,84.61,829.62,85,827.91,143.91Z"/></g></g></svg>