<svg width="520" height="120" viewBox="0 0 520 120" fill="none" xmlns="http://www.w3.org/2000/svg">
<g opacity="0.5">
<mask id="path-1-inside-1" fill="white">
<path d="M512.914 44.5652C511.7 44.5663 510.514 44.2009 509.504 43.5152C508.495 42.8295 507.708 41.8544 507.243 40.7133C506.778 39.5722 506.657 38.3163 506.893 37.1046C507.129 35.893 507.714 34.7799 508.572 33.9064C509.43 33.0329 510.523 32.4381 511.713 32.1974C512.904 31.9566 514.137 32.0807 515.258 32.5539C516.379 33.0272 517.337 33.8283 518.01 34.8559C518.684 35.8835 519.043 37.0914 519.042 38.3268C519.039 39.9805 518.393 41.5656 517.244 42.7349C516.095 43.9042 514.538 44.5624 512.914 44.5652ZM512.914 33.2299C511.923 33.2289 510.955 33.5269 510.131 34.0863C509.307 34.6457 508.664 35.4414 508.285 36.3726C507.905 37.3038 507.805 38.3288 507.998 39.3179C508.19 40.3069 508.667 41.2156 509.367 41.9289C510.067 42.6423 510.959 43.1282 511.93 43.3253C512.901 43.5224 513.908 43.4218 514.823 43.0362C515.739 42.6506 516.521 41.9973 517.071 41.159C517.621 40.3207 517.915 39.3351 517.915 38.3268C517.913 36.9768 517.385 35.6829 516.448 34.7278C515.51 33.7727 514.24 33.2342 512.914 33.2299Z"/>
</mask>
<path d="M512.914 44.5652L512.917 48.5652L512.921 48.5652L512.914 44.5652ZM519.042 38.3268L523.042 38.3335L523.042 38.3302L519.042 38.3268ZM517.915 38.3268L521.915 38.3268L521.915 38.3186L517.915 38.3268ZM512.91 40.5652C512.504 40.5656 512.101 40.4437 511.752 40.2064L507.257 46.824C508.926 47.9581 510.896 48.567 512.917 48.5652L512.91 40.5652ZM511.752 40.2064C511.402 39.9684 511.118 39.6225 510.948 39.2042L503.539 42.2224C504.298 44.0864 505.588 45.6906 507.257 46.824L511.752 40.2064ZM510.948 39.2042C510.777 38.7854 510.731 38.3204 510.819 37.8709L502.967 36.3384C502.582 38.3123 502.78 40.359 503.539 42.2224L510.948 39.2042ZM510.819 37.8709C510.907 37.4218 511.121 37.0189 511.425 36.7095L505.718 31.1034C504.306 32.541 503.352 34.3641 502.967 36.3384L510.819 37.8709ZM511.425 36.7095C511.729 36.4008 512.106 36.1989 512.506 36.118L510.92 28.2767C508.94 28.6773 507.131 29.665 505.718 31.1034L511.425 36.7095ZM512.506 36.118C512.906 36.0371 513.321 36.0781 513.702 36.239L516.814 28.8689C514.953 28.0833 512.901 27.8761 510.92 28.2767L512.506 36.118ZM513.702 36.239C514.084 36.4002 514.422 36.6781 514.665 37.0486L521.356 32.6632C520.252 30.9785 518.674 29.6542 516.814 28.8689L513.702 36.239ZM514.665 37.0486C514.908 37.42 515.042 37.8638 515.042 38.3234L523.042 38.3302C523.044 36.3191 522.46 34.3471 521.356 32.6632L514.665 37.0486ZM515.042 38.3201C515.041 38.938 514.799 39.5162 514.39 39.9319L520.098 45.538C521.987 43.6149 523.037 41.023 523.042 38.3335L515.042 38.3201ZM514.39 39.9319C513.985 40.3451 513.45 40.5643 512.907 40.5652L512.921 48.5652C515.627 48.5605 518.206 47.4634 520.098 45.538L514.39 39.9319ZM512.918 29.2299C511.12 29.228 509.368 29.7693 507.884 30.7768L512.378 37.3957C512.542 37.2845 512.727 37.2297 512.91 37.2299L512.918 29.2299ZM507.884 30.7768C506.401 31.7838 505.255 33.2084 504.581 34.8622L511.989 37.883C512.074 37.6743 512.213 37.5076 512.378 37.3957L507.884 30.7768ZM504.581 34.8622C503.907 36.5154 503.73 38.3311 504.071 40.0824L511.924 38.5533C511.88 38.3266 511.903 38.0923 511.989 37.883L504.581 34.8622ZM504.071 40.0824C504.412 41.834 505.258 43.4528 506.512 44.7305L512.222 39.1274C512.075 38.9783 511.968 38.7798 511.924 38.5533L504.071 40.0824ZM506.512 44.7305C507.766 46.0089 509.373 46.8881 511.135 47.2454L512.725 39.4052C512.544 39.3684 512.367 39.2757 512.222 39.1274L506.512 44.7305ZM511.135 47.2454C512.896 47.6029 514.721 47.4197 516.377 46.7223L513.27 39.3501C513.095 39.4239 512.907 39.442 512.725 39.4052L511.135 47.2454ZM516.377 46.7223C518.031 46.0252 519.433 44.8493 520.415 43.3543L513.727 38.9637C513.608 39.1454 513.446 39.2759 513.27 39.3501L516.377 46.7223ZM520.415 43.3543C521.396 41.8602 521.915 40.1108 521.915 38.3268L513.915 38.3268C513.915 38.5594 513.847 38.7812 513.727 38.9637L520.415 43.3543ZM521.915 38.3186C521.91 35.9341 520.979 33.6345 519.303 31.9262L513.593 37.5293C513.791 37.7312 513.915 38.0196 513.915 38.335L521.915 38.3186ZM519.303 31.9262C517.624 30.2155 515.333 29.2377 512.927 29.2299L512.901 37.2299C513.147 37.2307 513.397 37.3299 513.593 37.5293L519.303 31.9262Z" fill="url(#paint0_linear)" mask="url(#path-1-inside-1)"/>
<mask id="path-3-inside-2" fill="white">
<path d="M514.279 35.448C514.496 35.5411 514.687 35.6864 514.837 35.8714C514.964 36.033 515.065 36.2138 515.137 36.4074C515.213 36.6109 515.251 36.8273 515.247 37.0452C515.246 37.3424 515.174 37.6349 515.037 37.8973C514.886 38.1818 514.63 38.3938 514.326 38.4869C514.57 38.5739 514.776 38.7444 514.91 38.9692C515.044 39.264 515.104 39.5882 515.084 39.9125V40.3198C515.078 40.5097 515.089 40.6998 515.116 40.8879C515.128 40.9586 515.155 41.0257 515.195 41.0849C515.235 41.1441 515.287 41.1938 515.347 41.2309V41.3863H513.973C513.937 41.247 513.905 41.1398 513.889 41.0594C513.857 40.8825 513.84 40.7033 513.836 40.5235V39.9875C513.864 39.7141 513.793 39.4399 513.636 39.2157C513.434 39.0627 513.182 38.9937 512.931 39.0228H511.715V41.4024H510.499V35.3087H513.347C513.663 35.2977 513.979 35.3449 514.279 35.448ZM511.71 36.3484V37.9563H513.047C513.252 37.9663 513.456 37.9316 513.647 37.8544C513.767 37.791 513.865 37.6919 513.928 37.5703C513.991 37.4486 514.016 37.3103 514 37.1738C514.017 37.0295 513.994 36.8831 513.933 36.7514C513.873 36.6197 513.777 36.508 513.657 36.4288C513.477 36.3496 513.28 36.3148 513.084 36.327L511.71 36.3484Z"/>
</mask>
<path d="M514.837 35.8714L517.982 33.4003L517.965 33.3786L517.948 33.3573L514.837 35.8714ZM515.137 36.4074L511.387 37.7998L511.389 37.8068L511.392 37.8137L515.137 36.4074ZM515.247 37.0452L511.248 36.9828L511.247 37.0067L511.247 37.0307L515.247 37.0452ZM515.037 37.8973L518.57 39.772L518.576 39.7614L518.581 39.7509L515.037 37.8973ZM514.326 38.4869L513.156 34.6618L501.614 38.1924L512.98 42.2536L514.326 38.4869ZM514.91 38.9692L518.551 37.3124L518.459 37.1106L518.346 36.9202L514.91 38.9692ZM515.084 39.9125L511.092 39.6644L511.084 39.7883V39.9125H515.084ZM515.084 40.3198L519.082 40.4411L519.084 40.3805V40.3198H515.084ZM515.116 40.8879L511.156 41.4518L511.165 41.5149L511.176 41.5778L515.116 40.8879ZM515.347 41.2309H519.347V38.993L517.44 37.8221L515.347 41.2309ZM515.347 41.3863V45.3863H519.347V41.3863H515.347ZM513.973 41.3863L510.106 42.4089L510.894 45.3863H513.973V41.3863ZM513.889 41.0594L509.952 41.7633L509.958 41.7969L509.964 41.8304L513.889 41.0594ZM513.836 40.5235H509.836V40.5614L509.837 40.5993L513.836 40.5235ZM513.836 39.9875L509.856 39.5917L509.836 39.7891V39.9875H513.836ZM513.636 39.2157L516.919 36.9293L516.555 36.4074L516.047 36.024L513.636 39.2157ZM512.931 39.0228V43.0228H513.162L513.392 42.9962L512.931 39.0228ZM511.715 39.0228V35.0228H507.715V39.0228H511.715ZM511.715 41.4024V45.4024H515.715V41.4024H511.715ZM510.499 41.4024H506.499V45.4024H510.499V41.4024ZM510.499 35.3087V31.3087H506.499V35.3087H510.499ZM513.347 35.3087V39.3087H513.416L513.485 39.3063L513.347 35.3087ZM511.71 36.3484L511.647 32.3489L507.71 32.4104V36.3484H511.71ZM511.71 37.9563H507.71V41.9563H511.71V37.9563ZM513.047 37.9563L513.243 33.9611L513.145 33.9563H513.047V37.9563ZM513.647 37.8544L515.148 41.5622L515.337 41.4857L515.517 41.3904L513.647 37.8544ZM514 37.1738L510.027 36.7027L509.971 37.1751L510.028 37.6474L514 37.1738ZM513.657 36.4288L515.863 33.0919L515.577 32.9025L515.262 32.7647L513.657 36.4288ZM513.084 36.327L513.146 40.3265L513.239 40.325L513.332 40.3193L513.084 36.327ZM512.702 39.1243C512.316 38.9586 511.982 38.7029 511.726 38.3856L517.948 33.3573C517.392 32.6698 516.675 32.1235 515.855 31.7718L512.702 39.1243ZM511.691 38.3426C511.561 38.1763 511.459 37.9928 511.387 37.7998L518.886 35.0149C518.671 34.4348 518.367 33.8897 517.982 33.4003L511.691 38.3426ZM511.392 37.8137C511.292 37.5466 511.243 37.2648 511.248 36.9828L519.247 37.1075C519.258 36.3899 519.134 35.6751 518.881 35.001L511.392 37.8137ZM511.247 37.0307C511.248 36.6898 511.331 36.3513 511.492 36.0437L518.581 39.7509C519.016 38.9186 519.244 37.995 519.247 37.0596L511.247 37.0307ZM511.503 36.0227C511.843 35.3824 512.43 34.8838 513.156 34.6618L515.496 42.3119C516.83 41.9039 517.929 40.9813 518.57 39.772L511.503 36.0227ZM512.98 42.2536C512.338 42.0243 511.811 41.5814 511.475 41.0182L518.346 36.9202C517.742 35.9075 516.801 35.1236 515.672 34.7201L512.98 42.2536ZM511.27 40.626C511.132 40.3226 511.071 39.9926 511.092 39.6644L519.076 40.1605C519.137 39.1839 518.957 38.2054 518.551 37.3124L511.27 40.626ZM511.084 39.9125V40.3198H519.084V39.9125H511.084ZM511.086 40.1985C511.073 40.617 511.096 41.0363 511.156 41.4518L519.076 40.3241C519.081 40.3634 519.083 40.4025 519.082 40.4411L511.086 40.1985ZM511.176 41.5778C511.285 42.2012 511.524 42.7964 511.88 43.3234L518.51 38.8464C518.786 39.2551 518.971 39.7159 519.056 40.198L511.176 41.5778ZM511.88 43.3234C512.237 43.8516 512.704 44.3018 513.254 44.6397L517.44 37.8221C517.87 38.0859 518.233 38.4365 518.51 38.8464L511.88 43.3234ZM511.347 41.2309V41.3863H519.347V41.2309H511.347ZM515.347 37.3863H513.973V45.3863H515.347V37.3863ZM517.84 40.3637C517.828 40.3155 517.816 40.2721 517.807 40.2395C517.802 40.2215 517.799 40.2099 517.795 40.1967C517.792 40.1845 517.79 40.176 517.788 40.1694C517.784 40.1546 517.785 40.1592 517.789 40.1739C517.791 40.1821 517.794 40.196 517.799 40.2143C517.803 40.2324 517.808 40.2576 517.814 40.2884L509.964 41.8304C510 42.0118 510.042 42.1694 510.059 42.2321C510.069 42.2702 510.08 42.3112 510.087 42.336C510.095 42.3652 510.101 42.3875 510.106 42.4089L517.84 40.3637ZM517.827 40.3556C517.832 40.3863 517.835 40.4171 517.836 40.4476L509.837 40.5993C509.845 40.9895 509.883 41.3787 509.952 41.7633L517.827 40.3556ZM517.836 40.5235V39.9875H509.836V40.5235H517.836ZM517.817 40.3833C517.938 39.1672 517.623 37.9407 516.919 36.9293L510.354 41.5022C509.962 40.9391 509.79 40.261 509.856 39.5917L517.817 40.3833ZM516.047 36.024C515.029 35.255 513.75 34.901 512.47 35.0494L513.392 42.9962C512.613 43.0864 511.838 42.8704 511.225 42.4075L516.047 36.024ZM512.931 35.0228H511.715V43.0228H512.931V35.0228ZM507.715 39.0228V41.4024H515.715V39.0228H507.715ZM511.715 37.4024H510.499V45.4024H511.715V37.4024ZM514.499 41.4024V35.3087H506.499V41.4024H514.499ZM510.499 39.3087H513.347V31.3087H510.499V39.3087ZM513.485 39.3063C513.312 39.3123 513.14 39.2863 512.978 39.2306L515.579 31.6654C514.818 31.4036 514.014 31.2831 513.208 31.3111L513.485 39.3063ZM507.71 36.3484V37.9563H515.71V36.3484H507.71ZM511.71 41.9563H513.047V33.9563H511.71V41.9563ZM512.851 41.9515C513.637 41.99 514.421 41.8566 515.148 41.5622L512.146 34.1467C512.492 34.0066 512.866 33.9426 513.243 33.9611L512.851 41.9515ZM515.517 41.3904C516.365 40.9419 517.046 40.2472 517.479 39.4105L510.376 35.73C510.684 35.1366 511.169 34.6402 511.777 34.3185L515.517 41.3904ZM517.479 39.4105C517.913 38.5741 518.082 37.6292 517.971 36.7002L510.028 37.6474C509.95 36.9914 510.069 36.3232 510.376 35.73L517.479 39.4105ZM517.972 37.6448C518.075 36.7727 517.937 35.8854 517.568 35.0819L510.298 38.421C510.05 37.8809 509.958 37.2862 510.027 36.7027L517.972 37.6448ZM517.568 35.0819C517.199 34.278 516.611 33.5862 515.863 33.0919L511.452 39.7658C510.943 39.4297 510.547 38.9615 510.298 38.421L517.568 35.0819ZM515.262 32.7647C514.5 32.4311 513.669 32.2829 512.835 32.3347L513.332 40.3193C512.892 40.3467 512.453 40.2682 512.053 40.0929L515.262 32.7647ZM513.021 32.3275L511.647 32.3489L511.772 40.3479L513.146 40.3265L513.021 32.3275Z" fill="url(#paint1_linear)" mask="url(#path-3-inside-2)"/>
<path d="M42.7039 67.686L42.7503 67.6969C45.1213 68.2537 47.5113 68.8391 49.9204 69.4531L49.9308 69.4558C52.3219 70.0789 54.6277 70.9998 56.796 72.1971C58.904 73.3318 60.728 74.9377 62.1321 76.891L62.1367 76.8974C63.6457 79.0143 64.3164 81.6466 64.3191 84.6328C64.3633 87.3144 63.6494 89.9548 62.2587 92.2397L62.2522 92.2504L62.2455 92.261C60.8932 94.4215 59.1067 96.27 57.0007 97.6839C54.8069 99.1616 52.3891 100.265 49.8428 100.949C47.2341 101.672 44.5415 102.037 41.837 102.032C36.374 102.032 31.5111 100.949 27.3119 98.7101C23.1763 96.5113 19.6422 93.3091 17.0204 89.3913C14.8961 86.5956 13.0082 85.1012 11.4076 84.5296C9.92883 84.0014 8.21515 84.1321 6.10314 85.2817L6.09676 85.2852L6.09036 85.2886C5.25889 85.7334 4.50467 86.3175 3.85963 87.018C3.22809 87.7145 2.73667 88.5335 2.4155 89.4285C2.0757 90.4024 1.94174 91.4395 2.02314 92.4714C2.13679 93.7868 2.50961 95.0642 3.11809 96.227L3.13763 96.2643L3.15558 96.3024C4.60892 99.3898 6.53807 102.219 8.86875 104.682L8.87471 104.688C11.4134 107.395 14.3206 109.714 17.5062 111.576L17.5113 111.579C20.9643 113.61 24.6567 115.185 28.4993 116.265L28.5046 116.266C32.6078 117.432 36.8497 118.013 41.1089 117.991L41.1228 117.991L41.1368 117.991C46.3707 118.037 51.5722 117.144 56.5028 115.351L56.5117 115.348C61.0275 113.73 65.2016 111.252 68.8104 108.043C72.222 104.986 75.0034 101.267 76.9903 97.1C78.9816 92.8873 79.9966 88.2635 79.9556 83.5854L79.9555 83.5774L79.9555 83.5693C79.9522 78.6527 79.0462 74.5346 77.3202 71.1468L77.3179 71.1423C75.5935 67.7367 73.1927 64.7368 70.2703 62.3323C67.1931 59.8212 63.7644 57.7953 60.0989 56.3215L60.0952 56.32C56.1547 54.7263 52.1195 53.3875 48.0137 52.3115C44.3209 51.5122 40.893 50.7281 37.7305 49.9591C34.7493 49.2702 31.847 48.2678 29.0703 46.9682C26.6708 45.8842 24.5439 44.2672 22.8449 42.2388L22.8313 42.2226L22.8181 42.2062C21.1482 40.1248 20.3852 37.5378 20.3829 34.6062C20.3525 32.1679 20.9527 29.7625 22.1258 27.6312L22.1305 27.6226L22.1353 27.6141C23.2958 25.5536 24.8769 23.7664 26.7748 22.3739L26.7754 22.3735C28.8153 20.8778 31.1065 19.7701 33.538 19.1054C36.1897 18.3659 38.9291 18.0007 41.6792 18.0203C43.9315 17.9969 46.1815 18.175 48.4032 18.5524L48.4109 18.5537L48.4187 18.5551C50.3399 18.8971 52.2134 19.4721 53.9991 20.2676L54.0081 20.2716C55.7224 21.0454 57.3558 21.9916 58.8841 23.0958C60.3691 24.1541 61.9304 25.4004 63.5671 26.8294C64.3653 27.3673 65.2469 27.7613 66.1735 27.9952C67.0592 28.2142 67.973 28.2885 68.8811 28.2152L68.8866 28.2148C69.7207 28.1499 70.5389 27.9422 71.307 27.5997L71.3215 27.5932L71.3361 27.587C72.011 27.2988 72.6276 26.8808 73.1519 26.354L73.1748 26.331L73.1984 26.3088C73.6729 25.862 74.0729 25.3371 74.3814 24.7547L74.3876 24.7429L74.3941 24.7312C74.7553 24.0705 75.0245 23.3608 75.1933 22.6225L42.7039 67.686ZM42.7039 67.686L42.6571 67.6774C37.3415 66.6934 32.1195 65.2419 27.0498 63.3392L27.0498 63.3392L27.0383 63.3349C22.7381 61.7509 18.7068 59.4902 15.0915 56.6341M42.7039 67.686L15.0915 56.6341M15.0915 56.6341C11.9116 54.1051 9.29761 50.9103 7.42755 47.2627C5.63379 43.7504 4.70427 39.6066 4.70427 34.7751V34.7615L4.70409 34.7479C4.64188 30.1693 5.65498 25.6432 7.65734 21.5468C9.61919 17.5902 12.334 14.0734 15.6417 11.2001C19.0943 8.22714 23.0548 5.9303 27.3233 4.42365L27.3233 4.42369L27.3356 4.41925C31.8144 2.80533 36.5317 1.98805 41.2814 2.00265L41.2885 2.00264C44.6946 2.00097 48.0919 2.35802 51.4262 3.0682L51.434 3.06984C54.6704 3.74561 57.8211 4.79523 60.8248 6.1986C63.6952 7.5401 66.3754 9.27088 68.7924 11.3445L68.7971 11.3485C71.1106 13.3211 73.0779 15.6828 74.6131 18.3325L74.6294 18.3607L74.6466 18.3882C75.0244 18.9941 75.2616 19.6825 75.3378 20.4004C75.407 21.1433 75.3584 21.8927 75.194 22.6195L15.0915 56.6341Z" stroke="url(#paint2_linear)" stroke-width="4"/>
<path d="M113.405 33.1103L113.403 35.113H115.405L146.934 35.113L146.938 35.113C147.96 35.1108 148.971 35.3312 149.905 35.7606L149.905 35.7607L149.916 35.766C151.843 36.6371 153.393 38.2098 154.256 40.1887L154.256 40.1887L154.262 40.2015C154.687 41.1593 154.907 42.2004 154.905 43.2543L154.905 43.2621L154.905 43.2698C154.911 44.3143 154.702 45.3476 154.293 46.3029L154.289 46.3109L154.286 46.3189C153.895 47.254 153.327 48.0988 152.617 48.8057C151.878 49.5358 151.016 50.1208 150.074 50.5335C149.095 50.9499 148.045 51.16 146.986 51.1521L146.979 51.1521H146.971H115.405H113.405V53.1521V76.4813C113.385 79.9117 114.073 83.3091 115.427 86.4535L115.427 86.4537C117.425 91.0948 120.717 95.0441 124.902 97.8098C129.083 100.573 133.97 102.033 138.96 102.005C141.907 102.032 144.839 101.579 147.645 100.663L147.657 100.658L147.67 100.654C150.484 99.6928 153.069 98.1508 155.265 96.1267C155.828 95.6083 156.417 95.1214 157.031 94.668C157.559 94.2935 158.135 93.9959 158.741 93.7831L158.755 93.7782L158.769 93.7731C159.971 93.3314 161.259 93.1918 162.523 93.3651C163.841 93.577 165.067 94.2012 166.029 95.158L166.05 95.1787L166.072 95.1988C166.874 95.9504 167.488 96.8911 167.859 97.9423C168.219 99.0202 168.363 100.162 168.282 101.299L168.281 101.312C168.203 102.523 167.905 103.709 167.404 104.808L167.401 104.816L167.397 104.824C166.897 105.945 166.187 106.953 165.307 107.791L165.295 107.803L165.283 107.814C161.901 111.146 157.882 113.731 153.48 115.408C148.841 117.16 143.928 118.034 138.982 117.99L138.965 117.99L138.949 117.99C133.456 118.032 128.012 116.926 122.953 114.74L122.949 114.739C118.072 112.643 113.626 109.627 109.845 105.848C106.079 102.062 103.07 97.5649 100.987 92.6059L100.986 92.6032C98.8139 87.4532 97.7127 81.8995 97.753 76.2927L97.7531 76.2855V76.2783V17.0881V17.0771L97.753 17.0661C97.7411 15.989 97.9402 14.9211 98.3379 13.925C98.7355 12.9291 99.3232 12.0261 100.065 11.2679C100.806 10.5098 101.687 9.91173 102.654 9.50676C103.621 9.10182 104.656 8.89756 105.699 8.90498L105.712 8.90507L105.724 8.905C106.734 8.89968 107.736 9.10791 108.666 9.51764L108.666 9.51768L108.679 9.52329C109.588 9.91651 110.414 10.4909 111.108 11.2149L111.109 11.2164C111.828 11.9652 112.405 12.8453 112.81 13.8126C113.224 14.8208 113.434 15.9049 113.426 16.9996H113.426L113.426 17.0104L113.405 33.1103Z" stroke="url(#paint3_linear)" stroke-width="4"/>
<path d="M205.155 94.8313L205.149 94.8249C202.992 92.5825 201.284 89.9373 200.119 87.0368C198.891 84.0026 198.271 80.7505 198.294 77.471L198.279 43.0761L198.279 43.0706C198.281 42.0041 198.071 40.9489 197.664 39.9689L197.66 39.9602L197.656 39.9516C197.273 39.0054 196.706 38.1506 195.992 37.438L195.989 37.4358C195.258 36.7034 194.398 36.1204 193.456 35.7161L205.155 94.8313ZM205.155 94.8313L205.162 94.8377M205.155 94.8313L205.162 94.8377M205.162 94.8377C207.396 97.1191 210.056 98.9271 212.987 100.154C215.911 101.379 219.046 102 222.21 101.982C225.411 102.036 228.583 101.357 231.491 99.9988L231.503 99.9932M205.162 94.8377L231.503 99.9932M231.503 99.9932C234.187 98.7171 236.57 96.8727 238.492 94.586L238.498 94.5786M231.503 99.9932L238.498 94.5786M238.498 94.5786L238.505 94.5711M238.498 94.5786L238.505 94.5711M238.505 94.5711C240.425 92.2412 241.897 89.5664 242.845 86.6865C243.863 83.6305 244.373 80.4235 244.352 77.1979L244.352 43.0752L244.352 43.0692M238.505 94.5711L244.352 43.0692M244.352 43.0692C244.349 42.0131 244.568 40.9695 244.992 40.0088L244.995 40.003M244.352 43.0692L244.995 40.003M244.995 40.003C245.415 39.0443 246.018 38.1831 246.766 37.4685L246.772 37.4624M244.995 40.003L246.772 37.4624M246.772 37.4624C247.539 36.7239 248.427 36.1324 249.395 35.7142L249.4 35.7118M246.772 37.4624L249.4 35.7118M249.4 35.7118C250.349 35.2981 251.37 35.087 252.401 35.0905L252.409 35.0905M249.4 35.7118L252.409 35.0905M252.409 35.0905L252.418 35.0904M252.409 35.0905L252.418 35.0904M252.418 35.0904C253.427 35.085 254.427 35.2943 255.354 35.7061L255.361 35.7093M252.418 35.0904L255.361 35.7093M255.361 35.7093C256.275 36.111 257.107 36.6893 257.81 37.4143L257.814 37.4183M255.361 35.7093L257.814 37.4183M257.814 37.4183C258.508 38.1307 259.055 38.982 259.418 39.9211L259.422 39.9318M257.814 37.4183L259.422 39.9318M259.422 39.9318C259.813 40.9283 260.013 41.9934 260.01 43.0686V43.0752M259.422 39.9318L260.01 43.0752M260.01 43.0752L260.01 76.9257L260.01 76.9385M260.01 43.0752L260.01 76.9385M260.01 76.9385C260.045 82.3989 259.089 87.8182 257.192 92.9239L257.19 92.9302M260.01 76.9385L257.19 92.9302M257.19 92.9302C255.419 97.7462 252.766 102.174 249.375 105.979C245.932 109.814 241.736 112.863 237.061 114.932C232.386 117.001 227.336 118.042 222.242 117.989L222.223 117.989M257.19 92.9302L222.223 117.989M222.223 117.989L222.205 117.989M222.223 117.989L222.205 117.989M222.205 117.989C216.897 118.031 211.639 116.943 206.766 114.794L206.765 114.793M222.205 117.989L206.765 114.793M206.765 114.793C202.079 112.728 197.825 109.761 194.237 106.054C190.64 102.326 187.765 97.9385 185.764 93.1213L185.762 93.1174M206.765 114.793L185.762 93.1174M185.762 93.1174C183.684 88.1456 182.628 82.7922 182.658 77.3871H182.658M185.762 93.1174L182.658 77.3871M182.658 77.3871V77.3759M182.658 77.3871V77.3759M182.658 77.3759V43.0765C182.661 40.95 183.486 38.9171 184.945 37.4162L184.947 37.4143M182.658 77.3759L184.947 37.4143M183.511 36.0221L183.511 36.0221L183.511 36.0221ZM183.511 36.0221C181.686 37.8997 180.661 40.4336 180.658 43.0752L184.947 37.4143M183.511 36.0221C184.393 35.1127 185.439 34.3848 186.591 33.8783L187.38 35.7161C187.383 35.715 187.385 35.7139 187.388 35.7127M184.947 37.4143C185.648 36.6914 186.477 36.1143 187.388 35.7127M187.388 35.7127C188.348 35.3016 189.378 35.0904 190.418 35.0904C191.461 35.0904 192.494 35.3028 193.456 35.716L187.388 35.7127Z" stroke="url(#paint4_linear)" stroke-width="4"/>
<path d="M358.387 75.9122V75.9128V76.3606C358.337 80.1011 357.813 83.8192 356.826 87.4221C355.87 90.9096 354.461 94.2504 352.635 97.3554L352.635 97.3556C347.128 106.724 338.305 113.574 327.995 116.505C319.106 118.994 309.652 118.362 301.157 114.708C296.283 112.581 291.852 109.521 288.106 105.693C284.362 101.837 281.367 97.2936 279.281 92.3005C277.142 87.1287 276.039 81.5723 276.039 75.9584C276.039 70.3435 277.142 64.7861 279.283 59.6136C283.456 49.5599 291.302 41.5625 301.149 37.3008C309.985 33.4996 319.847 32.972 329.023 35.8083C332.764 36.9957 336.328 38.6983 339.617 40.8694L342.719 42.9169V39.2003V10.4252V10.4155L342.719 10.4059C342.708 9.25046 342.911 8.10387 343.316 7.02651C343.692 6.033 344.249 5.12387 344.958 4.34741C345.637 3.60804 346.455 3.01988 347.361 2.61697C348.349 2.19536 349.41 1.9859 350.478 2.00074L350.499 2.00103L350.52 2.00088C351.581 1.99348 352.633 2.20435 353.614 2.6218C354.535 3.01965 355.369 3.60895 356.06 4.35454C356.788 5.14549 357.371 6.0653 357.78 7.07043C358.205 8.12753 358.419 9.26167 358.408 10.4059L358.408 10.4152V10.4245L358.387 75.9122ZM335.21 57.6208L335.206 57.6174C332.878 55.2852 330.145 53.4084 327.145 52.0827L327.137 52.0791L327.128 52.0756C323.984 50.7194 320.602 50.02 317.184 50.02C313.767 50.02 310.385 50.7194 307.24 52.0756L307.24 52.0756L307.229 52.0803C304.214 53.4017 301.468 55.2787 299.128 57.615L299.122 57.6206C296.777 59.9799 294.92 62.7894 293.657 65.8839C292.342 69.0909 291.676 72.533 291.697 76.0056C291.682 79.446 292.349 82.8548 293.657 86.0292C294.917 89.1167 296.749 91.9311 299.054 94.3186L299.059 94.3229C301.378 96.7097 304.134 98.6151 307.173 99.9306C310.328 101.306 313.73 102.005 317.164 101.982C320.595 102.01 323.993 101.309 327.141 99.927C333.26 97.242 338.12 92.2688 340.725 86.0477C342.063 82.8743 342.743 79.4554 342.724 76.0043C342.744 72.5221 342.059 69.0721 340.711 65.8691C339.423 62.7836 337.555 59.9814 335.21 57.6208Z" stroke="url(#paint5_linear)" stroke-width="4"/>
<path d="M381.86 12.7389L381.86 12.7292L381.86 12.7194C381.853 11.499 382.093 10.2913 382.566 9.17208L382.569 9.16422L382.572 9.15634C383.465 6.98919 385.153 5.27651 387.262 4.37616L387.271 4.37224L387.28 4.36824C388.344 3.9017 389.488 3.66162 390.644 3.66162C391.799 3.66162 392.944 3.9017 394.007 4.36824L394.011 4.36986C395.077 4.83511 396.055 5.49269 396.896 6.31253C397.726 7.14408 398.388 8.13823 398.839 9.23761C399.291 10.3405 399.522 11.5257 399.518 12.7228L399.518 12.7309L399.518 12.7389C399.523 13.9073 399.285 15.0626 398.821 16.1286L398.821 16.1286L398.816 16.1393C398.362 17.1994 397.709 18.1569 396.898 18.9589C396.06 19.7817 395.084 20.4395 394.017 20.9011L394.017 20.901L394.004 20.9066C392.942 21.3747 391.799 21.6156 390.644 21.6156C389.489 21.6156 388.346 21.3747 387.284 20.9066L387.275 20.9026L387.265 20.8987C386.22 20.4502 385.267 19.7997 384.46 18.9811C383.659 18.1664 383.015 17.2036 382.563 16.1423L382.56 16.1354L382.557 16.1286C382.093 15.0626 381.855 13.9073 381.86 12.7389ZM398.517 108.934V108.943L398.517 108.953C398.528 110.025 398.319 111.088 397.907 112.072C397.506 113.011 396.934 113.861 396.223 114.578L396.218 114.583C395.117 115.7 393.719 116.455 392.204 116.758C390.691 117.06 389.123 116.899 387.698 116.293C386.756 115.884 385.896 115.301 385.161 114.569L385.152 114.56C384.417 113.838 383.833 112.969 383.437 112.005C383.041 111.041 382.843 110.003 382.854 108.956L382.855 108.945V108.933L382.855 43.076L382.855 43.0637C382.848 42.0314 383.066 41.0116 383.491 40.0775L383.491 40.0776L383.496 40.0659C383.929 39.0973 384.53 38.2184 385.268 37.4707L385.27 37.4684C386.013 36.7139 386.893 36.1185 387.858 35.7149C388.824 35.3113 389.857 35.1069 390.899 35.1126L390.91 35.1127L390.921 35.1126C391.93 35.1072 392.93 35.3165 393.857 35.7283L393.866 35.7323L393.875 35.7363C394.784 36.1292 395.609 36.7031 396.303 37.4263C397.73 38.9234 398.527 40.9393 398.512 43.0401L398.512 43.0474V43.0547L398.517 108.934Z" stroke="url(#paint6_linear)" stroke-width="4"/>
<path d="M432.773 74.0041H432.847C433.043 71.2083 433.694 68.4595 434.777 65.8708L432.773 74.0041ZM432.773 74.0041L432.764 75.9953C432.749 79.4501 433.435 82.8719 434.779 86.0465M432.773 74.0041L434.779 86.0465M434.779 86.0465C437.384 92.2699 442.246 97.2442 448.368 99.9269L434.779 86.0465ZM417.106 76.0151L417.107 76.0026L417.106 75.9901C417.067 70.3798 418.185 64.8245 420.388 59.6842L420.389 59.6804C422.514 54.6946 425.54 50.1628 429.31 46.3212C433.08 42.492 437.531 39.431 442.423 37.3004C447.477 35.1271 452.907 34.0078 458.391 34.0078C463.875 34.0078 469.304 35.1269 474.358 37.3C479.233 39.4257 483.663 42.4853 487.408 46.3143C491.134 50.1605 494.118 54.6881 496.203 59.6614C498.345 64.8232 499.449 70.3714 499.449 75.9773C499.449 81.5841 498.345 87.133 496.202 92.2955C494.116 97.2888 491.121 101.833 487.377 105.688C483.632 109.517 479.201 112.577 474.327 114.703C469.273 116.876 463.844 117.995 458.359 117.995C452.876 117.995 447.447 116.876 442.393 114.703C432.515 110.385 424.633 102.364 420.387 92.2868L420.383 92.2775C418.192 87.149 417.076 81.61 417.106 76.0151ZM458.324 101.983C461.759 102.004 465.161 101.305 468.317 99.9302L448.37 99.9278C451.511 101.308 454.901 102.008 458.324 101.983ZM468.318 99.9295C471.354 98.6126 474.107 96.7078 476.424 94.3232L476.429 94.3187C478.734 91.9312 480.566 89.1168 481.826 86.0294C483.134 82.8551 483.801 79.4463 483.786 76.0061C483.807 72.5335 483.141 69.0914 481.827 65.8844C480.571 62.8036 478.735 60.0001 476.42 57.6324L476.42 57.6324L476.412 57.624C474.084 55.2713 471.337 53.3885 468.316 52.0775L468.312 52.0757C465.167 50.7195 461.785 50.0201 458.367 50.0201C454.95 50.0201 451.568 50.7195 448.423 52.0757L448.418 52.0778C445.39 53.393 442.632 55.2715 440.284 57.6152L440.284 57.6152L440.279 57.6209C437.933 59.9815 436.065 62.7835 434.777 65.869L468.318 99.9295Z" stroke="url(#paint7_linear)" stroke-width="4"/>
</g>
<defs>
<linearGradient id="paint0_linear" x1="512.909" y1="32.0776" x2="512.909" y2="44.5652" gradientUnits="userSpaceOnUse">
<stop/>
<stop offset="1" stop-opacity="0"/>
</linearGradient>
<linearGradient id="paint1_linear" x1="512.923" y1="35.3071" x2="512.923" y2="41.4024" gradientUnits="userSpaceOnUse">
<stop/>
<stop offset="1" stop-opacity="0"/>
</linearGradient>
<linearGradient id="paint2_linear" x1="40.9784" y1="0.00244141" x2="40.9784" y2="119.993" gradientUnits="userSpaceOnUse">
<stop/>
<stop offset="1" stop-opacity="0"/>
</linearGradient>
<linearGradient id="paint3_linear" x1="133.028" y1="6.90479" x2="133.028" y2="119.992" gradientUnits="userSpaceOnUse">
<stop/>
<stop offset="1" stop-opacity="0"/>
</linearGradient>
<linearGradient id="paint4_linear" x1="221.334" y1="33.0903" x2="221.334" y2="119.991" gradientUnits="userSpaceOnUse">
<stop/>
<stop offset="1" stop-opacity="0"/>
</linearGradient>
<linearGradient id="paint5_linear" x1="317.224" y1="0" x2="317.224" y2="120" gradientUnits="userSpaceOnUse">
<stop/>
<stop offset="1" stop-opacity="0"/>
</linearGradient>
<linearGradient id="paint6_linear" x1="390.689" y1="1.66162" x2="390.689" y2="118.906" gradientUnits="userSpaceOnUse">
<stop/>
<stop offset="1" stop-opacity="0"/>
</linearGradient>
<linearGradient id="paint7_linear" x1="458.277" y1="32.0078" x2="458.277" y2="119.995" gradientUnits="userSpaceOnUse">
<stop/>
<stop offset="1" stop-opacity="0"/>
</linearGradient>
</defs>
</svg>
