<svg width="450" height="121" viewBox="0 0 450 121" fill="none" xmlns="http://www.w3.org/2000/svg">
<g style="mix-blend-mode:overlay">
<g opacity="0.3">
<rect y="0.000732422" width="1.95087" height="1.95087" fill="white"/>
<rect x="152.168" width="1.95087" height="1.95087" fill="white"/>
<rect x="304.335" width="1.95087" height="1.95087" fill="white"/>
<rect y="67.6301" width="1.95087" height="1.95087" fill="white"/>
<rect x="152.168" y="67.6301" width="1.95087" height="1.95087" fill="white"/>
<rect x="304.335" y="67.6301" width="1.95087" height="1.95087" fill="white"/>
<rect y="50.7224" width="1.95087" height="1.95087" fill="white"/>
<rect x="152.168" y="50.7224" width="1.95087" height="1.95087" fill="white"/>
<rect y="118.353" width="1.95087" height="1.95087" fill="white"/>
<rect x="152.168" y="118.353" width="1.95087" height="1.95087" fill="white"/>
<rect x="304.335" y="118.353" width="1.95087" height="1.95087" fill="white"/>
<rect y="16.9077" width="1.95087" height="1.95087" fill="white"/>
<rect x="152.168" y="16.9077" width="1.95087" height="1.95087" fill="white"/>
<rect x="304.335" y="16.9077" width="1.95087" height="1.95087" fill="white"/>
<rect y="84.5376" width="1.95087" height="1.95087" fill="white"/>
<rect x="152.168" y="84.5376" width="1.95087" height="1.95087" fill="white"/>
<rect y="33.8152" width="1.95087" height="1.95087" fill="white"/>
<rect y="101.445" width="1.95087" height="1.95087" fill="white"/>
<rect x="152.168" y="101.445" width="1.95087" height="1.95087" fill="white"/>
<rect x="304.335" y="101.445" width="1.95087" height="1.95087" fill="white"/>
<rect x="8.45386" width="1.95087" height="1.95087" fill="white"/>
<rect x="160.621" width="1.95087" height="1.95087" fill="white"/>
<rect x="312.789" width="1.95087" height="1.95087" fill="white"/>
<rect x="8.45386" y="67.6301" width="1.95087" height="1.95087" fill="white"/>
<rect x="160.621" y="67.6301" width="1.95087" height="1.95087" fill="white"/>
<rect x="312.789" y="67.6301" width="1.95087" height="1.95087" fill="white"/>
<rect x="8.45386" y="50.7224" width="1.95087" height="1.95087" fill="white"/>
<rect x="160.621" y="50.7224" width="1.95087" height="1.95087" fill="white"/>
<rect x="8.45386" y="118.353" width="1.95087" height="1.95087" fill="white"/>
<rect x="160.621" y="118.353" width="1.95087" height="1.95087" fill="white"/>
<rect x="312.789" y="118.353" width="1.95087" height="1.95087" fill="white"/>
<rect x="8.45386" y="16.9077" width="1.95087" height="1.95087" fill="white"/>
<rect x="160.621" y="16.9077" width="1.95087" height="1.95087" fill="white"/>
<rect x="312.789" y="16.9077" width="1.95087" height="1.95087" fill="white"/>
<rect x="8.45386" y="84.5376" width="1.95087" height="1.95087" fill="white"/>
<rect x="160.621" y="84.5376" width="1.95087" height="1.95087" fill="white"/>
<rect x="8.45386" y="33.8152" width="1.95087" height="1.95087" fill="white"/>
<rect x="8.45386" y="101.445" width="1.95087" height="1.95087" fill="white"/>
<rect x="160.621" y="101.445" width="1.95087" height="1.95087" fill="white"/>
<rect x="312.789" y="101.445" width="1.95087" height="1.95087" fill="white"/>
<rect x="16.9075" width="1.95087" height="1.95087" fill="white"/>
<rect x="169.075" width="1.95087" height="1.95087" fill="white"/>
<rect x="321.243" width="1.95087" height="1.95087" fill="white"/>
<rect x="16.9075" y="67.6301" width="1.95087" height="1.95087" fill="white"/>
<rect x="169.075" y="67.6301" width="1.95087" height="1.95087" fill="white"/>
<rect x="321.243" y="67.6301" width="1.95087" height="1.95087" fill="white"/>
<rect x="16.9075" y="50.7224" width="1.95087" height="1.95087" fill="white"/>
<rect x="169.075" y="50.7224" width="1.95087" height="1.95087" fill="white"/>
<rect x="321.243" y="50.7224" width="1.95087" height="1.95087" fill="white"/>
<rect x="16.9075" y="118.353" width="1.95087" height="1.95087" fill="white"/>
<rect x="169.075" y="118.353" width="1.95087" height="1.95087" fill="white"/>
<rect x="321.243" y="118.353" width="1.95087" height="1.95087" fill="white"/>
<rect x="16.9075" y="16.9077" width="1.95087" height="1.95087" fill="white"/>
<rect x="169.075" y="16.9077" width="1.95087" height="1.95087" fill="white"/>
<rect x="321.243" y="16.9077" width="1.95087" height="1.95087" fill="white"/>
<rect x="16.9075" y="84.5376" width="1.95087" height="1.95087" fill="white"/>
<rect x="169.075" y="84.5376" width="1.95087" height="1.95087" fill="white"/>
<rect x="16.9075" y="33.8152" width="1.95087" height="1.95087" fill="white"/>
<rect x="169.075" y="33.8152" width="1.95087" height="1.95087" fill="white"/>
<rect x="16.9075" y="101.445" width="1.95087" height="1.95087" fill="white"/>
<rect x="169.075" y="101.445" width="1.95087" height="1.95087" fill="white"/>
<rect x="321.243" y="101.445" width="1.95087" height="1.95087" fill="white"/>
<rect x="25.3613" width="1.95087" height="1.95087" fill="white"/>
<rect x="177.529" width="1.95087" height="1.95087" fill="white"/>
<rect x="329.697" width="1.95087" height="1.95087" fill="white"/>
<rect x="177.529" y="67.6301" width="1.95087" height="1.95087" fill="white"/>
<rect x="329.697" y="67.6301" width="1.95087" height="1.95087" fill="white"/>
<rect x="177.529" y="50.7224" width="1.95087" height="1.95087" fill="white"/>
<rect x="329.697" y="50.7224" width="1.95087" height="1.95087" fill="white"/>
<rect x="25.3613" y="118.353" width="1.95087" height="1.95087" fill="white"/>
<rect x="177.529" y="118.353" width="1.95087" height="1.95087" fill="white"/>
<rect x="329.697" y="118.353" width="1.95087" height="1.95087" fill="white"/>
<rect x="25.3613" y="16.9077" width="1.95087" height="1.95087" fill="white"/>
<rect x="177.529" y="16.9077" width="1.95087" height="1.95087" fill="white"/>
<rect x="329.697" y="16.9077" width="1.95087" height="1.95087" fill="white"/>
<rect x="177.529" y="84.5376" width="1.95087" height="1.95087" fill="white"/>
<rect x="329.697" y="84.5376" width="1.95087" height="1.95087" fill="white"/>
<rect x="177.529" y="33.8152" width="1.95087" height="1.95087" fill="white"/>
<rect x="329.697" y="33.8152" width="1.95087" height="1.95087" fill="white"/>
<rect x="25.3613" y="101.445" width="1.95087" height="1.95087" fill="white"/>
<rect x="177.529" y="101.445" width="1.95087" height="1.95087" fill="white"/>
<rect x="329.697" y="101.445" width="1.95087" height="1.95087" fill="white"/>
<rect x="33.8149" width="1.95087" height="1.95087" fill="white"/>
<rect x="185.983" width="1.95087" height="1.95087" fill="white"/>
<rect x="338.15" width="1.95087" height="1.95087" fill="white"/>
<rect x="338.15" y="67.6301" width="1.95087" height="1.95087" fill="white"/>
<rect x="338.15" y="50.7224" width="1.95087" height="1.95087" fill="white"/>
<rect x="33.8149" y="118.353" width="1.95087" height="1.95087" fill="white"/>
<rect x="185.983" y="118.353" width="1.95087" height="1.95087" fill="white"/>
<rect x="338.15" y="118.353" width="1.95087" height="1.95087" fill="white"/>
<rect x="33.8149" y="16.9077" width="1.95087" height="1.95087" fill="white"/>
<rect x="185.983" y="16.9077" width="1.95087" height="1.95087" fill="white"/>
<rect x="338.15" y="16.9077" width="1.95087" height="1.95087" fill="white"/>
<rect x="338.15" y="84.5376" width="1.95087" height="1.95087" fill="white"/>
<rect x="338.15" y="33.8152" width="1.95087" height="1.95087" fill="white"/>
<rect x="33.8149" y="101.445" width="1.95087" height="1.95087" fill="white"/>
<rect x="185.983" y="101.445" width="1.95087" height="1.95087" fill="white"/>
<rect x="338.15" y="101.445" width="1.95087" height="1.95087" fill="white"/>
<rect x="42.2688" width="1.95087" height="1.95087" fill="white"/>
<rect x="194.436" width="1.95087" height="1.95087" fill="white"/>
<rect x="346.604" width="1.95087" height="1.95087" fill="white"/>
<rect x="42.2688" y="118.353" width="1.95087" height="1.95087" fill="white"/>
<rect x="194.436" y="118.353" width="1.95087" height="1.95087" fill="white"/>
<rect x="346.604" y="118.353" width="1.95087" height="1.95087" fill="white"/>
<rect x="42.2688" y="16.9077" width="1.95087" height="1.95087" fill="white"/>
<rect x="194.436" y="16.9077" width="1.95087" height="1.95087" fill="white"/>
<rect x="346.604" y="16.9077" width="1.95087" height="1.95087" fill="white"/>
<rect x="42.2688" y="101.445" width="1.95087" height="1.95087" fill="white"/>
<rect x="194.436" y="101.445" width="1.95087" height="1.95087" fill="white"/>
<rect x="346.604" y="101.445" width="1.95087" height="1.95087" fill="white"/>
<rect x="50.7224" width="1.95087" height="1.95087" fill="white"/>
<rect x="202.89" width="1.95087" height="1.95087" fill="white"/>
<rect x="355.058" width="1.95087" height="1.95087" fill="white"/>
<rect x="50.7224" y="118.353" width="1.95087" height="1.95087" fill="white"/>
<rect x="202.89" y="118.353" width="1.95087" height="1.95087" fill="white"/>
<rect x="355.058" y="118.353" width="1.95087" height="1.95087" fill="white"/>
<rect x="50.7224" y="16.9077" width="1.95087" height="1.95087" fill="white"/>
<rect x="202.89" y="16.9077" width="1.95087" height="1.95087" fill="white"/>
<rect x="355.058" y="16.9077" width="1.95087" height="1.95087" fill="white"/>
<rect x="50.7224" y="84.5376" width="1.95087" height="1.95087" fill="white"/>
<rect x="50.7224" y="33.8152" width="1.95087" height="1.95087" fill="white"/>
<rect x="50.7224" y="101.445" width="1.95087" height="1.95087" fill="white"/>
<rect x="202.89" y="101.445" width="1.95087" height="1.95087" fill="white"/>
<rect x="355.058" y="101.445" width="1.95087" height="1.95087" fill="white"/>
<rect x="59.1763" width="1.95087" height="1.95087" fill="white"/>
<rect x="211.344" width="1.95087" height="1.95087" fill="white"/>
<rect x="363.511" width="1.95087" height="1.95087" fill="white"/>
<rect x="211.344" y="50.7224" width="1.95087" height="1.95087" fill="white"/>
<rect x="59.1763" y="118.353" width="1.95087" height="1.95087" fill="white"/>
<rect x="211.344" y="118.353" width="1.95087" height="1.95087" fill="white"/>
<rect x="363.511" y="118.353" width="1.95087" height="1.95087" fill="white"/>
<rect x="59.1763" y="16.9077" width="1.95087" height="1.95087" fill="white"/>
<rect x="211.344" y="16.9077" width="1.95087" height="1.95087" fill="white"/>
<rect x="363.511" y="16.9077" width="1.95087" height="1.95087" fill="white"/>
<rect x="59.1763" y="84.5376" width="1.95087" height="1.95087" fill="white"/>
<rect x="211.344" y="84.5376" width="1.95087" height="1.95087" fill="white"/>
<rect x="59.1763" y="33.8152" width="1.95087" height="1.95087" fill="white"/>
<rect x="59.1763" y="101.445" width="1.95087" height="1.95087" fill="white"/>
<rect x="211.344" y="101.445" width="1.95087" height="1.95087" fill="white"/>
<rect x="363.511" y="101.445" width="1.95087" height="1.95087" fill="white"/>
<rect x="67.6301" width="1.95087" height="1.95087" fill="white"/>
<rect x="219.798" width="1.95087" height="1.95087" fill="white"/>
<rect x="371.965" width="1.95087" height="1.95087" fill="white"/>
<rect x="219.798" y="50.7224" width="1.95087" height="1.95087" fill="white"/>
<rect x="67.6301" y="118.353" width="1.95087" height="1.95087" fill="white"/>
<rect x="219.798" y="118.353" width="1.95087" height="1.95087" fill="white"/>
<rect x="371.965" y="118.353" width="1.95087" height="1.95087" fill="white"/>
<rect x="67.6301" y="16.9077" width="1.95087" height="1.95087" fill="white"/>
<rect x="219.798" y="16.9077" width="1.95087" height="1.95087" fill="white"/>
<rect x="371.965" y="16.9077" width="1.95087" height="1.95087" fill="white"/>
<rect x="371.965" y="84.5376" width="1.95087" height="1.95087" fill="white"/>
<rect x="67.6301" y="101.445" width="1.95087" height="1.95087" fill="white"/>
<rect x="219.798" y="101.445" width="1.95087" height="1.95087" fill="white"/>
<rect x="371.965" y="101.445" width="1.95087" height="1.95087" fill="white"/>
<rect x="76.0837" width="1.95087" height="1.95087" fill="white"/>
<rect x="228.251" width="1.95087" height="1.95087" fill="white"/>
<rect x="380.419" width="1.95087" height="1.95087" fill="white"/>
<rect x="76.0837" y="118.353" width="1.95087" height="1.95087" fill="white"/>
<rect x="228.251" y="118.353" width="1.95087" height="1.95087" fill="white"/>
<rect x="380.419" y="118.353" width="1.95087" height="1.95087" fill="white"/>
<rect x="76.0837" y="16.9077" width="1.95087" height="1.95087" fill="white"/>
<rect x="228.251" y="16.9077" width="1.95087" height="1.95087" fill="white"/>
<rect x="380.419" y="16.9077" width="1.95087" height="1.95087" fill="white"/>
<rect x="380.419" y="33.8152" width="1.95087" height="1.95087" fill="white"/>
<rect x="76.0837" y="101.445" width="1.95087" height="1.95087" fill="white"/>
<rect x="228.251" y="101.445" width="1.95087" height="1.95087" fill="white"/>
<rect x="380.419" y="101.445" width="1.95087" height="1.95087" fill="white"/>
<rect x="84.5376" width="1.95087" height="1.95087" fill="white"/>
<rect x="236.705" width="1.95087" height="1.95087" fill="white"/>
<rect x="388.873" width="1.95087" height="1.95087" fill="white"/>
<rect x="236.705" y="67.6301" width="1.95087" height="1.95087" fill="white"/>
<rect x="84.5376" y="118.353" width="1.95087" height="1.95087" fill="white"/>
<rect x="236.705" y="118.353" width="1.95087" height="1.95087" fill="white"/>
<rect x="388.873" y="118.353" width="1.95087" height="1.95087" fill="white"/>
<rect x="126.806" width="1.95087" height="1.95087" fill="white"/>
<rect x="278.974" width="1.95087" height="1.95087" fill="white"/>
<rect x="431.142" width="1.95087" height="1.95087" fill="white"/>
<rect x="431.142" y="67.6301" width="1.95087" height="1.95087" fill="white"/>
<rect x="278.974" y="50.7224" width="1.95087" height="1.95087" fill="white"/>
<rect x="431.142" y="50.7224" width="1.95087" height="1.95087" fill="white"/>
<rect x="126.806" y="118.353" width="1.95087" height="1.95087" fill="white"/>
<rect x="278.974" y="118.353" width="1.95087" height="1.95087" fill="white"/>
<rect x="431.142" y="118.353" width="1.95087" height="1.95087" fill="white"/>
<rect x="84.5376" y="16.9077" width="1.95087" height="1.95087" fill="white"/>
<rect x="236.705" y="16.9077" width="1.95087" height="1.95087" fill="white"/>
<rect x="388.873" y="16.9077" width="1.95087" height="1.95087" fill="white"/>
<rect x="126.806" y="16.9077" width="1.95087" height="1.95087" fill="white"/>
<rect x="278.974" y="16.9077" width="1.95087" height="1.95087" fill="white"/>
<rect x="431.142" y="16.9077" width="1.95087" height="1.95087" fill="white"/>
<rect x="431.142" y="84.5376" width="1.95087" height="1.95087" fill="white"/>
<rect x="388.873" y="33.8152" width="1.95087" height="1.95087" fill="white"/>
<rect x="84.5376" y="101.445" width="1.95087" height="1.95087" fill="white"/>
<rect x="236.705" y="101.445" width="1.95087" height="1.95087" fill="white"/>
<rect x="388.873" y="101.445" width="1.95087" height="1.95087" fill="white"/>
<rect x="431.142" y="33.8152" width="1.95087" height="1.95087" fill="white"/>
<rect x="126.806" y="101.445" width="1.95087" height="1.95087" fill="white"/>
<rect x="278.974" y="101.445" width="1.95087" height="1.95087" fill="white"/>
<rect x="431.142" y="101.445" width="1.95087" height="1.95087" fill="white"/>
<rect x="92.9912" width="1.95087" height="1.95087" fill="white"/>
<rect x="245.159" width="1.95087" height="1.95087" fill="white"/>
<rect x="397.327" width="1.95087" height="1.95087" fill="white"/>
<rect x="92.9912" y="67.6301" width="1.95087" height="1.95087" fill="white"/>
<rect x="245.159" y="67.6301" width="1.95087" height="1.95087" fill="white"/>
<rect x="92.9912" y="50.7224" width="1.95087" height="1.95087" fill="white"/>
<rect x="92.9912" y="118.353" width="1.95087" height="1.95087" fill="white"/>
<rect x="245.159" y="118.353" width="1.95087" height="1.95087" fill="white"/>
<rect x="397.327" y="118.353" width="1.95087" height="1.95087" fill="white"/>
<rect x="135.26" width="1.95087" height="1.95087" fill="white"/>
<rect x="287.428" width="1.95087" height="1.95087" fill="white"/>
<rect x="439.595" width="1.95087" height="1.95087" fill="white"/>
<rect x="439.595" y="67.6301" width="1.95087" height="1.95087" fill="white"/>
<rect x="287.428" y="50.7224" width="1.95087" height="1.95087" fill="white"/>
<rect x="439.595" y="50.7224" width="1.95087" height="1.95087" fill="white"/>
<rect x="135.26" y="118.353" width="1.95087" height="1.95087" fill="white"/>
<rect x="287.428" y="118.353" width="1.95087" height="1.95087" fill="white"/>
<rect x="439.595" y="118.353" width="1.95087" height="1.95087" fill="white"/>
<rect x="92.9912" y="16.9077" width="1.95087" height="1.95087" fill="white"/>
<rect x="245.159" y="16.9077" width="1.95087" height="1.95087" fill="white"/>
<rect x="397.327" y="16.9077" width="1.95087" height="1.95087" fill="white"/>
<rect x="92.9912" y="84.5376" width="1.95087" height="1.95087" fill="white"/>
<rect x="245.159" y="84.5376" width="1.95087" height="1.95087" fill="white"/>
<rect x="397.327" y="84.5376" width="1.95087" height="1.95087" fill="white"/>
<rect x="135.26" y="16.9077" width="1.95087" height="1.95087" fill="white"/>
<rect x="287.428" y="16.9077" width="1.95087" height="1.95087" fill="white"/>
<rect x="439.595" y="16.9077" width="1.95087" height="1.95087" fill="white"/>
<rect x="439.595" y="84.5376" width="1.95087" height="1.95087" fill="white"/>
<rect x="92.9912" y="33.8152" width="1.95087" height="1.95087" fill="white"/>
<rect x="245.159" y="33.8152" width="1.95087" height="1.95087" fill="white"/>
<rect x="92.9912" y="101.445" width="1.95087" height="1.95087" fill="white"/>
<rect x="245.159" y="101.445" width="1.95087" height="1.95087" fill="white"/>
<rect x="397.327" y="101.445" width="1.95087" height="1.95087" fill="white"/>
<rect x="439.595" y="33.8152" width="1.95087" height="1.95087" fill="white"/>
<rect x="135.26" y="101.445" width="1.95087" height="1.95087" fill="white"/>
<rect x="287.428" y="101.445" width="1.95087" height="1.95087" fill="white"/>
<rect x="439.595" y="101.445" width="1.95087" height="1.95087" fill="white"/>
<rect x="101.445" width="1.95087" height="1.95087" fill="white"/>
<rect x="253.613" width="1.95087" height="1.95087" fill="white"/>
<rect x="405.78" width="1.95087" height="1.95087" fill="white"/>
<rect x="101.445" y="67.6301" width="1.95087" height="1.95087" fill="white"/>
<rect x="253.613" y="67.6301" width="1.95087" height="1.95087" fill="white"/>
<rect x="101.445" y="50.7224" width="1.95087" height="1.95087" fill="white"/>
<rect x="253.613" y="50.7224" width="1.95087" height="1.95087" fill="white"/>
<rect x="101.445" y="118.353" width="1.95087" height="1.95087" fill="white"/>
<rect x="253.613" y="118.353" width="1.95087" height="1.95087" fill="white"/>
<rect x="405.78" y="118.353" width="1.95087" height="1.95087" fill="white"/>
<rect x="143.714" width="1.95087" height="1.95087" fill="white"/>
<rect x="295.881" width="1.95087" height="1.95087" fill="white"/>
<rect x="448.049" width="1.95087" height="1.95087" fill="white"/>
<rect x="448.049" y="67.6301" width="1.95087" height="1.95087" fill="white"/>
<rect x="448.049" y="50.7224" width="1.95087" height="1.95087" fill="white"/>
<rect x="143.714" y="118.353" width="1.95087" height="1.95087" fill="white"/>
<rect x="295.881" y="118.353" width="1.95087" height="1.95087" fill="white"/>
<rect x="448.049" y="118.353" width="1.95087" height="1.95087" fill="white"/>
<rect x="101.445" y="16.9077" width="1.95087" height="1.95087" fill="white"/>
<rect x="253.613" y="16.9077" width="1.95087" height="1.95087" fill="white"/>
<rect x="405.78" y="16.9077" width="1.95087" height="1.95087" fill="white"/>
<rect x="101.445" y="84.5376" width="1.95087" height="1.95087" fill="white"/>
<rect x="253.613" y="84.5376" width="1.95087" height="1.95087" fill="white"/>
<rect x="143.714" y="16.9077" width="1.95087" height="1.95087" fill="white"/>
<rect x="295.881" y="16.9077" width="1.95087" height="1.95087" fill="white"/>
<rect x="448.049" y="16.9077" width="1.95087" height="1.95087" fill="white"/>
<rect x="448.049" y="84.5376" width="1.95087" height="1.95087" fill="white"/>
<rect x="101.445" y="33.8152" width="1.95087" height="1.95087" fill="white"/>
<rect x="253.613" y="33.8152" width="1.95087" height="1.95087" fill="white"/>
<rect x="101.445" y="101.445" width="1.95087" height="1.95087" fill="white"/>
<rect x="253.613" y="101.445" width="1.95087" height="1.95087" fill="white"/>
<rect x="405.78" y="101.445" width="1.95087" height="1.95087" fill="white"/>
<rect x="448.049" y="33.8152" width="1.95087" height="1.95087" fill="white"/>
<rect x="143.714" y="101.445" width="1.95087" height="1.95087" fill="white"/>
<rect x="295.881" y="101.445" width="1.95087" height="1.95087" fill="white"/>
<rect x="448.049" y="101.445" width="1.95087" height="1.95087" fill="white"/>
<rect x="109.899" width="1.95087" height="1.95087" fill="white"/>
<rect x="262.066" width="1.95087" height="1.95087" fill="white"/>
<rect x="414.234" width="1.95087" height="1.95087" fill="white"/>
<rect x="109.899" y="67.6301" width="1.95087" height="1.95087" fill="white"/>
<rect x="262.066" y="67.6301" width="1.95087" height="1.95087" fill="white"/>
<rect x="109.899" y="50.7224" width="1.95087" height="1.95087" fill="white"/>
<rect x="262.066" y="50.7224" width="1.95087" height="1.95087" fill="white"/>
<rect x="109.899" y="118.353" width="1.95087" height="1.95087" fill="white"/>
<rect x="262.066" y="118.353" width="1.95087" height="1.95087" fill="white"/>
<rect x="414.234" y="118.353" width="1.95087" height="1.95087" fill="white"/>
<rect x="109.899" y="16.9077" width="1.95087" height="1.95087" fill="white"/>
<rect x="262.066" y="16.9077" width="1.95087" height="1.95087" fill="white"/>
<rect x="414.234" y="16.9077" width="1.95087" height="1.95087" fill="white"/>
<rect x="109.899" y="84.5376" width="1.95087" height="1.95087" fill="white"/>
<rect x="262.066" y="84.5376" width="1.95087" height="1.95087" fill="white"/>
<rect x="262.066" y="33.8152" width="1.95087" height="1.95087" fill="white"/>
<rect x="109.899" y="101.445" width="1.95087" height="1.95087" fill="white"/>
<rect x="262.066" y="101.445" width="1.95087" height="1.95087" fill="white"/>
<rect x="414.234" y="101.445" width="1.95087" height="1.95087" fill="white"/>
<rect x="118.353" width="1.95087" height="1.95087" fill="white"/>
<rect x="270.52" width="1.95087" height="1.95087" fill="white"/>
<rect x="422.688" width="1.95087" height="1.95087" fill="white"/>
<rect x="118.353" y="67.6301" width="1.95087" height="1.95087" fill="white"/>
<rect x="270.52" y="67.6301" width="1.95087" height="1.95087" fill="white"/>
<rect x="118.353" y="50.7224" width="1.95087" height="1.95087" fill="white"/>
<rect x="270.52" y="50.7224" width="1.95087" height="1.95087" fill="white"/>
<rect x="118.353" y="118.353" width="1.95087" height="1.95087" fill="white"/>
<rect x="270.52" y="118.353" width="1.95087" height="1.95087" fill="white"/>
<rect x="422.688" y="118.353" width="1.95087" height="1.95087" fill="white"/>
<rect x="118.353" y="16.9077" width="1.95087" height="1.95087" fill="white"/>
<rect x="270.52" y="16.9077" width="1.95087" height="1.95087" fill="white"/>
<rect x="422.688" y="16.9077" width="1.95087" height="1.95087" fill="white"/>
<rect x="118.353" y="84.5376" width="1.95087" height="1.95087" fill="white"/>
<rect x="118.353" y="101.445" width="1.95087" height="1.95087" fill="white"/>
<rect x="270.52" y="101.445" width="1.95087" height="1.95087" fill="white"/>
<rect x="422.688" y="101.445" width="1.95087" height="1.95087" fill="white"/>
<rect y="8.45386" width="1.95087" height="1.95087" fill="white"/>
<rect x="152.168" y="8.45386" width="1.95087" height="1.95087" fill="white"/>
<rect x="304.335" y="8.45386" width="1.95087" height="1.95087" fill="white"/>
<rect y="76.0837" width="1.95087" height="1.95087" fill="white"/>
<rect x="152.168" y="76.0837" width="1.95087" height="1.95087" fill="white"/>
<rect y="59.1763" width="1.95087" height="1.95087" fill="white"/>
<rect x="152.168" y="59.1763" width="1.95087" height="1.95087" fill="white"/>
<rect y="25.3613" width="1.95087" height="1.95087" fill="white"/>
<rect y="92.9912" width="1.95087" height="1.95087" fill="white"/>
<rect x="152.168" y="92.9912" width="1.95087" height="1.95087" fill="white"/>
<rect y="42.269" width="1.95087" height="1.95087" fill="white"/>
<rect y="109.899" width="1.95087" height="1.95087" fill="white"/>
<rect x="152.168" y="109.899" width="1.95087" height="1.95087" fill="white"/>
<rect x="304.335" y="109.899" width="1.95087" height="1.95087" fill="white"/>
<rect x="8.45386" y="8.45386" width="1.95087" height="1.95087" fill="white"/>
<rect x="160.621" y="8.45386" width="1.95087" height="1.95087" fill="white"/>
<rect x="312.789" y="8.45386" width="1.95087" height="1.95087" fill="white"/>
<rect x="8.45386" y="76.0837" width="1.95087" height="1.95087" fill="white"/>
<rect x="160.621" y="76.0837" width="1.95087" height="1.95087" fill="white"/>
<rect x="8.45386" y="59.1763" width="1.95087" height="1.95087" fill="white"/>
<rect x="160.621" y="59.1763" width="1.95087" height="1.95087" fill="white"/>
<rect x="312.789" y="59.1763" width="1.95087" height="1.95087" fill="white"/>
<rect x="8.45386" y="25.3613" width="1.95087" height="1.95087" fill="white"/>
<rect x="8.45386" y="92.9912" width="1.95087" height="1.95087" fill="white"/>
<rect x="160.621" y="92.9912" width="1.95087" height="1.95087" fill="white"/>
<rect x="8.45386" y="42.269" width="1.95087" height="1.95087" fill="white"/>
<rect x="8.45386" y="109.899" width="1.95087" height="1.95087" fill="white"/>
<rect x="160.621" y="109.899" width="1.95087" height="1.95087" fill="white"/>
<rect x="312.789" y="109.899" width="1.95087" height="1.95087" fill="white"/>
<rect x="16.9075" y="8.45386" width="1.95087" height="1.95087" fill="white"/>
<rect x="169.075" y="8.45386" width="1.95087" height="1.95087" fill="white"/>
<rect x="321.243" y="8.45386" width="1.95087" height="1.95087" fill="white"/>
<rect x="16.9075" y="76.0837" width="1.95087" height="1.95087" fill="white"/>
<rect x="169.075" y="76.0837" width="1.95087" height="1.95087" fill="white"/>
<rect x="16.9075" y="59.1763" width="1.95087" height="1.95087" fill="white"/>
<rect x="169.075" y="59.1763" width="1.95087" height="1.95087" fill="white"/>
<rect x="321.243" y="59.1763" width="1.95087" height="1.95087" fill="white"/>
<rect x="16.9075" y="25.3613" width="1.95087" height="1.95087" fill="white"/>
<rect x="169.075" y="25.3613" width="1.95087" height="1.95087" fill="white"/>
<rect x="16.9075" y="92.9912" width="1.95087" height="1.95087" fill="white"/>
<rect x="169.075" y="92.9912" width="1.95087" height="1.95087" fill="white"/>
<rect x="16.9075" y="42.269" width="1.95087" height="1.95087" fill="white"/>
<rect x="169.075" y="42.269" width="1.95087" height="1.95087" fill="white"/>
<rect x="16.9075" y="109.899" width="1.95087" height="1.95087" fill="white"/>
<rect x="169.075" y="109.899" width="1.95087" height="1.95087" fill="white"/>
<rect x="321.243" y="109.899" width="1.95087" height="1.95087" fill="white"/>
<rect x="25.3613" y="8.45386" width="1.95087" height="1.95087" fill="white"/>
<rect x="177.529" y="8.45386" width="1.95087" height="1.95087" fill="white"/>
<rect x="329.697" y="8.45386" width="1.95087" height="1.95087" fill="white"/>
<rect x="177.529" y="76.0837" width="1.95087" height="1.95087" fill="white"/>
<rect x="329.697" y="76.0837" width="1.95087" height="1.95087" fill="white"/>
<rect x="177.529" y="59.1763" width="1.95087" height="1.95087" fill="white"/>
<rect x="329.697" y="59.1763" width="1.95087" height="1.95087" fill="white"/>
<rect x="177.529" y="25.3613" width="1.95087" height="1.95087" fill="white"/>
<rect x="329.697" y="25.3613" width="1.95087" height="1.95087" fill="white"/>
<rect x="177.529" y="92.9912" width="1.95087" height="1.95087" fill="white"/>
<rect x="329.697" y="92.9912" width="1.95087" height="1.95087" fill="white"/>
<rect x="177.529" y="42.269" width="1.95087" height="1.95087" fill="white"/>
<rect x="329.697" y="42.269" width="1.95087" height="1.95087" fill="white"/>
<rect x="25.3613" y="109.899" width="1.95087" height="1.95087" fill="white"/>
<rect x="177.529" y="109.899" width="1.95087" height="1.95087" fill="white"/>
<rect x="329.697" y="109.899" width="1.95087" height="1.95087" fill="white"/>
<rect x="33.8149" y="8.45386" width="1.95087" height="1.95087" fill="white"/>
<rect x="185.983" y="8.45386" width="1.95087" height="1.95087" fill="white"/>
<rect x="338.15" y="8.45386" width="1.95087" height="1.95087" fill="white"/>
<rect x="338.15" y="76.0837" width="1.95087" height="1.95087" fill="white"/>
<rect x="338.15" y="59.1763" width="1.95087" height="1.95087" fill="white"/>
<rect x="338.15" y="25.3613" width="1.95087" height="1.95087" fill="white"/>
<rect x="338.15" y="92.9912" width="1.95087" height="1.95087" fill="white"/>
<rect x="338.15" y="42.269" width="1.95087" height="1.95087" fill="white"/>
<rect x="33.8149" y="109.899" width="1.95087" height="1.95087" fill="white"/>
<rect x="185.983" y="109.899" width="1.95087" height="1.95087" fill="white"/>
<rect x="338.15" y="109.899" width="1.95087" height="1.95087" fill="white"/>
<rect x="42.2688" y="8.45386" width="1.95087" height="1.95087" fill="white"/>
<rect x="194.436" y="8.45386" width="1.95087" height="1.95087" fill="white"/>
<rect x="346.604" y="8.45386" width="1.95087" height="1.95087" fill="white"/>
<rect x="42.2688" y="109.899" width="1.95087" height="1.95087" fill="white"/>
<rect x="194.436" y="109.899" width="1.95087" height="1.95087" fill="white"/>
<rect x="346.604" y="109.899" width="1.95087" height="1.95087" fill="white"/>
<rect x="50.7224" y="8.45386" width="1.95087" height="1.95087" fill="white"/>
<rect x="202.89" y="8.45386" width="1.95087" height="1.95087" fill="white"/>
<rect x="355.058" y="8.45386" width="1.95087" height="1.95087" fill="white"/>
<rect x="50.7224" y="76.0837" width="1.95087" height="1.95087" fill="white"/>
<rect x="50.7224" y="25.3613" width="1.95087" height="1.95087" fill="white"/>
<rect x="50.7224" y="92.9912" width="1.95087" height="1.95087" fill="white"/>
<rect x="50.7224" y="109.899" width="1.95087" height="1.95087" fill="white"/>
<rect x="202.89" y="109.899" width="1.95087" height="1.95087" fill="white"/>
<rect x="355.058" y="109.899" width="1.95087" height="1.95087" fill="white"/>
<rect x="59.1763" y="8.45386" width="1.95087" height="1.95087" fill="white"/>
<rect x="211.344" y="8.45386" width="1.95087" height="1.95087" fill="white"/>
<rect x="363.511" y="8.45386" width="1.95087" height="1.95087" fill="white"/>
<rect x="211.344" y="76.0837" width="1.95087" height="1.95087" fill="white"/>
<rect x="59.1763" y="25.3613" width="1.95087" height="1.95087" fill="white"/>
<rect x="59.1763" y="92.9912" width="1.95087" height="1.95087" fill="white"/>
<rect x="211.344" y="92.9912" width="1.95087" height="1.95087" fill="white"/>
<rect x="59.1763" y="42.269" width="1.95087" height="1.95087" fill="white"/>
<rect x="211.344" y="42.269" width="1.95087" height="1.95087" fill="white"/>
<rect x="59.1763" y="109.899" width="1.95087" height="1.95087" fill="white"/>
<rect x="211.344" y="109.899" width="1.95087" height="1.95087" fill="white"/>
<rect x="363.511" y="109.899" width="1.95087" height="1.95087" fill="white"/>
<rect x="67.6301" y="8.45386" width="1.95087" height="1.95087" fill="white"/>
<rect x="219.798" y="8.45386" width="1.95087" height="1.95087" fill="white"/>
<rect x="371.965" y="8.45386" width="1.95087" height="1.95087" fill="white"/>
<rect x="371.965" y="76.0837" width="1.95087" height="1.95087" fill="white"/>
<rect x="371.965" y="25.3613" width="1.95087" height="1.95087" fill="white"/>
<rect x="219.798" y="92.9912" width="1.95087" height="1.95087" fill="white"/>
<rect x="371.965" y="92.9912" width="1.95087" height="1.95087" fill="white"/>
<rect x="219.798" y="42.269" width="1.95087" height="1.95087" fill="white"/>
<rect x="67.6301" y="109.899" width="1.95087" height="1.95087" fill="white"/>
<rect x="219.798" y="109.899" width="1.95087" height="1.95087" fill="white"/>
<rect x="371.965" y="109.899" width="1.95087" height="1.95087" fill="white"/>
<rect x="76.0837" y="8.45386" width="1.95087" height="1.95087" fill="white"/>
<rect x="228.251" y="8.45386" width="1.95087" height="1.95087" fill="white"/>
<rect x="380.419" y="8.45386" width="1.95087" height="1.95087" fill="white"/>
<rect x="380.419" y="25.3613" width="1.95087" height="1.95087" fill="white"/>
<rect x="380.419" y="42.269" width="1.95087" height="1.95087" fill="white"/>
<rect x="76.0837" y="109.899" width="1.95087" height="1.95087" fill="white"/>
<rect x="228.251" y="109.899" width="1.95087" height="1.95087" fill="white"/>
<rect x="380.419" y="109.899" width="1.95087" height="1.95087" fill="white"/>
<rect x="84.5376" y="8.45386" width="1.95087" height="1.95087" fill="white"/>
<rect x="236.705" y="8.45386" width="1.95087" height="1.95087" fill="white"/>
<rect x="388.873" y="8.45386" width="1.95087" height="1.95087" fill="white"/>
<rect x="126.806" y="8.45386" width="1.95087" height="1.95087" fill="white"/>
<rect x="278.974" y="8.45386" width="1.95087" height="1.95087" fill="white"/>
<rect x="431.142" y="8.45386" width="1.95087" height="1.95087" fill="white"/>
<rect x="431.142" y="76.0837" width="1.95087" height="1.95087" fill="white"/>
<rect x="278.974" y="59.1763" width="1.95087" height="1.95087" fill="white"/>
<rect x="431.142" y="59.1763" width="1.95087" height="1.95087" fill="white"/>
<rect x="236.705" y="25.3613" width="1.95087" height="1.95087" fill="white"/>
<rect x="388.873" y="25.3613" width="1.95087" height="1.95087" fill="white"/>
<rect x="431.142" y="25.3613" width="1.95087" height="1.95087" fill="white"/>
<rect x="431.142" y="92.9912" width="1.95087" height="1.95087" fill="white"/>
<rect x="388.873" y="42.269" width="1.95087" height="1.95087" fill="white"/>
<rect x="84.5376" y="109.899" width="1.95087" height="1.95087" fill="white"/>
<rect x="236.705" y="109.899" width="1.95087" height="1.95087" fill="white"/>
<rect x="388.873" y="109.899" width="1.95087" height="1.95087" fill="white"/>
<rect x="431.142" y="42.269" width="1.95087" height="1.95087" fill="white"/>
<rect x="126.806" y="109.899" width="1.95087" height="1.95087" fill="white"/>
<rect x="278.974" y="109.899" width="1.95087" height="1.95087" fill="white"/>
<rect x="431.142" y="109.899" width="1.95087" height="1.95087" fill="white"/>
<rect x="92.9912" y="8.45386" width="1.95087" height="1.95087" fill="white"/>
<rect x="245.159" y="8.45386" width="1.95087" height="1.95087" fill="white"/>
<rect x="397.327" y="8.45386" width="1.95087" height="1.95087" fill="white"/>
<rect x="92.9912" y="76.0837" width="1.95087" height="1.95087" fill="white"/>
<rect x="245.159" y="76.0837" width="1.95087" height="1.95087" fill="white"/>
<rect x="397.327" y="76.0837" width="1.95087" height="1.95087" fill="white"/>
<rect x="92.9912" y="59.1763" width="1.95087" height="1.95087" fill="white"/>
<rect x="245.159" y="59.1763" width="1.95087" height="1.95087" fill="white"/>
<rect x="135.26" y="8.45386" width="1.95087" height="1.95087" fill="white"/>
<rect x="287.428" y="8.45386" width="1.95087" height="1.95087" fill="white"/>
<rect x="439.595" y="8.45386" width="1.95087" height="1.95087" fill="white"/>
<rect x="439.595" y="76.0837" width="1.95087" height="1.95087" fill="white"/>
<rect x="439.595" y="59.1763" width="1.95087" height="1.95087" fill="white"/>
<rect x="92.9912" y="25.3613" width="1.95087" height="1.95087" fill="white"/>
<rect x="245.159" y="25.3613" width="1.95087" height="1.95087" fill="white"/>
<rect x="397.327" y="25.3613" width="1.95087" height="1.95087" fill="white"/>
<rect x="92.9912" y="92.9912" width="1.95087" height="1.95087" fill="white"/>
<rect x="397.327" y="92.9912" width="1.95087" height="1.95087" fill="white"/>
<rect x="439.595" y="25.3613" width="1.95087" height="1.95087" fill="white"/>
<rect x="439.595" y="92.9912" width="1.95087" height="1.95087" fill="white"/>
<rect x="92.9912" y="42.269" width="1.95087" height="1.95087" fill="white"/>
<rect x="92.9912" y="109.899" width="1.95087" height="1.95087" fill="white"/>
<rect x="245.159" y="109.899" width="1.95087" height="1.95087" fill="white"/>
<rect x="397.327" y="109.899" width="1.95087" height="1.95087" fill="white"/>
<rect x="439.595" y="42.269" width="1.95087" height="1.95087" fill="white"/>
<rect x="135.26" y="109.899" width="1.95087" height="1.95087" fill="white"/>
<rect x="287.428" y="109.899" width="1.95087" height="1.95087" fill="white"/>
<rect x="439.595" y="109.899" width="1.95087" height="1.95087" fill="white"/>
<rect x="101.445" y="8.45386" width="1.95087" height="1.95087" fill="white"/>
<rect x="253.613" y="8.45386" width="1.95087" height="1.95087" fill="white"/>
<rect x="405.78" y="8.45386" width="1.95087" height="1.95087" fill="white"/>
<rect x="101.445" y="76.0837" width="1.95087" height="1.95087" fill="white"/>
<rect x="253.613" y="76.0837" width="1.95087" height="1.95087" fill="white"/>
<rect x="101.445" y="59.1763" width="1.95087" height="1.95087" fill="white"/>
<rect x="253.613" y="59.1763" width="1.95087" height="1.95087" fill="white"/>
<rect x="143.714" y="8.45386" width="1.95087" height="1.95087" fill="white"/>
<rect x="295.881" y="8.45386" width="1.95087" height="1.95087" fill="white"/>
<rect x="448.049" y="8.45386" width="1.95087" height="1.95087" fill="white"/>
<rect x="448.049" y="76.0837" width="1.95087" height="1.95087" fill="white"/>
<rect x="448.049" y="59.1763" width="1.95087" height="1.95087" fill="white"/>
<rect x="101.445" y="25.3613" width="1.95087" height="1.95087" fill="white"/>
<rect x="253.613" y="25.3613" width="1.95087" height="1.95087" fill="white"/>
<rect x="101.445" y="92.9912" width="1.95087" height="1.95087" fill="white"/>
<rect x="253.613" y="92.9912" width="1.95087" height="1.95087" fill="white"/>
<rect x="448.049" y="25.3613" width="1.95087" height="1.95087" fill="white"/>
<rect x="448.049" y="92.9912" width="1.95087" height="1.95087" fill="white"/>
<rect x="101.445" y="42.269" width="1.95087" height="1.95087" fill="white"/>
<rect x="253.613" y="42.269" width="1.95087" height="1.95087" fill="white"/>
<rect x="101.445" y="109.899" width="1.95087" height="1.95087" fill="white"/>
<rect x="253.613" y="109.899" width="1.95087" height="1.95087" fill="white"/>
<rect x="405.78" y="109.899" width="1.95087" height="1.95087" fill="white"/>
<rect x="448.049" y="42.269" width="1.95087" height="1.95087" fill="white"/>
<rect x="143.714" y="109.899" width="1.95087" height="1.95087" fill="white"/>
<rect x="295.881" y="109.899" width="1.95087" height="1.95087" fill="white"/>
<rect x="448.049" y="109.899" width="1.95087" height="1.95087" fill="white"/>
<rect x="109.899" y="8.45386" width="1.95087" height="1.95087" fill="white"/>
<rect x="262.066" y="8.45386" width="1.95087" height="1.95087" fill="white"/>
<rect x="414.234" y="8.45386" width="1.95087" height="1.95087" fill="white"/>
<rect x="109.899" y="76.0837" width="1.95087" height="1.95087" fill="white"/>
<rect x="262.066" y="76.0837" width="1.95087" height="1.95087" fill="white"/>
<rect x="109.899" y="59.1763" width="1.95087" height="1.95087" fill="white"/>
<rect x="262.066" y="59.1763" width="1.95087" height="1.95087" fill="white"/>
<rect x="262.066" y="25.3613" width="1.95087" height="1.95087" fill="white"/>
<rect x="109.899" y="92.9912" width="1.95087" height="1.95087" fill="white"/>
<rect x="262.066" y="92.9912" width="1.95087" height="1.95087" fill="white"/>
<rect x="262.066" y="42.269" width="1.95087" height="1.95087" fill="white"/>
<rect x="109.899" y="109.899" width="1.95087" height="1.95087" fill="white"/>
<rect x="262.066" y="109.899" width="1.95087" height="1.95087" fill="white"/>
<rect x="414.234" y="109.899" width="1.95087" height="1.95087" fill="white"/>
<rect x="118.353" y="8.45386" width="1.95087" height="1.95087" fill="white"/>
<rect x="270.52" y="8.45386" width="1.95087" height="1.95087" fill="white"/>
<rect x="422.688" y="8.45386" width="1.95087" height="1.95087" fill="white"/>
<rect x="118.353" y="76.0837" width="1.95087" height="1.95087" fill="white"/>
<rect x="118.353" y="59.1763" width="1.95087" height="1.95087" fill="white"/>
<rect x="270.52" y="59.1763" width="1.95087" height="1.95087" fill="white"/>
<rect x="118.353" y="92.9912" width="1.95087" height="1.95087" fill="white"/>
<rect x="118.353" y="109.899" width="1.95087" height="1.95087" fill="white"/>
<rect x="270.52" y="109.899" width="1.95087" height="1.95087" fill="white"/>
<rect x="422.688" y="109.899" width="1.95087" height="1.95087" fill="white"/>
</g>
<rect x="304.335" y="50.7227" width="1.95087" height="1.95087" fill="white"/>
<rect x="304.335" y="84.5376" width="1.95087" height="1.95087" fill="white"/>
<rect x="304.335" y="33.8152" width="1.95087" height="1.95087" fill="white"/>
<rect x="312.789" y="50.7227" width="1.95087" height="1.95087" fill="white"/>
<rect x="312.789" y="84.5376" width="1.95087" height="1.95087" fill="white"/>
<rect x="312.789" y="33.8152" width="1.95087" height="1.95087" fill="white"/>
<rect x="321.243" y="84.5376" width="1.95087" height="1.95087" fill="white"/>
<rect x="321.243" y="33.8152" width="1.95087" height="1.95087" fill="white"/>
<rect x="278.974" y="67.6301" width="1.95087" height="1.95087" fill="white"/>
<rect x="278.974" y="84.5376" width="1.95087" height="1.95087" fill="white"/>
<rect x="278.974" y="33.8152" width="1.95087" height="1.95087" fill="white"/>
<rect x="287.428" y="67.6301" width="1.95087" height="1.95087" fill="white"/>
<rect x="287.428" y="84.5376" width="1.95087" height="1.95087" fill="white"/>
<rect x="287.428" y="33.8152" width="1.95087" height="1.95087" fill="white"/>
<rect x="295.882" y="67.6301" width="1.95087" height="1.95087" fill="white"/>
<rect x="295.882" y="50.7227" width="1.95087" height="1.95087" fill="white"/>
<rect x="295.882" y="84.5376" width="1.95087" height="1.95087" fill="white"/>
<rect x="295.882" y="33.8152" width="1.95087" height="1.95087" fill="white"/>
<rect x="270.52" y="84.5376" width="1.95087" height="1.95087" fill="white"/>
<rect x="270.52" y="33.8152" width="1.95087" height="1.95087" fill="white"/>
<rect x="304.335" y="76.084" width="1.95087" height="1.95087" fill="white"/>
<rect x="304.335" y="59.1765" width="1.95087" height="1.95087" fill="white"/>
<rect x="304.335" y="25.3613" width="1.95087" height="1.95087" fill="white"/>
<rect x="304.335" y="92.9915" width="1.95087" height="1.95087" fill="white"/>
<rect x="304.335" y="42.269" width="1.95087" height="1.95087" fill="white"/>
<rect x="312.789" y="76.084" width="1.95087" height="1.95087" fill="white"/>
<rect x="312.789" y="25.3613" width="1.95087" height="1.95087" fill="white"/>
<rect x="312.789" y="92.9915" width="1.95087" height="1.95087" fill="white"/>
<rect x="312.789" y="42.269" width="1.95087" height="1.95087" fill="white"/>
<rect x="321.243" y="76.084" width="1.95087" height="1.95087" fill="white"/>
<rect x="321.243" y="25.3613" width="1.95087" height="1.95087" fill="white"/>
<rect x="321.243" y="92.9915" width="1.95087" height="1.95087" fill="white"/>
<rect x="321.243" y="42.269" width="1.95087" height="1.95087" fill="white"/>
<rect x="278.974" y="76.084" width="1.95087" height="1.95087" fill="white"/>
<rect x="278.974" y="25.3613" width="1.95087" height="1.95087" fill="white"/>
<rect x="278.974" y="92.9915" width="1.95087" height="1.95087" fill="white"/>
<rect x="278.974" y="42.269" width="1.95087" height="1.95087" fill="white"/>
<rect x="287.428" y="76.084" width="1.95087" height="1.95087" fill="white"/>
<rect x="287.428" y="59.1765" width="1.95087" height="1.95087" fill="white"/>
<rect x="287.428" y="25.3613" width="1.95087" height="1.95087" fill="white"/>
<rect x="287.428" y="92.9915" width="1.95087" height="1.95087" fill="white"/>
<rect x="287.428" y="42.269" width="1.95087" height="1.95087" fill="white"/>
<rect x="295.882" y="76.084" width="1.95087" height="1.95087" fill="white"/>
<rect x="295.882" y="59.1765" width="1.95087" height="1.95087" fill="white"/>
<rect x="295.882" y="25.3613" width="1.95087" height="1.95087" fill="white"/>
<rect x="295.882" y="92.9915" width="1.95087" height="1.95087" fill="white"/>
<rect x="295.882" y="42.269" width="1.95087" height="1.95087" fill="white"/>
<rect x="270.52" y="76.084" width="1.95087" height="1.95087" fill="white"/>
<rect x="270.52" y="25.3621" width="1.95087" height="1.95087" fill="white"/>
<rect x="270.52" y="92.9915" width="1.95087" height="1.95087" fill="white"/>
<rect x="270.52" y="42.269" width="1.95087" height="1.95087" fill="white"/>
<rect x="185.983" y="67.6301" width="1.95087" height="1.95087" fill="white"/>
<rect x="185.983" y="50.7227" width="1.95087" height="1.95087" fill="white"/>
<rect x="185.983" y="84.5376" width="1.95087" height="1.95087" fill="white"/>
<rect x="185.983" y="33.8152" width="1.95087" height="1.95087" fill="white"/>
<rect x="194.436" y="67.6301" width="1.95087" height="1.95087" fill="white"/>
<rect x="194.436" y="50.7227" width="1.95087" height="1.95087" fill="white"/>
<rect x="194.436" y="84.5376" width="1.95087" height="1.95087" fill="white"/>
<rect x="194.436" y="33.8152" width="1.95087" height="1.95087" fill="white"/>
<rect x="202.89" y="67.6301" width="1.95087" height="1.95087" fill="white"/>
<rect x="202.89" y="50.7227" width="1.95087" height="1.95087" fill="white"/>
<rect x="202.89" y="84.5376" width="1.95087" height="1.95087" fill="white"/>
<rect x="202.89" y="33.8152" width="1.95087" height="1.95087" fill="white"/>
<rect x="211.344" y="67.6301" width="1.95087" height="1.95087" fill="white"/>
<rect x="211.344" y="33.8152" width="1.95087" height="1.95087" fill="white"/>
<rect x="219.798" y="67.6301" width="1.95087" height="1.95087" fill="white"/>
<rect x="219.798" y="84.5376" width="1.95087" height="1.95087" fill="white"/>
<rect x="219.798" y="33.8152" width="1.95087" height="1.95087" fill="white"/>
<rect x="228.251" y="67.6301" width="1.95087" height="1.95087" fill="white"/>
<rect x="228.251" y="50.7227" width="1.95087" height="1.95087" fill="white"/>
<rect x="228.251" y="84.5376" width="1.95087" height="1.95087" fill="white"/>
<rect x="228.251" y="33.8152" width="1.95087" height="1.95087" fill="white"/>
<rect x="236.705" y="50.7227" width="1.95087" height="1.95087" fill="white"/>
<rect x="236.705" y="84.5376" width="1.95087" height="1.95087" fill="white"/>
<rect x="236.705" y="33.8152" width="1.95087" height="1.95087" fill="white"/>
<rect x="245.159" y="50.7227" width="1.95087" height="1.95087" fill="white"/>
<rect x="185.983" y="76.084" width="1.95087" height="1.95087" fill="white"/>
<rect x="185.983" y="59.1765" width="1.95087" height="1.95087" fill="white"/>
<rect x="185.983" y="25.3621" width="1.95087" height="1.95087" fill="white"/>
<rect x="185.983" y="92.9915" width="1.95087" height="1.95087" fill="white"/>
<rect x="185.983" y="42.269" width="1.95087" height="1.95087" fill="white"/>
<rect x="194.436" y="76.084" width="1.95087" height="1.95087" fill="white"/>
<rect x="194.436" y="59.1765" width="1.95087" height="1.95087" fill="white"/>
<rect x="194.436" y="25.3613" width="1.95087" height="1.95087" fill="white"/>
<rect x="194.436" y="92.9915" width="1.95087" height="1.95087" fill="white"/>
<rect x="194.436" y="42.269" width="1.95087" height="1.95087" fill="white"/>
<rect x="202.89" y="76.084" width="1.95087" height="1.95087" fill="white"/>
<rect x="202.89" y="59.1765" width="1.95087" height="1.95087" fill="white"/>
<rect x="202.89" y="25.3613" width="1.95087" height="1.95087" fill="white"/>
<rect x="202.89" y="92.9915" width="1.95087" height="1.95087" fill="white"/>
<rect x="202.89" y="42.269" width="1.95087" height="1.95087" fill="white"/>
<rect x="211.344" y="59.1765" width="1.95087" height="1.95087" fill="white"/>
<rect x="211.344" y="25.3613" width="1.95087" height="1.95087" fill="white"/>
<rect x="219.798" y="76.084" width="1.95087" height="1.95087" fill="white"/>
<rect x="219.798" y="59.1765" width="1.95087" height="1.95087" fill="white"/>
<rect x="219.798" y="25.3613" width="1.95087" height="1.95087" fill="white"/>
<rect x="228.251" y="76.084" width="1.95087" height="1.95087" fill="white"/>
<rect x="228.251" y="59.1765" width="1.95087" height="1.95087" fill="white"/>
<rect x="228.251" y="25.3613" width="1.95087" height="1.95087" fill="white"/>
<rect x="228.251" y="92.9915" width="1.95087" height="1.95087" fill="white"/>
<rect x="228.251" y="42.269" width="1.95087" height="1.95087" fill="white"/>
<rect x="236.705" y="76.084" width="1.95087" height="1.95087" fill="white"/>
<rect x="236.705" y="59.1765" width="1.95087" height="1.95087" fill="white"/>
<rect x="236.705" y="92.9915" width="1.95087" height="1.95087" fill="white"/>
<rect x="236.705" y="42.269" width="1.95087" height="1.95087" fill="white"/>
<rect x="245.159" y="92.9915" width="1.95087" height="1.95087" fill="white"/>
<rect x="245.159" y="42.269" width="1.95087" height="1.95087" fill="white"/>
<rect x="152.168" y="33.8152" width="1.95087" height="1.95087" fill="white"/>
<rect x="160.621" y="33.8152" width="1.95087" height="1.95087" fill="white"/>
<rect x="126.806" y="67.6301" width="1.95087" height="1.95087" fill="white"/>
<rect x="126.806" y="50.7227" width="1.95087" height="1.95087" fill="white"/>
<rect x="126.806" y="84.5376" width="1.95087" height="1.95087" fill="white"/>
<rect x="126.806" y="33.8152" width="1.95087" height="1.95087" fill="white"/>
<rect x="135.26" y="67.6301" width="1.95087" height="1.95087" fill="white"/>
<rect x="135.26" y="50.7227" width="1.95087" height="1.95087" fill="white"/>
<rect x="135.26" y="84.5376" width="1.95087" height="1.95087" fill="white"/>
<rect x="135.26" y="33.8152" width="1.95087" height="1.95087" fill="white"/>
<rect x="143.714" y="67.6301" width="1.95087" height="1.95087" fill="white"/>
<rect x="143.714" y="50.7227" width="1.95087" height="1.95087" fill="white"/>
<rect x="143.714" y="84.5376" width="1.95087" height="1.95087" fill="white"/>
<rect x="143.714" y="33.8152" width="1.95087" height="1.95087" fill="white"/>
<rect x="109.899" y="33.8152" width="1.95087" height="1.95087" fill="white"/>
<rect x="118.353" y="33.8152" width="1.95087" height="1.95087" fill="white"/>
<rect x="152.168" y="25.3613" width="1.95087" height="1.95087" fill="white"/>
<rect x="152.168" y="42.269" width="1.95087" height="1.95087" fill="white"/>
<rect x="160.621" y="25.3613" width="1.95087" height="1.95087" fill="white"/>
<rect x="160.621" y="42.269" width="1.95087" height="1.95087" fill="white"/>
<rect x="126.806" y="76.084" width="1.95087" height="1.95087" fill="white"/>
<rect x="126.806" y="59.1765" width="1.95087" height="1.95087" fill="white"/>
<rect x="126.806" y="25.3613" width="1.95087" height="1.95087" fill="white"/>
<rect x="126.806" y="92.9915" width="1.95087" height="1.95087" fill="white"/>
<rect x="126.806" y="42.269" width="1.95087" height="1.95087" fill="white"/>
<rect x="135.26" y="76.084" width="1.95087" height="1.95087" fill="white"/>
<rect x="135.26" y="59.1765" width="1.95087" height="1.95087" fill="white"/>
<rect x="135.26" y="25.3613" width="1.95087" height="1.95087" fill="white"/>
<rect x="135.26" y="92.9915" width="1.95087" height="1.95087" fill="white"/>
<rect x="135.26" y="42.269" width="1.95087" height="1.95087" fill="white"/>
<rect x="143.714" y="76.084" width="1.95087" height="1.95087" fill="white"/>
<rect x="143.714" y="59.1765" width="1.95087" height="1.95087" fill="white"/>
<rect x="143.714" y="25.3613" width="1.95087" height="1.95087" fill="white"/>
<rect x="143.714" y="92.9915" width="1.95087" height="1.95087" fill="white"/>
<rect x="143.714" y="42.269" width="1.95087" height="1.95087" fill="white"/>
<rect x="109.899" y="25.3621" width="1.95087" height="1.95087" fill="white"/>
<rect x="109.899" y="42.269" width="1.95087" height="1.95087" fill="white"/>
<rect x="118.353" y="25.3613" width="1.95087" height="1.95087" fill="white"/>
<rect x="118.353" y="42.269" width="1.95087" height="1.95087" fill="white"/>
<rect x="25.3613" y="67.6301" width="1.95087" height="1.95087" fill="white"/>
<rect x="25.3613" y="50.7227" width="1.95087" height="1.95087" fill="white"/>
<rect x="25.3613" y="84.5376" width="1.95087" height="1.95087" fill="white"/>
<rect x="25.3613" y="33.8152" width="1.95087" height="1.95087" fill="white"/>
<rect x="33.8149" y="67.6301" width="1.95087" height="1.95087" fill="white"/>
<rect x="33.8149" y="50.7227" width="1.95087" height="1.95087" fill="white"/>
<rect x="33.8149" y="84.5376" width="1.95087" height="1.95087" fill="white"/>
<rect x="33.8149" y="33.8152" width="1.95087" height="1.95087" fill="white"/>
<rect x="42.2688" y="67.6301" width="1.95087" height="1.95087" fill="white"/>
<rect x="42.2688" y="50.7227" width="1.95087" height="1.95087" fill="white"/>
<rect x="42.2688" y="84.5376" width="1.95087" height="1.95087" fill="white"/>
<rect x="42.2688" y="33.8152" width="1.95087" height="1.95087" fill="white"/>
<rect x="50.7224" y="67.6301" width="1.95087" height="1.95087" fill="white"/>
<rect x="50.7224" y="50.7227" width="1.95087" height="1.95087" fill="white"/>
<rect x="59.1763" y="67.6301" width="1.95087" height="1.95087" fill="white"/>
<rect x="59.1763" y="50.7227" width="1.95087" height="1.95087" fill="white"/>
<rect x="67.6301" y="67.6301" width="1.95087" height="1.95087" fill="white"/>
<rect x="67.6301" y="50.7227" width="1.95087" height="1.95087" fill="white"/>
<rect x="67.6301" y="84.5376" width="1.95087" height="1.95087" fill="white"/>
<rect x="67.6301" y="33.8152" width="1.95087" height="1.95087" fill="white"/>
<rect x="76.0837" y="67.6301" width="1.95087" height="1.95087" fill="white"/>
<rect x="76.0837" y="50.7227" width="1.95087" height="1.95087" fill="white"/>
<rect x="76.0837" y="84.5376" width="1.95087" height="1.95087" fill="white"/>
<rect x="76.0837" y="33.8152" width="1.95087" height="1.95087" fill="white"/>
<rect x="84.5376" y="67.6301" width="1.95087" height="1.95087" fill="white"/>
<rect x="84.5376" y="50.7227" width="1.95087" height="1.95087" fill="white"/>
<rect x="84.5376" y="84.5376" width="1.95087" height="1.95087" fill="white"/>
<rect x="84.5376" y="33.8152" width="1.95087" height="1.95087" fill="white"/>
<rect x="25.3613" y="76.084" width="1.95087" height="1.95087" fill="white"/>
<rect x="25.3613" y="59.1765" width="1.95087" height="1.95087" fill="white"/>
<rect x="25.3613" y="25.3621" width="1.95087" height="1.95087" fill="white"/>
<rect x="25.3613" y="92.9915" width="1.95087" height="1.95087" fill="white"/>
<rect x="25.3613" y="42.269" width="1.95087" height="1.95087" fill="white"/>
<rect x="33.8149" y="76.084" width="1.95087" height="1.95087" fill="white"/>
<rect x="33.8149" y="59.1765" width="1.95087" height="1.95087" fill="white"/>
<rect x="33.8149" y="25.3613" width="1.95087" height="1.95087" fill="white"/>
<rect x="33.8149" y="92.9915" width="1.95087" height="1.95087" fill="white"/>
<rect x="33.8149" y="42.269" width="1.95087" height="1.95087" fill="white"/>
<rect x="42.2688" y="76.084" width="1.95087" height="1.95087" fill="white"/>
<rect x="42.2688" y="59.1765" width="1.95087" height="1.95087" fill="white"/>
<rect x="42.2688" y="25.3613" width="1.95087" height="1.95087" fill="white"/>
<rect x="42.2688" y="92.9915" width="1.95087" height="1.95087" fill="white"/>
<rect x="42.2688" y="42.269" width="1.95087" height="1.95087" fill="white"/>
<rect x="50.7224" y="59.1765" width="1.95087" height="1.95087" fill="white"/>
<rect x="50.7224" y="42.269" width="1.95087" height="1.95087" fill="white"/>
<rect x="59.1763" y="76.084" width="1.95087" height="1.95087" fill="white"/>
<rect x="59.1763" y="59.1765" width="1.95087" height="1.95087" fill="white"/>
<rect x="67.6301" y="76.084" width="1.95087" height="1.95087" fill="white"/>
<rect x="67.6301" y="59.1765" width="1.95087" height="1.95087" fill="white"/>
<rect x="67.6301" y="25.3613" width="1.95087" height="1.95087" fill="white"/>
<rect x="67.6301" y="92.9915" width="1.95087" height="1.95087" fill="white"/>
<rect x="67.6301" y="42.269" width="1.95087" height="1.95087" fill="white"/>
<rect x="76.0837" y="76.084" width="1.95087" height="1.95087" fill="white"/>
<rect x="76.0837" y="59.1765" width="1.95087" height="1.95087" fill="white"/>
<rect x="76.0837" y="25.3613" width="1.95087" height="1.95087" fill="white"/>
<rect x="76.0837" y="92.9915" width="1.95087" height="1.95087" fill="white"/>
<rect x="76.0837" y="42.269" width="1.95087" height="1.95087" fill="white"/>
<rect x="84.5376" y="76.084" width="1.95087" height="1.95087" fill="white"/>
<rect x="84.5376" y="59.1765" width="1.95087" height="1.95087" fill="white"/>
<rect x="84.5376" y="25.3613" width="1.95087" height="1.95087" fill="white"/>
<rect x="84.5376" y="92.9915" width="1.95087" height="1.95087" fill="white"/>
<rect x="84.5376" y="42.269" width="1.95087" height="1.95087" fill="white"/>
<rect x="346.604" y="67.6301" width="1.95087" height="1.95087" fill="white"/>
<rect x="346.604" y="50.7227" width="1.95087" height="1.95087" fill="white"/>
<rect x="346.604" y="84.5376" width="1.95087" height="1.95087" fill="white"/>
<rect x="346.604" y="33.8152" width="1.95087" height="1.95087" fill="white"/>
<rect x="355.058" y="67.6301" width="1.95087" height="1.95087" fill="white"/>
<rect x="355.058" y="50.7227" width="1.95087" height="1.95087" fill="white"/>
<rect x="355.058" y="84.5376" width="1.95087" height="1.95087" fill="white"/>
<rect x="355.058" y="33.8152" width="1.95087" height="1.95087" fill="white"/>
<rect x="363.511" y="67.6301" width="1.95087" height="1.95087" fill="white"/>
<rect x="363.511" y="50.7227" width="1.95087" height="1.95087" fill="white"/>
<rect x="363.511" y="84.5376" width="1.95087" height="1.95087" fill="white"/>
<rect x="363.511" y="33.8152" width="1.95087" height="1.95087" fill="white"/>
<rect x="371.965" y="67.6301" width="1.95087" height="1.95087" fill="white"/>
<rect x="371.965" y="50.7227" width="1.95087" height="1.95087" fill="white"/>
<rect x="371.965" y="33.8152" width="1.95087" height="1.95087" fill="white"/>
<rect x="380.419" y="67.6301" width="1.95087" height="1.95087" fill="white"/>
<rect x="380.419" y="50.7227" width="1.95087" height="1.95087" fill="white"/>
<rect x="380.419" y="84.5376" width="1.95087" height="1.95087" fill="white"/>
<rect x="388.873" y="67.6301" width="1.95087" height="1.95087" fill="white"/>
<rect x="388.873" y="50.7227" width="1.95087" height="1.95087" fill="white"/>
<rect x="388.873" y="84.5376" width="1.95087" height="1.95087" fill="white"/>
<rect x="397.326" y="67.6301" width="1.95087" height="1.95087" fill="white"/>
<rect x="397.326" y="50.7227" width="1.95087" height="1.95087" fill="white"/>
<rect x="397.326" y="33.8152" width="1.95087" height="1.95087" fill="white"/>
<rect x="405.78" y="67.6301" width="1.95087" height="1.95087" fill="white"/>
<rect x="405.78" y="50.7227" width="1.95087" height="1.95087" fill="white"/>
<rect x="405.78" y="84.5376" width="1.95087" height="1.95087" fill="white"/>
<rect x="405.78" y="33.8152" width="1.95087" height="1.95087" fill="white"/>
<rect x="414.234" y="67.6301" width="1.95087" height="1.95087" fill="white"/>
<rect x="414.234" y="50.7227" width="1.95087" height="1.95087" fill="white"/>
<rect x="414.234" y="84.5376" width="1.95087" height="1.95087" fill="white"/>
<rect x="414.234" y="33.8152" width="1.95087" height="1.95087" fill="white"/>
<rect x="422.688" y="67.6301" width="1.95087" height="1.95087" fill="white"/>
<rect x="422.688" y="50.7227" width="1.95087" height="1.95087" fill="white"/>
<rect x="422.688" y="84.5376" width="1.95087" height="1.95087" fill="white"/>
<rect x="422.688" y="33.8152" width="1.95087" height="1.95087" fill="white"/>
<rect x="346.604" y="76.084" width="1.95087" height="1.95087" fill="white"/>
<rect x="346.604" y="59.1765" width="1.95087" height="1.95087" fill="white"/>
<rect x="346.604" y="25.3621" width="1.95087" height="1.95087" fill="white"/>
<rect x="346.604" y="92.9915" width="1.95087" height="1.95087" fill="white"/>
<rect x="346.604" y="42.269" width="1.95087" height="1.95087" fill="white"/>
<rect x="355.058" y="76.084" width="1.95087" height="1.95087" fill="white"/>
<rect x="355.058" y="59.1765" width="1.95087" height="1.95087" fill="white"/>
<rect x="355.058" y="25.3613" width="1.95087" height="1.95087" fill="white"/>
<rect x="355.058" y="92.9915" width="1.95087" height="1.95087" fill="white"/>
<rect x="355.058" y="42.269" width="1.95087" height="1.95087" fill="white"/>
<rect x="363.511" y="76.084" width="1.95087" height="1.95087" fill="white"/>
<rect x="363.511" y="59.1765" width="1.95087" height="1.95087" fill="white"/>
<rect x="363.511" y="25.3613" width="1.95087" height="1.95087" fill="white"/>
<rect x="363.511" y="92.9915" width="1.95087" height="1.95087" fill="white"/>
<rect x="363.511" y="42.269" width="1.95087" height="1.95087" fill="white"/>
<rect x="371.965" y="59.1765" width="1.95087" height="1.95087" fill="white"/>
<rect x="371.965" y="42.269" width="1.95087" height="1.95087" fill="white"/>
<rect x="380.419" y="76.084" width="1.95087" height="1.95087" fill="white"/>
<rect x="380.419" y="59.1765" width="1.95087" height="1.95087" fill="white"/>
<rect x="380.419" y="92.9915" width="1.95087" height="1.95087" fill="white"/>
<rect x="388.873" y="76.084" width="1.95087" height="1.95087" fill="white"/>
<rect x="388.873" y="59.1765" width="1.95087" height="1.95087" fill="white"/>
<rect x="388.873" y="92.9915" width="1.95087" height="1.95087" fill="white"/>
<rect x="397.326" y="59.1765" width="1.95087" height="1.95087" fill="white"/>
<rect x="397.326" y="42.269" width="1.95087" height="1.95087" fill="white"/>
<rect x="405.78" y="76.084" width="1.95087" height="1.95087" fill="white"/>
<rect x="405.78" y="59.1765" width="1.95087" height="1.95087" fill="white"/>
<rect x="405.78" y="25.3613" width="1.95087" height="1.95087" fill="white"/>
<rect x="405.78" y="92.9915" width="1.95087" height="1.95087" fill="white"/>
<rect x="405.78" y="42.269" width="1.95087" height="1.95087" fill="white"/>
<rect x="414.234" y="76.084" width="1.95087" height="1.95087" fill="white"/>
<rect x="414.234" y="59.1765" width="1.95087" height="1.95087" fill="white"/>
<rect x="414.234" y="25.3613" width="1.95087" height="1.95087" fill="white"/>
<rect x="414.234" y="92.9915" width="1.95087" height="1.95087" fill="white"/>
<rect x="414.234" y="42.269" width="1.95087" height="1.95087" fill="white"/>
<rect x="422.688" y="76.084" width="1.95087" height="1.95087" fill="white"/>
<rect x="422.688" y="59.1765" width="1.95087" height="1.95087" fill="white"/>
<rect x="422.688" y="25.3613" width="1.95087" height="1.95087" fill="white"/>
<rect x="422.688" y="92.9915" width="1.95087" height="1.95087" fill="white"/>
<rect x="422.688" y="42.269" width="1.95087" height="1.95087" fill="white"/>
</g>
</svg>
