<svg width="50" height="50" viewBox="0 0 50 50" fill="none" xmlns="http://www.w3.org/2000/svg">
<rect width="50" height="50" fill="black"/>
<path fill-rule="evenodd" clip-rule="evenodd" d="M29.7489 13C29.9635 14.4577 29.3701 15.8858 28.5874 16.8962C27.75 17.98 26.3066 18.8183 24.9081 18.7745C24.6528 17.3789 25.3064 15.9409 26.1018 14.9742C26.9743 13.9074 28.4696 13.0889 29.7489 13ZM33.95 33.5185C34.671 32.4135 34.9403 31.8561 35.5 30.6086C31.4293 29.0606 30.777 23.2734 34.8057 21.0522C33.5769 19.5112 31.8501 18.6179 30.2201 18.6179C29.0457 18.6179 28.241 18.9244 27.5094 19.203C26.8998 19.4352 26.341 19.6481 25.6613 19.6481C24.9268 19.6481 24.2764 19.4148 23.5953 19.1706C22.8469 18.9023 22.0615 18.6207 21.087 18.6207C19.2578 18.6207 17.3109 19.7384 16.0765 21.6491C14.3413 24.3402 14.6373 29.3993 17.4511 33.709C18.4569 35.2514 19.8007 36.9843 21.5583 36.9998C22.2876 37.0071 22.7729 36.7894 23.2981 36.5539C23.8992 36.2843 24.5525 35.9912 25.6837 35.9852C26.8216 35.9784 27.4646 36.275 28.0578 36.5486C28.5694 36.7846 29.044 37.0035 29.7671 36.9956C31.5261 36.9815 32.9442 35.0609 33.95 33.5185Z" fill="white"/>
</svg>
