<svg width="50" height="50" viewBox="0 0 50 50" fill="none" xmlns="http://www.w3.org/2000/svg">
<rect width="50" height="50" fill="#CC5445"/>
<path fill-rule="evenodd" clip-rule="evenodd" d="M25.0526 23.4286V27.2H31.3211C31.0684 28.8186 29.4263 31.9457 25.0526 31.9457C21.2789 31.9457 18.2 28.8343 18.2 25C18.2 21.1657 21.2789 18.0543 25.0526 18.0543C27.2 18.0543 28.6368 18.9657 29.4579 19.7514L32.4579 16.8757C30.5316 15.0843 28.0368 14 25.0526 14C18.9421 14 14 18.9186 14 25C14 31.0814 18.9421 36 25.0526 36C31.4316 36 35.6632 31.5371 35.6632 25.2514C35.6632 24.5286 35.5842 23.9786 35.4895 23.4286H25.0526Z" fill="white"/>
</svg>
