<svg width="1980" height="915" viewBox="0 0 1980 915" fill="none" xmlns="http://www.w3.org/2000/svg">
<path d="M0 0H1980V914.83H0V0Z" fill="#3C3AA9"/>
<path d="M710.462 220.116C715.838 225.575 719 232.892 719.321 240.615C719.642 248.337 717.098 255.9 712.194 261.801C711.399 262.784 710.547 263.767 709.723 264.692C704.925 270.3 700.779 275.128 700.779 279.84C700.779 286.142 708.304 290.854 718.299 290.854H803.229C805.724 290.861 808.115 291.876 809.877 293.675C811.638 295.474 812.628 297.911 812.628 300.451V386.914C812.628 396.454 816.745 403.768 822.339 404.635C822.717 404.664 823.097 404.664 823.475 404.635C825.339 404.567 827.156 404.02 828.756 403.045C832.2 400.892 835.416 398.383 838.354 395.558C839.291 394.719 840.256 393.852 841.193 393.043C842.13 392.233 842.528 391.944 843.209 391.424L843.635 391.164C844.203 390.759 844.799 390.383 845.396 390.007L845.878 389.747C846.465 389.4 847.062 389.082 847.667 388.793L848.15 388.562L849.627 387.926C857.039 385.628 864.965 385.688 872.343 388.1L872.712 388.273C873.393 388.562 874.075 388.88 874.728 389.227L875.495 389.661L877.227 390.73L877.766 391.077C879.351 392.18 880.834 393.429 882.196 394.806C882.906 395.529 883.559 396.28 884.212 397.061C885.423 398.561 886.488 400.178 887.392 401.889L887.676 402.438C887.989 403.074 888.273 403.681 888.557 404.346C888.84 405.011 888.755 404.808 888.869 405.068C889.195 405.881 889.479 406.711 889.721 407.554V408.046C889.919 408.74 890.09 409.462 890.232 410.156C890.374 410.85 890.374 410.792 890.431 411.11L890.686 412.96V413.856C890.686 414.781 890.828 415.678 890.828 416.747C890.832 422.624 889.185 428.379 886.082 433.335C882.979 438.29 878.549 442.239 873.314 444.715C868.079 447.191 862.257 448.092 856.536 447.311C850.815 446.53 845.432 444.1 841.023 440.307L838.183 437.821C836.82 436.578 835.486 435.422 834.18 434.323C830.318 431.085 826.768 428.715 823.304 428.715C822.195 428.733 821.101 428.978 820.086 429.435C819.072 429.892 818.158 430.551 817.398 431.374C813.929 435.606 812.164 441.019 812.457 446.522V532.985C812.4 535.507 811.392 537.91 809.642 539.697C807.893 541.483 805.536 542.517 803.058 542.583H718.299C712.897 542.282 707.583 544.068 703.42 547.584C702.602 548.352 701.947 549.28 701.493 550.314C701.039 551.348 700.796 552.464 700.779 553.597C700.779 558.309 704.925 563.136 709.723 568.744L712.194 571.635C716.808 577.198 719.342 584.242 719.349 591.524C719.327 599.438 716.316 607.041 710.942 612.759C705.567 618.477 698.239 621.873 690.473 622.244C682.708 622.615 675.099 619.933 669.222 614.754C663.344 609.574 659.647 602.292 658.896 594.414C658.845 593.452 658.845 592.487 658.896 591.524C658.892 584.246 661.417 577.201 666.023 571.635L668.522 568.744C673.292 563.136 677.438 558.309 677.438 553.597C677.48 553.193 677.48 552.786 677.438 552.382C677.451 552.248 677.451 552.112 677.438 551.978C677.385 551.724 677.319 551.473 677.239 551.226C677.239 551.024 677.239 550.85 677.04 550.677C676.842 550.503 676.899 550.301 676.813 550.128C676.728 549.954 676.558 549.665 676.416 549.434L676.245 549.145C676.053 548.853 675.845 548.573 675.621 548.306C674.474 546.986 673.085 545.906 671.532 545.127L670.936 544.895C670.481 544.664 669.97 544.462 669.459 544.259L668.834 543.999C668.096 543.768 667.301 543.537 666.506 543.363H666.08C665.228 543.19 664.348 543.045 663.439 542.93H663.07C662.133 542.93 661.196 542.93 660.23 542.93H574.874C572.374 542.93 569.976 541.918 568.208 540.119C566.44 538.319 565.447 535.878 565.447 533.332V446.493C565.232 443.176 566.133 439.882 568.003 437.156C568.145 437.011 568.258 436.954 568.258 436.896C570.019 437.127 574.874 441.405 577.771 443.978L580.61 446.58C586.2 451.391 593.025 454.474 600.279 455.467C607.534 456.46 614.916 455.321 621.555 452.184C628.195 449.047 633.815 444.044 637.754 437.762C641.692 431.481 643.785 424.185 643.785 416.733C643.785 409.281 641.692 401.984 637.754 395.703C633.815 389.422 628.195 384.418 621.555 381.281C614.916 378.144 607.534 377.005 600.279 377.998C593.025 378.991 586.2 382.075 580.61 386.885L577.771 389.458C574.931 392.089 569.905 396.454 568.344 396.569C567.52 396.223 565.504 392.869 565.504 386.943V300.48C565.562 297.953 566.574 295.546 568.329 293.759C570.085 291.971 572.449 290.941 574.931 290.883H659.861C665.263 291.187 670.578 289.4 674.74 285.882C675.549 285.108 676.197 284.178 676.645 283.145C677.094 282.112 677.335 280.998 677.353 279.869C677.353 275.157 673.207 270.329 668.408 264.721L665.938 261.83C660.937 255.745 658.431 247.933 658.941 240.016C659.451 232.098 662.939 224.686 668.679 219.319C674.419 213.952 681.969 211.043 689.761 211.197C697.553 211.351 704.987 214.556 710.518 220.145L710.462 220.116Z" fill="#3735A6"/>
<path d="M516.493 130.705H377.527C367.304 130.705 358.218 127.641 353.164 122.495C351.836 121.235 350.772 119.715 350.035 118.026C349.299 116.337 348.904 114.514 348.876 112.666C348.876 104.977 355.662 97.0561 363.5 87.8924L367.56 83.0937C373.663 75.7392 377.574 66.762 378.832 57.2198C380.09 47.6777 378.643 37.9683 374.66 29.2358C370.678 20.5033 364.327 13.1116 356.355 7.93183C348.384 2.75205 339.124 0 329.667 0C320.21 0 310.95 2.75205 302.978 7.93183C295.006 13.1116 288.655 20.5033 284.673 29.2358C280.69 37.9683 279.243 47.6777 280.501 57.2198C281.759 66.762 285.67 75.7392 291.773 83.0937L295.834 87.8924C303.671 97.0561 310.429 104.977 310.429 112.666C310.429 118.274 306.766 123.362 300.349 126.658C294.541 129.426 288.19 130.81 281.778 130.705H142.812C138.723 130.705 134.801 132.359 131.909 135.302C129.018 138.246 127.393 142.239 127.393 146.402V288.05C127.49 294.509 126.201 300.911 123.617 306.811C119.358 315.859 113.338 317.189 110.157 317.189C102.945 317.189 95.5055 310.54 86.8734 302.735L81.6203 298.081C74.3963 291.868 65.5782 287.886 56.2052 286.605C46.8323 285.325 37.295 286.798 28.7174 290.852C20.1397 294.906 12.8791 301.372 7.79119 309.488C2.70325 317.603 0 327.031 0 336.658C0 346.286 2.70325 355.713 7.79119 363.829C12.8791 371.944 20.1397 378.41 28.7174 382.464C37.295 386.519 46.8323 387.992 56.2052 386.711C65.5782 385.431 74.3963 381.449 81.6203 375.236L86.8734 370.582C95.392 362.892 102.945 356.128 110.157 356.128C111.892 356.177 113.599 356.578 115.178 357.308C116.758 358.038 118.179 359.081 119.358 360.377C124.327 365.436 127.308 374.831 127.308 385.353V526.857C127.402 530.995 129.061 534.936 131.938 537.861C134.816 540.785 138.69 542.466 142.755 542.554H281.778C291.29 542.554 296.686 539.085 297.254 537.698C297.083 535.154 290.041 526.915 285.895 522.029C284.504 520.382 283.056 518.734 281.721 517.086C277.553 512.05 274.163 506.396 271.669 500.32C266.36 487.311 266.36 464.474 271.669 451.437C275.417 442.215 281.234 434.014 288.653 427.491C296.072 420.968 304.888 416.303 314.395 413.87C323.902 411.437 333.837 411.303 343.404 413.479C352.971 415.656 361.905 420.081 369.491 426.403C371.081 427.732 372.643 429.293 374.119 430.681C385.261 441.994 391.819 457.157 392.492 473.162C393.165 489.167 387.905 504.845 377.754 517.086C376.391 518.734 374.914 520.382 373.58 522.029C369.434 526.857 362.534 534.922 362.222 537.871C362.222 537.871 362.392 538.044 362.619 538.305C364.635 540.357 370.201 542.554 377.64 542.554H516.777C518.802 542.554 520.807 542.148 522.677 541.359C524.548 540.57 526.248 539.414 527.679 537.956C529.111 536.499 530.247 534.768 531.022 532.864C531.797 530.96 532.195 528.918 532.195 526.857V146.402C532.099 142.219 530.405 138.24 527.473 135.309C524.541 132.378 520.602 130.726 516.493 130.705Z" fill="#3735A6"/>
<path d="M576.953 644.338C584.018 644.337 590.856 646.876 596.262 651.507L598.562 653.531C600.862 655.583 604.695 658.994 606.03 659.052C607.655 656.926 608.417 654.246 608.159 651.565V584.036C608.116 582.069 607.331 580.195 605.968 578.801C604.604 577.407 602.765 576.601 600.833 576.549H422.767C420.821 576.549 418.955 577.334 417.577 578.732C416.198 580.13 415.42 582.027 415.413 584.008V651.189C415.234 653.778 415.936 656.35 417.4 658.474C417.471 658.558 417.558 658.627 417.656 658.676C420.365 657.221 422.844 655.36 425.01 653.155L427.31 651.131C431.665 647.381 436.983 644.978 442.636 644.204C448.29 643.431 454.042 644.32 459.215 646.766C464.388 649.213 468.766 653.114 471.832 658.011C474.898 662.908 476.525 668.595 476.519 674.402V674.633C476.518 680.438 474.889 686.121 471.823 691.015C468.757 695.908 464.381 699.808 459.212 702.256C454.042 704.704 448.293 705.597 442.642 704.832C436.99 704.066 431.671 701.672 427.31 697.933L425.01 695.91C422.71 693.857 418.877 690.446 417.542 690.388C415.904 692.507 415.14 695.193 415.413 697.875V765.288C415.456 767.26 416.245 769.139 417.615 770.534C418.985 771.928 420.83 772.731 422.767 772.775H488.985C493.201 772.54 497.348 773.934 500.598 776.678C501.229 777.28 501.735 778.005 502.086 778.809C502.437 779.613 502.626 780.481 502.643 781.361C502.643 785.032 499.406 788.79 495.658 793.184L493.727 795.439C489.909 800.047 487.931 805.947 488.183 811.97C488.435 817.993 490.9 823.7 495.09 827.96C498.395 831.322 502.606 833.61 507.189 834.536C511.772 835.462 516.522 834.983 520.838 833.16C525.153 831.338 528.841 828.253 531.435 824.297C534.029 820.341 535.413 815.69 535.411 810.934C535.369 805.249 533.358 799.762 529.732 795.439L527.801 793.184C524.053 788.79 520.844 785.032 520.844 781.361C520.942 779.9 521.445 778.497 522.295 777.315C523.144 776.133 524.305 775.221 525.643 774.683C528.405 773.371 531.426 772.718 534.474 772.775H600.72C602.665 772.768 604.529 771.976 605.902 770.572C607.275 769.169 608.046 767.269 608.046 765.288V698.02C608.229 695.431 607.527 692.857 606.058 690.735L605.803 690.504C603.087 691.961 600.607 693.833 598.448 696.054L596.148 698.078C592.47 701.243 588.095 703.457 583.396 704.533C578.698 705.609 573.813 705.515 569.158 704.258C564.502 703.001 560.214 700.619 556.656 697.314C553.098 694.009 550.377 689.879 548.722 685.274C547.067 680.669 546.529 675.726 547.152 670.864C547.776 666.002 549.542 661.365 552.302 657.346C555.062 653.328 558.734 650.047 563.006 647.783C567.278 645.518 572.023 644.336 576.839 644.338H576.953Z" fill="#3735A6"/>
<path d="M1759.88 734.462C1754.42 739.838 1747.1 743 1739.38 743.321C1731.66 743.642 1724.1 741.098 1718.19 736.194C1717.21 735.399 1716.23 734.547 1715.3 733.723C1709.7 728.925 1704.87 724.779 1700.16 724.779C1693.85 724.779 1689.14 732.304 1689.14 742.299L1689.14 827.229C1689.13 829.724 1688.12 832.115 1686.32 833.877C1684.52 835.638 1682.09 836.628 1679.54 836.628L1593.08 836.628C1583.54 836.628 1576.23 840.745 1575.36 846.339C1575.33 846.717 1575.33 847.097 1575.36 847.475C1575.43 849.339 1575.98 851.156 1576.95 852.756C1579.1 856.2 1581.61 859.416 1584.44 862.354C1585.28 863.291 1586.14 864.256 1586.95 865.193C1587.76 866.13 1588.05 866.528 1588.57 867.209L1588.83 867.635C1589.24 868.203 1589.61 868.799 1589.99 869.396L1590.25 869.878C1590.6 870.465 1590.91 871.062 1591.2 871.667L1591.43 872.15L1592.07 873.627C1594.37 881.039 1594.31 888.965 1591.9 896.343L1591.72 896.712C1591.43 897.393 1591.12 898.075 1590.77 898.728L1590.34 899.495L1589.27 901.227L1588.92 901.766C1587.82 903.351 1586.57 904.834 1585.19 906.196C1584.47 906.906 1583.72 907.559 1582.93 908.212C1581.43 909.423 1579.82 910.488 1578.11 911.392L1577.56 911.676C1576.92 911.989 1576.32 912.273 1575.65 912.557C1574.99 912.84 1575.19 912.755 1574.93 912.869C1574.11 913.195 1573.28 913.479 1572.44 913.721L1571.95 913.721C1571.26 913.919 1570.53 914.09 1569.84 914.232C1569.15 914.374 1569.2 914.374 1568.89 914.431L1567.04 914.686L1566.14 914.686C1565.21 914.686 1564.32 914.828 1563.25 914.828C1557.37 914.832 1551.62 913.185 1546.66 910.082C1541.71 906.979 1537.76 902.549 1535.28 897.314C1532.8 892.079 1531.9 886.257 1532.68 880.536C1533.47 874.815 1535.9 869.432 1539.69 865.023L1542.17 862.183C1543.42 860.82 1544.57 859.486 1545.67 858.18C1548.91 854.318 1551.28 850.768 1551.28 847.304C1551.26 846.195 1551.02 845.101 1550.56 844.086C1550.1 843.072 1549.44 842.158 1548.62 841.398C1544.39 837.929 1538.98 836.164 1533.47 836.457L1447.01 836.457C1444.49 836.4 1442.09 835.392 1440.3 833.642C1438.51 831.893 1437.48 829.536 1437.41 827.058L1437.41 742.299C1437.71 736.897 1435.93 731.583 1432.41 727.42C1431.64 726.602 1430.72 725.947 1429.68 725.493C1428.65 725.039 1427.53 724.796 1426.4 724.779C1421.69 724.779 1416.86 728.925 1411.25 733.723L1408.36 736.194C1402.8 740.808 1395.75 743.342 1388.47 743.349C1380.56 743.327 1372.96 740.316 1367.24 734.942C1361.52 729.567 1358.12 722.239 1357.75 714.473C1357.38 706.708 1360.06 699.099 1365.24 693.222C1370.42 687.344 1377.7 683.647 1385.58 682.896C1386.54 682.845 1387.51 682.845 1388.47 682.896C1395.75 682.892 1402.79 685.417 1408.36 690.023L1411.25 692.522C1416.86 697.292 1421.69 701.438 1426.4 701.438C1426.8 701.48 1427.21 701.48 1427.61 701.438C1427.75 701.451 1427.88 701.451 1428.02 701.438C1428.27 701.385 1428.52 701.319 1428.77 701.239C1428.97 701.239 1429.15 701.239 1429.32 701.04C1429.49 700.842 1429.69 700.899 1429.87 700.813C1430.04 700.728 1430.33 700.558 1430.56 700.416L1430.85 700.245C1431.14 700.053 1431.42 699.845 1431.69 699.621C1433.01 698.474 1434.09 697.085 1434.87 695.532L1435.1 694.935C1435.33 694.481 1435.53 693.97 1435.74 693.459L1436 692.834C1436.23 692.096 1436.46 691.301 1436.63 690.506L1436.63 690.08C1436.81 689.228 1436.95 688.348 1437.07 687.439L1437.07 687.07C1437.07 686.133 1437.07 685.196 1437.07 684.23L1437.07 598.874C1437.07 596.374 1438.08 593.976 1439.88 592.208C1441.68 590.44 1444.12 589.447 1446.66 589.447L1533.5 589.447C1536.82 589.232 1540.11 590.133 1542.84 592.003C1542.98 592.145 1543.04 592.258 1543.1 592.258C1542.87 594.019 1538.59 598.874 1536.02 601.771L1533.42 604.61C1528.61 610.2 1525.52 617.025 1524.53 624.279C1523.54 631.534 1524.67 638.916 1527.81 645.555C1530.95 652.195 1535.95 657.815 1542.23 661.754C1548.51 665.692 1555.81 667.785 1563.26 667.785C1570.72 667.785 1578.01 665.692 1584.29 661.754C1590.57 657.815 1595.58 652.195 1598.71 645.555C1601.85 638.916 1602.99 631.534 1602 624.279C1601 617.025 1597.92 610.2 1593.11 604.61L1590.54 601.771C1587.91 598.931 1583.54 593.905 1583.43 592.344C1583.77 591.52 1587.13 589.504 1593.05 589.504L1679.52 589.504C1682.04 589.562 1684.45 590.574 1686.24 592.329C1688.02 594.085 1689.05 596.449 1689.11 598.931L1689.11 683.861C1688.81 689.263 1690.6 694.578 1694.11 698.74C1694.89 699.549 1695.82 700.197 1696.85 700.645C1697.88 701.094 1699 701.335 1700.13 701.353C1704.84 701.353 1709.67 697.207 1715.27 692.408L1718.17 689.938C1724.25 684.937 1732.06 682.431 1739.98 682.941C1747.9 683.451 1755.31 686.939 1760.68 692.679C1766.04 698.419 1768.95 705.969 1768.8 713.761C1768.64 721.553 1765.44 728.987 1759.85 734.518L1759.88 734.462Z" fill="#3735A6"/>
<path d="M1849.29 540.493L1849.29 401.527C1849.29 391.304 1852.36 382.218 1857.5 377.164C1858.76 375.836 1860.28 374.772 1861.97 374.035C1863.66 373.299 1865.48 372.904 1867.33 372.876C1875.02 372.876 1882.94 379.662 1892.1 387.5L1896.9 391.56C1904.26 397.663 1913.23 401.574 1922.78 402.832C1932.32 404.09 1942.03 402.643 1950.76 398.66C1959.49 394.678 1966.88 388.327 1972.06 380.355C1977.24 372.384 1980 363.124 1980 353.667C1980 344.21 1977.24 334.95 1972.06 326.978C1966.88 319.006 1959.49 312.655 1950.76 308.673C1942.03 304.69 1932.32 303.243 1922.78 304.501C1913.23 305.759 1904.26 309.67 1896.9 315.773L1892.1 319.834C1882.94 327.671 1875.02 334.429 1867.33 334.429C1861.72 334.429 1856.63 330.766 1853.34 324.349C1850.57 318.541 1849.19 312.19 1849.29 305.778L1849.29 166.812C1849.29 162.723 1847.64 158.801 1844.69 155.909C1841.75 153.018 1837.76 151.393 1833.59 151.393L1691.95 151.393C1685.49 151.49 1679.08 150.201 1673.18 147.617C1664.14 143.358 1662.81 137.338 1662.81 134.157C1662.81 126.945 1669.46 119.506 1677.26 110.873L1681.91 105.62C1688.13 98.3963 1692.11 89.5782 1693.39 80.2052C1694.67 70.8323 1693.2 61.295 1689.14 52.7174C1685.09 44.1397 1678.62 36.8791 1670.51 31.7912C1662.39 26.7032 1652.96 24 1643.34 24C1633.71 24 1624.28 26.7032 1616.17 31.7912C1608.05 36.8791 1601.59 44.1397 1597.53 52.7174C1593.48 61.295 1592 70.8323 1593.28 80.2052C1594.56 89.5782 1598.55 98.3962 1604.76 105.62L1609.41 110.873C1617.1 119.392 1623.87 126.945 1623.87 134.157C1623.82 135.892 1623.42 137.599 1622.69 139.178C1621.96 140.758 1620.91 142.179 1619.62 143.358C1614.56 148.327 1605.16 151.308 1594.64 151.308L1453.14 151.308C1449 151.402 1445.06 153.061 1442.14 155.938C1439.21 158.816 1437.53 162.69 1437.44 166.755L1437.44 305.778C1437.44 315.29 1440.91 320.686 1442.3 321.253C1444.84 321.083 1453.08 314.041 1457.97 309.895C1459.61 308.504 1461.26 307.056 1462.91 305.721C1467.95 301.553 1473.6 298.163 1479.68 295.669C1492.68 290.36 1515.52 290.36 1528.56 295.669C1537.78 299.417 1545.98 305.234 1552.5 312.653C1559.03 320.072 1563.69 328.888 1566.13 338.395C1568.56 347.902 1568.69 357.837 1566.52 367.404C1564.34 376.971 1559.91 385.905 1553.59 393.491C1552.26 395.081 1550.7 396.643 1549.31 398.119C1538 409.261 1522.84 415.818 1506.83 416.492C1490.83 417.165 1475.15 411.905 1462.91 401.754C1461.26 400.391 1459.61 398.914 1457.97 397.58C1453.14 393.434 1445.07 386.534 1442.12 386.222C1442.12 386.222 1441.95 386.392 1441.69 386.619C1439.64 388.635 1437.44 394.201 1437.44 401.64L1437.44 540.777C1437.44 542.802 1437.85 544.807 1438.64 546.677C1439.43 548.548 1440.58 550.248 1442.04 551.679C1443.5 553.111 1445.23 554.247 1447.13 555.022C1449.04 555.797 1451.08 556.195 1453.14 556.195L1833.59 556.195C1837.78 556.099 1841.76 554.405 1844.69 551.473C1847.62 548.541 1849.27 544.602 1849.29 540.493Z" fill="#3735A6"/>
<path d="M1335.66 600.953C1335.66 608.018 1333.12 614.856 1328.49 620.262L1326.46 622.562C1324.41 624.862 1321 628.695 1320.94 630.029C1323.07 631.655 1325.75 632.417 1328.43 632.159L1395.96 632.159C1397.93 632.116 1399.8 631.331 1401.19 629.967C1402.59 628.603 1403.39 626.765 1403.45 624.833L1403.45 446.767C1403.45 444.821 1402.66 442.955 1401.26 441.576C1399.87 440.198 1397.97 439.42 1395.99 439.412L1328.81 439.412C1326.22 439.234 1323.65 439.936 1321.52 441.4C1321.44 441.471 1321.37 441.558 1321.32 441.656C1322.77 444.365 1324.64 446.844 1326.84 449.01L1328.86 451.31C1332.61 455.665 1335.02 460.983 1335.79 466.636C1336.56 472.289 1335.68 478.042 1333.23 483.215C1330.78 488.388 1326.88 492.766 1321.98 495.832C1317.09 498.898 1311.4 500.524 1305.59 500.519L1305.36 500.519C1299.56 500.518 1293.87 498.889 1288.98 495.823C1284.09 492.757 1280.19 488.381 1277.74 483.211C1275.29 478.042 1274.4 472.293 1275.16 466.641C1275.93 460.99 1278.32 455.671 1282.06 451.31L1284.09 449.01C1286.14 446.71 1289.55 442.877 1289.61 441.542C1287.49 439.903 1284.8 439.14 1282.12 439.412L1214.71 439.412C1212.74 439.456 1210.86 440.244 1209.46 441.614C1208.07 442.984 1207.26 444.83 1207.22 446.767L1207.22 512.984C1207.46 517.2 1206.06 521.348 1203.32 524.598C1202.72 525.229 1201.99 525.735 1201.19 526.086C1200.38 526.437 1199.51 526.626 1198.63 526.642C1194.96 526.642 1191.21 523.405 1186.81 519.657L1184.56 517.726C1179.95 513.909 1174.05 511.93 1168.03 512.183C1162 512.435 1156.3 514.9 1152.04 519.089C1148.67 522.395 1146.39 526.606 1145.46 531.189C1144.53 535.772 1145.01 540.521 1146.84 544.837C1148.66 549.153 1151.74 552.841 1155.7 555.435C1159.65 558.029 1164.31 559.413 1169.06 559.411C1174.75 559.369 1180.23 557.358 1184.56 553.732L1186.81 551.801C1191.21 548.052 1194.96 544.844 1198.63 544.844C1200.1 544.942 1201.5 545.445 1202.68 546.294C1203.86 547.144 1204.77 548.305 1205.31 549.643C1206.62 552.405 1207.28 555.426 1207.22 558.474L1207.22 624.72C1207.23 626.665 1208.02 628.528 1209.42 629.902C1210.83 631.275 1212.73 632.046 1214.71 632.046L1281.98 632.046C1284.56 632.229 1287.14 631.526 1289.26 630.058L1289.49 629.802C1288.03 627.087 1286.16 624.607 1283.94 622.448L1281.92 620.148C1278.75 616.47 1276.54 612.095 1275.46 607.396C1274.39 602.697 1274.48 597.813 1275.74 593.157C1276.99 588.502 1279.38 584.213 1282.68 580.656C1285.99 577.098 1290.12 574.376 1294.72 572.722C1299.33 571.067 1304.27 570.529 1309.13 571.152C1313.99 571.775 1318.63 573.542 1322.65 576.302C1326.67 579.062 1329.95 582.734 1332.21 587.006C1334.48 591.277 1335.66 596.023 1335.66 600.839L1335.66 600.953Z" fill="#3735A6"/>
</svg>
