<svg width="32" height="32" viewBox="0 0 32 32" fill="none" xmlns="http://www.w3.org/2000/svg">
<path d="M1 1H31V31H1V1Z" stroke="white" stroke-width="2"/>
<path fill-rule="evenodd" clip-rule="evenodd" d="M8.51074 9.05967C8.51074 8.97623 8.5316 8.91365 8.6359 8.91365C9.44943 8.87193 10.6384 8.85107 11.89 8.85107C15.3944 8.85107 16.9172 10.7702 16.9172 13.2316C16.9172 16.444 14.5929 17.8207 11.7351 17.8207C11.2554 17.8207 11.0885 17.8 10.7547 17.8V22.6584C10.7547 22.7628 10.713 22.8046 10.6087 22.8046H8.65676C8.55246 22.8046 8.51074 22.7628 8.51074 22.6584V9.05967ZM10.7547 15.7764C11.0468 15.7973 11.2762 15.7973 11.7769 15.7973C13.2579 15.7973 14.6435 15.2759 14.6435 13.2733C14.6435 11.6671 13.6542 10.8535 11.9646 10.8535C11.464 10.8535 10.9842 10.8745 10.7547 10.8952V15.7764ZM18.8456 14.6291C18.8456 14.4832 18.8456 14.1076 18.7832 13.3985C18.7832 13.2941 18.7977 13.2733 18.8812 13.2316C19.6528 12.9187 21.4593 12.3555 23.5035 12.3555C23.608 12.3555 23.6497 12.3762 23.6497 12.4805V14.3162C23.6497 14.4204 23.6161 14.4413 23.5119 14.4413C22.7191 14.3996 21.5593 14.5038 21.1212 14.6915V22.6582C21.1212 22.7626 21.0795 22.8043 20.9751 22.8043H18.9917C18.8874 22.8043 18.8456 22.7626 18.8456 22.6582V14.6291Z" fill="#E8AC43"/>
</svg>
