<svg width="42" height="25" viewBox="0 0 42 25" fill="none" xmlns="http://www.w3.org/2000/svg">
   <path d="M37.0301 7.02924C37.0528 7.03167 37.0757 7.03331 37.0986 7.03417C38.2126 7.07596 39.233 7.50488 39.9989 8.23851C39.7941 8.42647 39.5698 8.65413 39.3465 8.9228C38.6192 9.79809 37.892 11.1254 37.9076 12.9154C37.8789 15.0805 39.0067 17.0695 40.775 18.1695C40.4651 18.9709 40.0568 19.7497 39.5621 20.4784C39.0468 21.2359 38.6154 21.866 38.1378 22.3257C37.6846 22.7619 37.2681 22.9665 36.7937 22.9761L36.7727 22.9768C36.2317 22.9991 35.9011 22.8601 35.3648 22.6267C34.7943 22.3785 34.0653 22.0626 32.9486 22.0626C31.8461 22.0626 31.1107 22.3519 30.5147 22.6093C30.4802 22.6242 30.4466 22.6388 30.4137 22.6531C29.8944 22.8781 29.5662 23.0203 29.0716 23.0421C28.712 23.0573 28.2979 22.8798 27.7781 22.3815C27.2589 21.8837 26.7747 21.2028 26.2657 20.4712C25.3531 19.1437 24.5288 17.2017 24.178 15.1659C23.826 13.1228 23.9712 11.1135 24.8337 9.55793C25.6589 8.10506 27.1453 7.18281 28.8351 7.06692C29.3645 7.06044 29.9319 7.24546 30.585 7.506C30.6642 7.5376 30.7475 7.57146 30.8329 7.6062C31.0711 7.70298 31.326 7.80661 31.5562 7.88733C31.8668 7.9962 32.2578 8.11134 32.6587 8.11134C33.0823 8.11134 33.508 7.97444 33.8354 7.85559C34.011 7.79185 34.2406 7.70041 34.4628 7.61192C34.6252 7.54724 34.7836 7.48414 34.9142 7.43457C35.6608 7.15103 36.3594 6.95775 37.0301 7.02924Z" stroke="white" stroke-width="2" stroke-miterlimit="10" stroke-linecap="round" stroke-linejoin="round"/>
   <path d="M35.8757 3.78393C36.7454 2.74009 37.1641 1.37004 37.0675 0C35.7468 0.13048 34.5228 0.750262 33.6531 1.7941C32.88 2.67485 32.2358 4.07751 32.3968 5.48017C33.7175 5.57803 35.0704 4.79515 35.8757 3.78393Z" fill="white"/>
   <rect x="1" y="7" width="6" height="6" stroke="white" stroke-width="2" stroke-miterlimit="10" stroke-linecap="round" stroke-linejoin="round"/>
   <rect x="1" y="17" width="6" height="6" stroke="white" stroke-width="2" stroke-miterlimit="10" stroke-linecap="round" stroke-linejoin="round"/>
   <rect x="11" y="7" width="6" height="6" stroke="white" stroke-width="2" stroke-miterlimit="10" stroke-linecap="round" stroke-linejoin="round"/>
   <rect x="11" y="17" width="6" height="6" stroke="white" stroke-width="2" stroke-miterlimit="10" stroke-linecap="round" stroke-linejoin="round"/>
</svg>