<svg width="107" height="458" viewBox="0 0 107 458" fill="none" xmlns="http://www.w3.org/2000/svg">
<g style="mix-blend-mode:overlay">
<g opacity="0.3">
<rect y="300.412" width="2.06602" height="2.06602" transform="rotate(-90 0 300.412)" fill="white"/>
<rect y="139.263" width="2.06602" height="2.06602" transform="rotate(-90 0 139.263)" fill="white"/>
<rect x="71.6219" y="300.412" width="2.06602" height="2.06602" transform="rotate(-90 71.6219 300.412)" fill="white"/>
<rect x="71.6222" y="139.263" width="2.06602" height="2.06602" transform="rotate(-90 71.6222 139.263)" fill="white"/>
<rect x="53.7163" y="300.412" width="2.06602" height="2.06602" transform="rotate(-90 53.7163 300.412)" fill="white"/>
<rect x="17.9056" y="300.412" width="2.06602" height="2.06602" transform="rotate(-90 17.9056 300.412)" fill="white"/>
<rect x="17.9056" y="139.263" width="2.06602" height="2.06602" transform="rotate(-90 17.9056 139.263)" fill="white"/>
<rect x="89.5272" y="300.412" width="2.06602" height="2.06602" transform="rotate(-90 89.5272 300.412)" fill="white"/>
<rect y="452.608" width="2.06602" height="2.06602" transform="rotate(-90 0 452.608)" fill="white"/>
<rect y="291.459" width="2.06602" height="2.06602" transform="rotate(-90 0 291.459)" fill="white"/>
<rect y="130.31" width="2.06602" height="2.06602" transform="rotate(-90 0 130.31)" fill="white"/>
<rect x="71.6219" y="452.608" width="2.06602" height="2.06602" transform="rotate(-90 71.6219 452.608)" fill="white"/>
<rect x="71.6222" y="291.459" width="2.06602" height="2.06602" transform="rotate(-90 71.6222 291.459)" fill="white"/>
<rect x="71.6223" y="130.31" width="2.06602" height="2.06602" transform="rotate(-90 71.6223 130.31)" fill="white"/>
<rect x="53.7163" y="452.608" width="2.06602" height="2.06602" transform="rotate(-90 53.7163 452.608)" fill="white"/>
<rect x="53.7163" y="291.459" width="2.06602" height="2.06602" transform="rotate(-90 53.7163 291.459)" fill="white"/>
<rect x="17.9056" y="452.608" width="2.06602" height="2.06602" transform="rotate(-90 17.9056 452.608)" fill="white"/>
<rect x="17.9056" y="291.459" width="2.06602" height="2.06602" transform="rotate(-90 17.9056 291.459)" fill="white"/>
<rect x="17.9056" y="130.31" width="2.06602" height="2.06602" transform="rotate(-90 17.9056 130.31)" fill="white"/>
<rect x="89.5272" y="452.608" width="2.06602" height="2.06602" transform="rotate(-90 89.5272 452.608)" fill="white"/>
<rect x="89.5272" y="291.459" width="2.06602" height="2.06602" transform="rotate(-90 89.5272 291.459)" fill="white"/>
<rect x="35.811" y="452.608" width="2.06602" height="2.06602" transform="rotate(-90 35.811 452.608)" fill="white"/>
<rect y="443.656" width="2.06602" height="2.06602" transform="rotate(-90 0 443.656)" fill="white"/>
<rect y="282.507" width="2.06602" height="2.06602" transform="rotate(-90 0 282.507)" fill="white"/>
<rect y="121.357" width="2.06602" height="2.06602" transform="rotate(-90 0 121.357)" fill="white"/>
<rect x="71.6219" y="443.656" width="2.06602" height="2.06602" transform="rotate(-90 71.6219 443.656)" fill="white"/>
<rect x="71.6222" y="282.507" width="2.06602" height="2.06602" transform="rotate(-90 71.6222 282.507)" fill="white"/>
<rect x="71.6223" y="121.357" width="2.06602" height="2.06602" transform="rotate(-90 71.6223 121.357)" fill="white"/>
<rect x="53.7163" y="443.656" width="2.06602" height="2.06602" transform="rotate(-90 53.7163 443.656)" fill="white"/>
<rect x="53.7163" y="282.507" width="2.06602" height="2.06602" transform="rotate(-90 53.7163 282.507)" fill="white"/>
<rect x="53.7163" y="121.357" width="2.06602" height="2.06602" transform="rotate(-90 53.7163 121.357)" fill="white"/>
<rect x="17.9056" y="443.656" width="2.06602" height="2.06602" transform="rotate(-90 17.9056 443.656)" fill="white"/>
<rect x="17.9056" y="282.507" width="2.06602" height="2.06602" transform="rotate(-90 17.9056 282.507)" fill="white"/>
<rect x="17.9056" y="121.357" width="2.06602" height="2.06602" transform="rotate(-90 17.9056 121.357)" fill="white"/>
<rect x="89.5272" y="443.656" width="2.06602" height="2.06602" transform="rotate(-90 89.5272 443.656)" fill="white"/>
<rect x="89.5272" y="282.507" width="2.06602" height="2.06602" transform="rotate(-90 89.5272 282.507)" fill="white"/>
<rect x="35.811" y="443.656" width="2.06602" height="2.06602" transform="rotate(-90 35.811 443.656)" fill="white"/>
<rect x="35.811" y="282.507" width="2.06602" height="2.06602" transform="rotate(-90 35.811 282.507)" fill="white"/>
<rect y="434.703" width="2.06602" height="2.06602" transform="rotate(-90 0 434.703)" fill="white"/>
<rect y="273.554" width="2.06602" height="2.06602" transform="rotate(-90 0 273.554)" fill="white"/>
<rect y="112.405" width="2.06602" height="2.06602" transform="rotate(-90 0 112.405)" fill="white"/>
<rect x="71.6222" y="273.554" width="2.06602" height="2.06602" transform="rotate(-90 71.6222 273.554)" fill="white"/>
<rect x="71.6223" y="112.405" width="2.06602" height="2.06602" transform="rotate(-90 71.6223 112.405)" fill="white"/>
<rect x="53.7163" y="273.554" width="2.06602" height="2.06602" transform="rotate(-90 53.7163 273.554)" fill="white"/>
<rect x="53.7163" y="112.405" width="2.06602" height="2.06602" transform="rotate(-90 53.7163 112.405)" fill="white"/>
<rect x="17.9056" y="434.703" width="2.06602" height="2.06602" transform="rotate(-90 17.9056 434.703)" fill="white"/>
<rect x="17.9056" y="273.554" width="2.06602" height="2.06602" transform="rotate(-90 17.9056 273.554)" fill="white"/>
<rect x="17.9056" y="112.405" width="2.06602" height="2.06602" transform="rotate(-90 17.9056 112.405)" fill="white"/>
<rect x="89.5272" y="273.554" width="2.06602" height="2.06602" transform="rotate(-90 89.5272 273.554)" fill="white"/>
<rect x="89.5272" y="112.405" width="2.06602" height="2.06602" transform="rotate(-90 89.5272 112.405)" fill="white"/>
<rect x="35.811" y="273.554" width="2.06602" height="2.06602" transform="rotate(-90 35.811 273.554)" fill="white"/>
<rect x="35.811" y="112.405" width="2.06602" height="2.06602" transform="rotate(-90 35.811 112.405)" fill="white"/>
<rect y="425.751" width="2.06602" height="2.06602" transform="rotate(-90 0 425.751)" fill="white"/>
<rect y="264.601" width="2.06602" height="2.06602" transform="rotate(-90 0 264.601)" fill="white"/>
<rect y="103.452" width="2.06602" height="2.06602" transform="rotate(-90 0 103.452)" fill="white"/>
<rect x="71.6223" y="103.452" width="2.06602" height="2.06602" transform="rotate(-90 71.6223 103.452)" fill="white"/>
<rect x="53.7163" y="103.452" width="2.06602" height="2.06602" transform="rotate(-90 53.7163 103.452)" fill="white"/>
<rect x="17.9056" y="425.751" width="2.06602" height="2.06602" transform="rotate(-90 17.9056 425.751)" fill="white"/>
<rect x="17.9056" y="264.601" width="2.06602" height="2.06602" transform="rotate(-90 17.9056 264.601)" fill="white"/>
<rect x="17.9056" y="103.452" width="2.06602" height="2.06602" transform="rotate(-90 17.9056 103.452)" fill="white"/>
<rect x="89.5272" y="103.452" width="2.06602" height="2.06602" transform="rotate(-90 89.5272 103.452)" fill="white"/>
<rect x="35.811" y="103.452" width="2.06602" height="2.06602" transform="rotate(-90 35.811 103.452)" fill="white"/>
<rect y="416.798" width="2.06602" height="2.06602" transform="rotate(-90 0 416.798)" fill="white"/>
<rect y="255.649" width="2.06602" height="2.06602" transform="rotate(-90 0 255.649)" fill="white"/>
<rect y="94.499" width="2.06602" height="2.06602" transform="rotate(-90 0 94.499)" fill="white"/>
<rect x="17.9056" y="416.798" width="2.06602" height="2.06602" transform="rotate(-90 17.9056 416.798)" fill="white"/>
<rect x="17.9056" y="255.649" width="2.06602" height="2.06602" transform="rotate(-90 17.9056 255.649)" fill="white"/>
<rect x="17.9056" y="94.499" width="2.06602" height="2.06602" transform="rotate(-90 17.9056 94.499)" fill="white"/>
<rect y="407.845" width="2.06602" height="2.06602" transform="rotate(-90 0 407.845)" fill="white"/>
<rect y="246.696" width="2.06602" height="2.06602" transform="rotate(-90 0 246.696)" fill="white"/>
<rect y="85.5465" width="2.06602" height="2.06602" transform="rotate(-90 0 85.5465)" fill="white"/>
<rect x="17.9056" y="407.845" width="2.06602" height="2.06602" transform="rotate(-90 17.9056 407.845)" fill="white"/>
<rect x="17.9056" y="246.696" width="2.06602" height="2.06602" transform="rotate(-90 17.9056 246.696)" fill="white"/>
<rect x="17.9056" y="85.5464" width="2.06602" height="2.06602" transform="rotate(-90 17.9056 85.5464)" fill="white"/>
<rect x="89.5272" y="407.845" width="2.06602" height="2.06602" transform="rotate(-90 89.5272 407.845)" fill="white"/>
<rect x="35.811" y="407.845" width="2.06602" height="2.06602" transform="rotate(-90 35.811 407.845)" fill="white"/>
<rect y="398.892" width="2.06602" height="2.06602" transform="rotate(-90 0 398.892)" fill="white"/>
<rect y="237.743" width="2.06602" height="2.06602" transform="rotate(-90 0 237.743)" fill="white"/>
<rect y="76.5936" width="2.06602" height="2.06602" transform="rotate(-90 0 76.5936)" fill="white"/>
<rect x="53.7163" y="237.743" width="2.06602" height="2.06602" transform="rotate(-90 53.7163 237.743)" fill="white"/>
<rect x="17.9056" y="398.892" width="2.06602" height="2.06602" transform="rotate(-90 17.9056 398.892)" fill="white"/>
<rect x="17.9056" y="237.743" width="2.06602" height="2.06602" transform="rotate(-90 17.9056 237.743)" fill="white"/>
<rect x="17.9056" y="76.5936" width="2.06602" height="2.06602" transform="rotate(-90 17.9056 76.5936)" fill="white"/>
<rect x="89.5272" y="398.892" width="2.06602" height="2.06602" transform="rotate(-90 89.5272 398.892)" fill="white"/>
<rect x="89.5272" y="237.743" width="2.06602" height="2.06602" transform="rotate(-90 89.5272 237.743)" fill="white"/>
<rect x="35.811" y="398.892" width="2.06602" height="2.06602" transform="rotate(-90 35.811 398.892)" fill="white"/>
<rect y="389.94" width="2.06602" height="2.06602" transform="rotate(-90 0 389.94)" fill="white"/>
<rect y="228.79" width="2.06602" height="2.06602" transform="rotate(-90 0 228.79)" fill="white"/>
<rect y="67.6407" width="2.06602" height="2.06602" transform="rotate(-90 0 67.6407)" fill="white"/>
<rect x="53.7163" y="228.79" width="2.06602" height="2.06602" transform="rotate(-90 53.7163 228.79)" fill="white"/>
<rect x="17.9056" y="389.94" width="2.06602" height="2.06602" transform="rotate(-90 17.9056 389.94)" fill="white"/>
<rect x="17.9056" y="228.79" width="2.06602" height="2.06602" transform="rotate(-90 17.9056 228.79)" fill="white"/>
<rect x="17.9056" y="67.6407" width="2.06602" height="2.06602" transform="rotate(-90 17.9056 67.6407)" fill="white"/>
<rect x="89.5272" y="67.6407" width="2.06602" height="2.06602" transform="rotate(-90 89.5272 67.6407)" fill="white"/>
<rect y="380.987" width="2.06602" height="2.06602" transform="rotate(-90 0 380.987)" fill="white"/>
<rect y="219.837" width="2.06602" height="2.06602" transform="rotate(-90 0 219.837)" fill="white"/>
<rect y="58.6882" width="2.06602" height="2.06602" transform="rotate(-90 0 58.6882)" fill="white"/>
<rect x="17.9056" y="380.987" width="2.06602" height="2.06602" transform="rotate(-90 17.9056 380.987)" fill="white"/>
<rect x="17.9056" y="219.837" width="2.06602" height="2.06602" transform="rotate(-90 17.9056 219.837)" fill="white"/>
<rect x="17.9056" y="58.6881" width="2.06602" height="2.06602" transform="rotate(-90 17.9056 58.6881)" fill="white"/>
<rect x="35.811" y="58.6881" width="2.06602" height="2.06602" transform="rotate(-90 35.811 58.6881)" fill="white"/>
<rect y="372.034" width="2.06602" height="2.06602" transform="rotate(-90 0 372.034)" fill="white"/>
<rect y="210.885" width="2.06602" height="2.06602" transform="rotate(-90 0 210.885)" fill="white"/>
<rect y="49.7356" width="2.06602" height="2.06602" transform="rotate(-90 0 49.7356)" fill="white"/>
<rect x="71.6222" y="210.885" width="2.06602" height="2.06602" transform="rotate(-90 71.6222 210.885)" fill="white"/>
<rect y="327.27" width="2.06602" height="2.06602" transform="rotate(-90 0 327.27)" fill="white"/>
<rect y="166.121" width="2.06602" height="2.06602" transform="rotate(-90 0 166.121)" fill="white"/>
<rect y="4.97192" width="2.06602" height="2.06602" transform="rotate(-90 0 4.97192)" fill="white"/>
<rect x="71.6223" y="4.97192" width="2.06602" height="2.06602" transform="rotate(-90 71.6223 4.97192)" fill="white"/>
<rect x="53.7163" y="166.121" width="2.06602" height="2.06602" transform="rotate(-90 53.7163 166.121)" fill="white"/>
<rect x="53.7163" y="4.97192" width="2.06602" height="2.06602" transform="rotate(-90 53.7163 4.97192)" fill="white"/>
<rect x="17.9056" y="372.034" width="2.06602" height="2.06602" transform="rotate(-90 17.9056 372.034)" fill="white"/>
<rect x="17.9056" y="210.885" width="2.06602" height="2.06602" transform="rotate(-90 17.9056 210.885)" fill="white"/>
<rect x="17.9056" y="49.7356" width="2.06602" height="2.06602" transform="rotate(-90 17.9056 49.7356)" fill="white"/>
<rect x="17.9056" y="327.27" width="2.06602" height="2.06602" transform="rotate(-90 17.9056 327.27)" fill="white"/>
<rect x="17.9056" y="166.121" width="2.06602" height="2.06602" transform="rotate(-90 17.9056 166.121)" fill="white"/>
<rect x="17.9056" y="4.97192" width="2.06602" height="2.06602" transform="rotate(-90 17.9056 4.97192)" fill="white"/>
<rect x="89.5272" y="4.97192" width="2.06602" height="2.06602" transform="rotate(-90 89.5272 4.97192)" fill="white"/>
<rect x="35.811" y="49.7356" width="2.06602" height="2.06602" transform="rotate(-90 35.811 49.7356)" fill="white"/>
<rect x="35.811" y="4.97192" width="2.06602" height="2.06602" transform="rotate(-90 35.811 4.97192)" fill="white"/>
<rect y="363.081" width="2.06602" height="2.06602" transform="rotate(-90 0 363.081)" fill="white"/>
<rect y="201.932" width="2.06602" height="2.06602" transform="rotate(-90 0 201.932)" fill="white"/>
<rect y="40.7826" width="2.06602" height="2.06602" transform="rotate(-90 0 40.7826)" fill="white"/>
<rect x="71.6222" y="363.081" width="2.06602" height="2.06602" transform="rotate(-90 71.6222 363.081)" fill="white"/>
<rect x="71.6222" y="201.932" width="2.06602" height="2.06602" transform="rotate(-90 71.6222 201.932)" fill="white"/>
<rect x="53.7163" y="363.081" width="2.06602" height="2.06602" transform="rotate(-90 53.7163 363.081)" fill="white"/>
<rect y="318.318" width="2.06602" height="2.06602" transform="rotate(-90 0 318.318)" fill="white"/>
<rect y="157.168" width="2.06602" height="2.06602" transform="rotate(-90 0 157.168)" fill="white"/>
<rect x="53.7163" y="157.168" width="2.06602" height="2.06602" transform="rotate(-90 53.7163 157.168)" fill="white"/>
<rect x="17.9056" y="363.081" width="2.06602" height="2.06602" transform="rotate(-90 17.9056 363.081)" fill="white"/>
<rect x="17.9056" y="201.932" width="2.06602" height="2.06602" transform="rotate(-90 17.9056 201.932)" fill="white"/>
<rect x="17.9056" y="40.7826" width="2.06602" height="2.06602" transform="rotate(-90 17.9056 40.7826)" fill="white"/>
<rect x="89.5272" y="363.081" width="2.06602" height="2.06602" transform="rotate(-90 89.5272 363.081)" fill="white"/>
<rect x="89.5272" y="201.932" width="2.06602" height="2.06602" transform="rotate(-90 89.5272 201.932)" fill="white"/>
<rect x="89.5272" y="40.7826" width="2.06602" height="2.06602" transform="rotate(-90 89.5272 40.7826)" fill="white"/>
<rect x="17.9056" y="318.318" width="2.06602" height="2.06602" transform="rotate(-90 17.9056 318.318)" fill="white"/>
<rect x="17.9056" y="157.168" width="2.06602" height="2.06602" transform="rotate(-90 17.9056 157.168)" fill="white"/>
<rect x="35.811" y="363.081" width="2.06602" height="2.06602" transform="rotate(-90 35.811 363.081)" fill="white"/>
<rect x="35.811" y="201.932" width="2.06602" height="2.06602" transform="rotate(-90 35.811 201.932)" fill="white"/>
<rect y="354.129" width="2.06602" height="2.06602" transform="rotate(-90 0 354.129)" fill="white"/>
<rect y="192.979" width="2.06602" height="2.06602" transform="rotate(-90 0 192.979)" fill="white"/>
<rect y="31.8301" width="2.06602" height="2.06602" transform="rotate(-90 0 31.8301)" fill="white"/>
<rect x="71.6222" y="354.129" width="2.06602" height="2.06602" transform="rotate(-90 71.6222 354.129)" fill="white"/>
<rect x="71.6222" y="192.979" width="2.06602" height="2.06602" transform="rotate(-90 71.6222 192.979)" fill="white"/>
<rect x="53.7163" y="354.129" width="2.06602" height="2.06602" transform="rotate(-90 53.7163 354.129)" fill="white"/>
<rect x="53.7163" y="192.979" width="2.06602" height="2.06602" transform="rotate(-90 53.7163 192.979)" fill="white"/>
<rect y="309.365" width="2.06602" height="2.06602" transform="rotate(-90 0 309.365)" fill="white"/>
<rect y="148.215" width="2.06602" height="2.06602" transform="rotate(-90 0 148.215)" fill="white"/>
<rect x="17.9056" y="354.129" width="2.06602" height="2.06602" transform="rotate(-90 17.9056 354.129)" fill="white"/>
<rect x="17.9056" y="192.979" width="2.06602" height="2.06602" transform="rotate(-90 17.9056 192.979)" fill="white"/>
<rect x="17.9056" y="31.8301" width="2.06602" height="2.06602" transform="rotate(-90 17.9056 31.8301)" fill="white"/>
<rect x="89.5272" y="354.129" width="2.06602" height="2.06602" transform="rotate(-90 89.5272 354.129)" fill="white"/>
<rect x="89.5272" y="192.979" width="2.06602" height="2.06602" transform="rotate(-90 89.5272 192.979)" fill="white"/>
<rect x="17.9056" y="309.365" width="2.06602" height="2.06602" transform="rotate(-90 17.9056 309.365)" fill="white"/>
<rect x="17.9056" y="148.215" width="2.06602" height="2.06602" transform="rotate(-90 17.9056 148.215)" fill="white"/>
<rect x="35.811" y="354.129" width="2.06602" height="2.06602" transform="rotate(-90 35.811 354.129)" fill="white"/>
<rect x="35.811" y="192.979" width="2.06602" height="2.06602" transform="rotate(-90 35.811 192.979)" fill="white"/>
<rect y="345.176" width="2.06602" height="2.06602" transform="rotate(-90 0 345.176)" fill="white"/>
<rect y="184.027" width="2.06602" height="2.06602" transform="rotate(-90 0 184.027)" fill="white"/>
<rect y="22.8773" width="2.06602" height="2.06602" transform="rotate(-90 0 22.8773)" fill="white"/>
<rect x="71.6222" y="345.176" width="2.06602" height="2.06602" transform="rotate(-90 71.6222 345.176)" fill="white"/>
<rect x="71.6222" y="184.027" width="2.06602" height="2.06602" transform="rotate(-90 71.6222 184.027)" fill="white"/>
<rect x="53.7163" y="345.176" width="2.06602" height="2.06602" transform="rotate(-90 53.7163 345.176)" fill="white"/>
<rect x="53.7163" y="184.027" width="2.06602" height="2.06602" transform="rotate(-90 53.7163 184.027)" fill="white"/>
<rect x="17.9056" y="345.176" width="2.06602" height="2.06602" transform="rotate(-90 17.9056 345.176)" fill="white"/>
<rect x="17.9056" y="184.027" width="2.06602" height="2.06602" transform="rotate(-90 17.9056 184.027)" fill="white"/>
<rect x="17.9056" y="22.8773" width="2.06602" height="2.06602" transform="rotate(-90 17.9056 22.8773)" fill="white"/>
<rect x="89.5272" y="345.176" width="2.06602" height="2.06602" transform="rotate(-90 89.5272 345.176)" fill="white"/>
<rect x="89.5272" y="184.027" width="2.06602" height="2.06602" transform="rotate(-90 89.5272 184.027)" fill="white"/>
<rect x="35.811" y="184.027" width="2.06602" height="2.06602" transform="rotate(-90 35.811 184.027)" fill="white"/>
<rect y="336.223" width="2.06602" height="2.06602" transform="rotate(-90 0 336.223)" fill="white"/>
<rect y="175.074" width="2.06602" height="2.06602" transform="rotate(-90 0 175.074)" fill="white"/>
<rect y="13.9243" width="2.06602" height="2.06602" transform="rotate(-90 0 13.9243)" fill="white"/>
<rect x="71.6222" y="336.223" width="2.06602" height="2.06602" transform="rotate(-90 71.6222 336.223)" fill="white"/>
<rect x="71.6219" y="175.074" width="2.06602" height="2.06602" transform="rotate(-90 71.6219 175.074)" fill="white"/>
<rect x="53.7163" y="336.223" width="2.06602" height="2.06602" transform="rotate(-90 53.7163 336.223)" fill="white"/>
<rect x="53.7163" y="175.074" width="2.06602" height="2.06602" transform="rotate(-90 53.7163 175.074)" fill="white"/>
<rect x="17.9056" y="336.223" width="2.06602" height="2.06602" transform="rotate(-90 17.9056 336.223)" fill="white"/>
<rect x="17.9056" y="175.074" width="2.06602" height="2.06602" transform="rotate(-90 17.9056 175.074)" fill="white"/>
<rect x="17.9056" y="13.9243" width="2.06602" height="2.06602" transform="rotate(-90 17.9056 13.9243)" fill="white"/>
<rect x="89.5272" y="336.223" width="2.06602" height="2.06602" transform="rotate(-90 89.5272 336.223)" fill="white"/>
<rect x="8.95288" y="300.412" width="2.06602" height="2.06602" transform="rotate(-90 8.95288 300.412)" fill="white"/>
<rect x="8.95288" y="139.263" width="2.06602" height="2.06602" transform="rotate(-90 8.95288 139.263)" fill="white"/>
<rect x="80.5745" y="300.412" width="2.06602" height="2.06602" transform="rotate(-90 80.5745 300.412)" fill="white"/>
<rect x="62.6692" y="300.412" width="2.06602" height="2.06602" transform="rotate(-90 62.6692 300.412)" fill="white"/>
<rect x="98.4801" y="300.412" width="2.06602" height="2.06602" transform="rotate(-90 98.4801 300.412)" fill="white"/>
<rect x="8.95288" y="452.608" width="2.06602" height="2.06602" transform="rotate(-90 8.95288 452.608)" fill="white"/>
<rect x="8.95288" y="291.459" width="2.06602" height="2.06602" transform="rotate(-90 8.95288 291.459)" fill="white"/>
<rect x="8.95288" y="130.31" width="2.06602" height="2.06602" transform="rotate(-90 8.95288 130.31)" fill="white"/>
<rect x="80.5746" y="452.608" width="2.06602" height="2.06602" transform="rotate(-90 80.5746 452.608)" fill="white"/>
<rect x="80.5745" y="291.459" width="2.06602" height="2.06602" transform="rotate(-90 80.5745 291.459)" fill="white"/>
<rect x="62.6692" y="452.608" width="2.06602" height="2.06602" transform="rotate(-90 62.6692 452.608)" fill="white"/>
<rect x="62.6692" y="291.459" width="2.06602" height="2.06602" transform="rotate(-90 62.6692 291.459)" fill="white"/>
<rect x="62.6692" y="130.31" width="2.06602" height="2.06602" transform="rotate(-90 62.6692 130.31)" fill="white"/>
<rect x="26.8582" y="452.608" width="2.06602" height="2.06602" transform="rotate(-90 26.8582 452.608)" fill="white"/>
<rect x="98.4801" y="452.608" width="2.06602" height="2.06602" transform="rotate(-90 98.4801 452.608)" fill="white"/>
<rect x="98.4801" y="291.459" width="2.06602" height="2.06602" transform="rotate(-90 98.4801 291.459)" fill="white"/>
<rect x="44.7638" y="452.608" width="2.06602" height="2.06602" transform="rotate(-90 44.7638 452.608)" fill="white"/>
<rect x="8.95288" y="443.656" width="2.06602" height="2.06602" transform="rotate(-90 8.95288 443.656)" fill="white"/>
<rect x="8.95288" y="282.507" width="2.06602" height="2.06602" transform="rotate(-90 8.95288 282.507)" fill="white"/>
<rect x="8.95288" y="121.357" width="2.06602" height="2.06602" transform="rotate(-90 8.95288 121.357)" fill="white"/>
<rect x="80.5746" y="443.656" width="2.06602" height="2.06602" transform="rotate(-90 80.5746 443.656)" fill="white"/>
<rect x="80.5745" y="282.507" width="2.06602" height="2.06602" transform="rotate(-90 80.5745 282.507)" fill="white"/>
<rect x="62.6692" y="443.656" width="2.06602" height="2.06602" transform="rotate(-90 62.6692 443.656)" fill="white"/>
<rect x="62.6692" y="282.507" width="2.06602" height="2.06602" transform="rotate(-90 62.6692 282.507)" fill="white"/>
<rect x="62.6692" y="121.357" width="2.06602" height="2.06602" transform="rotate(-90 62.6692 121.357)" fill="white"/>
<rect x="26.8582" y="443.656" width="2.06602" height="2.06602" transform="rotate(-90 26.8582 443.656)" fill="white"/>
<rect x="26.8582" y="282.507" width="2.06602" height="2.06602" transform="rotate(-90 26.8582 282.507)" fill="white"/>
<rect x="98.4801" y="443.656" width="2.06602" height="2.06602" transform="rotate(-90 98.4801 443.656)" fill="white"/>
<rect x="98.4801" y="282.507" width="2.06602" height="2.06602" transform="rotate(-90 98.4801 282.507)" fill="white"/>
<rect x="44.7638" y="443.656" width="2.06602" height="2.06602" transform="rotate(-90 44.7638 443.656)" fill="white"/>
<rect x="44.7638" y="282.507" width="2.06602" height="2.06602" transform="rotate(-90 44.7638 282.507)" fill="white"/>
<rect x="8.95288" y="434.703" width="2.06602" height="2.06602" transform="rotate(-90 8.95288 434.703)" fill="white"/>
<rect x="8.95288" y="273.554" width="2.06602" height="2.06602" transform="rotate(-90 8.95288 273.554)" fill="white"/>
<rect x="8.95288" y="112.405" width="2.06602" height="2.06602" transform="rotate(-90 8.95288 112.405)" fill="white"/>
<rect x="80.5745" y="273.554" width="2.06602" height="2.06602" transform="rotate(-90 80.5745 273.554)" fill="white"/>
<rect x="80.5745" y="112.405" width="2.06602" height="2.06602" transform="rotate(-90 80.5745 112.405)" fill="white"/>
<rect x="62.6692" y="273.554" width="2.06602" height="2.06602" transform="rotate(-90 62.6692 273.554)" fill="white"/>
<rect x="62.6692" y="112.405" width="2.06602" height="2.06602" transform="rotate(-90 62.6692 112.405)" fill="white"/>
<rect x="26.8582" y="273.554" width="2.06602" height="2.06602" transform="rotate(-90 26.8582 273.554)" fill="white"/>
<rect x="26.8582" y="112.405" width="2.06602" height="2.06602" transform="rotate(-90 26.8582 112.405)" fill="white"/>
<rect x="98.4801" y="273.554" width="2.06602" height="2.06602" transform="rotate(-90 98.4801 273.554)" fill="white"/>
<rect x="98.4801" y="112.405" width="2.06602" height="2.06602" transform="rotate(-90 98.4801 112.405)" fill="white"/>
<rect x="44.7638" y="273.554" width="2.06602" height="2.06602" transform="rotate(-90 44.7638 273.554)" fill="white"/>
<rect x="44.7638" y="112.405" width="2.06602" height="2.06602" transform="rotate(-90 44.7638 112.405)" fill="white"/>
<rect x="8.95288" y="425.751" width="2.06602" height="2.06602" transform="rotate(-90 8.95288 425.751)" fill="white"/>
<rect x="8.95288" y="264.601" width="2.06602" height="2.06602" transform="rotate(-90 8.95288 264.601)" fill="white"/>
<rect x="8.95288" y="103.452" width="2.06602" height="2.06602" transform="rotate(-90 8.95288 103.452)" fill="white"/>
<rect x="80.5745" y="103.452" width="2.06602" height="2.06602" transform="rotate(-90 80.5745 103.452)" fill="white"/>
<rect x="62.6692" y="103.452" width="2.06602" height="2.06602" transform="rotate(-90 62.6692 103.452)" fill="white"/>
<rect x="26.8582" y="103.452" width="2.06602" height="2.06602" transform="rotate(-90 26.8582 103.452)" fill="white"/>
<rect x="98.4801" y="103.452" width="2.06602" height="2.06602" transform="rotate(-90 98.4801 103.452)" fill="white"/>
<rect x="44.7638" y="103.452" width="2.06602" height="2.06602" transform="rotate(-90 44.7638 103.452)" fill="white"/>
<rect x="8.95288" y="416.798" width="2.06602" height="2.06602" transform="rotate(-90 8.95288 416.798)" fill="white"/>
<rect x="8.95288" y="255.649" width="2.06602" height="2.06602" transform="rotate(-90 8.95288 255.649)" fill="white"/>
<rect x="8.95288" y="94.499" width="2.06602" height="2.06602" transform="rotate(-90 8.95288 94.499)" fill="white"/>
<rect x="8.95288" y="407.845" width="2.06602" height="2.06602" transform="rotate(-90 8.95288 407.845)" fill="white"/>
<rect x="8.95288" y="246.696" width="2.06602" height="2.06602" transform="rotate(-90 8.95288 246.696)" fill="white"/>
<rect x="8.95288" y="85.5464" width="2.06602" height="2.06602" transform="rotate(-90 8.95288 85.5464)" fill="white"/>
<rect x="80.5746" y="407.845" width="2.06602" height="2.06602" transform="rotate(-90 80.5746 407.845)" fill="white"/>
<rect x="26.8582" y="407.845" width="2.06602" height="2.06602" transform="rotate(-90 26.8582 407.845)" fill="white"/>
<rect x="98.4801" y="407.845" width="2.06602" height="2.06602" transform="rotate(-90 98.4801 407.845)" fill="white"/>
<rect x="8.95288" y="398.892" width="2.06602" height="2.06602" transform="rotate(-90 8.95288 398.892)" fill="white"/>
<rect x="8.95288" y="237.743" width="2.06602" height="2.06602" transform="rotate(-90 8.95288 237.743)" fill="white"/>
<rect x="8.95288" y="76.5936" width="2.06602" height="2.06602" transform="rotate(-90 8.95288 76.5936)" fill="white"/>
<rect x="80.5745" y="237.743" width="2.06602" height="2.06602" transform="rotate(-90 80.5745 237.743)" fill="white"/>
<rect x="26.8582" y="398.892" width="2.06602" height="2.06602" transform="rotate(-90 26.8582 398.892)" fill="white"/>
<rect x="98.4801" y="398.892" width="2.06602" height="2.06602" transform="rotate(-90 98.4801 398.892)" fill="white"/>
<rect x="98.4801" y="237.743" width="2.06602" height="2.06602" transform="rotate(-90 98.4801 237.743)" fill="white"/>
<rect x="44.7638" y="398.892" width="2.06602" height="2.06602" transform="rotate(-90 44.7638 398.892)" fill="white"/>
<rect x="44.7638" y="237.743" width="2.06602" height="2.06602" transform="rotate(-90 44.7638 237.743)" fill="white"/>
<rect x="8.95288" y="389.94" width="2.06602" height="2.06602" transform="rotate(-90 8.95288 389.94)" fill="white"/>
<rect x="8.95288" y="228.79" width="2.06602" height="2.06602" transform="rotate(-90 8.95288 228.79)" fill="white"/>
<rect x="8.95288" y="67.6407" width="2.06602" height="2.06602" transform="rotate(-90 8.95288 67.6407)" fill="white"/>
<rect x="80.5745" y="67.6407" width="2.06602" height="2.06602" transform="rotate(-90 80.5745 67.6407)" fill="white"/>
<rect x="26.8582" y="67.6407" width="2.06602" height="2.06602" transform="rotate(-90 26.8582 67.6407)" fill="white"/>
<rect x="98.4801" y="228.79" width="2.06602" height="2.06602" transform="rotate(-90 98.4801 228.79)" fill="white"/>
<rect x="98.4801" y="67.6407" width="2.06602" height="2.06602" transform="rotate(-90 98.4801 67.6407)" fill="white"/>
<rect x="44.7638" y="228.79" width="2.06602" height="2.06602" transform="rotate(-90 44.7638 228.79)" fill="white"/>
<rect x="8.95288" y="380.987" width="2.06602" height="2.06602" transform="rotate(-90 8.95288 380.987)" fill="white"/>
<rect x="8.95288" y="219.837" width="2.06602" height="2.06602" transform="rotate(-90 8.95288 219.837)" fill="white"/>
<rect x="8.95288" y="58.6881" width="2.06602" height="2.06602" transform="rotate(-90 8.95288 58.6881)" fill="white"/>
<rect x="26.8582" y="58.6881" width="2.06602" height="2.06602" transform="rotate(-90 26.8582 58.6881)" fill="white"/>
<rect x="44.7638" y="58.6881" width="2.06602" height="2.06602" transform="rotate(-90 44.7638 58.6881)" fill="white"/>
<rect x="8.95288" y="372.034" width="2.06602" height="2.06602" transform="rotate(-90 8.95288 372.034)" fill="white"/>
<rect x="8.95288" y="210.885" width="2.06602" height="2.06602" transform="rotate(-90 8.95288 210.885)" fill="white"/>
<rect x="8.95288" y="49.7356" width="2.06602" height="2.06602" transform="rotate(-90 8.95288 49.7356)" fill="white"/>
<rect x="8.95288" y="327.27" width="2.06602" height="2.06602" transform="rotate(-90 8.95288 327.27)" fill="white"/>
<rect x="8.95288" y="166.121" width="2.06602" height="2.06602" transform="rotate(-90 8.95288 166.121)" fill="white"/>
<rect x="8.95288" y="4.97192" width="2.06602" height="2.06602" transform="rotate(-90 8.95288 4.97192)" fill="white"/>
<rect x="80.5745" y="4.97192" width="2.06602" height="2.06602" transform="rotate(-90 80.5745 4.97192)" fill="white"/>
<rect x="62.6692" y="166.121" width="2.06602" height="2.06602" transform="rotate(-90 62.6692 166.121)" fill="white"/>
<rect x="62.6692" y="4.97192" width="2.06602" height="2.06602" transform="rotate(-90 62.6692 4.97192)" fill="white"/>
<rect x="26.8582" y="210.885" width="2.06602" height="2.06602" transform="rotate(-90 26.8582 210.885)" fill="white"/>
<rect x="26.8582" y="49.7356" width="2.06602" height="2.06602" transform="rotate(-90 26.8582 49.7356)" fill="white"/>
<rect x="26.8582" y="4.97192" width="2.06602" height="2.06602" transform="rotate(-90 26.8582 4.97192)" fill="white"/>
<rect x="98.4801" y="4.97192" width="2.06602" height="2.06602" transform="rotate(-90 98.4801 4.97192)" fill="white"/>
<rect x="44.7638" y="49.7356" width="2.06602" height="2.06602" transform="rotate(-90 44.7638 49.7356)" fill="white"/>
<rect x="44.7638" y="4.97192" width="2.06602" height="2.06602" transform="rotate(-90 44.7638 4.97192)" fill="white"/>
<rect x="8.95288" y="363.081" width="2.06602" height="2.06602" transform="rotate(-90 8.95288 363.081)" fill="white"/>
<rect x="8.95288" y="201.932" width="2.06602" height="2.06602" transform="rotate(-90 8.95288 201.932)" fill="white"/>
<rect x="8.95288" y="40.7826" width="2.06602" height="2.06602" transform="rotate(-90 8.95288 40.7826)" fill="white"/>
<rect x="80.5746" y="363.081" width="2.06602" height="2.06602" transform="rotate(-90 80.5746 363.081)" fill="white"/>
<rect x="80.5745" y="201.932" width="2.06602" height="2.06602" transform="rotate(-90 80.5745 201.932)" fill="white"/>
<rect x="80.5745" y="40.7826" width="2.06602" height="2.06602" transform="rotate(-90 80.5745 40.7826)" fill="white"/>
<rect x="62.6692" y="363.081" width="2.06602" height="2.06602" transform="rotate(-90 62.6692 363.081)" fill="white"/>
<rect x="62.6692" y="201.932" width="2.06602" height="2.06602" transform="rotate(-90 62.6692 201.932)" fill="white"/>
<rect x="8.95288" y="318.318" width="2.06602" height="2.06602" transform="rotate(-90 8.95288 318.318)" fill="white"/>
<rect x="8.95288" y="157.168" width="2.06602" height="2.06602" transform="rotate(-90 8.95288 157.168)" fill="white"/>
<rect x="26.8582" y="363.081" width="2.06602" height="2.06602" transform="rotate(-90 26.8582 363.081)" fill="white"/>
<rect x="26.8582" y="201.932" width="2.06602" height="2.06602" transform="rotate(-90 26.8582 201.932)" fill="white"/>
<rect x="26.8582" y="40.7826" width="2.06602" height="2.06602" transform="rotate(-90 26.8582 40.7826)" fill="white"/>
<rect x="98.4801" y="363.081" width="2.06602" height="2.06602" transform="rotate(-90 98.4801 363.081)" fill="white"/>
<rect x="98.4801" y="40.7826" width="2.06602" height="2.06602" transform="rotate(-90 98.4801 40.7826)" fill="white"/>
<rect x="44.7638" y="363.081" width="2.06602" height="2.06602" transform="rotate(-90 44.7638 363.081)" fill="white"/>
<rect x="8.95288" y="354.129" width="2.06602" height="2.06602" transform="rotate(-90 8.95288 354.129)" fill="white"/>
<rect x="8.95288" y="192.979" width="2.06602" height="2.06602" transform="rotate(-90 8.95288 192.979)" fill="white"/>
<rect x="8.95288" y="31.8301" width="2.06602" height="2.06602" transform="rotate(-90 8.95288 31.8301)" fill="white"/>
<rect x="80.5746" y="354.129" width="2.06602" height="2.06602" transform="rotate(-90 80.5746 354.129)" fill="white"/>
<rect x="80.5745" y="192.979" width="2.06602" height="2.06602" transform="rotate(-90 80.5745 192.979)" fill="white"/>
<rect x="62.6692" y="354.129" width="2.06602" height="2.06602" transform="rotate(-90 62.6692 354.129)" fill="white"/>
<rect x="62.6692" y="192.979" width="2.06602" height="2.06602" transform="rotate(-90 62.6692 192.979)" fill="white"/>
<rect x="8.95288" y="309.365" width="2.06602" height="2.06602" transform="rotate(-90 8.95288 309.365)" fill="white"/>
<rect x="8.95288" y="148.215" width="2.06602" height="2.06602" transform="rotate(-90 8.95288 148.215)" fill="white"/>
<rect x="26.8582" y="354.129" width="2.06602" height="2.06602" transform="rotate(-90 26.8582 354.129)" fill="white"/>
<rect x="26.8582" y="192.979" width="2.06602" height="2.06602" transform="rotate(-90 26.8582 192.979)" fill="white"/>
<rect x="98.4801" y="354.129" width="2.06602" height="2.06602" transform="rotate(-90 98.4801 354.129)" fill="white"/>
<rect x="98.4801" y="192.979" width="2.06602" height="2.06602" transform="rotate(-90 98.4801 192.979)" fill="white"/>
<rect x="44.7638" y="354.129" width="2.06602" height="2.06602" transform="rotate(-90 44.7638 354.129)" fill="white"/>
<rect x="44.7638" y="192.979" width="2.06602" height="2.06602" transform="rotate(-90 44.7638 192.979)" fill="white"/>
<rect x="8.95288" y="345.176" width="2.06602" height="2.06602" transform="rotate(-90 8.95288 345.176)" fill="white"/>
<rect x="8.95288" y="184.027" width="2.06602" height="2.06602" transform="rotate(-90 8.95288 184.027)" fill="white"/>
<rect x="8.95288" y="22.8773" width="2.06602" height="2.06602" transform="rotate(-90 8.95288 22.8773)" fill="white"/>
<rect x="80.5746" y="345.176" width="2.06602" height="2.06602" transform="rotate(-90 80.5746 345.176)" fill="white"/>
<rect x="80.5745" y="184.027" width="2.06602" height="2.06602" transform="rotate(-90 80.5745 184.027)" fill="white"/>
<rect x="62.6692" y="345.176" width="2.06602" height="2.06602" transform="rotate(-90 62.6692 345.176)" fill="white"/>
<rect x="62.6692" y="184.027" width="2.06602" height="2.06602" transform="rotate(-90 62.6692 184.027)" fill="white"/>
<rect x="26.8582" y="184.027" width="2.06602" height="2.06602" transform="rotate(-90 26.8582 184.027)" fill="white"/>
<rect x="98.4801" y="345.176" width="2.06602" height="2.06602" transform="rotate(-90 98.4801 345.176)" fill="white"/>
<rect x="98.4801" y="184.027" width="2.06602" height="2.06602" transform="rotate(-90 98.4801 184.027)" fill="white"/>
<rect x="44.7638" y="184.027" width="2.06602" height="2.06602" transform="rotate(-90 44.7638 184.027)" fill="white"/>
<rect x="8.95288" y="336.223" width="2.06602" height="2.06602" transform="rotate(-90 8.95288 336.223)" fill="white"/>
<rect x="8.95288" y="175.074" width="2.06602" height="2.06602" transform="rotate(-90 8.95288 175.074)" fill="white"/>
<rect x="8.95288" y="13.9243" width="2.06602" height="2.06602" transform="rotate(-90 8.95288 13.9243)" fill="white"/>
<rect x="80.5746" y="336.223" width="2.06602" height="2.06602" transform="rotate(-90 80.5746 336.223)" fill="white"/>
<rect x="62.6692" y="336.223" width="2.06602" height="2.06602" transform="rotate(-90 62.6692 336.223)" fill="white"/>
<rect x="62.6692" y="175.074" width="2.06602" height="2.06602" transform="rotate(-90 62.6692 175.074)" fill="white"/>
<rect x="98.4801" y="336.223" width="2.06602" height="2.06602" transform="rotate(-90 98.4801 336.223)" fill="white"/>
</g>
<rect x="53.7163" y="139.263" width="2.06602" height="2.06602" transform="rotate(-90 53.7163 139.263)" fill="white"/>
<rect x="89.5275" y="139.263" width="2.06602" height="2.06602" transform="rotate(-90 89.5275 139.263)" fill="white"/>
<rect x="35.811" y="139.263" width="2.06602" height="2.06602" transform="rotate(-90 35.811 139.263)" fill="white"/>
<rect x="53.7163" y="130.31" width="2.06602" height="2.06602" transform="rotate(-90 53.7163 130.31)" fill="white"/>
<rect x="89.5275" y="130.31" width="2.06602" height="2.06602" transform="rotate(-90 89.5275 130.31)" fill="white"/>
<rect x="35.811" y="130.31" width="2.06602" height="2.06602" transform="rotate(-90 35.811 130.31)" fill="white"/>
<rect x="89.5275" y="121.358" width="2.06602" height="2.06602" transform="rotate(-90 89.5275 121.358)" fill="white"/>
<rect x="35.811" y="121.358" width="2.06602" height="2.06602" transform="rotate(-90 35.811 121.358)" fill="white"/>
<rect x="71.6219" y="166.121" width="2.06602" height="2.06602" transform="rotate(-90 71.6219 166.121)" fill="white"/>
<rect x="89.5275" y="166.121" width="2.06602" height="2.06602" transform="rotate(-90 89.5275 166.121)" fill="white"/>
<rect x="35.811" y="166.121" width="2.06602" height="2.06602" transform="rotate(-90 35.811 166.121)" fill="white"/>
<rect x="71.6219" y="157.169" width="2.06602" height="2.06602" transform="rotate(-90 71.6219 157.169)" fill="white"/>
<rect x="89.5275" y="157.169" width="2.06602" height="2.06602" transform="rotate(-90 89.5275 157.169)" fill="white"/>
<rect x="35.811" y="157.169" width="2.06602" height="2.06602" transform="rotate(-90 35.811 157.169)" fill="white"/>
<rect x="71.6219" y="148.216" width="2.06602" height="2.06602" transform="rotate(-90 71.6219 148.216)" fill="white"/>
<rect x="53.7163" y="148.216" width="2.06602" height="2.06602" transform="rotate(-90 53.7163 148.216)" fill="white"/>
<rect x="89.5275" y="148.216" width="2.06602" height="2.06602" transform="rotate(-90 89.5275 148.216)" fill="white"/>
<rect x="35.811" y="148.216" width="2.06602" height="2.06602" transform="rotate(-90 35.811 148.216)" fill="white"/>
<rect x="89.5275" y="175.074" width="2.06602" height="2.06602" transform="rotate(-90 89.5275 175.074)" fill="white"/>
<rect x="35.811" y="175.074" width="2.06602" height="2.06602" transform="rotate(-90 35.811 175.074)" fill="white"/>
<rect x="80.5746" y="139.263" width="2.06602" height="2.06602" transform="rotate(-90 80.5746 139.263)" fill="white"/>
<rect x="62.6692" y="139.263" width="2.06602" height="2.06602" transform="rotate(-90 62.6692 139.263)" fill="white"/>
<rect x="26.8582" y="139.263" width="2.06602" height="2.06602" transform="rotate(-90 26.8582 139.263)" fill="white"/>
<rect x="98.4801" y="139.263" width="2.06602" height="2.06602" transform="rotate(-90 98.4801 139.263)" fill="white"/>
<rect x="44.764" y="139.263" width="2.06602" height="2.06602" transform="rotate(-90 44.764 139.263)" fill="white"/>
<rect x="80.5746" y="130.31" width="2.06602" height="2.06602" transform="rotate(-90 80.5746 130.31)" fill="white"/>
<rect x="26.8582" y="130.31" width="2.06602" height="2.06602" transform="rotate(-90 26.8582 130.31)" fill="white"/>
<rect x="98.4801" y="130.31" width="2.06602" height="2.06602" transform="rotate(-90 98.4801 130.31)" fill="white"/>
<rect x="44.764" y="130.31" width="2.06602" height="2.06602" transform="rotate(-90 44.764 130.31)" fill="white"/>
<rect x="80.5746" y="121.358" width="2.06602" height="2.06602" transform="rotate(-90 80.5746 121.358)" fill="white"/>
<rect x="26.8582" y="121.358" width="2.06602" height="2.06602" transform="rotate(-90 26.8582 121.358)" fill="white"/>
<rect x="98.4801" y="121.358" width="2.06602" height="2.06602" transform="rotate(-90 98.4801 121.358)" fill="white"/>
<rect x="44.764" y="121.358" width="2.06602" height="2.06602" transform="rotate(-90 44.764 121.358)" fill="white"/>
<rect x="80.5746" y="166.121" width="2.06602" height="2.06602" transform="rotate(-90 80.5746 166.121)" fill="white"/>
<rect x="26.8582" y="166.121" width="2.06602" height="2.06602" transform="rotate(-90 26.8582 166.121)" fill="white"/>
<rect x="98.4801" y="166.121" width="2.06602" height="2.06602" transform="rotate(-90 98.4801 166.121)" fill="white"/>
<rect x="44.764" y="166.121" width="2.06602" height="2.06602" transform="rotate(-90 44.764 166.121)" fill="white"/>
<rect x="80.5746" y="157.169" width="2.06602" height="2.06602" transform="rotate(-90 80.5746 157.169)" fill="white"/>
<rect x="62.6692" y="157.169" width="2.06602" height="2.06602" transform="rotate(-90 62.6692 157.169)" fill="white"/>
<rect x="26.8582" y="157.169" width="2.06602" height="2.06602" transform="rotate(-90 26.8582 157.169)" fill="white"/>
<rect x="98.4801" y="157.169" width="2.06602" height="2.06602" transform="rotate(-90 98.4801 157.169)" fill="white"/>
<rect x="44.764" y="157.169" width="2.06602" height="2.06602" transform="rotate(-90 44.764 157.169)" fill="white"/>
<rect x="80.5746" y="148.216" width="2.06602" height="2.06602" transform="rotate(-90 80.5746 148.216)" fill="white"/>
<rect x="62.6692" y="148.216" width="2.06602" height="2.06602" transform="rotate(-90 62.6692 148.216)" fill="white"/>
<rect x="26.8582" y="148.216" width="2.06602" height="2.06602" transform="rotate(-90 26.8582 148.216)" fill="white"/>
<rect x="98.4801" y="148.216" width="2.06602" height="2.06602" transform="rotate(-90 98.4801 148.216)" fill="white"/>
<rect x="44.764" y="148.216" width="2.06602" height="2.06602" transform="rotate(-90 44.764 148.216)" fill="white"/>
<rect x="80.5746" y="175.074" width="2.06602" height="2.06602" transform="rotate(-90 80.5746 175.074)" fill="white"/>
<rect x="26.8588" y="175.073" width="2.06602" height="2.06602" transform="rotate(-90 26.8588 175.073)" fill="white"/>
<rect x="98.4801" y="175.074" width="2.06602" height="2.06602" transform="rotate(-90 98.4801 175.074)" fill="white"/>
<rect x="44.764" y="175.074" width="2.06602" height="2.06602" transform="rotate(-90 44.764 175.074)" fill="white"/>
<rect x="71.6222" y="264.601" width="2.06602" height="2.06602" transform="rotate(-90 71.6222 264.601)" fill="white"/>
<rect x="53.7163" y="264.601" width="2.06602" height="2.06602" transform="rotate(-90 53.7163 264.601)" fill="white"/>
<rect x="89.5275" y="264.601" width="2.06602" height="2.06602" transform="rotate(-90 89.5275 264.601)" fill="white"/>
<rect x="35.811" y="264.601" width="2.06602" height="2.06602" transform="rotate(-90 35.811 264.601)" fill="white"/>
<rect x="71.6219" y="255.649" width="2.06602" height="2.06602" transform="rotate(-90 71.6219 255.649)" fill="white"/>
<rect x="53.7163" y="255.649" width="2.06602" height="2.06602" transform="rotate(-90 53.7163 255.649)" fill="white"/>
<rect x="89.5275" y="255.649" width="2.06602" height="2.06602" transform="rotate(-90 89.5275 255.649)" fill="white"/>
<rect x="35.811" y="255.649" width="2.06602" height="2.06602" transform="rotate(-90 35.811 255.649)" fill="white"/>
<rect x="71.6219" y="246.696" width="2.06602" height="2.06602" transform="rotate(-90 71.6219 246.696)" fill="white"/>
<rect x="53.7163" y="246.696" width="2.06602" height="2.06602" transform="rotate(-90 53.7163 246.696)" fill="white"/>
<rect x="89.5275" y="246.696" width="2.06602" height="2.06602" transform="rotate(-90 89.5275 246.696)" fill="white"/>
<rect x="35.811" y="246.696" width="2.06602" height="2.06602" transform="rotate(-90 35.811 246.696)" fill="white"/>
<rect x="71.6219" y="237.743" width="2.06602" height="2.06602" transform="rotate(-90 71.6219 237.743)" fill="white"/>
<rect x="35.811" y="237.743" width="2.06602" height="2.06602" transform="rotate(-90 35.811 237.743)" fill="white"/>
<rect x="71.6219" y="228.791" width="2.06602" height="2.06602" transform="rotate(-90 71.6219 228.791)" fill="white"/>
<rect x="89.5275" y="228.791" width="2.06602" height="2.06602" transform="rotate(-90 89.5275 228.791)" fill="white"/>
<rect x="35.811" y="228.791" width="2.06602" height="2.06602" transform="rotate(-90 35.811 228.791)" fill="white"/>
<rect x="71.6219" y="219.838" width="2.06602" height="2.06602" transform="rotate(-90 71.6219 219.838)" fill="white"/>
<rect x="53.7163" y="219.838" width="2.06602" height="2.06602" transform="rotate(-90 53.7163 219.838)" fill="white"/>
<rect x="89.5275" y="219.838" width="2.06602" height="2.06602" transform="rotate(-90 89.5275 219.838)" fill="white"/>
<rect x="35.811" y="219.838" width="2.06602" height="2.06602" transform="rotate(-90 35.811 219.838)" fill="white"/>
<rect x="53.7163" y="210.885" width="2.06602" height="2.06602" transform="rotate(-90 53.7163 210.885)" fill="white"/>
<rect x="89.5275" y="210.885" width="2.06602" height="2.06602" transform="rotate(-90 89.5275 210.885)" fill="white"/>
<rect x="35.811" y="210.885" width="2.06602" height="2.06602" transform="rotate(-90 35.811 210.885)" fill="white"/>
<rect x="53.7163" y="201.932" width="2.06602" height="2.06602" transform="rotate(-90 53.7163 201.932)" fill="white"/>
<rect x="80.5746" y="264.601" width="2.06602" height="2.06602" transform="rotate(-90 80.5746 264.601)" fill="white"/>
<rect x="62.6692" y="264.601" width="2.06602" height="2.06602" transform="rotate(-90 62.6692 264.601)" fill="white"/>
<rect x="26.8589" y="264.601" width="2.06602" height="2.06602" transform="rotate(-90 26.8589 264.601)" fill="white"/>
<rect x="98.4801" y="264.601" width="2.06602" height="2.06602" transform="rotate(-90 98.4801 264.601)" fill="white"/>
<rect x="44.764" y="264.601" width="2.06602" height="2.06602" transform="rotate(-90 44.764 264.601)" fill="white"/>
<rect x="80.5746" y="255.649" width="2.06602" height="2.06602" transform="rotate(-90 80.5746 255.649)" fill="white"/>
<rect x="62.6692" y="255.649" width="2.06602" height="2.06602" transform="rotate(-90 62.6692 255.649)" fill="white"/>
<rect x="26.8582" y="255.649" width="2.06602" height="2.06602" transform="rotate(-90 26.8582 255.649)" fill="white"/>
<rect x="98.4801" y="255.649" width="2.06602" height="2.06602" transform="rotate(-90 98.4801 255.649)" fill="white"/>
<rect x="44.764" y="255.649" width="2.06602" height="2.06602" transform="rotate(-90 44.764 255.649)" fill="white"/>
<rect x="80.5746" y="246.696" width="2.06602" height="2.06602" transform="rotate(-90 80.5746 246.696)" fill="white"/>
<rect x="62.6692" y="246.696" width="2.06602" height="2.06602" transform="rotate(-90 62.6692 246.696)" fill="white"/>
<rect x="26.8582" y="246.696" width="2.06602" height="2.06602" transform="rotate(-90 26.8582 246.696)" fill="white"/>
<rect x="98.4801" y="246.696" width="2.06602" height="2.06602" transform="rotate(-90 98.4801 246.696)" fill="white"/>
<rect x="44.764" y="246.696" width="2.06602" height="2.06602" transform="rotate(-90 44.764 246.696)" fill="white"/>
<rect x="62.6692" y="237.743" width="2.06602" height="2.06602" transform="rotate(-90 62.6692 237.743)" fill="white"/>
<rect x="26.8582" y="237.743" width="2.06602" height="2.06602" transform="rotate(-90 26.8582 237.743)" fill="white"/>
<rect x="80.5746" y="228.791" width="2.06602" height="2.06602" transform="rotate(-90 80.5746 228.791)" fill="white"/>
<rect x="62.6692" y="228.791" width="2.06602" height="2.06602" transform="rotate(-90 62.6692 228.791)" fill="white"/>
<rect x="26.8582" y="228.791" width="2.06602" height="2.06602" transform="rotate(-90 26.8582 228.791)" fill="white"/>
<rect x="80.5746" y="219.838" width="2.06602" height="2.06602" transform="rotate(-90 80.5746 219.838)" fill="white"/>
<rect x="62.6692" y="219.838" width="2.06602" height="2.06602" transform="rotate(-90 62.6692 219.838)" fill="white"/>
<rect x="26.8582" y="219.838" width="2.06602" height="2.06602" transform="rotate(-90 26.8582 219.838)" fill="white"/>
<rect x="98.4801" y="219.838" width="2.06602" height="2.06602" transform="rotate(-90 98.4801 219.838)" fill="white"/>
<rect x="44.764" y="219.838" width="2.06602" height="2.06602" transform="rotate(-90 44.764 219.838)" fill="white"/>
<rect x="80.5746" y="210.885" width="2.06602" height="2.06602" transform="rotate(-90 80.5746 210.885)" fill="white"/>
<rect x="62.6692" y="210.885" width="2.06602" height="2.06602" transform="rotate(-90 62.6692 210.885)" fill="white"/>
<rect x="98.4801" y="210.885" width="2.06602" height="2.06602" transform="rotate(-90 98.4801 210.885)" fill="white"/>
<rect x="44.764" y="210.885" width="2.06602" height="2.06602" transform="rotate(-90 44.764 210.885)" fill="white"/>
<rect x="98.4801" y="201.932" width="2.06602" height="2.06602" transform="rotate(-90 98.4801 201.932)" fill="white"/>
<rect x="44.764" y="201.932" width="2.06602" height="2.06602" transform="rotate(-90 44.764 201.932)" fill="white"/>
<rect x="35.811" y="300.413" width="2.06602" height="2.06602" transform="rotate(-90 35.811 300.413)" fill="white"/>
<rect x="35.811" y="291.46" width="2.06602" height="2.06602" transform="rotate(-90 35.811 291.46)" fill="white"/>
<rect x="71.6219" y="327.27" width="2.06602" height="2.06602" transform="rotate(-90 71.6219 327.27)" fill="white"/>
<rect x="53.7163" y="327.27" width="2.06602" height="2.06602" transform="rotate(-90 53.7163 327.27)" fill="white"/>
<rect x="89.5275" y="327.27" width="2.06602" height="2.06602" transform="rotate(-90 89.5275 327.27)" fill="white"/>
<rect x="35.811" y="327.27" width="2.06602" height="2.06602" transform="rotate(-90 35.811 327.27)" fill="white"/>
<rect x="71.6219" y="318.318" width="2.06602" height="2.06602" transform="rotate(-90 71.6219 318.318)" fill="white"/>
<rect x="53.7163" y="318.318" width="2.06602" height="2.06602" transform="rotate(-90 53.7163 318.318)" fill="white"/>
<rect x="89.5275" y="318.318" width="2.06602" height="2.06602" transform="rotate(-90 89.5275 318.318)" fill="white"/>
<rect x="35.811" y="318.318" width="2.06602" height="2.06602" transform="rotate(-90 35.811 318.318)" fill="white"/>
<rect x="71.6219" y="309.365" width="2.06602" height="2.06602" transform="rotate(-90 71.6219 309.365)" fill="white"/>
<rect x="53.7163" y="309.365" width="2.06602" height="2.06602" transform="rotate(-90 53.7163 309.365)" fill="white"/>
<rect x="89.5275" y="309.365" width="2.06602" height="2.06602" transform="rotate(-90 89.5275 309.365)" fill="white"/>
<rect x="35.811" y="309.365" width="2.06602" height="2.06602" transform="rotate(-90 35.811 309.365)" fill="white"/>
<rect x="35.811" y="345.176" width="2.06602" height="2.06602" transform="rotate(-90 35.811 345.176)" fill="white"/>
<rect x="35.811" y="336.223" width="2.06602" height="2.06602" transform="rotate(-90 35.811 336.223)" fill="white"/>
<rect x="26.8582" y="300.413" width="2.06602" height="2.06602" transform="rotate(-90 26.8582 300.413)" fill="white"/>
<rect x="44.764" y="300.413" width="2.06602" height="2.06602" transform="rotate(-90 44.764 300.413)" fill="white"/>
<rect x="26.8582" y="291.46" width="2.06602" height="2.06602" transform="rotate(-90 26.8582 291.46)" fill="white"/>
<rect x="44.764" y="291.46" width="2.06602" height="2.06602" transform="rotate(-90 44.764 291.46)" fill="white"/>
<rect x="80.5746" y="327.27" width="2.06602" height="2.06602" transform="rotate(-90 80.5746 327.27)" fill="white"/>
<rect x="62.6692" y="327.27" width="2.06602" height="2.06602" transform="rotate(-90 62.6692 327.27)" fill="white"/>
<rect x="26.8582" y="327.27" width="2.06602" height="2.06602" transform="rotate(-90 26.8582 327.27)" fill="white"/>
<rect x="98.4801" y="327.27" width="2.06602" height="2.06602" transform="rotate(-90 98.4801 327.27)" fill="white"/>
<rect x="44.764" y="327.27" width="2.06602" height="2.06602" transform="rotate(-90 44.764 327.27)" fill="white"/>
<rect x="80.5746" y="318.318" width="2.06602" height="2.06602" transform="rotate(-90 80.5746 318.318)" fill="white"/>
<rect x="62.6692" y="318.318" width="2.06602" height="2.06602" transform="rotate(-90 62.6692 318.318)" fill="white"/>
<rect x="26.8582" y="318.318" width="2.06602" height="2.06602" transform="rotate(-90 26.8582 318.318)" fill="white"/>
<rect x="98.4801" y="318.318" width="2.06602" height="2.06602" transform="rotate(-90 98.4801 318.318)" fill="white"/>
<rect x="44.764" y="318.318" width="2.06602" height="2.06602" transform="rotate(-90 44.764 318.318)" fill="white"/>
<rect x="80.5746" y="309.365" width="2.06602" height="2.06602" transform="rotate(-90 80.5746 309.365)" fill="white"/>
<rect x="62.6692" y="309.365" width="2.06602" height="2.06602" transform="rotate(-90 62.6692 309.365)" fill="white"/>
<rect x="26.8582" y="309.365" width="2.06602" height="2.06602" transform="rotate(-90 26.8582 309.365)" fill="white"/>
<rect x="98.4801" y="309.365" width="2.06602" height="2.06602" transform="rotate(-90 98.4801 309.365)" fill="white"/>
<rect x="44.764" y="309.365" width="2.06602" height="2.06602" transform="rotate(-90 44.764 309.365)" fill="white"/>
<rect x="26.8588" y="345.175" width="2.06602" height="2.06602" transform="rotate(-90 26.8588 345.175)" fill="white"/>
<rect x="44.764" y="345.176" width="2.06602" height="2.06602" transform="rotate(-90 44.764 345.176)" fill="white"/>
<rect x="26.8582" y="336.223" width="2.06602" height="2.06602" transform="rotate(-90 26.8582 336.223)" fill="white"/>
<rect x="44.764" y="336.223" width="2.06602" height="2.06602" transform="rotate(-90 44.764 336.223)" fill="white"/>
<rect x="71.6219" y="434.703" width="2.06602" height="2.06602" transform="rotate(-90 71.6219 434.703)" fill="white"/>
<rect x="53.7163" y="434.703" width="2.06602" height="2.06602" transform="rotate(-90 53.7163 434.703)" fill="white"/>
<rect x="89.5275" y="434.703" width="2.06602" height="2.06602" transform="rotate(-90 89.5275 434.703)" fill="white"/>
<rect x="35.811" y="434.703" width="2.06602" height="2.06602" transform="rotate(-90 35.811 434.703)" fill="white"/>
<rect x="71.6219" y="425.751" width="2.06602" height="2.06602" transform="rotate(-90 71.6219 425.751)" fill="white"/>
<rect x="53.7163" y="425.751" width="2.06602" height="2.06602" transform="rotate(-90 53.7163 425.751)" fill="white"/>
<rect x="89.5275" y="425.751" width="2.06602" height="2.06602" transform="rotate(-90 89.5275 425.751)" fill="white"/>
<rect x="35.811" y="425.751" width="2.06602" height="2.06602" transform="rotate(-90 35.811 425.751)" fill="white"/>
<rect x="71.6219" y="416.798" width="2.06602" height="2.06602" transform="rotate(-90 71.6219 416.798)" fill="white"/>
<rect x="53.7163" y="416.798" width="2.06602" height="2.06602" transform="rotate(-90 53.7163 416.798)" fill="white"/>
<rect x="89.5275" y="416.798" width="2.06602" height="2.06602" transform="rotate(-90 89.5275 416.798)" fill="white"/>
<rect x="35.811" y="416.798" width="2.06602" height="2.06602" transform="rotate(-90 35.811 416.798)" fill="white"/>
<rect x="71.6219" y="407.845" width="2.06602" height="2.06602" transform="rotate(-90 71.6219 407.845)" fill="white"/>
<rect x="53.7163" y="407.845" width="2.06602" height="2.06602" transform="rotate(-90 53.7163 407.845)" fill="white"/>
<rect x="71.6219" y="398.892" width="2.06602" height="2.06602" transform="rotate(-90 71.6219 398.892)" fill="white"/>
<rect x="53.7163" y="398.892" width="2.06602" height="2.06602" transform="rotate(-90 53.7163 398.892)" fill="white"/>
<rect x="71.6219" y="389.94" width="2.06602" height="2.06602" transform="rotate(-90 71.6219 389.94)" fill="white"/>
<rect x="53.7163" y="389.94" width="2.06602" height="2.06602" transform="rotate(-90 53.7163 389.94)" fill="white"/>
<rect x="89.5275" y="389.94" width="2.06602" height="2.06602" transform="rotate(-90 89.5275 389.94)" fill="white"/>
<rect x="35.811" y="389.94" width="2.06602" height="2.06602" transform="rotate(-90 35.811 389.94)" fill="white"/>
<rect x="71.6219" y="380.987" width="2.06602" height="2.06602" transform="rotate(-90 71.6219 380.987)" fill="white"/>
<rect x="53.7163" y="380.987" width="2.06602" height="2.06602" transform="rotate(-90 53.7163 380.987)" fill="white"/>
<rect x="89.5275" y="380.987" width="2.06602" height="2.06602" transform="rotate(-90 89.5275 380.987)" fill="white"/>
<rect x="35.811" y="380.987" width="2.06602" height="2.06602" transform="rotate(-90 35.811 380.987)" fill="white"/>
<rect x="71.6219" y="372.034" width="2.06602" height="2.06602" transform="rotate(-90 71.6219 372.034)" fill="white"/>
<rect x="53.7163" y="372.034" width="2.06602" height="2.06602" transform="rotate(-90 53.7163 372.034)" fill="white"/>
<rect x="89.5275" y="372.034" width="2.06602" height="2.06602" transform="rotate(-90 89.5275 372.034)" fill="white"/>
<rect x="35.811" y="372.034" width="2.06602" height="2.06602" transform="rotate(-90 35.811 372.034)" fill="white"/>
<rect x="80.5746" y="434.703" width="2.06602" height="2.06602" transform="rotate(-90 80.5746 434.703)" fill="white"/>
<rect x="62.6692" y="434.703" width="2.06602" height="2.06602" transform="rotate(-90 62.6692 434.703)" fill="white"/>
<rect x="26.8585" y="434.703" width="2.06602" height="2.06602" transform="rotate(-90 26.8585 434.703)" fill="white"/>
<rect x="98.4801" y="434.703" width="2.06602" height="2.06602" transform="rotate(-90 98.4801 434.703)" fill="white"/>
<rect x="44.764" y="434.703" width="2.06602" height="2.06602" transform="rotate(-90 44.764 434.703)" fill="white"/>
<rect x="80.5746" y="425.751" width="2.06602" height="2.06602" transform="rotate(-90 80.5746 425.751)" fill="white"/>
<rect x="62.6689" y="425.751" width="2.06602" height="2.06602" transform="rotate(-90 62.6689 425.751)" fill="white"/>
<rect x="26.8582" y="425.751" width="2.06602" height="2.06602" transform="rotate(-90 26.8582 425.751)" fill="white"/>
<rect x="98.4801" y="425.751" width="2.06602" height="2.06602" transform="rotate(-90 98.4801 425.751)" fill="white"/>
<rect x="44.764" y="425.751" width="2.06602" height="2.06602" transform="rotate(-90 44.764 425.751)" fill="white"/>
<rect x="80.5746" y="416.798" width="2.06602" height="2.06602" transform="rotate(-90 80.5746 416.798)" fill="white"/>
<rect x="62.6689" y="416.798" width="2.06602" height="2.06602" transform="rotate(-90 62.6689 416.798)" fill="white"/>
<rect x="26.8582" y="416.798" width="2.06602" height="2.06602" transform="rotate(-90 26.8582 416.798)" fill="white"/>
<rect x="98.4801" y="416.798" width="2.06602" height="2.06602" transform="rotate(-90 98.4801 416.798)" fill="white"/>
<rect x="44.764" y="416.798" width="2.06602" height="2.06602" transform="rotate(-90 44.764 416.798)" fill="white"/>
<rect x="62.6689" y="407.845" width="2.06602" height="2.06602" transform="rotate(-90 62.6689 407.845)" fill="white"/>
<rect x="44.764" y="407.845" width="2.06602" height="2.06602" transform="rotate(-90 44.764 407.845)" fill="white"/>
<rect x="80.5746" y="398.892" width="2.06602" height="2.06602" transform="rotate(-90 80.5746 398.892)" fill="white"/>
<rect x="62.6689" y="398.892" width="2.06602" height="2.06602" transform="rotate(-90 62.6689 398.892)" fill="white"/>
<rect x="80.5746" y="389.94" width="2.06602" height="2.06602" transform="rotate(-90 80.5746 389.94)" fill="white"/>
<rect x="62.6689" y="389.94" width="2.06602" height="2.06602" transform="rotate(-90 62.6689 389.94)" fill="white"/>
<rect x="26.8582" y="389.94" width="2.06602" height="2.06602" transform="rotate(-90 26.8582 389.94)" fill="white"/>
<rect x="98.4801" y="389.94" width="2.06602" height="2.06602" transform="rotate(-90 98.4801 389.94)" fill="white"/>
<rect x="44.764" y="389.94" width="2.06602" height="2.06602" transform="rotate(-90 44.764 389.94)" fill="white"/>
<rect x="80.5746" y="380.987" width="2.06602" height="2.06602" transform="rotate(-90 80.5746 380.987)" fill="white"/>
<rect x="62.6689" y="380.987" width="2.06602" height="2.06602" transform="rotate(-90 62.6689 380.987)" fill="white"/>
<rect x="26.8582" y="380.987" width="2.06602" height="2.06602" transform="rotate(-90 26.8582 380.987)" fill="white"/>
<rect x="98.4801" y="380.987" width="2.06602" height="2.06602" transform="rotate(-90 98.4801 380.987)" fill="white"/>
<rect x="44.764" y="380.987" width="2.06602" height="2.06602" transform="rotate(-90 44.764 380.987)" fill="white"/>
<rect x="80.5746" y="372.034" width="2.06602" height="2.06602" transform="rotate(-90 80.5746 372.034)" fill="white"/>
<rect x="62.6689" y="372.034" width="2.06602" height="2.06602" transform="rotate(-90 62.6689 372.034)" fill="white"/>
<rect x="26.8582" y="372.034" width="2.06602" height="2.06602" transform="rotate(-90 26.8582 372.034)" fill="white"/>
<rect x="98.4801" y="372.034" width="2.06602" height="2.06602" transform="rotate(-90 98.4801 372.034)" fill="white"/>
<rect x="44.764" y="372.034" width="2.06602" height="2.06602" transform="rotate(-90 44.764 372.034)" fill="white"/>
<rect x="71.6219" y="94.4991" width="2.06602" height="2.06602" transform="rotate(-90 71.6219 94.4991)" fill="white"/>
<rect x="53.7163" y="94.4991" width="2.06602" height="2.06602" transform="rotate(-90 53.7163 94.4991)" fill="white"/>
<rect x="89.5275" y="94.4991" width="2.06602" height="2.06602" transform="rotate(-90 89.5275 94.4991)" fill="white"/>
<rect x="35.811" y="94.4991" width="2.06602" height="2.06602" transform="rotate(-90 35.811 94.4991)" fill="white"/>
<rect x="71.6219" y="85.5464" width="2.06602" height="2.06602" transform="rotate(-90 71.6219 85.5464)" fill="white"/>
<rect x="53.7163" y="85.5464" width="2.06602" height="2.06602" transform="rotate(-90 53.7163 85.5464)" fill="white"/>
<rect x="89.5275" y="85.5464" width="2.06602" height="2.06602" transform="rotate(-90 89.5275 85.5464)" fill="white"/>
<rect x="35.811" y="85.5464" width="2.06602" height="2.06602" transform="rotate(-90 35.811 85.5464)" fill="white"/>
<rect x="71.6219" y="76.5939" width="2.06602" height="2.06602" transform="rotate(-90 71.6219 76.5939)" fill="white"/>
<rect x="53.7163" y="76.5939" width="2.06602" height="2.06602" transform="rotate(-90 53.7163 76.5939)" fill="white"/>
<rect x="89.5275" y="76.5939" width="2.06602" height="2.06602" transform="rotate(-90 89.5275 76.5939)" fill="white"/>
<rect x="35.811" y="76.5939" width="2.06602" height="2.06602" transform="rotate(-90 35.811 76.5939)" fill="white"/>
<rect x="71.6219" y="67.6409" width="2.06602" height="2.06602" transform="rotate(-90 71.6219 67.6409)" fill="white"/>
<rect x="53.7163" y="67.6409" width="2.06602" height="2.06602" transform="rotate(-90 53.7163 67.6409)" fill="white"/>
<rect x="35.811" y="67.6409" width="2.06602" height="2.06602" transform="rotate(-90 35.811 67.6409)" fill="white"/>
<rect x="71.6219" y="58.6884" width="2.06602" height="2.06602" transform="rotate(-90 71.6219 58.6884)" fill="white"/>
<rect x="53.7163" y="58.6884" width="2.06602" height="2.06602" transform="rotate(-90 53.7163 58.6884)" fill="white"/>
<rect x="89.5275" y="58.6884" width="2.06602" height="2.06602" transform="rotate(-90 89.5275 58.6884)" fill="white"/>
<rect x="71.6219" y="49.7356" width="2.06602" height="2.06602" transform="rotate(-90 71.6219 49.7356)" fill="white"/>
<rect x="53.7163" y="49.7356" width="2.06602" height="2.06602" transform="rotate(-90 53.7163 49.7356)" fill="white"/>
<rect x="89.5275" y="49.7356" width="2.06602" height="2.06602" transform="rotate(-90 89.5275 49.7356)" fill="white"/>
<rect x="71.6219" y="40.783" width="2.06602" height="2.06602" transform="rotate(-90 71.6219 40.783)" fill="white"/>
<rect x="53.7163" y="40.783" width="2.06602" height="2.06602" transform="rotate(-90 53.7163 40.783)" fill="white"/>
<rect x="35.811" y="40.783" width="2.06602" height="2.06602" transform="rotate(-90 35.811 40.783)" fill="white"/>
<rect x="71.6219" y="31.83" width="2.06602" height="2.06602" transform="rotate(-90 71.6219 31.83)" fill="white"/>
<rect x="53.7163" y="31.83" width="2.06602" height="2.06602" transform="rotate(-90 53.7163 31.83)" fill="white"/>
<rect x="89.5275" y="31.83" width="2.06602" height="2.06602" transform="rotate(-90 89.5275 31.83)" fill="white"/>
<rect x="35.811" y="31.83" width="2.06602" height="2.06602" transform="rotate(-90 35.811 31.83)" fill="white"/>
<rect x="71.6219" y="22.8774" width="2.06602" height="2.06602" transform="rotate(-90 71.6219 22.8774)" fill="white"/>
<rect x="53.7163" y="22.8774" width="2.06602" height="2.06602" transform="rotate(-90 53.7163 22.8774)" fill="white"/>
<rect x="89.5275" y="22.8774" width="2.06602" height="2.06602" transform="rotate(-90 89.5275 22.8774)" fill="white"/>
<rect x="35.811" y="22.8774" width="2.06602" height="2.06602" transform="rotate(-90 35.811 22.8774)" fill="white"/>
<rect x="71.6219" y="13.9243" width="2.06602" height="2.06602" transform="rotate(-90 71.6219 13.9243)" fill="white"/>
<rect x="53.7163" y="13.9243" width="2.06602" height="2.06602" transform="rotate(-90 53.7163 13.9243)" fill="white"/>
<rect x="89.5275" y="13.9243" width="2.06602" height="2.06602" transform="rotate(-90 89.5275 13.9243)" fill="white"/>
<rect x="35.811" y="13.9243" width="2.06602" height="2.06602" transform="rotate(-90 35.811 13.9243)" fill="white"/>
<rect x="80.5746" y="94.4991" width="2.06602" height="2.06602" transform="rotate(-90 80.5746 94.4991)" fill="white"/>
<rect x="62.6692" y="94.4991" width="2.06602" height="2.06602" transform="rotate(-90 62.6692 94.4991)" fill="white"/>
<rect x="26.859" y="94.4993" width="2.06602" height="2.06602" transform="rotate(-90 26.859 94.4993)" fill="white"/>
<rect x="98.4801" y="94.4991" width="2.06602" height="2.06602" transform="rotate(-90 98.4801 94.4991)" fill="white"/>
<rect x="44.764" y="94.4991" width="2.06602" height="2.06602" transform="rotate(-90 44.764 94.4991)" fill="white"/>
<rect x="80.5746" y="85.5464" width="2.06602" height="2.06602" transform="rotate(-90 80.5746 85.5464)" fill="white"/>
<rect x="62.6692" y="85.5464" width="2.06602" height="2.06602" transform="rotate(-90 62.6692 85.5464)" fill="white"/>
<rect x="26.8582" y="85.5464" width="2.06602" height="2.06602" transform="rotate(-90 26.8582 85.5464)" fill="white"/>
<rect x="98.4801" y="85.5464" width="2.06602" height="2.06602" transform="rotate(-90 98.4801 85.5464)" fill="white"/>
<rect x="44.764" y="85.5464" width="2.06602" height="2.06602" transform="rotate(-90 44.764 85.5464)" fill="white"/>
<rect x="80.5746" y="76.5939" width="2.06602" height="2.06602" transform="rotate(-90 80.5746 76.5939)" fill="white"/>
<rect x="62.6692" y="76.5939" width="2.06602" height="2.06602" transform="rotate(-90 62.6692 76.5939)" fill="white"/>
<rect x="26.8582" y="76.5939" width="2.06602" height="2.06602" transform="rotate(-90 26.8582 76.5939)" fill="white"/>
<rect x="98.4801" y="76.5939" width="2.06602" height="2.06602" transform="rotate(-90 98.4801 76.5939)" fill="white"/>
<rect x="44.764" y="76.5939" width="2.06602" height="2.06602" transform="rotate(-90 44.764 76.5939)" fill="white"/>
<rect x="62.6692" y="67.6409" width="2.06602" height="2.06602" transform="rotate(-90 62.6692 67.6409)" fill="white"/>
<rect x="44.764" y="67.6409" width="2.06602" height="2.06602" transform="rotate(-90 44.764 67.6409)" fill="white"/>
<rect x="80.5746" y="58.6884" width="2.06602" height="2.06602" transform="rotate(-90 80.5746 58.6884)" fill="white"/>
<rect x="62.6692" y="58.6884" width="2.06602" height="2.06602" transform="rotate(-90 62.6692 58.6884)" fill="white"/>
<rect x="98.4801" y="58.6884" width="2.06602" height="2.06602" transform="rotate(-90 98.4801 58.6884)" fill="white"/>
<rect x="80.5746" y="49.7356" width="2.06602" height="2.06602" transform="rotate(-90 80.5746 49.7356)" fill="white"/>
<rect x="62.6692" y="49.7356" width="2.06602" height="2.06602" transform="rotate(-90 62.6692 49.7356)" fill="white"/>
<rect x="98.4801" y="49.7356" width="2.06602" height="2.06602" transform="rotate(-90 98.4801 49.7356)" fill="white"/>
<rect x="62.6692" y="40.783" width="2.06602" height="2.06602" transform="rotate(-90 62.6692 40.783)" fill="white"/>
<rect x="44.764" y="40.783" width="2.06602" height="2.06602" transform="rotate(-90 44.764 40.783)" fill="white"/>
<rect x="80.5746" y="31.83" width="2.06602" height="2.06602" transform="rotate(-90 80.5746 31.83)" fill="white"/>
<rect x="62.6692" y="31.83" width="2.06602" height="2.06602" transform="rotate(-90 62.6692 31.83)" fill="white"/>
<rect x="26.8582" y="31.83" width="2.06602" height="2.06602" transform="rotate(-90 26.8582 31.83)" fill="white"/>
<rect x="98.4801" y="31.83" width="2.06602" height="2.06602" transform="rotate(-90 98.4801 31.83)" fill="white"/>
<rect x="44.764" y="31.83" width="2.06602" height="2.06602" transform="rotate(-90 44.764 31.83)" fill="white"/>
<rect x="80.5746" y="22.8774" width="2.06602" height="2.06602" transform="rotate(-90 80.5746 22.8774)" fill="white"/>
<rect x="62.6692" y="22.8774" width="2.06602" height="2.06602" transform="rotate(-90 62.6692 22.8774)" fill="white"/>
<rect x="26.8582" y="22.8774" width="2.06602" height="2.06602" transform="rotate(-90 26.8582 22.8774)" fill="white"/>
<rect x="98.4801" y="22.8774" width="2.06602" height="2.06602" transform="rotate(-90 98.4801 22.8774)" fill="white"/>
<rect x="44.764" y="22.8774" width="2.06602" height="2.06602" transform="rotate(-90 44.764 22.8774)" fill="white"/>
<rect x="80.5746" y="13.9243" width="2.06602" height="2.06602" transform="rotate(-90 80.5746 13.9243)" fill="white"/>
<rect x="62.6689" y="13.9243" width="2.06602" height="2.06602" transform="rotate(-90 62.6689 13.9243)" fill="white"/>
<rect x="26.8582" y="13.9244" width="2.06602" height="2.06602" transform="rotate(-90 26.8582 13.9244)" fill="white"/>
<rect x="98.4803" y="13.9243" width="2.06602" height="2.06602" transform="rotate(-90 98.4803 13.9243)" fill="white"/>
<rect x="44.764" y="13.9243" width="2.06602" height="2.06602" transform="rotate(-90 44.764 13.9243)" fill="white"/>
</g>
</svg>
