<svg width="55" height="206" viewBox="0 0 55 206" fill="none" xmlns="http://www.w3.org/2000/svg">
<g style="mix-blend-mode:overlay">
<g opacity="0.3">
<rect width="0.89189" height="0.89189" transform="matrix(-4.37114e-08 -1 -1 4.37114e-08 54.9968 205.729)" fill="white"/>
<rect width="0.89189" height="0.89189" transform="matrix(-4.37114e-08 -1 -1 4.37114e-08 54.9998 136.162)" fill="white"/>
<rect width="0.89189" height="0.89189" transform="matrix(-4.37114e-08 -1 -1 4.37114e-08 54.9998 66.5942)" fill="white"/>
<rect width="0.89189" height="0.89189" transform="matrix(-4.37114e-08 -1 -1 4.37114e-08 24.0808 205.729)" fill="white"/>
<rect width="0.89189" height="0.89189" transform="matrix(-4.37114e-08 -1 -1 4.37114e-08 24.0808 136.162)" fill="white"/>
<rect width="0.89189" height="0.89189" transform="matrix(-4.37114e-08 -1 -1 4.37114e-08 24.0808 66.5942)" fill="white"/>
<rect width="0.89189" height="0.89189" transform="matrix(-4.37114e-08 -1 -1 4.37114e-08 31.8108 205.729)" fill="white"/>
<rect width="0.89189" height="0.89189" transform="matrix(-4.37114e-08 -1 -1 4.37114e-08 31.8108 136.162)" fill="white"/>
<rect width="0.89189" height="0.89189" transform="matrix(-4.37114e-08 -1 -1 4.37114e-08 0.891846 205.729)" fill="white"/>
<rect width="0.89189" height="0.89189" transform="matrix(-4.37114e-08 -1 -1 4.37114e-08 0.891846 136.162)" fill="white"/>
<rect width="0.89189" height="0.89189" transform="matrix(-4.37114e-08 -1 -1 4.37114e-08 0.891846 66.5942)" fill="white"/>
<rect width="0.89189" height="0.89189" transform="matrix(-4.37114e-08 -1 -1 4.37114e-08 47.2695 205.729)" fill="white"/>
<rect width="0.89189" height="0.89189" transform="matrix(-4.37114e-08 -1 -1 4.37114e-08 47.2695 136.162)" fill="white"/>
<rect width="0.89189" height="0.89189" transform="matrix(-4.37114e-08 -1 -1 4.37114e-08 47.2695 66.5942)" fill="white"/>
<rect width="0.89189" height="0.89189" transform="matrix(-4.37114e-08 -1 -1 4.37114e-08 16.3513 205.729)" fill="white"/>
<rect width="0.89189" height="0.89189" transform="matrix(-4.37114e-08 -1 -1 4.37114e-08 16.3513 136.162)" fill="white"/>
<rect width="0.89189" height="0.89189" transform="matrix(-4.37114e-08 -1 -1 4.37114e-08 39.5403 205.729)" fill="white"/>
<rect width="0.89189" height="0.89189" transform="matrix(-4.37114e-08 -1 -1 4.37114e-08 8.62109 205.729)" fill="white"/>
<rect width="0.89189" height="0.89189" transform="matrix(-4.37114e-08 -1 -1 4.37114e-08 8.62109 136.162)" fill="white"/>
<rect width="0.89189" height="0.89189" transform="matrix(-4.37114e-08 -1 -1 4.37114e-08 8.62109 66.5942)" fill="white"/>
<rect width="0.89189" height="0.89189" transform="matrix(-4.37114e-08 -1 -1 4.37114e-08 54.9998 201.863)" fill="white"/>
<rect width="0.89189" height="0.89189" transform="matrix(-4.37114e-08 -1 -1 4.37114e-08 54.9998 132.296)" fill="white"/>
<rect width="0.89189" height="0.89189" transform="matrix(-4.37114e-08 -1 -1 4.37114e-08 54.9998 62.7285)" fill="white"/>
<rect width="0.89189" height="0.89189" transform="matrix(-4.37114e-08 -1 -1 4.37114e-08 24.0808 201.863)" fill="white"/>
<rect width="0.89189" height="0.89189" transform="matrix(-4.37114e-08 -1 -1 4.37114e-08 24.0808 132.296)" fill="white"/>
<rect width="0.89189" height="0.89189" transform="matrix(-4.37114e-08 -1 -1 4.37114e-08 24.0808 62.7285)" fill="white"/>
<rect width="0.89189" height="0.89189" transform="matrix(-4.37114e-08 -1 -1 4.37114e-08 31.8108 201.863)" fill="white"/>
<rect width="0.89189" height="0.89189" transform="matrix(-4.37114e-08 -1 -1 4.37114e-08 31.8108 132.296)" fill="white"/>
<rect width="0.89189" height="0.89189" transform="matrix(-4.37114e-08 -1 -1 4.37114e-08 0.891846 201.863)" fill="white"/>
<rect width="0.89189" height="0.89189" transform="matrix(-4.37114e-08 -1 -1 4.37114e-08 0.891846 132.296)" fill="white"/>
<rect width="0.89189" height="0.89189" transform="matrix(-4.37114e-08 -1 -1 4.37114e-08 0.891846 62.7285)" fill="white"/>
<rect width="0.89189" height="0.89189" transform="matrix(-4.37114e-08 -1 -1 4.37114e-08 47.2695 201.863)" fill="white"/>
<rect width="0.89189" height="0.89189" transform="matrix(-4.37114e-08 -1 -1 4.37114e-08 47.2695 132.296)" fill="white"/>
<rect width="0.89189" height="0.89189" transform="matrix(-4.37114e-08 -1 -1 4.37114e-08 47.2695 62.7285)" fill="white"/>
<rect width="0.89189" height="0.89189" transform="matrix(-4.37114e-08 -1 -1 4.37114e-08 16.3513 201.863)" fill="white"/>
<rect width="0.89189" height="0.89189" transform="matrix(-4.37114e-08 -1 -1 4.37114e-08 16.3513 132.296)" fill="white"/>
<rect width="0.89189" height="0.89189" transform="matrix(-4.37114e-08 -1 -1 4.37114e-08 39.5403 201.863)" fill="white"/>
<rect width="0.89189" height="0.89189" transform="matrix(-4.37114e-08 -1 -1 4.37114e-08 8.62109 201.863)" fill="white"/>
<rect width="0.89189" height="0.89189" transform="matrix(-4.37114e-08 -1 -1 4.37114e-08 8.62109 132.296)" fill="white"/>
<rect width="0.89189" height="0.89189" transform="matrix(-4.37114e-08 -1 -1 4.37114e-08 8.62109 62.7285)" fill="white"/>
<rect width="0.89189" height="0.89189" transform="matrix(-4.37114e-08 -1 -1 4.37114e-08 54.9998 198)" fill="white"/>
<rect width="0.89189" height="0.89189" transform="matrix(-4.37114e-08 -1 -1 4.37114e-08 54.9998 128.432)" fill="white"/>
<rect width="0.89189" height="0.89189" transform="matrix(-4.37114e-08 -1 -1 4.37114e-08 54.9998 58.8647)" fill="white"/>
<rect width="0.89189" height="0.89189" transform="matrix(-4.37114e-08 -1 -1 4.37114e-08 24.0808 198)" fill="white"/>
<rect width="0.89189" height="0.89189" transform="matrix(-4.37114e-08 -1 -1 4.37114e-08 24.0808 128.432)" fill="white"/>
<rect width="0.89189" height="0.89189" transform="matrix(-4.37114e-08 -1 -1 4.37114e-08 24.0808 58.8647)" fill="white"/>
<rect width="0.89189" height="0.89189" transform="matrix(-4.37114e-08 -1 -1 4.37114e-08 31.8108 198)" fill="white"/>
<rect width="0.89189" height="0.89189" transform="matrix(-4.37114e-08 -1 -1 4.37114e-08 31.8108 128.432)" fill="white"/>
<rect width="0.89189" height="0.89189" transform="matrix(-4.37114e-08 -1 -1 4.37114e-08 31.8108 58.8647)" fill="white"/>
<rect width="0.89189" height="0.89189" transform="matrix(-4.37114e-08 -1 -1 4.37114e-08 0.891846 198)" fill="white"/>
<rect width="0.89189" height="0.89189" transform="matrix(-4.37114e-08 -1 -1 4.37114e-08 0.891846 128.432)" fill="white"/>
<rect width="0.89189" height="0.89189" transform="matrix(-4.37114e-08 -1 -1 4.37114e-08 0.891846 58.8647)" fill="white"/>
<rect width="0.89189" height="0.89189" transform="matrix(-4.37114e-08 -1 -1 4.37114e-08 47.2695 198)" fill="white"/>
<rect width="0.89189" height="0.89189" transform="matrix(-4.37114e-08 -1 -1 4.37114e-08 47.2695 128.432)" fill="white"/>
<rect width="0.89189" height="0.89189" transform="matrix(-4.37114e-08 -1 -1 4.37114e-08 47.2695 58.8647)" fill="white"/>
<rect width="0.89189" height="0.89189" transform="matrix(-4.37114e-08 -1 -1 4.37114e-08 16.3513 198)" fill="white"/>
<rect width="0.89189" height="0.89189" transform="matrix(-4.37114e-08 -1 -1 4.37114e-08 16.3513 128.432)" fill="white"/>
<rect width="0.89189" height="0.89189" transform="matrix(-4.37114e-08 -1 -1 4.37114e-08 39.5403 198)" fill="white"/>
<rect width="0.89189" height="0.89189" transform="matrix(-4.37114e-08 -1 -1 4.37114e-08 39.5403 128.432)" fill="white"/>
<rect width="0.89189" height="0.89189" transform="matrix(-4.37114e-08 -1 -1 4.37114e-08 8.62109 198)" fill="white"/>
<rect width="0.89189" height="0.89189" transform="matrix(-4.37114e-08 -1 -1 4.37114e-08 8.62109 128.432)" fill="white"/>
<rect width="0.89189" height="0.89189" transform="matrix(-4.37114e-08 -1 -1 4.37114e-08 8.62109 58.8647)" fill="white"/>
<rect width="0.89189" height="0.89189" transform="matrix(-4.37114e-08 -1 -1 4.37114e-08 54.9998 194.134)" fill="white"/>
<rect width="0.89189" height="0.89189" transform="matrix(-4.37114e-08 -1 -1 4.37114e-08 54.9998 124.567)" fill="white"/>
<rect width="0.89189" height="0.89189" transform="matrix(-4.37114e-08 -1 -1 4.37114e-08 54.9998 54.999)" fill="white"/>
<rect width="0.89189" height="0.89189" transform="matrix(-4.37114e-08 -1 -1 4.37114e-08 24.0808 124.567)" fill="white"/>
<rect width="0.89189" height="0.89189" transform="matrix(-4.37114e-08 -1 -1 4.37114e-08 24.0808 54.999)" fill="white"/>
<rect width="0.89189" height="0.89189" transform="matrix(-4.37114e-08 -1 -1 4.37114e-08 31.8108 124.567)" fill="white"/>
<rect width="0.89189" height="0.89189" transform="matrix(-4.37114e-08 -1 -1 4.37114e-08 31.8108 54.999)" fill="white"/>
<rect width="0.89189" height="0.89189" transform="matrix(-4.37114e-08 -1 -1 4.37114e-08 0.891846 194.134)" fill="white"/>
<rect width="0.89189" height="0.89189" transform="matrix(-4.37114e-08 -1 -1 4.37114e-08 0.891846 124.567)" fill="white"/>
<rect width="0.89189" height="0.89189" transform="matrix(-4.37114e-08 -1 -1 4.37114e-08 0.891846 54.999)" fill="white"/>
<rect width="0.89189" height="0.89189" transform="matrix(-4.37114e-08 -1 -1 4.37114e-08 47.2695 194.134)" fill="white"/>
<rect width="0.89189" height="0.89189" transform="matrix(-4.37114e-08 -1 -1 4.37114e-08 47.2695 124.567)" fill="white"/>
<rect width="0.89189" height="0.89189" transform="matrix(-4.37114e-08 -1 -1 4.37114e-08 47.2695 54.999)" fill="white"/>
<rect width="0.89189" height="0.89189" transform="matrix(-4.37114e-08 -1 -1 4.37114e-08 16.3513 124.567)" fill="white"/>
<rect width="0.89189" height="0.89189" transform="matrix(-4.37114e-08 -1 -1 4.37114e-08 16.3513 54.999)" fill="white"/>
<rect width="0.89189" height="0.89189" transform="matrix(-4.37114e-08 -1 -1 4.37114e-08 39.5403 124.567)" fill="white"/>
<rect width="0.89189" height="0.89189" transform="matrix(-4.37114e-08 -1 -1 4.37114e-08 39.5403 54.999)" fill="white"/>
<rect width="0.89189" height="0.89189" transform="matrix(-4.37114e-08 -1 -1 4.37114e-08 8.62109 194.134)" fill="white"/>
<rect width="0.89189" height="0.89189" transform="matrix(-4.37114e-08 -1 -1 4.37114e-08 8.62109 124.567)" fill="white"/>
<rect width="0.89189" height="0.89189" transform="matrix(-4.37114e-08 -1 -1 4.37114e-08 8.62109 54.999)" fill="white"/>
<rect width="0.89189" height="0.89189" transform="matrix(-4.37114e-08 -1 -1 4.37114e-08 54.9998 190.271)" fill="white"/>
<rect width="0.89189" height="0.89189" transform="matrix(-4.37114e-08 -1 -1 4.37114e-08 54.9998 120.703)" fill="white"/>
<rect width="0.89189" height="0.89189" transform="matrix(-4.37114e-08 -1 -1 4.37114e-08 54.9998 51.1353)" fill="white"/>
<rect width="0.89189" height="0.89189" transform="matrix(-4.37114e-08 -1 -1 4.37114e-08 24.0808 51.1353)" fill="white"/>
<rect width="0.89189" height="0.89189" transform="matrix(-4.37114e-08 -1 -1 4.37114e-08 31.8108 51.1353)" fill="white"/>
<rect width="0.89189" height="0.89189" transform="matrix(-4.37114e-08 -1 -1 4.37114e-08 0.891846 190.271)" fill="white"/>
<rect width="0.89189" height="0.89189" transform="matrix(-4.37114e-08 -1 -1 4.37114e-08 0.891846 120.703)" fill="white"/>
<rect width="0.89189" height="0.89189" transform="matrix(-4.37114e-08 -1 -1 4.37114e-08 0.891846 51.1353)" fill="white"/>
<rect width="0.89189" height="0.89189" transform="matrix(-4.37114e-08 -1 -1 4.37114e-08 47.2695 190.271)" fill="white"/>
<rect width="0.89189" height="0.89189" transform="matrix(-4.37114e-08 -1 -1 4.37114e-08 47.2695 120.703)" fill="white"/>
<rect width="0.89189" height="0.89189" transform="matrix(-4.37114e-08 -1 -1 4.37114e-08 47.2695 51.1353)" fill="white"/>
<rect width="0.89189" height="0.89189" transform="matrix(-4.37114e-08 -1 -1 4.37114e-08 16.3513 51.1353)" fill="white"/>
<rect width="0.89189" height="0.89189" transform="matrix(-4.37114e-08 -1 -1 4.37114e-08 39.5403 51.1353)" fill="white"/>
<rect width="0.89189" height="0.89189" transform="matrix(-4.37114e-08 -1 -1 4.37114e-08 8.62109 190.271)" fill="white"/>
<rect width="0.89189" height="0.89189" transform="matrix(-4.37114e-08 -1 -1 4.37114e-08 8.62109 120.703)" fill="white"/>
<rect width="0.89189" height="0.89189" transform="matrix(-4.37114e-08 -1 -1 4.37114e-08 8.62109 51.1353)" fill="white"/>
<rect width="0.89189" height="0.89189" transform="matrix(-4.37114e-08 -1 -1 4.37114e-08 54.9998 186.405)" fill="white"/>
<rect width="0.89189" height="0.89189" transform="matrix(-4.37114e-08 -1 -1 4.37114e-08 54.9998 116.837)" fill="white"/>
<rect width="0.89189" height="0.89189" transform="matrix(-4.37114e-08 -1 -1 4.37114e-08 54.9998 47.27)" fill="white"/>
<rect width="0.89189" height="0.89189" transform="matrix(-4.37114e-08 -1 -1 4.37114e-08 0.891846 186.405)" fill="white"/>
<rect width="0.89189" height="0.89189" transform="matrix(-4.37114e-08 -1 -1 4.37114e-08 0.891846 116.837)" fill="white"/>
<rect width="0.89189" height="0.89189" transform="matrix(-4.37114e-08 -1 -1 4.37114e-08 0.891846 47.27)" fill="white"/>
<rect width="0.89189" height="0.89189" transform="matrix(-4.37114e-08 -1 -1 4.37114e-08 47.2695 186.405)" fill="white"/>
<rect width="0.89189" height="0.89189" transform="matrix(-4.37114e-08 -1 -1 4.37114e-08 47.2695 116.837)" fill="white"/>
<rect width="0.89189" height="0.89189" transform="matrix(-4.37114e-08 -1 -1 4.37114e-08 47.2695 47.27)" fill="white"/>
<rect width="0.89189" height="0.89189" transform="matrix(-4.37114e-08 -1 -1 4.37114e-08 8.62109 186.405)" fill="white"/>
<rect width="0.89189" height="0.89189" transform="matrix(-4.37114e-08 -1 -1 4.37114e-08 8.62109 116.837)" fill="white"/>
<rect width="0.89189" height="0.89189" transform="matrix(-4.37114e-08 -1 -1 4.37114e-08 8.62109 47.27)" fill="white"/>
<rect width="0.89189" height="0.89189" transform="matrix(-4.37114e-08 -1 -1 4.37114e-08 54.9998 182.54)" fill="white"/>
<rect width="0.89189" height="0.89189" transform="matrix(-4.37114e-08 -1 -1 4.37114e-08 54.9998 112.972)" fill="white"/>
<rect width="0.89189" height="0.89189" transform="matrix(-4.37114e-08 -1 -1 4.37114e-08 54.9998 43.4043)" fill="white"/>
<rect width="0.89189" height="0.89189" transform="matrix(-4.37114e-08 -1 -1 4.37114e-08 0.891846 182.54)" fill="white"/>
<rect width="0.89189" height="0.89189" transform="matrix(-4.37114e-08 -1 -1 4.37114e-08 0.891846 112.972)" fill="white"/>
<rect width="0.89189" height="0.89189" transform="matrix(-4.37114e-08 -1 -1 4.37114e-08 0.891846 43.4043)" fill="white"/>
<rect width="0.89189" height="0.89189" transform="matrix(-4.37114e-08 -1 -1 4.37114e-08 47.2695 182.54)" fill="white"/>
<rect width="0.89189" height="0.89189" transform="matrix(-4.37114e-08 -1 -1 4.37114e-08 47.2695 112.972)" fill="white"/>
<rect width="0.89189" height="0.89189" transform="matrix(-4.37114e-08 -1 -1 4.37114e-08 47.2695 43.4043)" fill="white"/>
<rect width="0.89189" height="0.89189" transform="matrix(-4.37114e-08 -1 -1 4.37114e-08 16.3513 182.54)" fill="white"/>
<rect width="0.89189" height="0.89189" transform="matrix(-4.37114e-08 -1 -1 4.37114e-08 39.5403 182.54)" fill="white"/>
<rect width="0.89189" height="0.89189" transform="matrix(-4.37114e-08 -1 -1 4.37114e-08 8.62109 182.54)" fill="white"/>
<rect width="0.89189" height="0.89189" transform="matrix(-4.37114e-08 -1 -1 4.37114e-08 8.62109 112.972)" fill="white"/>
<rect width="0.89189" height="0.89189" transform="matrix(-4.37114e-08 -1 -1 4.37114e-08 8.62109 43.4043)" fill="white"/>
<rect width="0.89189" height="0.89189" transform="matrix(-4.37114e-08 -1 -1 4.37114e-08 54.9998 178.675)" fill="white"/>
<rect width="0.89189" height="0.89189" transform="matrix(-4.37114e-08 -1 -1 4.37114e-08 54.9998 109.108)" fill="white"/>
<rect width="0.89189" height="0.89189" transform="matrix(-4.37114e-08 -1 -1 4.37114e-08 54.9998 39.5405)" fill="white"/>
<rect width="0.89189" height="0.89189" transform="matrix(-4.37114e-08 -1 -1 4.37114e-08 31.8108 109.108)" fill="white"/>
<rect width="0.89189" height="0.89189" transform="matrix(-4.37114e-08 -1 -1 4.37114e-08 0.891846 178.675)" fill="white"/>
<rect width="0.89189" height="0.89189" transform="matrix(-4.37114e-08 -1 -1 4.37114e-08 0.891846 109.108)" fill="white"/>
<rect width="0.89189" height="0.89189" transform="matrix(-4.37114e-08 -1 -1 4.37114e-08 0.891846 39.5405)" fill="white"/>
<rect width="0.89189" height="0.89189" transform="matrix(-4.37114e-08 -1 -1 4.37114e-08 47.2695 178.675)" fill="white"/>
<rect width="0.89189" height="0.89189" transform="matrix(-4.37114e-08 -1 -1 4.37114e-08 47.2695 109.108)" fill="white"/>
<rect width="0.89189" height="0.89189" transform="matrix(-4.37114e-08 -1 -1 4.37114e-08 47.2695 39.5405)" fill="white"/>
<rect width="0.89189" height="0.89189" transform="matrix(-4.37114e-08 -1 -1 4.37114e-08 16.3513 178.675)" fill="white"/>
<rect width="0.89189" height="0.89189" transform="matrix(-4.37114e-08 -1 -1 4.37114e-08 16.3513 109.108)" fill="white"/>
<rect width="0.89189" height="0.89189" transform="matrix(-4.37114e-08 -1 -1 4.37114e-08 39.5403 178.675)" fill="white"/>
<rect width="0.89189" height="0.89189" transform="matrix(-4.37114e-08 -1 -1 4.37114e-08 8.62109 178.675)" fill="white"/>
<rect width="0.89189" height="0.89189" transform="matrix(-4.37114e-08 -1 -1 4.37114e-08 8.62109 109.108)" fill="white"/>
<rect width="0.89189" height="0.89189" transform="matrix(-4.37114e-08 -1 -1 4.37114e-08 8.62109 39.5405)" fill="white"/>
<rect width="0.89189" height="0.89189" transform="matrix(-4.37114e-08 -1 -1 4.37114e-08 54.9998 174.81)" fill="white"/>
<rect width="0.89189" height="0.89189" transform="matrix(-4.37114e-08 -1 -1 4.37114e-08 54.9998 105.243)" fill="white"/>
<rect width="0.89189" height="0.89189" transform="matrix(-4.37114e-08 -1 -1 4.37114e-08 54.9998 35.6748)" fill="white"/>
<rect width="0.89189" height="0.89189" transform="matrix(-4.37114e-08 -1 -1 4.37114e-08 31.8108 105.243)" fill="white"/>
<rect width="0.89189" height="0.89189" transform="matrix(-4.37114e-08 -1 -1 4.37114e-08 0.891846 174.81)" fill="white"/>
<rect width="0.89189" height="0.89189" transform="matrix(-4.37114e-08 -1 -1 4.37114e-08 0.891846 105.243)" fill="white"/>
<rect width="0.89189" height="0.89189" transform="matrix(-4.37114e-08 -1 -1 4.37114e-08 0.891846 35.6748)" fill="white"/>
<rect width="0.89189" height="0.89189" transform="matrix(-4.37114e-08 -1 -1 4.37114e-08 47.2695 174.81)" fill="white"/>
<rect width="0.89189" height="0.89189" transform="matrix(-4.37114e-08 -1 -1 4.37114e-08 47.2695 105.243)" fill="white"/>
<rect width="0.89189" height="0.89189" transform="matrix(-4.37114e-08 -1 -1 4.37114e-08 47.2695 35.6748)" fill="white"/>
<rect width="0.89189" height="0.89189" transform="matrix(-4.37114e-08 -1 -1 4.37114e-08 16.3513 35.6748)" fill="white"/>
<rect width="0.89189" height="0.89189" transform="matrix(-4.37114e-08 -1 -1 4.37114e-08 8.62109 174.81)" fill="white"/>
<rect width="0.89189" height="0.89189" transform="matrix(-4.37114e-08 -1 -1 4.37114e-08 8.62109 105.243)" fill="white"/>
<rect width="0.89189" height="0.89189" transform="matrix(-4.37114e-08 -1 -1 4.37114e-08 8.62109 35.6748)" fill="white"/>
<rect width="0.89189" height="0.89189" transform="matrix(-4.37114e-08 -1 -1 4.37114e-08 54.9998 170.946)" fill="white"/>
<rect width="0.89189" height="0.89189" transform="matrix(-4.37114e-08 -1 -1 4.37114e-08 54.9998 101.377)" fill="white"/>
<rect width="0.89189" height="0.89189" transform="matrix(-4.37114e-08 -1 -1 4.37114e-08 54.9998 31.8096)" fill="white"/>
<rect width="0.89189" height="0.89189" transform="matrix(-4.37114e-08 -1 -1 4.37114e-08 0.891846 170.946)" fill="white"/>
<rect width="0.89189" height="0.89189" transform="matrix(-4.37114e-08 -1 -1 4.37114e-08 0.891846 101.377)" fill="white"/>
<rect width="0.89189" height="0.89189" transform="matrix(-4.37114e-08 -1 -1 4.37114e-08 0.891846 31.8096)" fill="white"/>
<rect width="0.89189" height="0.89189" transform="matrix(-4.37114e-08 -1 -1 4.37114e-08 47.2695 170.946)" fill="white"/>
<rect width="0.89189" height="0.89189" transform="matrix(-4.37114e-08 -1 -1 4.37114e-08 47.2695 101.377)" fill="white"/>
<rect width="0.89189" height="0.89189" transform="matrix(-4.37114e-08 -1 -1 4.37114e-08 47.2695 31.8096)" fill="white"/>
<rect width="0.89189" height="0.89189" transform="matrix(-4.37114e-08 -1 -1 4.37114e-08 39.5403 31.8096)" fill="white"/>
<rect width="0.89189" height="0.89189" transform="matrix(-4.37114e-08 -1 -1 4.37114e-08 8.62109 170.946)" fill="white"/>
<rect width="0.89189" height="0.89189" transform="matrix(-4.37114e-08 -1 -1 4.37114e-08 8.62109 101.377)" fill="white"/>
<rect width="0.89189" height="0.89189" transform="matrix(-4.37114e-08 -1 -1 4.37114e-08 8.62109 31.8096)" fill="white"/>
<rect width="0.89189" height="0.89189" transform="matrix(-4.37114e-08 -1 -1 4.37114e-08 54.9998 167.081)" fill="white"/>
<rect width="0.89189" height="0.89189" transform="matrix(-4.37114e-08 -1 -1 4.37114e-08 54.9998 97.5132)" fill="white"/>
<rect width="0.89189" height="0.89189" transform="matrix(-4.37114e-08 -1 -1 4.37114e-08 54.9998 27.9458)" fill="white"/>
<rect width="0.89189" height="0.89189" transform="matrix(-4.37114e-08 -1 -1 4.37114e-08 24.0808 97.5132)" fill="white"/>
<rect width="0.89189" height="0.89189" transform="matrix(-4.37114e-08 -1 -1 4.37114e-08 0.891846 167.081)" fill="white"/>
<rect width="0.89189" height="0.89189" transform="matrix(-4.37114e-08 -1 -1 4.37114e-08 0.891846 97.5132)" fill="white"/>
<rect width="0.89189" height="0.89189" transform="matrix(-4.37114e-08 -1 -1 4.37114e-08 0.891846 27.9458)" fill="white"/>
<rect width="0.89189" height="0.89189" transform="matrix(-4.37114e-08 -1 -1 4.37114e-08 54.9998 147.756)" fill="white"/>
<rect width="0.89189" height="0.89189" transform="matrix(-4.37114e-08 -1 -1 4.37114e-08 54.9998 78.189)" fill="white"/>
<rect width="0.89189" height="0.89189" transform="matrix(-4.37114e-08 -1 -1 4.37114e-08 54.9998 8.62158)" fill="white"/>
<rect width="0.89189" height="0.89189" transform="matrix(-4.37114e-08 -1 -1 4.37114e-08 24.0808 8.62158)" fill="white"/>
<rect width="0.89189" height="0.89189" transform="matrix(-4.37114e-08 -1 -1 4.37114e-08 31.8108 78.189)" fill="white"/>
<rect width="0.89189" height="0.89189" transform="matrix(-4.37114e-08 -1 -1 4.37114e-08 31.8108 8.62158)" fill="white"/>
<rect width="0.89189" height="0.89189" transform="matrix(-4.37114e-08 -1 -1 4.37114e-08 0.891846 147.756)" fill="white"/>
<rect width="0.89189" height="0.89189" transform="matrix(-4.37114e-08 -1 -1 4.37114e-08 0.891846 78.189)" fill="white"/>
<rect width="0.89189" height="0.89189" transform="matrix(-4.37114e-08 -1 -1 4.37114e-08 0.891846 8.62158)" fill="white"/>
<rect width="0.89189" height="0.89189" transform="matrix(-4.37114e-08 -1 -1 4.37114e-08 47.2695 167.081)" fill="white"/>
<rect width="0.89189" height="0.89189" transform="matrix(-4.37114e-08 -1 -1 4.37114e-08 47.2695 97.5132)" fill="white"/>
<rect width="0.89189" height="0.89189" transform="matrix(-4.37114e-08 -1 -1 4.37114e-08 47.2695 27.9458)" fill="white"/>
<rect width="0.89189" height="0.89189" transform="matrix(-4.37114e-08 -1 -1 4.37114e-08 47.2695 147.756)" fill="white"/>
<rect width="0.89189" height="0.89189" transform="matrix(-4.37114e-08 -1 -1 4.37114e-08 47.2695 78.189)" fill="white"/>
<rect width="0.89189" height="0.89189" transform="matrix(-4.37114e-08 -1 -1 4.37114e-08 47.2695 8.62158)" fill="white"/>
<rect width="0.89189" height="0.89189" transform="matrix(-4.37114e-08 -1 -1 4.37114e-08 16.3513 8.62158)" fill="white"/>
<rect width="0.89189" height="0.89189" transform="matrix(-4.37114e-08 -1 -1 4.37114e-08 39.5403 27.9458)" fill="white"/>
<rect width="0.89189" height="0.89189" transform="matrix(-4.37114e-08 -1 -1 4.37114e-08 8.62109 167.081)" fill="white"/>
<rect width="0.89189" height="0.89189" transform="matrix(-4.37114e-08 -1 -1 4.37114e-08 8.62109 97.5132)" fill="white"/>
<rect width="0.89189" height="0.89189" transform="matrix(-4.37114e-08 -1 -1 4.37114e-08 8.62109 27.9458)" fill="white"/>
<rect width="0.89189" height="0.89189" transform="matrix(-4.37114e-08 -1 -1 4.37114e-08 39.5403 8.62158)" fill="white"/>
<rect width="0.89189" height="0.89189" transform="matrix(-4.37114e-08 -1 -1 4.37114e-08 8.62109 147.756)" fill="white"/>
<rect width="0.89189" height="0.89189" transform="matrix(-4.37114e-08 -1 -1 4.37114e-08 8.62109 78.189)" fill="white"/>
<rect width="0.89189" height="0.89189" transform="matrix(-4.37114e-08 -1 -1 4.37114e-08 8.62109 8.62158)" fill="white"/>
<rect width="0.89189" height="0.89189" transform="matrix(-4.37114e-08 -1 -1 4.37114e-08 54.9998 163.215)" fill="white"/>
<rect width="0.89189" height="0.89189" transform="matrix(-4.37114e-08 -1 -1 4.37114e-08 54.9998 93.6475)" fill="white"/>
<rect width="0.89189" height="0.89189" transform="matrix(-4.37114e-08 -1 -1 4.37114e-08 54.9998 24.0801)" fill="white"/>
<rect width="0.89189" height="0.89189" transform="matrix(-4.37114e-08 -1 -1 4.37114e-08 24.0808 163.215)" fill="white"/>
<rect width="0.89189" height="0.89189" transform="matrix(-4.37114e-08 -1 -1 4.37114e-08 24.0808 93.6475)" fill="white"/>
<rect width="0.89189" height="0.89189" transform="matrix(-4.37114e-08 -1 -1 4.37114e-08 31.8108 163.215)" fill="white"/>
<rect width="0.89189" height="0.89189" transform="matrix(-4.37114e-08 -1 -1 4.37114e-08 0.891846 163.215)" fill="white"/>
<rect width="0.89189" height="0.89189" transform="matrix(-4.37114e-08 -1 -1 4.37114e-08 0.891846 93.6475)" fill="white"/>
<rect width="0.89189" height="0.89189" transform="matrix(-4.37114e-08 -1 -1 4.37114e-08 0.891846 24.0801)" fill="white"/>
<rect width="0.89189" height="0.89189" transform="matrix(-4.37114e-08 -1 -1 4.37114e-08 54.9998 143.891)" fill="white"/>
<rect width="0.89189" height="0.89189" transform="matrix(-4.37114e-08 -1 -1 4.37114e-08 54.9998 74.3232)" fill="white"/>
<rect width="0.89189" height="0.89189" transform="matrix(-4.37114e-08 -1 -1 4.37114e-08 54.9998 4.75586)" fill="white"/>
<rect width="0.89189" height="0.89189" transform="matrix(-4.37114e-08 -1 -1 4.37114e-08 24.0808 4.75586)" fill="white"/>
<rect width="0.89189" height="0.89189" transform="matrix(-4.37114e-08 -1 -1 4.37114e-08 31.8108 74.3232)" fill="white"/>
<rect width="0.89189" height="0.89189" transform="matrix(-4.37114e-08 -1 -1 4.37114e-08 31.8108 4.75586)" fill="white"/>
<rect width="0.89189" height="0.89189" transform="matrix(-4.37114e-08 -1 -1 4.37114e-08 0.891846 143.891)" fill="white"/>
<rect width="0.89189" height="0.89189" transform="matrix(-4.37114e-08 -1 -1 4.37114e-08 0.891846 74.3232)" fill="white"/>
<rect width="0.89189" height="0.89189" transform="matrix(-4.37114e-08 -1 -1 4.37114e-08 0.891846 4.75586)" fill="white"/>
<rect width="0.89189" height="0.89189" transform="matrix(-4.37114e-08 -1 -1 4.37114e-08 47.2695 163.215)" fill="white"/>
<rect width="0.89189" height="0.89189" transform="matrix(-4.37114e-08 -1 -1 4.37114e-08 47.2695 93.6475)" fill="white"/>
<rect width="0.89189" height="0.89189" transform="matrix(-4.37114e-08 -1 -1 4.37114e-08 47.2695 24.0801)" fill="white"/>
<rect width="0.89189" height="0.89189" transform="matrix(-4.37114e-08 -1 -1 4.37114e-08 16.3513 163.215)" fill="white"/>
<rect width="0.89189" height="0.89189" transform="matrix(-4.37114e-08 -1 -1 4.37114e-08 16.3513 93.6475)" fill="white"/>
<rect width="0.89189" height="0.89189" transform="matrix(-4.37114e-08 -1 -1 4.37114e-08 16.3513 24.0801)" fill="white"/>
<rect width="0.89189" height="0.89189" transform="matrix(-4.37114e-08 -1 -1 4.37114e-08 47.2695 143.891)" fill="white"/>
<rect width="0.89189" height="0.89189" transform="matrix(-4.37114e-08 -1 -1 4.37114e-08 47.2695 74.3232)" fill="white"/>
<rect width="0.89189" height="0.89189" transform="matrix(-4.37114e-08 -1 -1 4.37114e-08 47.2695 4.75586)" fill="white"/>
<rect width="0.89189" height="0.89189" transform="matrix(-4.37114e-08 -1 -1 4.37114e-08 16.3513 4.75586)" fill="white"/>
<rect width="0.89189" height="0.89189" transform="matrix(-4.37114e-08 -1 -1 4.37114e-08 39.5403 163.215)" fill="white"/>
<rect width="0.89189" height="0.89189" transform="matrix(-4.37114e-08 -1 -1 4.37114e-08 39.5403 93.6475)" fill="white"/>
<rect width="0.89189" height="0.89189" transform="matrix(-4.37114e-08 -1 -1 4.37114e-08 8.62109 163.215)" fill="white"/>
<rect width="0.89189" height="0.89189" transform="matrix(-4.37114e-08 -1 -1 4.37114e-08 8.62109 93.6475)" fill="white"/>
<rect width="0.89189" height="0.89189" transform="matrix(-4.37114e-08 -1 -1 4.37114e-08 8.62109 24.0801)" fill="white"/>
<rect width="0.89189" height="0.89189" transform="matrix(-4.37114e-08 -1 -1 4.37114e-08 39.5403 4.75586)" fill="white"/>
<rect width="0.89189" height="0.89189" transform="matrix(-4.37114e-08 -1 -1 4.37114e-08 8.62109 143.891)" fill="white"/>
<rect width="0.89189" height="0.89189" transform="matrix(-4.37114e-08 -1 -1 4.37114e-08 8.62109 74.3232)" fill="white"/>
<rect width="0.89189" height="0.89189" transform="matrix(-4.37114e-08 -1 -1 4.37114e-08 8.62109 4.75586)" fill="white"/>
<rect width="0.89189" height="0.89189" transform="matrix(-4.37114e-08 -1 -1 4.37114e-08 54.9998 159.351)" fill="white"/>
<rect width="0.89189" height="0.89189" transform="matrix(-4.37114e-08 -1 -1 4.37114e-08 54.9998 89.7837)" fill="white"/>
<rect width="0.89189" height="0.89189" transform="matrix(-4.37114e-08 -1 -1 4.37114e-08 54.9998 20.2163)" fill="white"/>
<rect width="0.89189" height="0.89189" transform="matrix(-4.37114e-08 -1 -1 4.37114e-08 24.0808 159.351)" fill="white"/>
<rect width="0.89189" height="0.89189" transform="matrix(-4.37114e-08 -1 -1 4.37114e-08 24.0808 89.7837)" fill="white"/>
<rect width="0.89189" height="0.89189" transform="matrix(-4.37114e-08 -1 -1 4.37114e-08 31.8108 159.351)" fill="white"/>
<rect width="0.89189" height="0.89189" transform="matrix(-4.37114e-08 -1 -1 4.37114e-08 31.8108 89.7837)" fill="white"/>
<rect width="0.89189" height="0.89189" transform="matrix(-4.37114e-08 -1 -1 4.37114e-08 0.891846 159.351)" fill="white"/>
<rect width="0.89189" height="0.89189" transform="matrix(-4.37114e-08 -1 -1 4.37114e-08 0.891846 89.7837)" fill="white"/>
<rect width="0.89189" height="0.89189" transform="matrix(-4.37114e-08 -1 -1 4.37114e-08 0.891846 20.2163)" fill="white"/>
<rect width="0.89189" height="0.89189" transform="matrix(-4.37114e-08 -1 -1 4.37114e-08 54.9998 140.027)" fill="white"/>
<rect width="0.89189" height="0.89189" transform="matrix(-4.37114e-08 -1 -1 4.37114e-08 54.9998 70.4595)" fill="white"/>
<rect width="0.89189" height="0.89189" transform="matrix(-4.37114e-08 -1 -1 4.37114e-08 54.9998 0.89209)" fill="white"/>
<rect width="0.89189" height="0.89189" transform="matrix(-4.37114e-08 -1 -1 4.37114e-08 24.0808 0.89209)" fill="white"/>
<rect width="0.89189" height="0.89189" transform="matrix(-4.37114e-08 -1 -1 4.37114e-08 31.8108 0.89209)" fill="white"/>
<rect width="0.89189" height="0.89189" transform="matrix(-4.37114e-08 -1 -1 4.37114e-08 0.891846 140.027)" fill="white"/>
<rect width="0.89189" height="0.89189" transform="matrix(-4.37114e-08 -1 -1 4.37114e-08 0.891846 70.4595)" fill="white"/>
<rect width="0.89189" height="0.89189" transform="matrix(-4.37114e-08 -1 -1 4.37114e-08 0.891846 0.89209)" fill="white"/>
<rect width="0.89189" height="0.89189" transform="matrix(-4.37114e-08 -1 -1 4.37114e-08 47.2695 159.351)" fill="white"/>
<rect width="0.89189" height="0.89189" transform="matrix(-4.37114e-08 -1 -1 4.37114e-08 47.2695 89.7837)" fill="white"/>
<rect width="0.89189" height="0.89189" transform="matrix(-4.37114e-08 -1 -1 4.37114e-08 47.2695 20.2163)" fill="white"/>
<rect width="0.89189" height="0.89189" transform="matrix(-4.37114e-08 -1 -1 4.37114e-08 16.3513 159.351)" fill="white"/>
<rect width="0.89189" height="0.89189" transform="matrix(-4.37114e-08 -1 -1 4.37114e-08 16.3513 89.7837)" fill="white"/>
<rect width="0.89189" height="0.89189" transform="matrix(-4.37114e-08 -1 -1 4.37114e-08 47.2695 140.027)" fill="white"/>
<rect width="0.89189" height="0.89189" transform="matrix(-4.37114e-08 -1 -1 4.37114e-08 47.2695 70.4595)" fill="white"/>
<rect width="0.89189" height="0.89189" transform="matrix(-4.37114e-08 -1 -1 4.37114e-08 47.2695 0.89209)" fill="white"/>
<rect width="0.89189" height="0.89189" transform="matrix(-4.37114e-08 -1 -1 4.37114e-08 16.3513 0.89209)" fill="white"/>
<rect width="0.89189" height="0.89189" transform="matrix(-4.37114e-08 -1 -1 4.37114e-08 39.5403 159.351)" fill="white"/>
<rect width="0.89189" height="0.89189" transform="matrix(-4.37114e-08 -1 -1 4.37114e-08 39.5403 89.7837)" fill="white"/>
<rect width="0.89189" height="0.89189" transform="matrix(-4.37114e-08 -1 -1 4.37114e-08 8.62109 159.351)" fill="white"/>
<rect width="0.89189" height="0.89189" transform="matrix(-4.37114e-08 -1 -1 4.37114e-08 8.62109 89.7837)" fill="white"/>
<rect width="0.89189" height="0.89189" transform="matrix(-4.37114e-08 -1 -1 4.37114e-08 8.62109 20.2163)" fill="white"/>
<rect width="0.89189" height="0.89189" transform="matrix(-4.37114e-08 -1 -1 4.37114e-08 39.5403 0.89209)" fill="white"/>
<rect width="0.89189" height="0.89189" transform="matrix(-4.37114e-08 -1 -1 4.37114e-08 8.62109 140.027)" fill="white"/>
<rect width="0.89189" height="0.89189" transform="matrix(-4.37114e-08 -1 -1 4.37114e-08 8.62109 70.4595)" fill="white"/>
<rect width="0.89189" height="0.89189" transform="matrix(-4.37114e-08 -1 -1 4.37114e-08 8.62109 0.89209)" fill="white"/>
<rect width="0.89189" height="0.89189" transform="matrix(-4.37114e-08 -1 -1 4.37114e-08 54.9998 155.486)" fill="white"/>
<rect width="0.89189" height="0.89189" transform="matrix(-4.37114e-08 -1 -1 4.37114e-08 54.9998 85.9185)" fill="white"/>
<rect width="0.89189" height="0.89189" transform="matrix(-4.37114e-08 -1 -1 4.37114e-08 54.9998 16.3511)" fill="white"/>
<rect width="0.89189" height="0.89189" transform="matrix(-4.37114e-08 -1 -1 4.37114e-08 24.0808 155.486)" fill="white"/>
<rect width="0.89189" height="0.89189" transform="matrix(-4.37114e-08 -1 -1 4.37114e-08 24.0808 85.9185)" fill="white"/>
<rect width="0.89189" height="0.89189" transform="matrix(-4.37114e-08 -1 -1 4.37114e-08 31.8108 155.486)" fill="white"/>
<rect width="0.89189" height="0.89189" transform="matrix(-4.37114e-08 -1 -1 4.37114e-08 31.8108 85.9185)" fill="white"/>
<rect width="0.89189" height="0.89189" transform="matrix(-4.37114e-08 -1 -1 4.37114e-08 0.891846 155.486)" fill="white"/>
<rect width="0.89189" height="0.89189" transform="matrix(-4.37114e-08 -1 -1 4.37114e-08 0.891846 85.9185)" fill="white"/>
<rect width="0.89189" height="0.89189" transform="matrix(-4.37114e-08 -1 -1 4.37114e-08 0.891846 16.3511)" fill="white"/>
<rect width="0.89189" height="0.89189" transform="matrix(-4.37114e-08 -1 -1 4.37114e-08 47.2695 155.486)" fill="white"/>
<rect width="0.89189" height="0.89189" transform="matrix(-4.37114e-08 -1 -1 4.37114e-08 47.2695 85.9185)" fill="white"/>
<rect width="0.89189" height="0.89189" transform="matrix(-4.37114e-08 -1 -1 4.37114e-08 47.2695 16.3511)" fill="white"/>
<rect width="0.89189" height="0.89189" transform="matrix(-4.37114e-08 -1 -1 4.37114e-08 16.3513 155.486)" fill="white"/>
<rect width="0.89189" height="0.89189" transform="matrix(-4.37114e-08 -1 -1 4.37114e-08 16.3513 85.9185)" fill="white"/>
<rect width="0.89189" height="0.89189" transform="matrix(-4.37114e-08 -1 -1 4.37114e-08 39.5403 85.9185)" fill="white"/>
<rect width="0.89189" height="0.89189" transform="matrix(-4.37114e-08 -1 -1 4.37114e-08 8.62109 155.486)" fill="white"/>
<rect width="0.89189" height="0.89189" transform="matrix(-4.37114e-08 -1 -1 4.37114e-08 8.62109 85.9185)" fill="white"/>
<rect width="0.89189" height="0.89189" transform="matrix(-4.37114e-08 -1 -1 4.37114e-08 8.62109 16.3511)" fill="white"/>
<rect width="0.89189" height="0.89189" transform="matrix(-4.37114e-08 -1 -1 4.37114e-08 54.9998 151.62)" fill="white"/>
<rect width="0.89189" height="0.89189" transform="matrix(-4.37114e-08 -1 -1 4.37114e-08 54.9998 82.0527)" fill="white"/>
<rect width="0.89189" height="0.89189" transform="matrix(-4.37114e-08 -1 -1 4.37114e-08 54.9998 12.4854)" fill="white"/>
<rect width="0.89189" height="0.89189" transform="matrix(-4.37114e-08 -1 -1 4.37114e-08 24.0808 151.62)" fill="white"/>
<rect width="0.89189" height="0.89189" transform="matrix(-4.37114e-08 -1 -1 4.37114e-08 24.0808 82.0527)" fill="white"/>
<rect width="0.89189" height="0.89189" transform="matrix(-4.37114e-08 -1 -1 4.37114e-08 31.8108 151.62)" fill="white"/>
<rect width="0.89189" height="0.89189" transform="matrix(-4.37114e-08 -1 -1 4.37114e-08 31.8108 82.0527)" fill="white"/>
<rect width="0.89189" height="0.89189" transform="matrix(-4.37114e-08 -1 -1 4.37114e-08 0.891846 151.62)" fill="white"/>
<rect width="0.89189" height="0.89189" transform="matrix(-4.37114e-08 -1 -1 4.37114e-08 0.891846 82.0527)" fill="white"/>
<rect width="0.89189" height="0.89189" transform="matrix(-4.37114e-08 -1 -1 4.37114e-08 0.891846 12.4854)" fill="white"/>
<rect width="0.89189" height="0.89189" transform="matrix(-4.37114e-08 -1 -1 4.37114e-08 47.2695 151.62)" fill="white"/>
<rect width="0.89189" height="0.89189" transform="matrix(-4.37114e-08 -1 -1 4.37114e-08 47.2695 82.0527)" fill="white"/>
<rect width="0.89189" height="0.89189" transform="matrix(-4.37114e-08 -1 -1 4.37114e-08 47.2695 12.4854)" fill="white"/>
<rect width="0.89189" height="0.89189" transform="matrix(-4.37114e-08 -1 -1 4.37114e-08 16.3513 151.62)" fill="white"/>
<rect width="0.89189" height="0.89189" transform="matrix(-4.37114e-08 -1 -1 4.37114e-08 8.62109 151.62)" fill="white"/>
<rect width="0.89189" height="0.89189" transform="matrix(-4.37114e-08 -1 -1 4.37114e-08 8.62109 82.0527)" fill="white"/>
<rect width="0.89189" height="0.89189" transform="matrix(-4.37114e-08 -1 -1 4.37114e-08 8.62109 12.4854)" fill="white"/>
<rect width="0.89189" height="0.89189" transform="matrix(-4.37114e-08 -1 -1 4.37114e-08 51.135 205.729)" fill="white"/>
<rect width="0.89189" height="0.89189" transform="matrix(-4.37114e-08 -1 -1 4.37114e-08 51.135 136.162)" fill="white"/>
<rect width="0.89189" height="0.89189" transform="matrix(-4.37114e-08 -1 -1 4.37114e-08 51.135 66.5942)" fill="white"/>
<rect width="0.89189" height="0.89189" transform="matrix(-4.37114e-08 -1 -1 4.37114e-08 20.2161 205.729)" fill="white"/>
<rect width="0.89189" height="0.89189" transform="matrix(-4.37114e-08 -1 -1 4.37114e-08 20.2161 136.162)" fill="white"/>
<rect width="0.89189" height="0.89189" transform="matrix(-4.37114e-08 -1 -1 4.37114e-08 27.9453 205.729)" fill="white"/>
<rect width="0.89189" height="0.89189" transform="matrix(-4.37114e-08 -1 -1 4.37114e-08 27.9453 136.162)" fill="white"/>
<rect width="0.89189" height="0.89189" transform="matrix(-4.37114e-08 -1 -1 4.37114e-08 43.4048 205.729)" fill="white"/>
<rect width="0.89189" height="0.89189" transform="matrix(-4.37114e-08 -1 -1 4.37114e-08 12.4858 205.729)" fill="white"/>
<rect width="0.89189" height="0.89189" transform="matrix(-4.37114e-08 -1 -1 4.37114e-08 12.4858 136.162)" fill="white"/>
<rect width="0.89189" height="0.89189" transform="matrix(-4.37114e-08 -1 -1 4.37114e-08 35.6755 205.729)" fill="white"/>
<rect width="0.89189" height="0.89189" transform="matrix(-4.37114e-08 -1 -1 4.37114e-08 4.75659 205.729)" fill="white"/>
<rect width="0.89189" height="0.89189" transform="matrix(-4.37114e-08 -1 -1 4.37114e-08 4.75659 136.162)" fill="white"/>
<rect width="0.89189" height="0.89189" transform="matrix(-4.37114e-08 -1 -1 4.37114e-08 4.75659 66.5942)" fill="white"/>
<rect width="0.89189" height="0.89189" transform="matrix(-4.37114e-08 -1 -1 4.37114e-08 51.135 201.863)" fill="white"/>
<rect width="0.89189" height="0.89189" transform="matrix(-4.37114e-08 -1 -1 4.37114e-08 51.135 132.296)" fill="white"/>
<rect width="0.89189" height="0.89189" transform="matrix(-4.37114e-08 -1 -1 4.37114e-08 51.135 62.7285)" fill="white"/>
<rect width="0.89189" height="0.89189" transform="matrix(-4.37114e-08 -1 -1 4.37114e-08 20.2161 201.863)" fill="white"/>
<rect width="0.89189" height="0.89189" transform="matrix(-4.37114e-08 -1 -1 4.37114e-08 20.2161 132.296)" fill="white"/>
<rect width="0.89189" height="0.89189" transform="matrix(-4.37114e-08 -1 -1 4.37114e-08 27.9453 201.863)" fill="white"/>
<rect width="0.89189" height="0.89189" transform="matrix(-4.37114e-08 -1 -1 4.37114e-08 27.9453 132.296)" fill="white"/>
<rect width="0.89189" height="0.89189" transform="matrix(-4.37114e-08 -1 -1 4.37114e-08 27.9453 62.7285)" fill="white"/>
<rect width="0.89189" height="0.89189" transform="matrix(-4.37114e-08 -1 -1 4.37114e-08 43.4048 201.863)" fill="white"/>
<rect width="0.89189" height="0.89189" transform="matrix(-4.37114e-08 -1 -1 4.37114e-08 12.4858 201.863)" fill="white"/>
<rect width="0.89189" height="0.89189" transform="matrix(-4.37114e-08 -1 -1 4.37114e-08 12.4858 132.296)" fill="white"/>
<rect width="0.89189" height="0.89189" transform="matrix(-4.37114e-08 -1 -1 4.37114e-08 35.6755 201.863)" fill="white"/>
<rect width="0.89189" height="0.89189" transform="matrix(-4.37114e-08 -1 -1 4.37114e-08 4.75659 201.863)" fill="white"/>
<rect width="0.89189" height="0.89189" transform="matrix(-4.37114e-08 -1 -1 4.37114e-08 4.75659 132.296)" fill="white"/>
<rect width="0.89189" height="0.89189" transform="matrix(-4.37114e-08 -1 -1 4.37114e-08 4.75659 62.7285)" fill="white"/>
<rect width="0.89189" height="0.89189" transform="matrix(-4.37114e-08 -1 -1 4.37114e-08 51.135 198)" fill="white"/>
<rect width="0.89189" height="0.89189" transform="matrix(-4.37114e-08 -1 -1 4.37114e-08 51.135 128.432)" fill="white"/>
<rect width="0.89189" height="0.89189" transform="matrix(-4.37114e-08 -1 -1 4.37114e-08 51.135 58.8647)" fill="white"/>
<rect width="0.89189" height="0.89189" transform="matrix(-4.37114e-08 -1 -1 4.37114e-08 20.2161 198)" fill="white"/>
<rect width="0.89189" height="0.89189" transform="matrix(-4.37114e-08 -1 -1 4.37114e-08 20.2161 128.432)" fill="white"/>
<rect width="0.89189" height="0.89189" transform="matrix(-4.37114e-08 -1 -1 4.37114e-08 27.9453 198)" fill="white"/>
<rect width="0.89189" height="0.89189" transform="matrix(-4.37114e-08 -1 -1 4.37114e-08 27.9453 128.432)" fill="white"/>
<rect width="0.89189" height="0.89189" transform="matrix(-4.37114e-08 -1 -1 4.37114e-08 27.9453 58.8647)" fill="white"/>
<rect width="0.89189" height="0.89189" transform="matrix(-4.37114e-08 -1 -1 4.37114e-08 43.4048 198)" fill="white"/>
<rect width="0.89189" height="0.89189" transform="matrix(-4.37114e-08 -1 -1 4.37114e-08 43.4048 128.432)" fill="white"/>
<rect width="0.89189" height="0.89189" transform="matrix(-4.37114e-08 -1 -1 4.37114e-08 12.4858 198)" fill="white"/>
<rect width="0.89189" height="0.89189" transform="matrix(-4.37114e-08 -1 -1 4.37114e-08 12.4858 128.432)" fill="white"/>
<rect width="0.89189" height="0.89189" transform="matrix(-4.37114e-08 -1 -1 4.37114e-08 35.6755 198)" fill="white"/>
<rect width="0.89189" height="0.89189" transform="matrix(-4.37114e-08 -1 -1 4.37114e-08 35.6755 128.432)" fill="white"/>
<rect width="0.89189" height="0.89189" transform="matrix(-4.37114e-08 -1 -1 4.37114e-08 4.75659 198)" fill="white"/>
<rect width="0.89189" height="0.89189" transform="matrix(-4.37114e-08 -1 -1 4.37114e-08 4.75659 128.432)" fill="white"/>
<rect width="0.89189" height="0.89189" transform="matrix(-4.37114e-08 -1 -1 4.37114e-08 4.75659 58.8647)" fill="white"/>
<rect width="0.89189" height="0.89189" transform="matrix(-4.37114e-08 -1 -1 4.37114e-08 51.135 194.134)" fill="white"/>
<rect width="0.89189" height="0.89189" transform="matrix(-4.37114e-08 -1 -1 4.37114e-08 51.135 124.567)" fill="white"/>
<rect width="0.89189" height="0.89189" transform="matrix(-4.37114e-08 -1 -1 4.37114e-08 51.135 54.999)" fill="white"/>
<rect width="0.89189" height="0.89189" transform="matrix(-4.37114e-08 -1 -1 4.37114e-08 20.2161 124.567)" fill="white"/>
<rect width="0.89189" height="0.89189" transform="matrix(-4.37114e-08 -1 -1 4.37114e-08 20.2161 54.999)" fill="white"/>
<rect width="0.89189" height="0.89189" transform="matrix(-4.37114e-08 -1 -1 4.37114e-08 27.9453 124.567)" fill="white"/>
<rect width="0.89189" height="0.89189" transform="matrix(-4.37114e-08 -1 -1 4.37114e-08 27.9453 54.999)" fill="white"/>
<rect width="0.89189" height="0.89189" transform="matrix(-4.37114e-08 -1 -1 4.37114e-08 43.4048 124.567)" fill="white"/>
<rect width="0.89189" height="0.89189" transform="matrix(-4.37114e-08 -1 -1 4.37114e-08 43.4048 54.999)" fill="white"/>
<rect width="0.89189" height="0.89189" transform="matrix(-4.37114e-08 -1 -1 4.37114e-08 12.4858 124.567)" fill="white"/>
<rect width="0.89189" height="0.89189" transform="matrix(-4.37114e-08 -1 -1 4.37114e-08 12.4858 54.999)" fill="white"/>
<rect width="0.89189" height="0.89189" transform="matrix(-4.37114e-08 -1 -1 4.37114e-08 35.6755 124.567)" fill="white"/>
<rect width="0.89189" height="0.89189" transform="matrix(-4.37114e-08 -1 -1 4.37114e-08 35.6755 54.999)" fill="white"/>
<rect width="0.89189" height="0.89189" transform="matrix(-4.37114e-08 -1 -1 4.37114e-08 4.75659 194.134)" fill="white"/>
<rect width="0.89189" height="0.89189" transform="matrix(-4.37114e-08 -1 -1 4.37114e-08 4.75659 124.567)" fill="white"/>
<rect width="0.89189" height="0.89189" transform="matrix(-4.37114e-08 -1 -1 4.37114e-08 4.75659 54.999)" fill="white"/>
<rect width="0.89189" height="0.89189" transform="matrix(-4.37114e-08 -1 -1 4.37114e-08 51.135 190.271)" fill="white"/>
<rect width="0.89189" height="0.89189" transform="matrix(-4.37114e-08 -1 -1 4.37114e-08 51.135 120.703)" fill="white"/>
<rect width="0.89189" height="0.89189" transform="matrix(-4.37114e-08 -1 -1 4.37114e-08 51.135 51.1353)" fill="white"/>
<rect width="0.89189" height="0.89189" transform="matrix(-4.37114e-08 -1 -1 4.37114e-08 20.2161 51.1353)" fill="white"/>
<rect width="0.89189" height="0.89189" transform="matrix(-4.37114e-08 -1 -1 4.37114e-08 27.9453 51.1353)" fill="white"/>
<rect width="0.89189" height="0.89189" transform="matrix(-4.37114e-08 -1 -1 4.37114e-08 43.4048 51.1353)" fill="white"/>
<rect width="0.89189" height="0.89189" transform="matrix(-4.37114e-08 -1 -1 4.37114e-08 12.4858 51.1353)" fill="white"/>
<rect width="0.89189" height="0.89189" transform="matrix(-4.37114e-08 -1 -1 4.37114e-08 35.6755 51.1353)" fill="white"/>
<rect width="0.89189" height="0.89189" transform="matrix(-4.37114e-08 -1 -1 4.37114e-08 4.75659 190.271)" fill="white"/>
<rect width="0.89189" height="0.89189" transform="matrix(-4.37114e-08 -1 -1 4.37114e-08 4.75659 120.703)" fill="white"/>
<rect width="0.89189" height="0.89189" transform="matrix(-4.37114e-08 -1 -1 4.37114e-08 4.75659 51.1353)" fill="white"/>
<rect width="0.89189" height="0.89189" transform="matrix(-4.37114e-08 -1 -1 4.37114e-08 51.135 186.405)" fill="white"/>
<rect width="0.89189" height="0.89189" transform="matrix(-4.37114e-08 -1 -1 4.37114e-08 51.135 116.837)" fill="white"/>
<rect width="0.89189" height="0.89189" transform="matrix(-4.37114e-08 -1 -1 4.37114e-08 51.135 47.27)" fill="white"/>
<rect width="0.89189" height="0.89189" transform="matrix(-4.37114e-08 -1 -1 4.37114e-08 4.75659 186.405)" fill="white"/>
<rect width="0.89189" height="0.89189" transform="matrix(-4.37114e-08 -1 -1 4.37114e-08 4.75659 116.837)" fill="white"/>
<rect width="0.89189" height="0.89189" transform="matrix(-4.37114e-08 -1 -1 4.37114e-08 4.75659 47.27)" fill="white"/>
<rect width="0.89189" height="0.89189" transform="matrix(-4.37114e-08 -1 -1 4.37114e-08 51.135 182.54)" fill="white"/>
<rect width="0.89189" height="0.89189" transform="matrix(-4.37114e-08 -1 -1 4.37114e-08 51.135 112.972)" fill="white"/>
<rect width="0.89189" height="0.89189" transform="matrix(-4.37114e-08 -1 -1 4.37114e-08 51.135 43.4043)" fill="white"/>
<rect width="0.89189" height="0.89189" transform="matrix(-4.37114e-08 -1 -1 4.37114e-08 20.2161 182.54)" fill="white"/>
<rect width="0.89189" height="0.89189" transform="matrix(-4.37114e-08 -1 -1 4.37114e-08 43.4048 182.54)" fill="white"/>
<rect width="0.89189" height="0.89189" transform="matrix(-4.37114e-08 -1 -1 4.37114e-08 12.4858 182.54)" fill="white"/>
<rect width="0.89189" height="0.89189" transform="matrix(-4.37114e-08 -1 -1 4.37114e-08 4.75659 182.54)" fill="white"/>
<rect width="0.89189" height="0.89189" transform="matrix(-4.37114e-08 -1 -1 4.37114e-08 4.75659 112.972)" fill="white"/>
<rect width="0.89189" height="0.89189" transform="matrix(-4.37114e-08 -1 -1 4.37114e-08 4.75659 43.4043)" fill="white"/>
<rect width="0.89189" height="0.89189" transform="matrix(-4.37114e-08 -1 -1 4.37114e-08 51.135 178.675)" fill="white"/>
<rect width="0.89189" height="0.89189" transform="matrix(-4.37114e-08 -1 -1 4.37114e-08 51.135 109.108)" fill="white"/>
<rect width="0.89189" height="0.89189" transform="matrix(-4.37114e-08 -1 -1 4.37114e-08 51.135 39.5405)" fill="white"/>
<rect width="0.89189" height="0.89189" transform="matrix(-4.37114e-08 -1 -1 4.37114e-08 20.2161 109.108)" fill="white"/>
<rect width="0.89189" height="0.89189" transform="matrix(-4.37114e-08 -1 -1 4.37114e-08 43.4048 178.675)" fill="white"/>
<rect width="0.89189" height="0.89189" transform="matrix(-4.37114e-08 -1 -1 4.37114e-08 12.4858 178.675)" fill="white"/>
<rect width="0.89189" height="0.89189" transform="matrix(-4.37114e-08 -1 -1 4.37114e-08 12.4858 109.108)" fill="white"/>
<rect width="0.89189" height="0.89189" transform="matrix(-4.37114e-08 -1 -1 4.37114e-08 35.6755 178.675)" fill="white"/>
<rect width="0.89189" height="0.89189" transform="matrix(-4.37114e-08 -1 -1 4.37114e-08 35.6755 109.108)" fill="white"/>
<rect width="0.89189" height="0.89189" transform="matrix(-4.37114e-08 -1 -1 4.37114e-08 4.75659 178.675)" fill="white"/>
<rect width="0.89189" height="0.89189" transform="matrix(-4.37114e-08 -1 -1 4.37114e-08 4.75659 109.108)" fill="white"/>
<rect width="0.89189" height="0.89189" transform="matrix(-4.37114e-08 -1 -1 4.37114e-08 4.75659 39.5405)" fill="white"/>
<rect width="0.89189" height="0.89189" transform="matrix(-4.37114e-08 -1 -1 4.37114e-08 51.135 174.81)" fill="white"/>
<rect width="0.89189" height="0.89189" transform="matrix(-4.37114e-08 -1 -1 4.37114e-08 51.135 105.243)" fill="white"/>
<rect width="0.89189" height="0.89189" transform="matrix(-4.37114e-08 -1 -1 4.37114e-08 51.135 35.6748)" fill="white"/>
<rect width="0.89189" height="0.89189" transform="matrix(-4.37114e-08 -1 -1 4.37114e-08 20.2161 35.6748)" fill="white"/>
<rect width="0.89189" height="0.89189" transform="matrix(-4.37114e-08 -1 -1 4.37114e-08 43.4048 35.6748)" fill="white"/>
<rect width="0.89189" height="0.89189" transform="matrix(-4.37114e-08 -1 -1 4.37114e-08 12.4858 105.243)" fill="white"/>
<rect width="0.89189" height="0.89189" transform="matrix(-4.37114e-08 -1 -1 4.37114e-08 12.4858 35.6748)" fill="white"/>
<rect width="0.89189" height="0.89189" transform="matrix(-4.37114e-08 -1 -1 4.37114e-08 35.6755 105.243)" fill="white"/>
<rect width="0.89189" height="0.89189" transform="matrix(-4.37114e-08 -1 -1 4.37114e-08 4.75659 174.81)" fill="white"/>
<rect width="0.89189" height="0.89189" transform="matrix(-4.37114e-08 -1 -1 4.37114e-08 4.75659 105.243)" fill="white"/>
<rect width="0.89189" height="0.89189" transform="matrix(-4.37114e-08 -1 -1 4.37114e-08 4.75659 35.6748)" fill="white"/>
<rect width="0.89189" height="0.89189" transform="matrix(-4.37114e-08 -1 -1 4.37114e-08 51.135 170.946)" fill="white"/>
<rect width="0.89189" height="0.89189" transform="matrix(-4.37114e-08 -1 -1 4.37114e-08 51.135 101.377)" fill="white"/>
<rect width="0.89189" height="0.89189" transform="matrix(-4.37114e-08 -1 -1 4.37114e-08 51.135 31.8096)" fill="white"/>
<rect width="0.89189" height="0.89189" transform="matrix(-4.37114e-08 -1 -1 4.37114e-08 43.4048 31.8096)" fill="white"/>
<rect width="0.89189" height="0.89189" transform="matrix(-4.37114e-08 -1 -1 4.37114e-08 35.6755 31.8096)" fill="white"/>
<rect width="0.89189" height="0.89189" transform="matrix(-4.37114e-08 -1 -1 4.37114e-08 4.75659 170.946)" fill="white"/>
<rect width="0.89189" height="0.89189" transform="matrix(-4.37114e-08 -1 -1 4.37114e-08 4.75659 101.377)" fill="white"/>
<rect width="0.89189" height="0.89189" transform="matrix(-4.37114e-08 -1 -1 4.37114e-08 4.75659 31.8096)" fill="white"/>
<rect width="0.89189" height="0.89189" transform="matrix(-4.37114e-08 -1 -1 4.37114e-08 51.135 167.081)" fill="white"/>
<rect width="0.89189" height="0.89189" transform="matrix(-4.37114e-08 -1 -1 4.37114e-08 51.135 97.5132)" fill="white"/>
<rect width="0.89189" height="0.89189" transform="matrix(-4.37114e-08 -1 -1 4.37114e-08 51.135 27.9458)" fill="white"/>
<rect width="0.89189" height="0.89189" transform="matrix(-4.37114e-08 -1 -1 4.37114e-08 51.135 147.756)" fill="white"/>
<rect width="0.89189" height="0.89189" transform="matrix(-4.37114e-08 -1 -1 4.37114e-08 51.135 78.189)" fill="white"/>
<rect width="0.89189" height="0.89189" transform="matrix(-4.37114e-08 -1 -1 4.37114e-08 51.135 8.62158)" fill="white"/>
<rect width="0.89189" height="0.89189" transform="matrix(-4.37114e-08 -1 -1 4.37114e-08 20.2161 8.62158)" fill="white"/>
<rect width="0.89189" height="0.89189" transform="matrix(-4.37114e-08 -1 -1 4.37114e-08 27.9453 78.189)" fill="white"/>
<rect width="0.89189" height="0.89189" transform="matrix(-4.37114e-08 -1 -1 4.37114e-08 27.9453 8.62158)" fill="white"/>
<rect width="0.89189" height="0.89189" transform="matrix(-4.37114e-08 -1 -1 4.37114e-08 43.4048 97.5132)" fill="white"/>
<rect width="0.89189" height="0.89189" transform="matrix(-4.37114e-08 -1 -1 4.37114e-08 43.4048 27.9458)" fill="white"/>
<rect width="0.89189" height="0.89189" transform="matrix(-4.37114e-08 -1 -1 4.37114e-08 43.4048 8.62158)" fill="white"/>
<rect width="0.89189" height="0.89189" transform="matrix(-4.37114e-08 -1 -1 4.37114e-08 12.4858 8.62158)" fill="white"/>
<rect width="0.89189" height="0.89189" transform="matrix(-4.37114e-08 -1 -1 4.37114e-08 35.6755 27.9458)" fill="white"/>
<rect width="0.89189" height="0.89189" transform="matrix(-4.37114e-08 -1 -1 4.37114e-08 4.75659 167.081)" fill="white"/>
<rect width="0.89189" height="0.89189" transform="matrix(-4.37114e-08 -1 -1 4.37114e-08 4.75659 97.5132)" fill="white"/>
<rect width="0.89189" height="0.89189" transform="matrix(-4.37114e-08 -1 -1 4.37114e-08 4.75659 27.9458)" fill="white"/>
<rect width="0.89189" height="0.89189" transform="matrix(-4.37114e-08 -1 -1 4.37114e-08 35.6755 8.62158)" fill="white"/>
<rect width="0.89189" height="0.89189" transform="matrix(-4.37114e-08 -1 -1 4.37114e-08 4.75659 147.756)" fill="white"/>
<rect width="0.89189" height="0.89189" transform="matrix(-4.37114e-08 -1 -1 4.37114e-08 4.75659 78.189)" fill="white"/>
<rect width="0.89189" height="0.89189" transform="matrix(-4.37114e-08 -1 -1 4.37114e-08 4.75659 8.62158)" fill="white"/>
<rect width="0.89189" height="0.89189" transform="matrix(-4.37114e-08 -1 -1 4.37114e-08 51.135 163.215)" fill="white"/>
<rect width="0.89189" height="0.89189" transform="matrix(-4.37114e-08 -1 -1 4.37114e-08 51.135 93.6475)" fill="white"/>
<rect width="0.89189" height="0.89189" transform="matrix(-4.37114e-08 -1 -1 4.37114e-08 51.135 24.0801)" fill="white"/>
<rect width="0.89189" height="0.89189" transform="matrix(-4.37114e-08 -1 -1 4.37114e-08 20.2161 163.215)" fill="white"/>
<rect width="0.89189" height="0.89189" transform="matrix(-4.37114e-08 -1 -1 4.37114e-08 20.2161 93.6475)" fill="white"/>
<rect width="0.89189" height="0.89189" transform="matrix(-4.37114e-08 -1 -1 4.37114e-08 20.2161 24.0801)" fill="white"/>
<rect width="0.89189" height="0.89189" transform="matrix(-4.37114e-08 -1 -1 4.37114e-08 27.9453 163.215)" fill="white"/>
<rect width="0.89189" height="0.89189" transform="matrix(-4.37114e-08 -1 -1 4.37114e-08 27.9453 93.6475)" fill="white"/>
<rect width="0.89189" height="0.89189" transform="matrix(-4.37114e-08 -1 -1 4.37114e-08 51.135 143.891)" fill="white"/>
<rect width="0.89189" height="0.89189" transform="matrix(-4.37114e-08 -1 -1 4.37114e-08 51.135 74.3232)" fill="white"/>
<rect width="0.89189" height="0.89189" transform="matrix(-4.37114e-08 -1 -1 4.37114e-08 51.135 4.75586)" fill="white"/>
<rect width="0.89189" height="0.89189" transform="matrix(-4.37114e-08 -1 -1 4.37114e-08 20.2161 4.75586)" fill="white"/>
<rect width="0.89189" height="0.89189" transform="matrix(-4.37114e-08 -1 -1 4.37114e-08 27.9453 4.75586)" fill="white"/>
<rect width="0.89189" height="0.89189" transform="matrix(-4.37114e-08 -1 -1 4.37114e-08 43.4048 163.215)" fill="white"/>
<rect width="0.89189" height="0.89189" transform="matrix(-4.37114e-08 -1 -1 4.37114e-08 43.4048 93.6475)" fill="white"/>
<rect width="0.89189" height="0.89189" transform="matrix(-4.37114e-08 -1 -1 4.37114e-08 43.4048 24.0801)" fill="white"/>
<rect width="0.89189" height="0.89189" transform="matrix(-4.37114e-08 -1 -1 4.37114e-08 12.4858 163.215)" fill="white"/>
<rect width="0.89189" height="0.89189" transform="matrix(-4.37114e-08 -1 -1 4.37114e-08 12.4858 24.0801)" fill="white"/>
<rect width="0.89189" height="0.89189" transform="matrix(-4.37114e-08 -1 -1 4.37114e-08 43.4048 4.75586)" fill="white"/>
<rect width="0.89189" height="0.89189" transform="matrix(-4.37114e-08 -1 -1 4.37114e-08 12.4858 4.75586)" fill="white"/>
<rect width="0.89189" height="0.89189" transform="matrix(-4.37114e-08 -1 -1 4.37114e-08 35.6755 163.215)" fill="white"/>
<rect width="0.89189" height="0.89189" transform="matrix(-4.37114e-08 -1 -1 4.37114e-08 4.75659 163.215)" fill="white"/>
<rect width="0.89189" height="0.89189" transform="matrix(-4.37114e-08 -1 -1 4.37114e-08 4.75659 93.6475)" fill="white"/>
<rect width="0.89189" height="0.89189" transform="matrix(-4.37114e-08 -1 -1 4.37114e-08 4.75659 24.0801)" fill="white"/>
<rect width="0.89189" height="0.89189" transform="matrix(-4.37114e-08 -1 -1 4.37114e-08 35.6755 4.75586)" fill="white"/>
<rect width="0.89189" height="0.89189" transform="matrix(-4.37114e-08 -1 -1 4.37114e-08 4.75659 143.891)" fill="white"/>
<rect width="0.89189" height="0.89189" transform="matrix(-4.37114e-08 -1 -1 4.37114e-08 4.75659 74.3232)" fill="white"/>
<rect width="0.89189" height="0.89189" transform="matrix(-4.37114e-08 -1 -1 4.37114e-08 4.75659 4.75586)" fill="white"/>
<rect width="0.89189" height="0.89189" transform="matrix(-4.37114e-08 -1 -1 4.37114e-08 51.135 159.351)" fill="white"/>
<rect width="0.89189" height="0.89189" transform="matrix(-4.37114e-08 -1 -1 4.37114e-08 51.135 89.7837)" fill="white"/>
<rect width="0.89189" height="0.89189" transform="matrix(-4.37114e-08 -1 -1 4.37114e-08 51.135 20.2163)" fill="white"/>
<rect width="0.89189" height="0.89189" transform="matrix(-4.37114e-08 -1 -1 4.37114e-08 20.2161 159.351)" fill="white"/>
<rect width="0.89189" height="0.89189" transform="matrix(-4.37114e-08 -1 -1 4.37114e-08 20.2161 89.7837)" fill="white"/>
<rect width="0.89189" height="0.89189" transform="matrix(-4.37114e-08 -1 -1 4.37114e-08 27.9453 159.351)" fill="white"/>
<rect width="0.89189" height="0.89189" transform="matrix(-4.37114e-08 -1 -1 4.37114e-08 27.9453 89.7837)" fill="white"/>
<rect width="0.89189" height="0.89189" transform="matrix(-4.37114e-08 -1 -1 4.37114e-08 51.135 140.027)" fill="white"/>
<rect width="0.89189" height="0.89189" transform="matrix(-4.37114e-08 -1 -1 4.37114e-08 51.135 70.4595)" fill="white"/>
<rect width="0.89189" height="0.89189" transform="matrix(-4.37114e-08 -1 -1 4.37114e-08 51.135 0.89209)" fill="white"/>
<rect width="0.89189" height="0.89189" transform="matrix(-4.37114e-08 -1 -1 4.37114e-08 20.2161 0.89209)" fill="white"/>
<rect width="0.89189" height="0.89189" transform="matrix(-4.37114e-08 -1 -1 4.37114e-08 27.9453 0.89209)" fill="white"/>
<rect width="0.89189" height="0.89189" transform="matrix(-4.37114e-08 -1 -1 4.37114e-08 43.4048 159.351)" fill="white"/>
<rect width="0.89189" height="0.89189" transform="matrix(-4.37114e-08 -1 -1 4.37114e-08 43.4048 89.7837)" fill="white"/>
<rect width="0.89189" height="0.89189" transform="matrix(-4.37114e-08 -1 -1 4.37114e-08 12.4858 159.351)" fill="white"/>
<rect width="0.89189" height="0.89189" transform="matrix(-4.37114e-08 -1 -1 4.37114e-08 12.4858 89.7837)" fill="white"/>
<rect width="0.89189" height="0.89189" transform="matrix(-4.37114e-08 -1 -1 4.37114e-08 43.4048 0.89209)" fill="white"/>
<rect width="0.89189" height="0.89189" transform="matrix(-4.37114e-08 -1 -1 4.37114e-08 12.4858 0.89209)" fill="white"/>
<rect width="0.89189" height="0.89189" transform="matrix(-4.37114e-08 -1 -1 4.37114e-08 35.6755 159.351)" fill="white"/>
<rect width="0.89189" height="0.89189" transform="matrix(-4.37114e-08 -1 -1 4.37114e-08 35.6755 89.7837)" fill="white"/>
<rect width="0.89189" height="0.89189" transform="matrix(-4.37114e-08 -1 -1 4.37114e-08 4.75659 159.351)" fill="white"/>
<rect width="0.89189" height="0.89189" transform="matrix(-4.37114e-08 -1 -1 4.37114e-08 4.75659 89.7837)" fill="white"/>
<rect width="0.89189" height="0.89189" transform="matrix(-4.37114e-08 -1 -1 4.37114e-08 4.75659 20.2163)" fill="white"/>
<rect width="0.89189" height="0.89189" transform="matrix(-4.37114e-08 -1 -1 4.37114e-08 35.6755 0.89209)" fill="white"/>
<rect width="0.89189" height="0.89189" transform="matrix(-4.37114e-08 -1 -1 4.37114e-08 4.75659 140.027)" fill="white"/>
<rect width="0.89189" height="0.89189" transform="matrix(-4.37114e-08 -1 -1 4.37114e-08 4.75659 70.4595)" fill="white"/>
<rect width="0.89189" height="0.89189" transform="matrix(-4.37114e-08 -1 -1 4.37114e-08 4.75659 0.89209)" fill="white"/>
<rect width="0.89189" height="0.89189" transform="matrix(-4.37114e-08 -1 -1 4.37114e-08 51.135 155.486)" fill="white"/>
<rect width="0.89189" height="0.89189" transform="matrix(-4.37114e-08 -1 -1 4.37114e-08 51.135 85.9185)" fill="white"/>
<rect width="0.89189" height="0.89189" transform="matrix(-4.37114e-08 -1 -1 4.37114e-08 51.135 16.3511)" fill="white"/>
<rect width="0.89189" height="0.89189" transform="matrix(-4.37114e-08 -1 -1 4.37114e-08 20.2161 155.486)" fill="white"/>
<rect width="0.89189" height="0.89189" transform="matrix(-4.37114e-08 -1 -1 4.37114e-08 20.2161 85.9185)" fill="white"/>
<rect width="0.89189" height="0.89189" transform="matrix(-4.37114e-08 -1 -1 4.37114e-08 27.9453 155.486)" fill="white"/>
<rect width="0.89189" height="0.89189" transform="matrix(-4.37114e-08 -1 -1 4.37114e-08 27.9453 85.9185)" fill="white"/>
<rect width="0.89189" height="0.89189" transform="matrix(-4.37114e-08 -1 -1 4.37114e-08 43.4048 85.9185)" fill="white"/>
<rect width="0.89189" height="0.89189" transform="matrix(-4.37114e-08 -1 -1 4.37114e-08 12.4858 155.486)" fill="white"/>
<rect width="0.89189" height="0.89189" transform="matrix(-4.37114e-08 -1 -1 4.37114e-08 12.4858 85.9185)" fill="white"/>
<rect width="0.89189" height="0.89189" transform="matrix(-4.37114e-08 -1 -1 4.37114e-08 35.6755 85.9185)" fill="white"/>
<rect width="0.89189" height="0.89189" transform="matrix(-4.37114e-08 -1 -1 4.37114e-08 4.75659 155.486)" fill="white"/>
<rect width="0.89189" height="0.89189" transform="matrix(-4.37114e-08 -1 -1 4.37114e-08 4.75659 85.9185)" fill="white"/>
<rect width="0.89189" height="0.89189" transform="matrix(-4.37114e-08 -1 -1 4.37114e-08 4.75659 16.3511)" fill="white"/>
<rect width="0.89189" height="0.89189" transform="matrix(-4.37114e-08 -1 -1 4.37114e-08 51.135 151.62)" fill="white"/>
<rect width="0.89189" height="0.89189" transform="matrix(-4.37114e-08 -1 -1 4.37114e-08 51.135 82.0527)" fill="white"/>
<rect width="0.89189" height="0.89189" transform="matrix(-4.37114e-08 -1 -1 4.37114e-08 51.135 12.4854)" fill="white"/>
<rect width="0.89189" height="0.89189" transform="matrix(-4.37114e-08 -1 -1 4.37114e-08 20.2161 151.62)" fill="white"/>
<rect width="0.89189" height="0.89189" transform="matrix(-4.37114e-08 -1 -1 4.37114e-08 27.9453 151.62)" fill="white"/>
<rect width="0.89189" height="0.89189" transform="matrix(-4.37114e-08 -1 -1 4.37114e-08 27.9453 82.0527)" fill="white"/>
<rect width="0.89189" height="0.89189" transform="matrix(-4.37114e-08 -1 -1 4.37114e-08 12.4858 151.62)" fill="white"/>
<rect width="0.89189" height="0.89189" transform="matrix(-4.37114e-08 -1 -1 4.37114e-08 4.75659 151.62)" fill="white"/>
<rect width="0.89189" height="0.89189" transform="matrix(-4.37114e-08 -1 -1 4.37114e-08 4.75659 82.0527)" fill="white"/>
<rect width="0.89189" height="0.89189" transform="matrix(-4.37114e-08 -1 -1 4.37114e-08 4.75659 12.4854)" fill="white"/>
</g>
<rect width="0.89189" height="0.89189" transform="matrix(-4.37114e-08 -1 -1 4.37114e-08 31.8108 66.5942)" fill="white"/>
<rect width="0.89189" height="0.89189" transform="matrix(-4.37114e-08 -1 -1 4.37114e-08 16.3513 66.5942)" fill="white"/>
<rect width="0.89189" height="0.89189" transform="matrix(-4.37114e-08 -1 -1 4.37114e-08 39.541 66.5942)" fill="white"/>
<rect width="0.89189" height="0.89189" transform="matrix(-4.37114e-08 -1 -1 4.37114e-08 31.8108 62.7285)" fill="white"/>
<rect width="0.89189" height="0.89189" transform="matrix(-4.37114e-08 -1 -1 4.37114e-08 16.3513 62.7285)" fill="white"/>
<rect width="0.89189" height="0.89189" transform="matrix(-4.37114e-08 -1 -1 4.37114e-08 39.541 62.7285)" fill="white"/>
<rect width="0.89189" height="0.89189" transform="matrix(-4.37114e-08 -1 -1 4.37114e-08 16.3513 58.8633)" fill="white"/>
<rect width="0.89189" height="0.89189" transform="matrix(-4.37114e-08 -1 -1 4.37114e-08 39.541 58.8633)" fill="white"/>
<rect width="0.89189" height="0.89189" transform="matrix(-4.37114e-08 -1 -1 4.37114e-08 24.0815 78.1875)" fill="white"/>
<rect width="0.89189" height="0.89189" transform="matrix(-4.37114e-08 -1 -1 4.37114e-08 16.3513 78.1875)" fill="white"/>
<rect width="0.89189" height="0.89189" transform="matrix(-4.37114e-08 -1 -1 4.37114e-08 39.541 78.1875)" fill="white"/>
<rect width="0.89189" height="0.89189" transform="matrix(-4.37114e-08 -1 -1 4.37114e-08 24.0815 74.3232)" fill="white"/>
<rect width="0.89189" height="0.89189" transform="matrix(-4.37114e-08 -1 -1 4.37114e-08 16.3513 74.3232)" fill="white"/>
<rect width="0.89189" height="0.89189" transform="matrix(-4.37114e-08 -1 -1 4.37114e-08 39.541 74.3232)" fill="white"/>
<rect width="0.89189" height="0.89189" transform="matrix(-4.37114e-08 -1 -1 4.37114e-08 24.0815 70.458)" fill="white"/>
<rect width="0.89189" height="0.89189" transform="matrix(-4.37114e-08 -1 -1 4.37114e-08 31.8108 70.458)" fill="white"/>
<rect width="0.89189" height="0.89189" transform="matrix(-4.37114e-08 -1 -1 4.37114e-08 16.3513 70.458)" fill="white"/>
<rect width="0.89189" height="0.89189" transform="matrix(-4.37114e-08 -1 -1 4.37114e-08 39.541 70.458)" fill="white"/>
<rect width="0.89189" height="0.89189" transform="matrix(-4.37114e-08 -1 -1 4.37114e-08 16.3513 82.0527)" fill="white"/>
<rect width="0.89189" height="0.89189" transform="matrix(-4.37114e-08 -1 -1 4.37114e-08 39.541 82.0527)" fill="white"/>
<rect width="0.89189" height="0.89189" transform="matrix(-4.37114e-08 -1 -1 4.37114e-08 20.2168 66.5942)" fill="white"/>
<rect width="0.89189" height="0.89189" transform="matrix(-4.37114e-08 -1 -1 4.37114e-08 27.9463 66.5942)" fill="white"/>
<rect width="0.89189" height="0.89189" transform="matrix(-4.37114e-08 -1 -1 4.37114e-08 43.4058 66.5942)" fill="white"/>
<rect width="0.89189" height="0.89189" transform="matrix(-4.37114e-08 -1 -1 4.37114e-08 12.4866 66.5942)" fill="white"/>
<rect width="0.89189" height="0.89189" transform="matrix(-4.37114e-08 -1 -1 4.37114e-08 35.6755 66.5942)" fill="white"/>
<rect width="0.89189" height="0.89189" transform="matrix(-4.37114e-08 -1 -1 4.37114e-08 20.2168 62.7285)" fill="white"/>
<rect width="0.89189" height="0.89189" transform="matrix(-4.37114e-08 -1 -1 4.37114e-08 43.4058 62.7285)" fill="white"/>
<rect width="0.89189" height="0.89189" transform="matrix(-4.37114e-08 -1 -1 4.37114e-08 12.4866 62.7285)" fill="white"/>
<rect width="0.89189" height="0.89189" transform="matrix(-4.37114e-08 -1 -1 4.37114e-08 35.6755 62.7285)" fill="white"/>
<rect width="0.89189" height="0.89189" transform="matrix(-4.37114e-08 -1 -1 4.37114e-08 20.2168 58.8633)" fill="white"/>
<rect width="0.89189" height="0.89189" transform="matrix(-4.37114e-08 -1 -1 4.37114e-08 43.4058 58.8633)" fill="white"/>
<rect width="0.89189" height="0.89189" transform="matrix(-4.37114e-08 -1 -1 4.37114e-08 12.4866 58.8633)" fill="white"/>
<rect width="0.89189" height="0.89189" transform="matrix(-4.37114e-08 -1 -1 4.37114e-08 35.6755 58.8633)" fill="white"/>
<rect width="0.89189" height="0.89189" transform="matrix(-4.37114e-08 -1 -1 4.37114e-08 20.2168 78.1875)" fill="white"/>
<rect width="0.89189" height="0.89189" transform="matrix(-4.37114e-08 -1 -1 4.37114e-08 43.4058 78.1875)" fill="white"/>
<rect width="0.89189" height="0.89189" transform="matrix(-4.37114e-08 -1 -1 4.37114e-08 12.4866 78.1875)" fill="white"/>
<rect width="0.89189" height="0.89189" transform="matrix(-4.37114e-08 -1 -1 4.37114e-08 35.6755 78.1875)" fill="white"/>
<rect width="0.89189" height="0.89189" transform="matrix(-4.37114e-08 -1 -1 4.37114e-08 20.2168 74.3232)" fill="white"/>
<rect width="0.89189" height="0.89189" transform="matrix(-4.37114e-08 -1 -1 4.37114e-08 27.9463 74.3232)" fill="white"/>
<rect width="0.89189" height="0.89189" transform="matrix(-4.37114e-08 -1 -1 4.37114e-08 43.4058 74.3232)" fill="white"/>
<rect width="0.89189" height="0.89189" transform="matrix(-4.37114e-08 -1 -1 4.37114e-08 12.4866 74.3232)" fill="white"/>
<rect width="0.89189" height="0.89189" transform="matrix(-4.37114e-08 -1 -1 4.37114e-08 35.6755 74.3232)" fill="white"/>
<rect width="0.89189" height="0.89189" transform="matrix(-4.37114e-08 -1 -1 4.37114e-08 20.2168 70.458)" fill="white"/>
<rect width="0.89189" height="0.89189" transform="matrix(-4.37114e-08 -1 -1 4.37114e-08 27.9463 70.458)" fill="white"/>
<rect width="0.89189" height="0.89189" transform="matrix(-4.37114e-08 -1 -1 4.37114e-08 43.4058 70.458)" fill="white"/>
<rect width="0.89189" height="0.89189" transform="matrix(-4.37114e-08 -1 -1 4.37114e-08 12.4866 70.458)" fill="white"/>
<rect width="0.89189" height="0.89189" transform="matrix(-4.37114e-08 -1 -1 4.37114e-08 35.6755 70.458)" fill="white"/>
<rect width="0.89189" height="0.89189" transform="matrix(-4.37114e-08 -1 -1 4.37114e-08 20.2168 82.0527)" fill="white"/>
<rect width="0.89189" height="0.89189" transform="matrix(-4.37114e-08 -1 -1 4.37114e-08 43.4026 82.0503)" fill="white"/>
<rect width="0.89189" height="0.89189" transform="matrix(-4.37114e-08 -1 -1 4.37114e-08 12.4866 82.0527)" fill="white"/>
<rect width="0.89189" height="0.89189" transform="matrix(-4.37114e-08 -1 -1 4.37114e-08 35.6755 82.0527)" fill="white"/>
<rect width="0.89189" height="0.89189" transform="matrix(-4.37114e-08 -1 -1 4.37114e-08 24.0808 120.703)" fill="white"/>
<rect width="0.89189" height="0.89189" transform="matrix(-4.37114e-08 -1 -1 4.37114e-08 31.811 120.703)" fill="white"/>
<rect width="0.89189" height="0.89189" transform="matrix(-4.37114e-08 -1 -1 4.37114e-08 16.3516 120.703)" fill="white"/>
<rect width="0.89189" height="0.89189" transform="matrix(-4.37114e-08 -1 -1 4.37114e-08 39.5403 120.703)" fill="white"/>
<rect width="0.89189" height="0.89189" transform="matrix(-4.37114e-08 -1 -1 4.37114e-08 24.0808 116.837)" fill="white"/>
<rect width="0.89189" height="0.89189" transform="matrix(-4.37114e-08 -1 -1 4.37114e-08 31.811 116.837)" fill="white"/>
<rect width="0.89189" height="0.89189" transform="matrix(-4.37114e-08 -1 -1 4.37114e-08 16.3516 116.837)" fill="white"/>
<rect width="0.89189" height="0.89189" transform="matrix(-4.37114e-08 -1 -1 4.37114e-08 39.5403 116.837)" fill="white"/>
<rect width="0.89189" height="0.89189" transform="matrix(-4.37114e-08 -1 -1 4.37114e-08 24.0808 112.972)" fill="white"/>
<rect width="0.89189" height="0.89189" transform="matrix(-4.37114e-08 -1 -1 4.37114e-08 31.811 112.972)" fill="white"/>
<rect width="0.89189" height="0.89189" transform="matrix(-4.37114e-08 -1 -1 4.37114e-08 16.3516 112.972)" fill="white"/>
<rect width="0.89189" height="0.89189" transform="matrix(-4.37114e-08 -1 -1 4.37114e-08 39.5403 112.972)" fill="white"/>
<rect width="0.89189" height="0.89189" transform="matrix(-4.37114e-08 -1 -1 4.37114e-08 24.0808 109.108)" fill="white"/>
<rect width="0.89189" height="0.89189" transform="matrix(-4.37114e-08 -1 -1 4.37114e-08 39.5403 109.108)" fill="white"/>
<rect width="0.89189" height="0.89189" transform="matrix(-4.37114e-08 -1 -1 4.37114e-08 24.0808 105.243)" fill="white"/>
<rect width="0.89189" height="0.89189" transform="matrix(-4.37114e-08 -1 -1 4.37114e-08 16.3516 105.243)" fill="white"/>
<rect width="0.89189" height="0.89189" transform="matrix(-4.37114e-08 -1 -1 4.37114e-08 39.5403 105.243)" fill="white"/>
<rect width="0.89189" height="0.89189" transform="matrix(-4.37114e-08 -1 -1 4.37114e-08 24.0808 101.377)" fill="white"/>
<rect width="0.89189" height="0.89189" transform="matrix(-4.37114e-08 -1 -1 4.37114e-08 31.811 101.377)" fill="white"/>
<rect width="0.89189" height="0.89189" transform="matrix(-4.37114e-08 -1 -1 4.37114e-08 16.3516 101.377)" fill="white"/>
<rect width="0.89189" height="0.89189" transform="matrix(-4.37114e-08 -1 -1 4.37114e-08 39.5403 101.377)" fill="white"/>
<rect width="0.89189" height="0.89189" transform="matrix(-4.37114e-08 -1 -1 4.37114e-08 31.811 97.5132)" fill="white"/>
<rect width="0.89189" height="0.89189" transform="matrix(-4.37114e-08 -1 -1 4.37114e-08 16.3516 97.5132)" fill="white"/>
<rect width="0.89189" height="0.89189" transform="matrix(-4.37114e-08 -1 -1 4.37114e-08 39.5403 97.5132)" fill="white"/>
<rect width="0.89189" height="0.89189" transform="matrix(-4.37114e-08 -1 -1 4.37114e-08 31.811 93.6479)" fill="white"/>
<rect width="0.89189" height="0.89189" transform="matrix(-4.37114e-08 -1 -1 4.37114e-08 20.2161 120.703)" fill="white"/>
<rect width="0.89189" height="0.89189" transform="matrix(-4.37114e-08 -1 -1 4.37114e-08 27.9456 120.703)" fill="white"/>
<rect width="0.89189" height="0.89189" transform="matrix(-4.37114e-08 -1 -1 4.37114e-08 43.4016 120.703)" fill="white"/>
<rect width="0.89189" height="0.89189" transform="matrix(-4.37114e-08 -1 -1 4.37114e-08 12.4861 120.703)" fill="white"/>
<rect width="0.89189" height="0.89189" transform="matrix(-4.37114e-08 -1 -1 4.37114e-08 35.6758 120.703)" fill="white"/>
<rect width="0.89189" height="0.89189" transform="matrix(-4.37114e-08 -1 -1 4.37114e-08 20.2161 116.837)" fill="white"/>
<rect width="0.89189" height="0.89189" transform="matrix(-4.37114e-08 -1 -1 4.37114e-08 27.9456 116.837)" fill="white"/>
<rect width="0.89189" height="0.89189" transform="matrix(-4.37114e-08 -1 -1 4.37114e-08 43.405 116.837)" fill="white"/>
<rect width="0.89189" height="0.89189" transform="matrix(-4.37114e-08 -1 -1 4.37114e-08 12.4861 116.837)" fill="white"/>
<rect width="0.89189" height="0.89189" transform="matrix(-4.37114e-08 -1 -1 4.37114e-08 35.6758 116.837)" fill="white"/>
<rect width="0.89189" height="0.89189" transform="matrix(-4.37114e-08 -1 -1 4.37114e-08 20.2161 112.972)" fill="white"/>
<rect width="0.89189" height="0.89189" transform="matrix(-4.37114e-08 -1 -1 4.37114e-08 27.9456 112.972)" fill="white"/>
<rect width="0.89189" height="0.89189" transform="matrix(-4.37114e-08 -1 -1 4.37114e-08 43.405 112.972)" fill="white"/>
<rect width="0.89189" height="0.89189" transform="matrix(-4.37114e-08 -1 -1 4.37114e-08 12.4861 112.972)" fill="white"/>
<rect width="0.89189" height="0.89189" transform="matrix(-4.37114e-08 -1 -1 4.37114e-08 35.6758 112.972)" fill="white"/>
<rect width="0.89189" height="0.89189" transform="matrix(-4.37114e-08 -1 -1 4.37114e-08 27.9456 109.108)" fill="white"/>
<rect width="0.89189" height="0.89189" transform="matrix(-4.37114e-08 -1 -1 4.37114e-08 43.405 109.108)" fill="white"/>
<rect width="0.89189" height="0.89189" transform="matrix(-4.37114e-08 -1 -1 4.37114e-08 20.2161 105.243)" fill="white"/>
<rect width="0.89189" height="0.89189" transform="matrix(-4.37114e-08 -1 -1 4.37114e-08 27.9456 105.243)" fill="white"/>
<rect width="0.89189" height="0.89189" transform="matrix(-4.37114e-08 -1 -1 4.37114e-08 43.405 105.243)" fill="white"/>
<rect width="0.89189" height="0.89189" transform="matrix(-4.37114e-08 -1 -1 4.37114e-08 20.2161 101.377)" fill="white"/>
<rect width="0.89189" height="0.89189" transform="matrix(-4.37114e-08 -1 -1 4.37114e-08 27.9456 101.377)" fill="white"/>
<rect width="0.89189" height="0.89189" transform="matrix(-4.37114e-08 -1 -1 4.37114e-08 43.405 101.377)" fill="white"/>
<rect width="0.89189" height="0.89189" transform="matrix(-4.37114e-08 -1 -1 4.37114e-08 12.4861 101.377)" fill="white"/>
<rect width="0.89189" height="0.89189" transform="matrix(-4.37114e-08 -1 -1 4.37114e-08 35.6758 101.377)" fill="white"/>
<rect width="0.89189" height="0.89189" transform="matrix(-4.37114e-08 -1 -1 4.37114e-08 20.2161 97.5132)" fill="white"/>
<rect width="0.89189" height="0.89189" transform="matrix(-4.37114e-08 -1 -1 4.37114e-08 27.9456 97.5132)" fill="white"/>
<rect width="0.89189" height="0.89189" transform="matrix(-4.37114e-08 -1 -1 4.37114e-08 12.4861 97.5132)" fill="white"/>
<rect width="0.89189" height="0.89189" transform="matrix(-4.37114e-08 -1 -1 4.37114e-08 35.6758 97.5132)" fill="white"/>
<rect width="0.89189" height="0.89189" transform="matrix(-4.37114e-08 -1 -1 4.37114e-08 12.4861 93.6479)" fill="white"/>
<rect width="0.89189" height="0.89189" transform="matrix(-4.37114e-08 -1 -1 4.37114e-08 35.6758 93.6479)" fill="white"/>
<rect width="0.89189" height="0.89189" transform="matrix(-4.37114e-08 -1 -1 4.37114e-08 39.5403 136.162)" fill="white"/>
<rect width="0.89189" height="0.89189" transform="matrix(-4.37114e-08 -1 -1 4.37114e-08 39.5403 132.296)" fill="white"/>
<rect width="0.89189" height="0.89189" transform="matrix(-4.37114e-08 -1 -1 4.37114e-08 24.0808 147.756)" fill="white"/>
<rect width="0.89189" height="0.89189" transform="matrix(-4.37114e-08 -1 -1 4.37114e-08 31.811 147.756)" fill="white"/>
<rect width="0.89189" height="0.89189" transform="matrix(-4.37114e-08 -1 -1 4.37114e-08 16.3516 147.756)" fill="white"/>
<rect width="0.89189" height="0.89189" transform="matrix(-4.37114e-08 -1 -1 4.37114e-08 39.5403 147.756)" fill="white"/>
<rect width="0.89189" height="0.89189" transform="matrix(-4.37114e-08 -1 -1 4.37114e-08 24.0808 143.891)" fill="white"/>
<rect width="0.89189" height="0.89189" transform="matrix(-4.37114e-08 -1 -1 4.37114e-08 31.811 143.891)" fill="white"/>
<rect width="0.89189" height="0.89189" transform="matrix(-4.37114e-08 -1 -1 4.37114e-08 16.3516 143.891)" fill="white"/>
<rect width="0.89189" height="0.89189" transform="matrix(-4.37114e-08 -1 -1 4.37114e-08 39.5403 143.891)" fill="white"/>
<rect width="0.89189" height="0.89189" transform="matrix(-4.37114e-08 -1 -1 4.37114e-08 24.0808 140.027)" fill="white"/>
<rect width="0.89189" height="0.89189" transform="matrix(-4.37114e-08 -1 -1 4.37114e-08 31.811 140.027)" fill="white"/>
<rect width="0.89189" height="0.89189" transform="matrix(-4.37114e-08 -1 -1 4.37114e-08 16.3516 140.027)" fill="white"/>
<rect width="0.89189" height="0.89189" transform="matrix(-4.37114e-08 -1 -1 4.37114e-08 39.5403 140.027)" fill="white"/>
<rect width="0.89189" height="0.89189" transform="matrix(-4.37114e-08 -1 -1 4.37114e-08 39.5403 155.486)" fill="white"/>
<rect width="0.89189" height="0.89189" transform="matrix(-4.37114e-08 -1 -1 4.37114e-08 39.5403 151.62)" fill="white"/>
<rect width="0.89189" height="0.89189" transform="matrix(-4.37114e-08 -1 -1 4.37114e-08 43.405 136.162)" fill="white"/>
<rect width="0.89189" height="0.89189" transform="matrix(-4.37114e-08 -1 -1 4.37114e-08 35.6758 136.162)" fill="white"/>
<rect width="0.89189" height="0.89189" transform="matrix(-4.37114e-08 -1 -1 4.37114e-08 43.405 132.296)" fill="white"/>
<rect width="0.89189" height="0.89189" transform="matrix(-4.37114e-08 -1 -1 4.37114e-08 35.6758 132.296)" fill="white"/>
<rect width="0.89189" height="0.89189" transform="matrix(-4.37114e-08 -1 -1 4.37114e-08 20.2161 147.756)" fill="white"/>
<rect width="0.89189" height="0.89189" transform="matrix(-4.37114e-08 -1 -1 4.37114e-08 27.9456 147.756)" fill="white"/>
<rect width="0.89189" height="0.89189" transform="matrix(-4.37114e-08 -1 -1 4.37114e-08 43.405 147.756)" fill="white"/>
<rect width="0.89189" height="0.89189" transform="matrix(-4.37114e-08 -1 -1 4.37114e-08 12.4861 147.756)" fill="white"/>
<rect width="0.89189" height="0.89189" transform="matrix(-4.37114e-08 -1 -1 4.37114e-08 35.6758 147.756)" fill="white"/>
<rect width="0.89189" height="0.89189" transform="matrix(-4.37114e-08 -1 -1 4.37114e-08 20.2161 143.891)" fill="white"/>
<rect width="0.89189" height="0.89189" transform="matrix(-4.37114e-08 -1 -1 4.37114e-08 27.9456 143.891)" fill="white"/>
<rect width="0.89189" height="0.89189" transform="matrix(-4.37114e-08 -1 -1 4.37114e-08 43.405 143.891)" fill="white"/>
<rect width="0.89189" height="0.89189" transform="matrix(-4.37114e-08 -1 -1 4.37114e-08 12.4861 143.891)" fill="white"/>
<rect width="0.89189" height="0.89189" transform="matrix(-4.37114e-08 -1 -1 4.37114e-08 35.6758 143.891)" fill="white"/>
<rect width="0.89189" height="0.89189" transform="matrix(-4.37114e-08 -1 -1 4.37114e-08 20.2161 140.027)" fill="white"/>
<rect width="0.89189" height="0.89189" transform="matrix(-4.37114e-08 -1 -1 4.37114e-08 27.9456 140.027)" fill="white"/>
<rect width="0.89189" height="0.89189" transform="matrix(-4.37114e-08 -1 -1 4.37114e-08 43.405 140.027)" fill="white"/>
<rect width="0.89189" height="0.89189" transform="matrix(-4.37114e-08 -1 -1 4.37114e-08 12.4861 140.027)" fill="white"/>
<rect width="0.89189" height="0.89189" transform="matrix(-4.37114e-08 -1 -1 4.37114e-08 35.6758 140.027)" fill="white"/>
<rect width="0.89189" height="0.89189" transform="matrix(-4.37114e-08 -1 -1 4.37114e-08 43.4016 155.484)" fill="white"/>
<rect width="0.89189" height="0.89189" transform="matrix(-4.37114e-08 -1 -1 4.37114e-08 35.6758 155.486)" fill="white"/>
<rect width="0.89189" height="0.89189" transform="matrix(-4.37114e-08 -1 -1 4.37114e-08 43.405 151.62)" fill="white"/>
<rect width="0.89189" height="0.89189" transform="matrix(-4.37114e-08 -1 -1 4.37114e-08 35.6758 151.62)" fill="white"/>
<rect width="0.89189" height="0.89189" transform="matrix(-4.37114e-08 -1 -1 4.37114e-08 24.0808 194.134)" fill="white"/>
<rect width="0.89189" height="0.89189" transform="matrix(-4.37114e-08 -1 -1 4.37114e-08 31.811 194.134)" fill="white"/>
<rect width="0.89189" height="0.89189" transform="matrix(-4.37114e-08 -1 -1 4.37114e-08 16.3516 194.134)" fill="white"/>
<rect width="0.89189" height="0.89189" transform="matrix(-4.37114e-08 -1 -1 4.37114e-08 39.5403 194.134)" fill="white"/>
<rect width="0.89189" height="0.89189" transform="matrix(-4.37114e-08 -1 -1 4.37114e-08 24.0808 190.271)" fill="white"/>
<rect width="0.89189" height="0.89189" transform="matrix(-4.37114e-08 -1 -1 4.37114e-08 31.811 190.271)" fill="white"/>
<rect width="0.89189" height="0.89189" transform="matrix(-4.37114e-08 -1 -1 4.37114e-08 16.3516 190.271)" fill="white"/>
<rect width="0.89189" height="0.89189" transform="matrix(-4.37114e-08 -1 -1 4.37114e-08 39.5403 190.271)" fill="white"/>
<rect width="0.89189" height="0.89189" transform="matrix(-4.37114e-08 -1 -1 4.37114e-08 24.0808 186.405)" fill="white"/>
<rect width="0.89189" height="0.89189" transform="matrix(-4.37114e-08 -1 -1 4.37114e-08 31.811 186.405)" fill="white"/>
<rect width="0.89189" height="0.89189" transform="matrix(-4.37114e-08 -1 -1 4.37114e-08 16.3516 186.405)" fill="white"/>
<rect width="0.89189" height="0.89189" transform="matrix(-4.37114e-08 -1 -1 4.37114e-08 39.5403 186.405)" fill="white"/>
<rect width="0.89189" height="0.89189" transform="matrix(-4.37114e-08 -1 -1 4.37114e-08 24.0808 182.54)" fill="white"/>
<rect width="0.89189" height="0.89189" transform="matrix(-4.37114e-08 -1 -1 4.37114e-08 31.811 182.54)" fill="white"/>
<rect width="0.89189" height="0.89189" transform="matrix(-4.37114e-08 -1 -1 4.37114e-08 24.0808 178.676)" fill="white"/>
<rect width="0.89189" height="0.89189" transform="matrix(-4.37114e-08 -1 -1 4.37114e-08 31.811 178.676)" fill="white"/>
<rect width="0.89189" height="0.89189" transform="matrix(-4.37114e-08 -1 -1 4.37114e-08 24.0808 174.81)" fill="white"/>
<rect width="0.89189" height="0.89189" transform="matrix(-4.37114e-08 -1 -1 4.37114e-08 31.811 174.81)" fill="white"/>
<rect width="0.89189" height="0.89189" transform="matrix(-4.37114e-08 -1 -1 4.37114e-08 16.3516 174.81)" fill="white"/>
<rect width="0.89189" height="0.89189" transform="matrix(-4.37114e-08 -1 -1 4.37114e-08 39.5403 174.81)" fill="white"/>
<rect width="0.89189" height="0.89189" transform="matrix(-4.37114e-08 -1 -1 4.37114e-08 24.0808 170.946)" fill="white"/>
<rect width="0.89189" height="0.89189" transform="matrix(-4.37114e-08 -1 -1 4.37114e-08 31.811 170.946)" fill="white"/>
<rect width="0.89189" height="0.89189" transform="matrix(-4.37114e-08 -1 -1 4.37114e-08 16.3516 170.946)" fill="white"/>
<rect width="0.89189" height="0.89189" transform="matrix(-4.37114e-08 -1 -1 4.37114e-08 39.5403 170.946)" fill="white"/>
<rect width="0.89189" height="0.89189" transform="matrix(-4.37114e-08 -1 -1 4.37114e-08 24.0808 167.081)" fill="white"/>
<rect width="0.89189" height="0.89189" transform="matrix(-4.37114e-08 -1 -1 4.37114e-08 31.811 167.081)" fill="white"/>
<rect width="0.89189" height="0.89189" transform="matrix(-4.37114e-08 -1 -1 4.37114e-08 16.3516 167.081)" fill="white"/>
<rect width="0.89189" height="0.89189" transform="matrix(-4.37114e-08 -1 -1 4.37114e-08 39.5403 167.081)" fill="white"/>
<rect width="0.89189" height="0.89189" transform="matrix(-4.37114e-08 -1 -1 4.37114e-08 20.2161 194.134)" fill="white"/>
<rect width="0.89189" height="0.89189" transform="matrix(-4.37114e-08 -1 -1 4.37114e-08 27.9456 194.134)" fill="white"/>
<rect width="0.89189" height="0.89189" transform="matrix(-4.37114e-08 -1 -1 4.37114e-08 43.4041 194.133)" fill="white"/>
<rect width="0.89189" height="0.89189" transform="matrix(-4.37114e-08 -1 -1 4.37114e-08 12.4861 194.134)" fill="white"/>
<rect width="0.89189" height="0.89189" transform="matrix(-4.37114e-08 -1 -1 4.37114e-08 35.6758 194.134)" fill="white"/>
<rect width="0.89189" height="0.89189" transform="matrix(-4.37114e-08 -1 -1 4.37114e-08 20.2161 190.271)" fill="white"/>
<rect width="0.89189" height="0.89189" transform="matrix(-4.37114e-08 -1 -1 4.37114e-08 27.9463 190.271)" fill="white"/>
<rect width="0.89189" height="0.89189" transform="matrix(-4.37114e-08 -1 -1 4.37114e-08 43.405 190.271)" fill="white"/>
<rect width="0.89189" height="0.89189" transform="matrix(-4.37114e-08 -1 -1 4.37114e-08 12.4861 190.271)" fill="white"/>
<rect width="0.89189" height="0.89189" transform="matrix(-4.37114e-08 -1 -1 4.37114e-08 35.6758 190.271)" fill="white"/>
<rect width="0.89189" height="0.89189" transform="matrix(-4.37114e-08 -1 -1 4.37114e-08 20.2161 186.405)" fill="white"/>
<rect width="0.89189" height="0.89189" transform="matrix(-4.37114e-08 -1 -1 4.37114e-08 27.9463 186.405)" fill="white"/>
<rect width="0.89189" height="0.89189" transform="matrix(-4.37114e-08 -1 -1 4.37114e-08 43.405 186.405)" fill="white"/>
<rect width="0.89189" height="0.89189" transform="matrix(-4.37114e-08 -1 -1 4.37114e-08 12.4861 186.405)" fill="white"/>
<rect width="0.89189" height="0.89189" transform="matrix(-4.37114e-08 -1 -1 4.37114e-08 35.6758 186.405)" fill="white"/>
<rect width="0.89189" height="0.89189" transform="matrix(-4.37114e-08 -1 -1 4.37114e-08 27.9463 182.54)" fill="white"/>
<rect width="0.89189" height="0.89189" transform="matrix(-4.37114e-08 -1 -1 4.37114e-08 35.6758 182.54)" fill="white"/>
<rect width="0.89189" height="0.89189" transform="matrix(-4.37114e-08 -1 -1 4.37114e-08 20.2161 178.676)" fill="white"/>
<rect width="0.89189" height="0.89189" transform="matrix(-4.37114e-08 -1 -1 4.37114e-08 27.9463 178.676)" fill="white"/>
<rect width="0.89189" height="0.89189" transform="matrix(-4.37114e-08 -1 -1 4.37114e-08 20.2161 174.81)" fill="white"/>
<rect width="0.89189" height="0.89189" transform="matrix(-4.37114e-08 -1 -1 4.37114e-08 27.9463 174.81)" fill="white"/>
<rect width="0.89189" height="0.89189" transform="matrix(-4.37114e-08 -1 -1 4.37114e-08 43.405 174.81)" fill="white"/>
<rect width="0.89189" height="0.89189" transform="matrix(-4.37114e-08 -1 -1 4.37114e-08 12.4861 174.81)" fill="white"/>
<rect width="0.89189" height="0.89189" transform="matrix(-4.37114e-08 -1 -1 4.37114e-08 35.6758 174.81)" fill="white"/>
<rect width="0.89189" height="0.89189" transform="matrix(-4.37114e-08 -1 -1 4.37114e-08 20.2161 170.946)" fill="white"/>
<rect width="0.89189" height="0.89189" transform="matrix(-4.37114e-08 -1 -1 4.37114e-08 27.9463 170.946)" fill="white"/>
<rect width="0.89189" height="0.89189" transform="matrix(-4.37114e-08 -1 -1 4.37114e-08 43.405 170.946)" fill="white"/>
<rect width="0.89189" height="0.89189" transform="matrix(-4.37114e-08 -1 -1 4.37114e-08 12.4861 170.946)" fill="white"/>
<rect width="0.89189" height="0.89189" transform="matrix(-4.37114e-08 -1 -1 4.37114e-08 35.6758 170.946)" fill="white"/>
<rect width="0.89189" height="0.89189" transform="matrix(-4.37114e-08 -1 -1 4.37114e-08 20.2161 167.081)" fill="white"/>
<rect width="0.89189" height="0.89189" transform="matrix(-4.37114e-08 -1 -1 4.37114e-08 27.9463 167.081)" fill="white"/>
<rect width="0.89189" height="0.89189" transform="matrix(-4.37114e-08 -1 -1 4.37114e-08 43.405 167.081)" fill="white"/>
<rect width="0.89189" height="0.89189" transform="matrix(-4.37114e-08 -1 -1 4.37114e-08 12.4861 167.081)" fill="white"/>
<rect width="0.89189" height="0.89189" transform="matrix(-4.37114e-08 -1 -1 4.37114e-08 35.6758 167.081)" fill="white"/>
<rect width="0.89189" height="0.89189" transform="matrix(-4.37114e-08 -1 -1 4.37114e-08 24.0808 47.2695)" fill="white"/>
<rect width="0.89189" height="0.89189" transform="matrix(-4.37114e-08 -1 -1 4.37114e-08 31.811 47.2695)" fill="white"/>
<rect width="0.89189" height="0.89189" transform="matrix(-4.37114e-08 -1 -1 4.37114e-08 16.3516 47.2695)" fill="white"/>
<rect width="0.89189" height="0.89189" transform="matrix(-4.37114e-08 -1 -1 4.37114e-08 39.5403 47.2695)" fill="white"/>
<rect width="0.89189" height="0.89189" transform="matrix(-4.37114e-08 -1 -1 4.37114e-08 24.0808 43.4038)" fill="white"/>
<rect width="0.89189" height="0.89189" transform="matrix(-4.37114e-08 -1 -1 4.37114e-08 31.811 43.4038)" fill="white"/>
<rect width="0.89189" height="0.89189" transform="matrix(-4.37114e-08 -1 -1 4.37114e-08 16.3516 43.4038)" fill="white"/>
<rect width="0.89189" height="0.89189" transform="matrix(-4.37114e-08 -1 -1 4.37114e-08 39.5403 43.4038)" fill="white"/>
<rect width="0.89189" height="0.89189" transform="matrix(-4.37114e-08 -1 -1 4.37114e-08 24.0808 39.54)" fill="white"/>
<rect width="0.89189" height="0.89189" transform="matrix(-4.37114e-08 -1 -1 4.37114e-08 31.811 39.54)" fill="white"/>
<rect width="0.89189" height="0.89189" transform="matrix(-4.37114e-08 -1 -1 4.37114e-08 16.3516 39.54)" fill="white"/>
<rect width="0.89189" height="0.89189" transform="matrix(-4.37114e-08 -1 -1 4.37114e-08 39.5403 39.54)" fill="white"/>
<rect width="0.89189" height="0.89189" transform="matrix(-4.37114e-08 -1 -1 4.37114e-08 24.0808 35.6748)" fill="white"/>
<rect width="0.89189" height="0.89189" transform="matrix(-4.37114e-08 -1 -1 4.37114e-08 31.811 35.6748)" fill="white"/>
<rect width="0.89189" height="0.89189" transform="matrix(-4.37114e-08 -1 -1 4.37114e-08 39.5403 35.6748)" fill="white"/>
<rect width="0.89189" height="0.89189" transform="matrix(-4.37114e-08 -1 -1 4.37114e-08 24.0808 31.811)" fill="white"/>
<rect width="0.89189" height="0.89189" transform="matrix(-4.37114e-08 -1 -1 4.37114e-08 31.811 31.811)" fill="white"/>
<rect width="0.89189" height="0.89189" transform="matrix(-4.37114e-08 -1 -1 4.37114e-08 16.3516 31.811)" fill="white"/>
<rect width="0.89189" height="0.89189" transform="matrix(-4.37114e-08 -1 -1 4.37114e-08 24.0808 27.9453)" fill="white"/>
<rect width="0.89189" height="0.89189" transform="matrix(-4.37114e-08 -1 -1 4.37114e-08 31.811 27.9453)" fill="white"/>
<rect width="0.89189" height="0.89189" transform="matrix(-4.37114e-08 -1 -1 4.37114e-08 16.3516 27.9453)" fill="white"/>
<rect width="0.89189" height="0.89189" transform="matrix(-4.37114e-08 -1 -1 4.37114e-08 24.0808 24.0796)" fill="white"/>
<rect width="0.89189" height="0.89189" transform="matrix(-4.37114e-08 -1 -1 4.37114e-08 31.811 24.0796)" fill="white"/>
<rect width="0.89189" height="0.89189" transform="matrix(-4.37114e-08 -1 -1 4.37114e-08 39.5403 24.0796)" fill="white"/>
<rect width="0.89189" height="0.89189" transform="matrix(-4.37114e-08 -1 -1 4.37114e-08 24.0808 20.2158)" fill="white"/>
<rect width="0.89189" height="0.89189" transform="matrix(-4.37114e-08 -1 -1 4.37114e-08 31.811 20.2158)" fill="white"/>
<rect width="0.89189" height="0.89189" transform="matrix(-4.37114e-08 -1 -1 4.37114e-08 16.3516 20.2158)" fill="white"/>
<rect width="0.89189" height="0.89189" transform="matrix(-4.37114e-08 -1 -1 4.37114e-08 39.5403 20.2158)" fill="white"/>
<rect width="0.89189" height="0.89189" transform="matrix(-4.37114e-08 -1 -1 4.37114e-08 24.0808 16.3506)" fill="white"/>
<rect width="0.89189" height="0.89189" transform="matrix(-4.37114e-08 -1 -1 4.37114e-08 31.811 16.3506)" fill="white"/>
<rect width="0.89189" height="0.89189" transform="matrix(-4.37114e-08 -1 -1 4.37114e-08 16.3516 16.3506)" fill="white"/>
<rect width="0.89189" height="0.89189" transform="matrix(-4.37114e-08 -1 -1 4.37114e-08 39.5403 16.3506)" fill="white"/>
<rect width="0.89189" height="0.89189" transform="matrix(-4.37114e-08 -1 -1 4.37114e-08 24.0808 12.4868)" fill="white"/>
<rect width="0.89189" height="0.89189" transform="matrix(-4.37114e-08 -1 -1 4.37114e-08 31.811 12.4868)" fill="white"/>
<rect width="0.89189" height="0.89189" transform="matrix(-4.37114e-08 -1 -1 4.37114e-08 16.3516 12.4868)" fill="white"/>
<rect width="0.89189" height="0.89189" transform="matrix(-4.37114e-08 -1 -1 4.37114e-08 39.5403 12.4868)" fill="white"/>
<rect width="0.89189" height="0.89189" transform="matrix(-4.37114e-08 -1 -1 4.37114e-08 20.2161 47.2695)" fill="white"/>
<rect width="0.89189" height="0.89189" transform="matrix(-4.37114e-08 -1 -1 4.37114e-08 27.9456 47.2695)" fill="white"/>
<rect width="0.89189" height="0.89189" transform="matrix(-4.37114e-08 -1 -1 4.37114e-08 43.4016 47.2695)" fill="white"/>
<rect width="0.89189" height="0.89189" transform="matrix(-4.37114e-08 -1 -1 4.37114e-08 12.4861 47.2695)" fill="white"/>
<rect width="0.89189" height="0.89189" transform="matrix(-4.37114e-08 -1 -1 4.37114e-08 35.6758 47.2695)" fill="white"/>
<rect width="0.89189" height="0.89189" transform="matrix(-4.37114e-08 -1 -1 4.37114e-08 20.2161 43.4038)" fill="white"/>
<rect width="0.89189" height="0.89189" transform="matrix(-4.37114e-08 -1 -1 4.37114e-08 27.9456 43.4038)" fill="white"/>
<rect width="0.89189" height="0.89189" transform="matrix(-4.37114e-08 -1 -1 4.37114e-08 43.405 43.4038)" fill="white"/>
<rect width="0.89189" height="0.89189" transform="matrix(-4.37114e-08 -1 -1 4.37114e-08 12.4861 43.4038)" fill="white"/>
<rect width="0.89189" height="0.89189" transform="matrix(-4.37114e-08 -1 -1 4.37114e-08 35.6758 43.4038)" fill="white"/>
<rect width="0.89189" height="0.89189" transform="matrix(-4.37114e-08 -1 -1 4.37114e-08 20.2161 39.54)" fill="white"/>
<rect width="0.89189" height="0.89189" transform="matrix(-4.37114e-08 -1 -1 4.37114e-08 27.9456 39.54)" fill="white"/>
<rect width="0.89189" height="0.89189" transform="matrix(-4.37114e-08 -1 -1 4.37114e-08 43.405 39.54)" fill="white"/>
<rect width="0.89189" height="0.89189" transform="matrix(-4.37114e-08 -1 -1 4.37114e-08 12.4861 39.54)" fill="white"/>
<rect width="0.89189" height="0.89189" transform="matrix(-4.37114e-08 -1 -1 4.37114e-08 35.6758 39.54)" fill="white"/>
<rect width="0.89189" height="0.89189" transform="matrix(-4.37114e-08 -1 -1 4.37114e-08 27.9456 35.6748)" fill="white"/>
<rect width="0.89189" height="0.89189" transform="matrix(-4.37114e-08 -1 -1 4.37114e-08 35.6758 35.6748)" fill="white"/>
<rect width="0.89189" height="0.89189" transform="matrix(-4.37114e-08 -1 -1 4.37114e-08 20.2161 31.811)" fill="white"/>
<rect width="0.89189" height="0.89189" transform="matrix(-4.37114e-08 -1 -1 4.37114e-08 27.9456 31.811)" fill="white"/>
<rect width="0.89189" height="0.89189" transform="matrix(-4.37114e-08 -1 -1 4.37114e-08 12.4861 31.811)" fill="white"/>
<rect width="0.89189" height="0.89189" transform="matrix(-4.37114e-08 -1 -1 4.37114e-08 20.2161 27.9453)" fill="white"/>
<rect width="0.89189" height="0.89189" transform="matrix(-4.37114e-08 -1 -1 4.37114e-08 27.9456 27.9453)" fill="white"/>
<rect width="0.89189" height="0.89189" transform="matrix(-4.37114e-08 -1 -1 4.37114e-08 12.4861 27.9453)" fill="white"/>
<rect width="0.89189" height="0.89189" transform="matrix(-4.37114e-08 -1 -1 4.37114e-08 27.9456 24.0796)" fill="white"/>
<rect width="0.89189" height="0.89189" transform="matrix(-4.37114e-08 -1 -1 4.37114e-08 35.6758 24.0796)" fill="white"/>
<rect width="0.89189" height="0.89189" transform="matrix(-4.37114e-08 -1 -1 4.37114e-08 20.2161 20.2158)" fill="white"/>
<rect width="0.89189" height="0.89189" transform="matrix(-4.37114e-08 -1 -1 4.37114e-08 27.9456 20.2158)" fill="white"/>
<rect width="0.89189" height="0.89189" transform="matrix(-4.37114e-08 -1 -1 4.37114e-08 43.405 20.2158)" fill="white"/>
<rect width="0.89189" height="0.89189" transform="matrix(-4.37114e-08 -1 -1 4.37114e-08 12.4861 20.2158)" fill="white"/>
<rect width="0.89189" height="0.89189" transform="matrix(-4.37114e-08 -1 -1 4.37114e-08 35.6758 20.2158)" fill="white"/>
<rect width="0.89189" height="0.89189" transform="matrix(-4.37114e-08 -1 -1 4.37114e-08 20.2161 16.3506)" fill="white"/>
<rect width="0.89189" height="0.89189" transform="matrix(-4.37114e-08 -1 -1 4.37114e-08 27.9456 16.3506)" fill="white"/>
<rect width="0.89189" height="0.89189" transform="matrix(-4.37114e-08 -1 -1 4.37114e-08 43.405 16.3506)" fill="white"/>
<rect width="0.89189" height="0.89189" transform="matrix(-4.37114e-08 -1 -1 4.37114e-08 12.4861 16.3506)" fill="white"/>
<rect width="0.89189" height="0.89189" transform="matrix(-4.37114e-08 -1 -1 4.37114e-08 35.6758 16.3506)" fill="white"/>
<rect width="0.89189" height="0.89189" transform="matrix(-4.37114e-08 -1 -1 4.37114e-08 20.2161 12.4868)" fill="white"/>
<rect width="0.89189" height="0.89189" transform="matrix(-4.37114e-08 -1 -1 4.37114e-08 27.9463 12.4868)" fill="white"/>
<rect width="0.89189" height="0.89189" transform="matrix(-4.37114e-08 -1 -1 4.37114e-08 43.405 12.4868)" fill="white"/>
<rect width="0.89189" height="0.89189" transform="matrix(-4.37114e-08 -1 -1 4.37114e-08 12.4861 12.4868)" fill="white"/>
<rect width="0.89189" height="0.89189" transform="matrix(-4.37114e-08 -1 -1 4.37114e-08 35.6758 12.4868)" fill="white"/>
</g>
</svg>
