<svg width="569" height="152" viewBox="0 0 569 152" fill="none" xmlns="http://www.w3.org/2000/svg">
<g style="mix-blend-mode:overlay">
<g opacity="0.3">
<rect y="0.000732422" width="2.46486" height="2.46486" fill="white"/>
<rect x="192.26" y="-6.10352e-05" width="2.46486" height="2.46486" fill="white"/>
<rect x="384.519" y="-6.10352e-05" width="2.46486" height="2.46486" fill="white"/>
<rect y="85.4489" width="2.46486" height="2.46486" fill="white"/>
<rect x="192.26" y="85.4489" width="2.46486" height="2.46486" fill="white"/>
<rect x="384.519" y="85.4489" width="2.46486" height="2.46486" fill="white"/>
<rect y="64.0862" width="2.46486" height="2.46486" fill="white"/>
<rect x="192.26" y="64.0862" width="2.46486" height="2.46486" fill="white"/>
<rect y="149.535" width="2.46486" height="2.46486" fill="white"/>
<rect x="192.26" y="149.535" width="2.46486" height="2.46486" fill="white"/>
<rect x="384.519" y="149.535" width="2.46486" height="2.46486" fill="white"/>
<rect y="21.3623" width="2.46486" height="2.46486" fill="white"/>
<rect x="192.26" y="21.3623" width="2.46486" height="2.46486" fill="white"/>
<rect x="384.519" y="21.3623" width="2.46486" height="2.46486" fill="white"/>
<rect y="106.811" width="2.46486" height="2.46486" fill="white"/>
<rect x="192.26" y="106.811" width="2.46486" height="2.46486" fill="white"/>
<rect y="42.7244" width="2.46486" height="2.46486" fill="white"/>
<rect y="128.173" width="2.46486" height="2.46486" fill="white"/>
<rect x="192.26" y="128.173" width="2.46486" height="2.46486" fill="white"/>
<rect x="384.519" y="128.173" width="2.46486" height="2.46486" fill="white"/>
<rect x="10.6814" y="-6.10352e-05" width="2.46486" height="2.46486" fill="white"/>
<rect x="202.941" y="-6.10352e-05" width="2.46486" height="2.46486" fill="white"/>
<rect x="395.199" y="-6.10352e-05" width="2.46486" height="2.46486" fill="white"/>
<rect x="10.6814" y="85.4489" width="2.46486" height="2.46486" fill="white"/>
<rect x="202.941" y="85.4489" width="2.46486" height="2.46486" fill="white"/>
<rect x="395.199" y="85.4489" width="2.46486" height="2.46486" fill="white"/>
<rect x="10.6814" y="64.0862" width="2.46486" height="2.46486" fill="white"/>
<rect x="202.941" y="64.0862" width="2.46486" height="2.46486" fill="white"/>
<rect x="10.6814" y="149.535" width="2.46486" height="2.46486" fill="white"/>
<rect x="202.941" y="149.535" width="2.46486" height="2.46486" fill="white"/>
<rect x="395.199" y="149.535" width="2.46486" height="2.46486" fill="white"/>
<rect x="10.6814" y="21.3623" width="2.46486" height="2.46486" fill="white"/>
<rect x="202.941" y="21.3623" width="2.46486" height="2.46486" fill="white"/>
<rect x="395.199" y="21.3623" width="2.46486" height="2.46486" fill="white"/>
<rect x="10.6814" y="106.811" width="2.46486" height="2.46486" fill="white"/>
<rect x="202.941" y="106.811" width="2.46486" height="2.46486" fill="white"/>
<rect x="10.6814" y="42.7244" width="2.46486" height="2.46486" fill="white"/>
<rect x="10.6814" y="128.173" width="2.46486" height="2.46486" fill="white"/>
<rect x="202.941" y="128.173" width="2.46486" height="2.46486" fill="white"/>
<rect x="395.199" y="128.173" width="2.46486" height="2.46486" fill="white"/>
<rect x="21.3622" y="-6.10352e-05" width="2.46486" height="2.46486" fill="white"/>
<rect x="213.621" y="-6.10352e-05" width="2.46486" height="2.46486" fill="white"/>
<rect x="405.881" y="-6.10352e-05" width="2.46486" height="2.46486" fill="white"/>
<rect x="21.3622" y="85.4489" width="2.46486" height="2.46486" fill="white"/>
<rect x="213.621" y="85.4489" width="2.46486" height="2.46486" fill="white"/>
<rect x="405.881" y="85.4489" width="2.46486" height="2.46486" fill="white"/>
<rect x="21.3622" y="64.0862" width="2.46486" height="2.46486" fill="white"/>
<rect x="213.621" y="64.0862" width="2.46486" height="2.46486" fill="white"/>
<rect x="405.881" y="64.0862" width="2.46486" height="2.46486" fill="white"/>
<rect x="21.3622" y="149.535" width="2.46486" height="2.46486" fill="white"/>
<rect x="213.621" y="149.535" width="2.46486" height="2.46486" fill="white"/>
<rect x="405.881" y="149.535" width="2.46486" height="2.46486" fill="white"/>
<rect x="21.3622" y="21.3623" width="2.46486" height="2.46486" fill="white"/>
<rect x="213.621" y="21.3623" width="2.46486" height="2.46486" fill="white"/>
<rect x="405.881" y="21.3623" width="2.46486" height="2.46486" fill="white"/>
<rect x="21.3622" y="106.811" width="2.46486" height="2.46486" fill="white"/>
<rect x="213.621" y="106.811" width="2.46486" height="2.46486" fill="white"/>
<rect x="21.3622" y="42.7244" width="2.46486" height="2.46486" fill="white"/>
<rect x="213.621" y="42.7244" width="2.46486" height="2.46486" fill="white"/>
<rect x="21.3622" y="128.173" width="2.46486" height="2.46486" fill="white"/>
<rect x="213.621" y="128.173" width="2.46486" height="2.46486" fill="white"/>
<rect x="405.881" y="128.173" width="2.46486" height="2.46486" fill="white"/>
<rect x="32.0433" y="-6.10352e-05" width="2.46486" height="2.46486" fill="white"/>
<rect x="224.302" y="-6.10352e-05" width="2.46486" height="2.46486" fill="white"/>
<rect x="416.562" y="-6.10352e-05" width="2.46486" height="2.46486" fill="white"/>
<rect x="224.302" y="85.4489" width="2.46486" height="2.46486" fill="white"/>
<rect x="416.562" y="85.4489" width="2.46486" height="2.46486" fill="white"/>
<rect x="224.302" y="64.0862" width="2.46486" height="2.46486" fill="white"/>
<rect x="416.562" y="64.0862" width="2.46486" height="2.46486" fill="white"/>
<rect x="32.0433" y="149.535" width="2.46486" height="2.46486" fill="white"/>
<rect x="224.302" y="149.535" width="2.46486" height="2.46486" fill="white"/>
<rect x="416.562" y="149.535" width="2.46486" height="2.46486" fill="white"/>
<rect x="32.0433" y="21.3623" width="2.46486" height="2.46486" fill="white"/>
<rect x="224.302" y="21.3623" width="2.46486" height="2.46486" fill="white"/>
<rect x="416.562" y="21.3623" width="2.46486" height="2.46486" fill="white"/>
<rect x="224.302" y="106.811" width="2.46486" height="2.46486" fill="white"/>
<rect x="416.562" y="106.811" width="2.46486" height="2.46486" fill="white"/>
<rect x="224.302" y="42.7244" width="2.46486" height="2.46486" fill="white"/>
<rect x="416.562" y="42.7244" width="2.46486" height="2.46486" fill="white"/>
<rect x="32.0433" y="128.173" width="2.46486" height="2.46486" fill="white"/>
<rect x="224.302" y="128.173" width="2.46486" height="2.46486" fill="white"/>
<rect x="416.562" y="128.173" width="2.46486" height="2.46486" fill="white"/>
<rect x="42.7241" y="-6.10352e-05" width="2.46486" height="2.46486" fill="white"/>
<rect x="234.984" y="-6.10352e-05" width="2.46486" height="2.46486" fill="white"/>
<rect x="427.243" y="-6.10352e-05" width="2.46486" height="2.46486" fill="white"/>
<rect x="427.243" y="85.4489" width="2.46486" height="2.46486" fill="white"/>
<rect x="427.243" y="64.0862" width="2.46486" height="2.46486" fill="white"/>
<rect x="42.7241" y="149.535" width="2.46486" height="2.46486" fill="white"/>
<rect x="234.984" y="149.535" width="2.46486" height="2.46486" fill="white"/>
<rect x="427.243" y="149.535" width="2.46486" height="2.46486" fill="white"/>
<rect x="42.7241" y="21.3623" width="2.46486" height="2.46486" fill="white"/>
<rect x="234.984" y="21.3623" width="2.46486" height="2.46486" fill="white"/>
<rect x="427.243" y="21.3623" width="2.46486" height="2.46486" fill="white"/>
<rect x="427.243" y="106.811" width="2.46486" height="2.46486" fill="white"/>
<rect x="427.243" y="42.7244" width="2.46486" height="2.46486" fill="white"/>
<rect x="42.7241" y="128.173" width="2.46486" height="2.46486" fill="white"/>
<rect x="234.984" y="128.173" width="2.46486" height="2.46486" fill="white"/>
<rect x="427.243" y="128.173" width="2.46486" height="2.46486" fill="white"/>
<rect x="53.4055" y="-6.10352e-05" width="2.46486" height="2.46486" fill="white"/>
<rect x="245.665" y="-6.10352e-05" width="2.46486" height="2.46486" fill="white"/>
<rect x="437.924" y="-6.10352e-05" width="2.46486" height="2.46486" fill="white"/>
<rect x="53.4055" y="149.535" width="2.46486" height="2.46486" fill="white"/>
<rect x="245.665" y="149.535" width="2.46486" height="2.46486" fill="white"/>
<rect x="437.924" y="149.535" width="2.46486" height="2.46486" fill="white"/>
<rect x="53.4055" y="21.3623" width="2.46486" height="2.46486" fill="white"/>
<rect x="245.665" y="21.3623" width="2.46486" height="2.46486" fill="white"/>
<rect x="437.924" y="21.3623" width="2.46486" height="2.46486" fill="white"/>
<rect x="53.4055" y="128.173" width="2.46486" height="2.46486" fill="white"/>
<rect x="245.665" y="128.173" width="2.46486" height="2.46486" fill="white"/>
<rect x="437.924" y="128.173" width="2.46486" height="2.46486" fill="white"/>
<rect x="64.0867" y="-6.10352e-05" width="2.46486" height="2.46486" fill="white"/>
<rect x="256.346" y="-6.10352e-05" width="2.46486" height="2.46486" fill="white"/>
<rect x="448.605" y="-6.10352e-05" width="2.46497" height="2.46487" fill="white"/>
<rect x="64.0867" y="149.535" width="2.46486" height="2.46486" fill="white"/>
<rect x="256.346" y="149.535" width="2.46486" height="2.46486" fill="white"/>
<rect x="448.605" y="149.535" width="2.46497" height="2.46487" fill="white"/>
<rect x="64.0867" y="21.3623" width="2.46486" height="2.46486" fill="white"/>
<rect x="256.346" y="21.3623" width="2.46486" height="2.46486" fill="white"/>
<rect x="448.605" y="21.3623" width="2.46497" height="2.46486" fill="white"/>
<rect x="64.0867" y="106.811" width="2.46486" height="2.46486" fill="white"/>
<rect x="64.0867" y="42.7244" width="2.46486" height="2.46486" fill="white"/>
<rect x="64.0867" y="128.173" width="2.46486" height="2.46486" fill="white"/>
<rect x="256.346" y="128.173" width="2.46486" height="2.46486" fill="white"/>
<rect x="448.605" y="128.173" width="2.46497" height="2.46487" fill="white"/>
<rect x="74.7676" y="-6.10352e-05" width="2.46486" height="2.46486" fill="white"/>
<rect x="267.027" y="-6.10352e-05" width="2.46486" height="2.46486" fill="white"/>
<rect x="459.286" y="-6.10352e-05" width="2.46486" height="2.46486" fill="white"/>
<rect x="267.027" y="64.0862" width="2.46486" height="2.46486" fill="white"/>
<rect x="74.7676" y="149.535" width="2.46486" height="2.46486" fill="white"/>
<rect x="267.027" y="149.535" width="2.46486" height="2.46486" fill="white"/>
<rect x="459.286" y="149.535" width="2.46486" height="2.46486" fill="white"/>
<rect x="74.7676" y="21.3623" width="2.46486" height="2.46486" fill="white"/>
<rect x="267.027" y="21.3623" width="2.46486" height="2.46486" fill="white"/>
<rect x="459.286" y="21.3623" width="2.46486" height="2.46486" fill="white"/>
<rect x="74.7676" y="106.811" width="2.46486" height="2.46486" fill="white"/>
<rect x="267.027" y="106.811" width="2.46486" height="2.46486" fill="white"/>
<rect x="74.7676" y="42.7244" width="2.46486" height="2.46486" fill="white"/>
<rect x="74.7676" y="128.173" width="2.46486" height="2.46486" fill="white"/>
<rect x="267.027" y="128.173" width="2.46486" height="2.46486" fill="white"/>
<rect x="459.286" y="128.173" width="2.46486" height="2.46486" fill="white"/>
<rect x="85.4484" y="-6.10352e-05" width="2.46486" height="2.46486" fill="white"/>
<rect x="277.708" y="-6.10352e-05" width="2.46486" height="2.46486" fill="white"/>
<rect x="469.967" y="-6.10352e-05" width="2.46486" height="2.46486" fill="white"/>
<rect x="277.708" y="64.0862" width="2.46486" height="2.46486" fill="white"/>
<rect x="85.4484" y="149.535" width="2.46486" height="2.46486" fill="white"/>
<rect x="277.708" y="149.535" width="2.46486" height="2.46486" fill="white"/>
<rect x="469.967" y="149.535" width="2.46486" height="2.46486" fill="white"/>
<rect x="85.4484" y="21.3623" width="2.46486" height="2.46486" fill="white"/>
<rect x="277.708" y="21.3623" width="2.46486" height="2.46486" fill="white"/>
<rect x="469.967" y="21.3623" width="2.46486" height="2.46486" fill="white"/>
<rect x="469.967" y="106.811" width="2.46486" height="2.46486" fill="white"/>
<rect x="85.4484" y="128.173" width="2.46486" height="2.46486" fill="white"/>
<rect x="277.708" y="128.173" width="2.46486" height="2.46486" fill="white"/>
<rect x="469.967" y="128.173" width="2.46486" height="2.46486" fill="white"/>
<rect x="96.1298" y="-6.10352e-05" width="2.46486" height="2.46486" fill="white"/>
<rect x="288.389" y="-6.10352e-05" width="2.46486" height="2.46486" fill="white"/>
<rect x="480.648" y="-6.10352e-05" width="2.46486" height="2.46486" fill="white"/>
<rect x="96.1298" y="149.535" width="2.46486" height="2.46486" fill="white"/>
<rect x="288.389" y="149.535" width="2.46486" height="2.46486" fill="white"/>
<rect x="480.648" y="149.535" width="2.46486" height="2.46486" fill="white"/>
<rect x="96.1298" y="21.3623" width="2.46486" height="2.46486" fill="white"/>
<rect x="288.389" y="21.3623" width="2.46486" height="2.46486" fill="white"/>
<rect x="480.648" y="21.3623" width="2.46486" height="2.46486" fill="white"/>
<rect x="480.648" y="42.7244" width="2.46486" height="2.46486" fill="white"/>
<rect x="96.1298" y="128.173" width="2.46486" height="2.46486" fill="white"/>
<rect x="288.389" y="128.173" width="2.46486" height="2.46486" fill="white"/>
<rect x="480.648" y="128.173" width="2.46486" height="2.46486" fill="white"/>
<rect x="106.811" y="-6.10352e-05" width="2.46486" height="2.46486" fill="white"/>
<rect x="299.07" y="-6.10352e-05" width="2.46486" height="2.46486" fill="white"/>
<rect x="491.329" y="-6.10352e-05" width="2.46486" height="2.46486" fill="white"/>
<rect x="299.07" y="85.4489" width="2.46486" height="2.46486" fill="white"/>
<rect x="106.811" y="149.535" width="2.46486" height="2.46486" fill="white"/>
<rect x="299.07" y="149.535" width="2.46486" height="2.46486" fill="white"/>
<rect x="491.329" y="149.535" width="2.46486" height="2.46486" fill="white"/>
<rect x="160.216" y="-6.10352e-05" width="2.46486" height="2.46486" fill="white"/>
<rect x="352.475" y="-6.10352e-05" width="2.46486" height="2.46486" fill="white"/>
<rect x="544.734" y="-6.10352e-05" width="2.46486" height="2.46486" fill="white"/>
<rect x="544.734" y="85.4489" width="2.46486" height="2.46486" fill="white"/>
<rect x="352.475" y="64.0862" width="2.46486" height="2.46486" fill="white"/>
<rect x="544.734" y="64.0862" width="2.46486" height="2.46486" fill="white"/>
<rect x="160.216" y="149.535" width="2.46486" height="2.46486" fill="white"/>
<rect x="352.475" y="149.535" width="2.46486" height="2.46486" fill="white"/>
<rect x="544.734" y="149.535" width="2.46486" height="2.46486" fill="white"/>
<rect x="106.811" y="21.3623" width="2.46486" height="2.46486" fill="white"/>
<rect x="299.07" y="21.3623" width="2.46486" height="2.46486" fill="white"/>
<rect x="491.329" y="21.3623" width="2.46486" height="2.46486" fill="white"/>
<rect x="160.216" y="21.3623" width="2.46486" height="2.46486" fill="white"/>
<rect x="352.475" y="21.3623" width="2.46486" height="2.46486" fill="white"/>
<rect x="544.734" y="21.3623" width="2.46486" height="2.46486" fill="white"/>
<rect x="544.734" y="106.811" width="2.46486" height="2.46486" fill="white"/>
<rect x="491.329" y="42.7244" width="2.46486" height="2.46486" fill="white"/>
<rect x="106.811" y="128.173" width="2.46486" height="2.46486" fill="white"/>
<rect x="299.07" y="128.173" width="2.46486" height="2.46486" fill="white"/>
<rect x="491.329" y="128.173" width="2.46486" height="2.46486" fill="white"/>
<rect x="544.734" y="42.7244" width="2.46486" height="2.46486" fill="white"/>
<rect x="160.216" y="128.173" width="2.46486" height="2.46486" fill="white"/>
<rect x="352.475" y="128.173" width="2.46486" height="2.46486" fill="white"/>
<rect x="544.734" y="128.173" width="2.46486" height="2.46486" fill="white"/>
<rect x="117.492" y="-6.10352e-05" width="2.46486" height="2.46486" fill="white"/>
<rect x="309.751" y="-6.10352e-05" width="2.46486" height="2.46486" fill="white"/>
<rect x="502.01" y="-6.10352e-05" width="2.46486" height="2.46486" fill="white"/>
<rect x="117.492" y="85.4489" width="2.46486" height="2.46486" fill="white"/>
<rect x="309.751" y="85.4489" width="2.46486" height="2.46486" fill="white"/>
<rect x="117.492" y="64.0862" width="2.46486" height="2.46486" fill="white"/>
<rect x="117.492" y="149.535" width="2.46486" height="2.46486" fill="white"/>
<rect x="309.751" y="149.535" width="2.46486" height="2.46486" fill="white"/>
<rect x="502.01" y="149.535" width="2.46486" height="2.46486" fill="white"/>
<rect x="170.897" y="-6.10352e-05" width="2.46486" height="2.46486" fill="white"/>
<rect x="363.156" y="-6.10352e-05" width="2.46486" height="2.46486" fill="white"/>
<rect x="555.416" y="-6.10352e-05" width="2.46486" height="2.46486" fill="white"/>
<rect x="555.416" y="85.4489" width="2.46486" height="2.46486" fill="white"/>
<rect x="363.156" y="64.0862" width="2.46486" height="2.46486" fill="white"/>
<rect x="555.416" y="64.0862" width="2.46486" height="2.46486" fill="white"/>
<rect x="170.897" y="149.535" width="2.46486" height="2.46486" fill="white"/>
<rect x="363.156" y="149.535" width="2.46486" height="2.46486" fill="white"/>
<rect x="555.416" y="149.535" width="2.46486" height="2.46486" fill="white"/>
<rect x="117.492" y="21.3623" width="2.46486" height="2.46486" fill="white"/>
<rect x="309.751" y="21.3623" width="2.46486" height="2.46486" fill="white"/>
<rect x="502.01" y="21.3623" width="2.46486" height="2.46486" fill="white"/>
<rect x="117.492" y="106.811" width="2.46486" height="2.46486" fill="white"/>
<rect x="309.751" y="106.811" width="2.46486" height="2.46486" fill="white"/>
<rect x="502.01" y="106.811" width="2.46486" height="2.46486" fill="white"/>
<rect x="170.897" y="21.3623" width="2.46486" height="2.46486" fill="white"/>
<rect x="363.156" y="21.3623" width="2.46486" height="2.46486" fill="white"/>
<rect x="555.416" y="21.3623" width="2.46486" height="2.46486" fill="white"/>
<rect x="555.416" y="106.811" width="2.46486" height="2.46486" fill="white"/>
<rect x="117.492" y="42.7244" width="2.46486" height="2.46486" fill="white"/>
<rect x="309.751" y="42.7244" width="2.46486" height="2.46486" fill="white"/>
<rect x="117.492" y="128.173" width="2.46486" height="2.46486" fill="white"/>
<rect x="309.751" y="128.173" width="2.46486" height="2.46486" fill="white"/>
<rect x="502.01" y="128.173" width="2.46486" height="2.46486" fill="white"/>
<rect x="555.416" y="42.7244" width="2.46486" height="2.46486" fill="white"/>
<rect x="170.897" y="128.173" width="2.46486" height="2.46486" fill="white"/>
<rect x="363.156" y="128.173" width="2.46486" height="2.46486" fill="white"/>
<rect x="555.416" y="128.173" width="2.46486" height="2.46486" fill="white"/>
<rect x="128.173" y="-6.10352e-05" width="2.46486" height="2.46486" fill="white"/>
<rect x="320.432" y="-6.10352e-05" width="2.46486" height="2.46486" fill="white"/>
<rect x="512.691" y="-6.10352e-05" width="2.46486" height="2.46486" fill="white"/>
<rect x="128.173" y="85.4489" width="2.46486" height="2.46486" fill="white"/>
<rect x="320.432" y="85.4489" width="2.46486" height="2.46486" fill="white"/>
<rect x="128.173" y="64.0862" width="2.46486" height="2.46486" fill="white"/>
<rect x="320.432" y="64.0862" width="2.46486" height="2.46486" fill="white"/>
<rect x="128.173" y="149.535" width="2.46486" height="2.46486" fill="white"/>
<rect x="320.432" y="149.535" width="2.46486" height="2.46486" fill="white"/>
<rect x="512.691" y="149.535" width="2.46486" height="2.46486" fill="white"/>
<rect x="181.578" y="-6.10352e-05" width="2.46486" height="2.46486" fill="white"/>
<rect x="373.838" y="-6.10352e-05" width="2.46486" height="2.46486" fill="white"/>
<rect x="566.097" y="-6.10352e-05" width="2.46497" height="2.46487" fill="white"/>
<rect x="566.097" y="85.4489" width="2.46497" height="2.46486" fill="white"/>
<rect x="566.097" y="64.0862" width="2.46497" height="2.46486" fill="white"/>
<rect x="181.578" y="149.535" width="2.46486" height="2.46486" fill="white"/>
<rect x="373.838" y="149.535" width="2.46486" height="2.46486" fill="white"/>
<rect x="566.097" y="149.535" width="2.46497" height="2.46487" fill="white"/>
<rect x="128.173" y="21.3623" width="2.46486" height="2.46486" fill="white"/>
<rect x="320.432" y="21.3623" width="2.46486" height="2.46486" fill="white"/>
<rect x="512.691" y="21.3623" width="2.46486" height="2.46486" fill="white"/>
<rect x="128.173" y="106.811" width="2.46486" height="2.46486" fill="white"/>
<rect x="320.432" y="106.811" width="2.46486" height="2.46486" fill="white"/>
<rect x="181.578" y="21.3623" width="2.46486" height="2.46486" fill="white"/>
<rect x="373.838" y="21.3623" width="2.46486" height="2.46486" fill="white"/>
<rect x="566.097" y="21.3623" width="2.46497" height="2.46486" fill="white"/>
<rect x="566.097" y="106.811" width="2.46497" height="2.46487" fill="white"/>
<rect x="128.173" y="42.7244" width="2.46486" height="2.46486" fill="white"/>
<rect x="320.432" y="42.7244" width="2.46486" height="2.46486" fill="white"/>
<rect x="128.173" y="128.173" width="2.46486" height="2.46486" fill="white"/>
<rect x="320.432" y="128.173" width="2.46486" height="2.46486" fill="white"/>
<rect x="512.691" y="128.173" width="2.46486" height="2.46486" fill="white"/>
<rect x="566.097" y="42.7244" width="2.46497" height="2.46486" fill="white"/>
<rect x="181.578" y="128.173" width="2.46486" height="2.46486" fill="white"/>
<rect x="373.838" y="128.173" width="2.46486" height="2.46486" fill="white"/>
<rect x="566.097" y="128.173" width="2.46497" height="2.46487" fill="white"/>
<rect x="138.854" y="-6.10352e-05" width="2.46486" height="2.46486" fill="white"/>
<rect x="331.113" y="-6.10352e-05" width="2.46486" height="2.46486" fill="white"/>
<rect x="523.372" y="-6.10352e-05" width="2.46486" height="2.46486" fill="white"/>
<rect x="138.854" y="85.4489" width="2.46486" height="2.46486" fill="white"/>
<rect x="331.113" y="85.4489" width="2.46486" height="2.46486" fill="white"/>
<rect x="138.854" y="64.0862" width="2.46486" height="2.46486" fill="white"/>
<rect x="331.113" y="64.0862" width="2.46486" height="2.46486" fill="white"/>
<rect x="138.854" y="149.535" width="2.46486" height="2.46486" fill="white"/>
<rect x="331.113" y="149.535" width="2.46486" height="2.46486" fill="white"/>
<rect x="523.372" y="149.535" width="2.46486" height="2.46486" fill="white"/>
<rect x="138.854" y="21.3623" width="2.46486" height="2.46486" fill="white"/>
<rect x="331.113" y="21.3623" width="2.46486" height="2.46486" fill="white"/>
<rect x="523.372" y="21.3623" width="2.46486" height="2.46486" fill="white"/>
<rect x="138.854" y="106.811" width="2.46486" height="2.46486" fill="white"/>
<rect x="331.113" y="106.811" width="2.46486" height="2.46486" fill="white"/>
<rect x="331.113" y="42.7244" width="2.46486" height="2.46486" fill="white"/>
<rect x="138.854" y="128.173" width="2.46486" height="2.46486" fill="white"/>
<rect x="331.113" y="128.173" width="2.46486" height="2.46486" fill="white"/>
<rect x="523.372" y="128.173" width="2.46486" height="2.46486" fill="white"/>
<rect x="149.535" y="-6.10352e-05" width="2.46486" height="2.46486" fill="white"/>
<rect x="341.794" y="-6.10352e-05" width="2.46486" height="2.46486" fill="white"/>
<rect x="534.054" y="-6.10352e-05" width="2.46486" height="2.46486" fill="white"/>
<rect x="149.535" y="85.4489" width="2.46486" height="2.46486" fill="white"/>
<rect x="341.794" y="85.4489" width="2.46486" height="2.46486" fill="white"/>
<rect x="149.535" y="64.0862" width="2.46486" height="2.46486" fill="white"/>
<rect x="341.794" y="64.0862" width="2.46486" height="2.46486" fill="white"/>
<rect x="149.535" y="149.535" width="2.46486" height="2.46486" fill="white"/>
<rect x="341.794" y="149.535" width="2.46486" height="2.46486" fill="white"/>
<rect x="534.054" y="149.535" width="2.46486" height="2.46486" fill="white"/>
<rect x="149.535" y="21.3623" width="2.46486" height="2.46486" fill="white"/>
<rect x="341.794" y="21.3623" width="2.46486" height="2.46486" fill="white"/>
<rect x="534.054" y="21.3623" width="2.46486" height="2.46486" fill="white"/>
<rect x="149.535" y="106.811" width="2.46486" height="2.46486" fill="white"/>
<rect x="149.535" y="128.173" width="2.46486" height="2.46486" fill="white"/>
<rect x="341.794" y="128.173" width="2.46486" height="2.46486" fill="white"/>
<rect x="534.054" y="128.173" width="2.46486" height="2.46486" fill="white"/>
<rect y="10.6811" width="2.46486" height="2.46486" fill="white"/>
<rect x="192.26" y="10.6811" width="2.46486" height="2.46486" fill="white"/>
<rect x="384.519" y="10.6811" width="2.46486" height="2.46486" fill="white"/>
<rect y="96.1295" width="2.46486" height="2.46486" fill="white"/>
<rect x="192.26" y="96.1295" width="2.46486" height="2.46486" fill="white"/>
<rect y="74.7674" width="2.46486" height="2.46486" fill="white"/>
<rect x="192.26" y="74.7674" width="2.46486" height="2.46486" fill="white"/>
<rect y="32.0433" width="2.46486" height="2.46486" fill="white"/>
<rect y="117.492" width="2.46486" height="2.46486" fill="white"/>
<rect x="192.26" y="117.492" width="2.46486" height="2.46486" fill="white"/>
<rect y="53.4055" width="2.46486" height="2.46486" fill="white"/>
<rect y="138.854" width="2.46486" height="2.46486" fill="white"/>
<rect x="192.26" y="138.854" width="2.46486" height="2.46486" fill="white"/>
<rect x="384.519" y="138.854" width="2.46486" height="2.46486" fill="white"/>
<rect x="10.6814" y="10.6811" width="2.46486" height="2.46486" fill="white"/>
<rect x="202.941" y="10.6811" width="2.46486" height="2.46486" fill="white"/>
<rect x="395.199" y="10.6811" width="2.46486" height="2.46486" fill="white"/>
<rect x="10.6814" y="96.1295" width="2.46486" height="2.46486" fill="white"/>
<rect x="202.941" y="96.1295" width="2.46486" height="2.46486" fill="white"/>
<rect x="10.6814" y="74.7674" width="2.46486" height="2.46486" fill="white"/>
<rect x="202.941" y="74.7674" width="2.46486" height="2.46486" fill="white"/>
<rect x="395.199" y="74.7674" width="2.46486" height="2.46486" fill="white"/>
<rect x="10.6814" y="32.0433" width="2.46486" height="2.46486" fill="white"/>
<rect x="10.6814" y="117.492" width="2.46486" height="2.46486" fill="white"/>
<rect x="202.941" y="117.492" width="2.46486" height="2.46486" fill="white"/>
<rect x="10.6814" y="53.4055" width="2.46486" height="2.46486" fill="white"/>
<rect x="10.6814" y="138.854" width="2.46486" height="2.46486" fill="white"/>
<rect x="202.941" y="138.854" width="2.46486" height="2.46486" fill="white"/>
<rect x="395.199" y="138.854" width="2.46486" height="2.46486" fill="white"/>
<rect x="21.3622" y="10.6811" width="2.46486" height="2.46486" fill="white"/>
<rect x="213.621" y="10.6811" width="2.46486" height="2.46486" fill="white"/>
<rect x="405.881" y="10.6811" width="2.46486" height="2.46486" fill="white"/>
<rect x="21.3622" y="96.1295" width="2.46486" height="2.46486" fill="white"/>
<rect x="213.621" y="96.1295" width="2.46486" height="2.46486" fill="white"/>
<rect x="21.3622" y="74.7674" width="2.46486" height="2.46486" fill="white"/>
<rect x="213.621" y="74.7674" width="2.46486" height="2.46486" fill="white"/>
<rect x="405.881" y="74.7674" width="2.46486" height="2.46486" fill="white"/>
<rect x="21.3622" y="32.0433" width="2.46486" height="2.46486" fill="white"/>
<rect x="213.621" y="32.0433" width="2.46486" height="2.46486" fill="white"/>
<rect x="21.3622" y="117.492" width="2.46486" height="2.46486" fill="white"/>
<rect x="213.621" y="117.492" width="2.46486" height="2.46486" fill="white"/>
<rect x="21.3622" y="53.4055" width="2.46486" height="2.46486" fill="white"/>
<rect x="213.621" y="53.4055" width="2.46486" height="2.46486" fill="white"/>
<rect x="21.3622" y="138.854" width="2.46486" height="2.46486" fill="white"/>
<rect x="213.621" y="138.854" width="2.46486" height="2.46486" fill="white"/>
<rect x="405.881" y="138.854" width="2.46486" height="2.46486" fill="white"/>
<rect x="32.0433" y="10.6811" width="2.46486" height="2.46486" fill="white"/>
<rect x="224.302" y="10.6811" width="2.46486" height="2.46486" fill="white"/>
<rect x="416.562" y="10.6811" width="2.46486" height="2.46486" fill="white"/>
<rect x="224.302" y="96.1295" width="2.46486" height="2.46486" fill="white"/>
<rect x="416.562" y="96.1295" width="2.46486" height="2.46486" fill="white"/>
<rect x="224.302" y="74.7674" width="2.46486" height="2.46486" fill="white"/>
<rect x="416.562" y="74.7674" width="2.46486" height="2.46486" fill="white"/>
<rect x="224.302" y="32.0433" width="2.46486" height="2.46486" fill="white"/>
<rect x="416.562" y="32.0433" width="2.46486" height="2.46486" fill="white"/>
<rect x="224.302" y="117.492" width="2.46486" height="2.46486" fill="white"/>
<rect x="416.562" y="117.492" width="2.46486" height="2.46486" fill="white"/>
<rect x="224.302" y="53.4055" width="2.46486" height="2.46486" fill="white"/>
<rect x="416.562" y="53.4055" width="2.46486" height="2.46486" fill="white"/>
<rect x="32.0433" y="138.854" width="2.46486" height="2.46486" fill="white"/>
<rect x="224.302" y="138.854" width="2.46486" height="2.46486" fill="white"/>
<rect x="416.562" y="138.854" width="2.46486" height="2.46486" fill="white"/>
<rect x="42.7241" y="10.6811" width="2.46486" height="2.46486" fill="white"/>
<rect x="234.984" y="10.6811" width="2.46486" height="2.46486" fill="white"/>
<rect x="427.243" y="10.6811" width="2.46486" height="2.46486" fill="white"/>
<rect x="427.243" y="96.1295" width="2.46486" height="2.46486" fill="white"/>
<rect x="427.243" y="74.7674" width="2.46486" height="2.46486" fill="white"/>
<rect x="427.243" y="32.0433" width="2.46486" height="2.46486" fill="white"/>
<rect x="427.243" y="117.492" width="2.46486" height="2.46486" fill="white"/>
<rect x="427.243" y="53.4055" width="2.46486" height="2.46486" fill="white"/>
<rect x="42.7241" y="138.854" width="2.46486" height="2.46486" fill="white"/>
<rect x="234.984" y="138.854" width="2.46486" height="2.46486" fill="white"/>
<rect x="427.243" y="138.854" width="2.46486" height="2.46486" fill="white"/>
<rect x="53.4055" y="10.6811" width="2.46486" height="2.46486" fill="white"/>
<rect x="245.665" y="10.6811" width="2.46486" height="2.46486" fill="white"/>
<rect x="437.924" y="10.6811" width="2.46486" height="2.46486" fill="white"/>
<rect x="53.4055" y="138.854" width="2.46486" height="2.46486" fill="white"/>
<rect x="245.665" y="138.854" width="2.46486" height="2.46486" fill="white"/>
<rect x="437.924" y="138.854" width="2.46486" height="2.46486" fill="white"/>
<rect x="64.0867" y="10.6811" width="2.46486" height="2.46486" fill="white"/>
<rect x="256.346" y="10.6811" width="2.46486" height="2.46486" fill="white"/>
<rect x="448.605" y="10.6811" width="2.46497" height="2.46487" fill="white"/>
<rect x="64.0867" y="96.1295" width="2.46486" height="2.46486" fill="white"/>
<rect x="64.0867" y="32.0433" width="2.46486" height="2.46486" fill="white"/>
<rect x="64.0867" y="117.492" width="2.46486" height="2.46486" fill="white"/>
<rect x="64.0867" y="138.854" width="2.46486" height="2.46486" fill="white"/>
<rect x="256.346" y="138.854" width="2.46486" height="2.46486" fill="white"/>
<rect x="448.605" y="138.854" width="2.46497" height="2.46484" fill="white"/>
<rect x="74.7676" y="10.6811" width="2.46486" height="2.46486" fill="white"/>
<rect x="267.027" y="10.6811" width="2.46486" height="2.46486" fill="white"/>
<rect x="459.286" y="10.6811" width="2.46486" height="2.46486" fill="white"/>
<rect x="267.027" y="96.1295" width="2.46486" height="2.46486" fill="white"/>
<rect x="74.7676" y="32.0433" width="2.46486" height="2.46486" fill="white"/>
<rect x="74.7676" y="117.492" width="2.46486" height="2.46486" fill="white"/>
<rect x="267.027" y="117.492" width="2.46486" height="2.46486" fill="white"/>
<rect x="74.7676" y="53.4055" width="2.46486" height="2.46486" fill="white"/>
<rect x="267.027" y="53.4055" width="2.46486" height="2.46486" fill="white"/>
<rect x="74.7676" y="138.854" width="2.46486" height="2.46486" fill="white"/>
<rect x="267.027" y="138.854" width="2.46486" height="2.46486" fill="white"/>
<rect x="459.286" y="138.854" width="2.46486" height="2.46486" fill="white"/>
<rect x="85.4484" y="10.6811" width="2.46486" height="2.46486" fill="white"/>
<rect x="277.708" y="10.6811" width="2.46486" height="2.46486" fill="white"/>
<rect x="469.967" y="10.6811" width="2.46486" height="2.46486" fill="white"/>
<rect x="469.967" y="96.1295" width="2.46486" height="2.46486" fill="white"/>
<rect x="469.967" y="32.0433" width="2.46486" height="2.46486" fill="white"/>
<rect x="277.708" y="117.492" width="2.46486" height="2.46486" fill="white"/>
<rect x="469.967" y="117.492" width="2.46486" height="2.46486" fill="white"/>
<rect x="277.708" y="53.4055" width="2.46486" height="2.46486" fill="white"/>
<rect x="85.4484" y="138.854" width="2.46486" height="2.46486" fill="white"/>
<rect x="277.708" y="138.854" width="2.46486" height="2.46486" fill="white"/>
<rect x="469.967" y="138.854" width="2.46486" height="2.46486" fill="white"/>
<rect x="96.1298" y="10.6811" width="2.46486" height="2.46486" fill="white"/>
<rect x="288.389" y="10.6811" width="2.46486" height="2.46486" fill="white"/>
<rect x="480.648" y="10.6811" width="2.46486" height="2.46486" fill="white"/>
<rect x="480.648" y="32.0433" width="2.46486" height="2.46486" fill="white"/>
<rect x="480.648" y="53.4055" width="2.46486" height="2.46486" fill="white"/>
<rect x="96.1298" y="138.854" width="2.46486" height="2.46486" fill="white"/>
<rect x="288.389" y="138.854" width="2.46486" height="2.46486" fill="white"/>
<rect x="480.648" y="138.854" width="2.46486" height="2.46486" fill="white"/>
<rect x="106.811" y="10.6811" width="2.46486" height="2.46486" fill="white"/>
<rect x="299.07" y="10.6811" width="2.46486" height="2.46486" fill="white"/>
<rect x="491.329" y="10.6811" width="2.46486" height="2.46486" fill="white"/>
<rect x="160.216" y="10.6811" width="2.46486" height="2.46486" fill="white"/>
<rect x="352.475" y="10.6811" width="2.46486" height="2.46486" fill="white"/>
<rect x="544.734" y="10.6811" width="2.46486" height="2.46486" fill="white"/>
<rect x="544.734" y="96.1295" width="2.46486" height="2.46486" fill="white"/>
<rect x="352.475" y="74.7674" width="2.46486" height="2.46486" fill="white"/>
<rect x="544.734" y="74.7674" width="2.46486" height="2.46486" fill="white"/>
<rect x="299.07" y="32.0433" width="2.46486" height="2.46486" fill="white"/>
<rect x="491.329" y="32.0433" width="2.46486" height="2.46486" fill="white"/>
<rect x="544.734" y="32.0433" width="2.46486" height="2.46486" fill="white"/>
<rect x="544.734" y="117.492" width="2.46486" height="2.46486" fill="white"/>
<rect x="491.329" y="53.4055" width="2.46486" height="2.46486" fill="white"/>
<rect x="106.811" y="138.854" width="2.46486" height="2.46486" fill="white"/>
<rect x="299.07" y="138.854" width="2.46486" height="2.46486" fill="white"/>
<rect x="491.329" y="138.854" width="2.46486" height="2.46486" fill="white"/>
<rect x="544.734" y="53.4055" width="2.46486" height="2.46486" fill="white"/>
<rect x="160.216" y="138.854" width="2.46486" height="2.46486" fill="white"/>
<rect x="352.475" y="138.854" width="2.46486" height="2.46486" fill="white"/>
<rect x="544.734" y="138.854" width="2.46486" height="2.46486" fill="white"/>
<rect x="117.492" y="10.6811" width="2.46486" height="2.46486" fill="white"/>
<rect x="309.751" y="10.6811" width="2.46486" height="2.46486" fill="white"/>
<rect x="502.01" y="10.6811" width="2.46486" height="2.46486" fill="white"/>
<rect x="117.492" y="96.1295" width="2.46486" height="2.46486" fill="white"/>
<rect x="309.751" y="96.1295" width="2.46486" height="2.46486" fill="white"/>
<rect x="502.01" y="96.1295" width="2.46486" height="2.46486" fill="white"/>
<rect x="117.492" y="74.7674" width="2.46486" height="2.46486" fill="white"/>
<rect x="309.751" y="74.7674" width="2.46486" height="2.46486" fill="white"/>
<rect x="170.897" y="10.6811" width="2.46486" height="2.46486" fill="white"/>
<rect x="363.156" y="10.6811" width="2.46486" height="2.46486" fill="white"/>
<rect x="555.416" y="10.6811" width="2.46486" height="2.46486" fill="white"/>
<rect x="555.416" y="96.1295" width="2.46486" height="2.46486" fill="white"/>
<rect x="555.416" y="74.7674" width="2.46486" height="2.46486" fill="white"/>
<rect x="117.492" y="32.0433" width="2.46486" height="2.46486" fill="white"/>
<rect x="309.751" y="32.0433" width="2.46486" height="2.46486" fill="white"/>
<rect x="502.01" y="32.0433" width="2.46486" height="2.46486" fill="white"/>
<rect x="117.492" y="117.492" width="2.46486" height="2.46486" fill="white"/>
<rect x="502.01" y="117.492" width="2.46486" height="2.46486" fill="white"/>
<rect x="555.416" y="32.0433" width="2.46486" height="2.46486" fill="white"/>
<rect x="555.416" y="117.492" width="2.46486" height="2.46486" fill="white"/>
<rect x="117.492" y="53.4055" width="2.46486" height="2.46486" fill="white"/>
<rect x="117.492" y="138.854" width="2.46486" height="2.46486" fill="white"/>
<rect x="309.751" y="138.854" width="2.46486" height="2.46486" fill="white"/>
<rect x="502.01" y="138.854" width="2.46486" height="2.46486" fill="white"/>
<rect x="555.416" y="53.4055" width="2.46486" height="2.46486" fill="white"/>
<rect x="170.897" y="138.854" width="2.46486" height="2.46486" fill="white"/>
<rect x="363.156" y="138.854" width="2.46486" height="2.46486" fill="white"/>
<rect x="555.416" y="138.854" width="2.46486" height="2.46486" fill="white"/>
<rect x="128.173" y="10.6811" width="2.46486" height="2.46486" fill="white"/>
<rect x="320.432" y="10.6811" width="2.46486" height="2.46486" fill="white"/>
<rect x="512.691" y="10.6811" width="2.46486" height="2.46486" fill="white"/>
<rect x="128.173" y="96.1295" width="2.46486" height="2.46486" fill="white"/>
<rect x="320.432" y="96.1295" width="2.46486" height="2.46486" fill="white"/>
<rect x="128.173" y="74.7674" width="2.46486" height="2.46486" fill="white"/>
<rect x="320.432" y="74.7674" width="2.46486" height="2.46486" fill="white"/>
<rect x="181.578" y="10.6811" width="2.46486" height="2.46486" fill="white"/>
<rect x="373.838" y="10.6811" width="2.46486" height="2.46486" fill="white"/>
<rect x="566.097" y="10.6811" width="2.46497" height="2.46487" fill="white"/>
<rect x="566.097" y="96.1295" width="2.46497" height="2.46487" fill="white"/>
<rect x="566.097" y="74.7674" width="2.46497" height="2.46487" fill="white"/>
<rect x="128.173" y="32.0433" width="2.46486" height="2.46486" fill="white"/>
<rect x="320.432" y="32.0433" width="2.46486" height="2.46486" fill="white"/>
<rect x="128.173" y="117.492" width="2.46486" height="2.46486" fill="white"/>
<rect x="320.432" y="117.492" width="2.46486" height="2.46486" fill="white"/>
<rect x="566.097" y="32.0433" width="2.46497" height="2.46486" fill="white"/>
<rect x="566.097" y="117.492" width="2.46497" height="2.46487" fill="white"/>
<rect x="128.173" y="53.4055" width="2.46486" height="2.46486" fill="white"/>
<rect x="320.432" y="53.4055" width="2.46486" height="2.46486" fill="white"/>
<rect x="128.173" y="138.854" width="2.46486" height="2.46486" fill="white"/>
<rect x="320.432" y="138.854" width="2.46486" height="2.46486" fill="white"/>
<rect x="512.691" y="138.854" width="2.46486" height="2.46486" fill="white"/>
<rect x="566.097" y="53.4055" width="2.46497" height="2.46487" fill="white"/>
<rect x="181.578" y="138.854" width="2.46486" height="2.46486" fill="white"/>
<rect x="373.838" y="138.854" width="2.46486" height="2.46486" fill="white"/>
<rect x="566.097" y="138.854" width="2.46497" height="2.46484" fill="white"/>
<rect x="138.854" y="10.6811" width="2.46486" height="2.46486" fill="white"/>
<rect x="331.113" y="10.6811" width="2.46486" height="2.46486" fill="white"/>
<rect x="523.372" y="10.6811" width="2.46486" height="2.46486" fill="white"/>
<rect x="138.854" y="96.1295" width="2.46486" height="2.46486" fill="white"/>
<rect x="331.113" y="96.1295" width="2.46486" height="2.46486" fill="white"/>
<rect x="138.854" y="74.7674" width="2.46486" height="2.46486" fill="white"/>
<rect x="331.113" y="74.7674" width="2.46486" height="2.46486" fill="white"/>
<rect x="331.113" y="32.0433" width="2.46486" height="2.46486" fill="white"/>
<rect x="138.854" y="117.492" width="2.46486" height="2.46486" fill="white"/>
<rect x="331.113" y="117.492" width="2.46486" height="2.46486" fill="white"/>
<rect x="331.113" y="53.4055" width="2.46486" height="2.46486" fill="white"/>
<rect x="138.854" y="138.854" width="2.46486" height="2.46486" fill="white"/>
<rect x="331.113" y="138.854" width="2.46486" height="2.46486" fill="white"/>
<rect x="523.372" y="138.854" width="2.46486" height="2.46486" fill="white"/>
<rect x="149.535" y="10.6811" width="2.46486" height="2.46486" fill="white"/>
<rect x="341.794" y="10.6811" width="2.46486" height="2.46486" fill="white"/>
<rect x="534.054" y="10.6811" width="2.46486" height="2.46486" fill="white"/>
<rect x="149.535" y="96.1295" width="2.46486" height="2.46486" fill="white"/>
<rect x="149.535" y="74.7674" width="2.46486" height="2.46486" fill="white"/>
<rect x="341.794" y="74.7674" width="2.46486" height="2.46486" fill="white"/>
<rect x="149.535" y="117.492" width="2.46486" height="2.46486" fill="white"/>
<rect x="149.535" y="138.854" width="2.46486" height="2.46486" fill="white"/>
<rect x="341.794" y="138.854" width="2.46486" height="2.46486" fill="white"/>
<rect x="534.054" y="138.854" width="2.46486" height="2.46486" fill="white"/>
</g>
<rect x="384.518" y="64.0865" width="2.46486" height="2.46486" fill="white"/>
<rect x="384.518" y="106.811" width="2.46486" height="2.46486" fill="white"/>
<rect x="384.518" y="42.7244" width="2.46486" height="2.46486" fill="white"/>
<rect x="395.199" y="64.0865" width="2.46486" height="2.46486" fill="white"/>
<rect x="395.199" y="106.811" width="2.46486" height="2.46486" fill="white"/>
<rect x="395.199" y="42.7244" width="2.46486" height="2.46486" fill="white"/>
<rect x="405.88" y="106.811" width="2.46486" height="2.46486" fill="white"/>
<rect x="405.88" y="42.7244" width="2.46486" height="2.46486" fill="white"/>
<rect x="352.475" y="85.4489" width="2.46486" height="2.46486" fill="white"/>
<rect x="352.475" y="106.811" width="2.46486" height="2.46486" fill="white"/>
<rect x="352.475" y="42.7244" width="2.46486" height="2.46486" fill="white"/>
<rect x="363.156" y="85.4489" width="2.46486" height="2.46486" fill="white"/>
<rect x="363.156" y="106.811" width="2.46486" height="2.46486" fill="white"/>
<rect x="363.156" y="42.7244" width="2.46486" height="2.46486" fill="white"/>
<rect x="373.837" y="85.4489" width="2.46486" height="2.46486" fill="white"/>
<rect x="373.837" y="64.0865" width="2.46486" height="2.46486" fill="white"/>
<rect x="373.837" y="106.811" width="2.46486" height="2.46486" fill="white"/>
<rect x="373.837" y="42.7244" width="2.46486" height="2.46486" fill="white"/>
<rect x="341.794" y="106.811" width="2.46486" height="2.46486" fill="white"/>
<rect x="341.794" y="42.7244" width="2.46486" height="2.46486" fill="white"/>
<rect x="384.518" y="96.1296" width="2.46486" height="2.46486" fill="white"/>
<rect x="384.518" y="74.7676" width="2.46486" height="2.46486" fill="white"/>
<rect x="384.518" y="32.0433" width="2.46486" height="2.46486" fill="white"/>
<rect x="384.518" y="117.492" width="2.46486" height="2.46486" fill="white"/>
<rect x="384.518" y="53.4058" width="2.46486" height="2.46486" fill="white"/>
<rect x="395.199" y="96.1296" width="2.46486" height="2.46486" fill="white"/>
<rect x="395.199" y="32.0433" width="2.46486" height="2.46486" fill="white"/>
<rect x="395.199" y="117.492" width="2.46486" height="2.46486" fill="white"/>
<rect x="395.199" y="53.4058" width="2.46486" height="2.46486" fill="white"/>
<rect x="405.88" y="96.1296" width="2.46486" height="2.46486" fill="white"/>
<rect x="405.88" y="32.0433" width="2.46486" height="2.46486" fill="white"/>
<rect x="405.88" y="117.492" width="2.46486" height="2.46486" fill="white"/>
<rect x="405.88" y="53.4058" width="2.46486" height="2.46486" fill="white"/>
<rect x="352.475" y="96.1296" width="2.46486" height="2.46486" fill="white"/>
<rect x="352.475" y="32.0433" width="2.46486" height="2.46486" fill="white"/>
<rect x="352.475" y="117.492" width="2.46486" height="2.46486" fill="white"/>
<rect x="352.475" y="53.4058" width="2.46486" height="2.46486" fill="white"/>
<rect x="363.156" y="96.1296" width="2.46486" height="2.46486" fill="white"/>
<rect x="363.156" y="74.7676" width="2.46486" height="2.46486" fill="white"/>
<rect x="363.156" y="32.0433" width="2.46486" height="2.46486" fill="white"/>
<rect x="363.156" y="117.492" width="2.46486" height="2.46486" fill="white"/>
<rect x="363.156" y="53.4058" width="2.46486" height="2.46486" fill="white"/>
<rect x="373.837" y="96.1296" width="2.46486" height="2.46486" fill="white"/>
<rect x="373.837" y="74.7676" width="2.46486" height="2.46486" fill="white"/>
<rect x="373.837" y="32.0433" width="2.46486" height="2.46486" fill="white"/>
<rect x="373.837" y="117.492" width="2.46486" height="2.46486" fill="white"/>
<rect x="373.837" y="53.4058" width="2.46486" height="2.46486" fill="white"/>
<rect x="341.794" y="96.1296" width="2.46486" height="2.46486" fill="white"/>
<rect x="341.794" y="32.044" width="2.46486" height="2.46486" fill="white"/>
<rect x="341.794" y="117.492" width="2.46486" height="2.46486" fill="white"/>
<rect x="341.794" y="53.4058" width="2.46486" height="2.46486" fill="white"/>
<rect x="234.983" y="85.449" width="2.46486" height="2.46486" fill="white"/>
<rect x="234.983" y="64.0865" width="2.46486" height="2.46486" fill="white"/>
<rect x="234.983" y="106.811" width="2.46486" height="2.46486" fill="white"/>
<rect x="234.983" y="42.7244" width="2.46486" height="2.46486" fill="white"/>
<rect x="245.664" y="85.449" width="2.46486" height="2.46486" fill="white"/>
<rect x="245.664" y="64.0865" width="2.46486" height="2.46486" fill="white"/>
<rect x="245.664" y="106.811" width="2.46486" height="2.46486" fill="white"/>
<rect x="245.664" y="42.7244" width="2.46486" height="2.46486" fill="white"/>
<rect x="256.345" y="85.449" width="2.46486" height="2.46486" fill="white"/>
<rect x="256.345" y="64.0865" width="2.46486" height="2.46486" fill="white"/>
<rect x="256.345" y="106.811" width="2.46486" height="2.46486" fill="white"/>
<rect x="256.345" y="42.7244" width="2.46486" height="2.46486" fill="white"/>
<rect x="267.026" y="85.449" width="2.46486" height="2.46486" fill="white"/>
<rect x="267.026" y="42.7244" width="2.46486" height="2.46486" fill="white"/>
<rect x="277.708" y="85.449" width="2.46486" height="2.46486" fill="white"/>
<rect x="277.708" y="106.811" width="2.46486" height="2.46486" fill="white"/>
<rect x="277.708" y="42.7244" width="2.46486" height="2.46486" fill="white"/>
<rect x="288.388" y="85.449" width="2.46486" height="2.46486" fill="white"/>
<rect x="288.388" y="64.0865" width="2.46486" height="2.46486" fill="white"/>
<rect x="288.388" y="106.811" width="2.46486" height="2.46486" fill="white"/>
<rect x="288.388" y="42.7244" width="2.46486" height="2.46486" fill="white"/>
<rect x="299.07" y="64.0865" width="2.46486" height="2.46486" fill="white"/>
<rect x="299.07" y="106.811" width="2.46486" height="2.46486" fill="white"/>
<rect x="299.07" y="42.7244" width="2.46486" height="2.46486" fill="white"/>
<rect x="309.751" y="64.0865" width="2.46486" height="2.46486" fill="white"/>
<rect x="234.983" y="96.1298" width="2.46486" height="2.46486" fill="white"/>
<rect x="234.983" y="74.7676" width="2.46486" height="2.46486" fill="white"/>
<rect x="234.984" y="32.0442" width="2.46486" height="2.46486" fill="white"/>
<rect x="234.983" y="117.492" width="2.46486" height="2.46486" fill="white"/>
<rect x="234.983" y="53.4058" width="2.46486" height="2.46486" fill="white"/>
<rect x="245.664" y="96.1298" width="2.46486" height="2.46486" fill="white"/>
<rect x="245.664" y="74.7676" width="2.46486" height="2.46486" fill="white"/>
<rect x="245.664" y="32.0433" width="2.46486" height="2.46486" fill="white"/>
<rect x="245.664" y="117.492" width="2.46486" height="2.46486" fill="white"/>
<rect x="245.664" y="53.4058" width="2.46486" height="2.46486" fill="white"/>
<rect x="256.345" y="96.1298" width="2.46486" height="2.46486" fill="white"/>
<rect x="256.345" y="74.7676" width="2.46486" height="2.46486" fill="white"/>
<rect x="256.345" y="32.0433" width="2.46486" height="2.46486" fill="white"/>
<rect x="256.345" y="117.492" width="2.46486" height="2.46486" fill="white"/>
<rect x="256.345" y="53.4058" width="2.46486" height="2.46486" fill="white"/>
<rect x="267.026" y="74.7676" width="2.46486" height="2.46486" fill="white"/>
<rect x="267.026" y="32.0433" width="2.46486" height="2.46486" fill="white"/>
<rect x="277.708" y="96.1298" width="2.46486" height="2.46486" fill="white"/>
<rect x="277.708" y="74.7676" width="2.46486" height="2.46486" fill="white"/>
<rect x="277.708" y="32.0433" width="2.46486" height="2.46486" fill="white"/>
<rect x="288.388" y="96.1298" width="2.46486" height="2.46486" fill="white"/>
<rect x="288.388" y="74.7676" width="2.46486" height="2.46486" fill="white"/>
<rect x="288.388" y="32.0433" width="2.46486" height="2.46486" fill="white"/>
<rect x="288.388" y="117.492" width="2.46486" height="2.46486" fill="white"/>
<rect x="288.388" y="53.4058" width="2.46486" height="2.46486" fill="white"/>
<rect x="299.07" y="96.1298" width="2.46486" height="2.46486" fill="white"/>
<rect x="299.07" y="74.7676" width="2.46486" height="2.46486" fill="white"/>
<rect x="299.07" y="117.492" width="2.46486" height="2.46486" fill="white"/>
<rect x="299.07" y="53.4058" width="2.46486" height="2.46486" fill="white"/>
<rect x="309.751" y="117.492" width="2.46486" height="2.46486" fill="white"/>
<rect x="309.751" y="53.4058" width="2.46486" height="2.46486" fill="white"/>
<rect x="192.259" y="42.7244" width="2.46486" height="2.46486" fill="white"/>
<rect x="202.94" y="42.7244" width="2.46486" height="2.46486" fill="white"/>
<rect x="160.216" y="85.4489" width="2.46486" height="2.46486" fill="white"/>
<rect x="160.216" y="64.0865" width="2.46486" height="2.46486" fill="white"/>
<rect x="160.216" y="106.811" width="2.46486" height="2.46486" fill="white"/>
<rect x="160.216" y="42.7244" width="2.46486" height="2.46486" fill="white"/>
<rect x="170.897" y="85.4489" width="2.46486" height="2.46486" fill="white"/>
<rect x="170.897" y="64.0865" width="2.46486" height="2.46486" fill="white"/>
<rect x="170.897" y="106.811" width="2.46486" height="2.46486" fill="white"/>
<rect x="170.897" y="42.7244" width="2.46486" height="2.46486" fill="white"/>
<rect x="181.578" y="85.4489" width="2.46486" height="2.46486" fill="white"/>
<rect x="181.578" y="64.0865" width="2.46486" height="2.46486" fill="white"/>
<rect x="181.578" y="106.811" width="2.46486" height="2.46486" fill="white"/>
<rect x="181.578" y="42.7244" width="2.46486" height="2.46486" fill="white"/>
<rect x="138.854" y="42.7244" width="2.46486" height="2.46486" fill="white"/>
<rect x="149.535" y="42.7244" width="2.46486" height="2.46486" fill="white"/>
<rect x="192.259" y="32.0433" width="2.46486" height="2.46486" fill="white"/>
<rect x="192.259" y="53.4057" width="2.46486" height="2.46486" fill="white"/>
<rect x="202.94" y="32.0433" width="2.46486" height="2.46486" fill="white"/>
<rect x="202.94" y="53.4057" width="2.46486" height="2.46486" fill="white"/>
<rect x="160.216" y="96.1296" width="2.46486" height="2.46486" fill="white"/>
<rect x="160.216" y="74.7676" width="2.46486" height="2.46486" fill="white"/>
<rect x="160.216" y="32.0433" width="2.46486" height="2.46486" fill="white"/>
<rect x="160.216" y="117.492" width="2.46486" height="2.46486" fill="white"/>
<rect x="160.216" y="53.4057" width="2.46486" height="2.46486" fill="white"/>
<rect x="170.897" y="96.1296" width="2.46486" height="2.46486" fill="white"/>
<rect x="170.897" y="74.7676" width="2.46486" height="2.46486" fill="white"/>
<rect x="170.897" y="32.0433" width="2.46486" height="2.46486" fill="white"/>
<rect x="170.897" y="117.492" width="2.46486" height="2.46486" fill="white"/>
<rect x="170.897" y="53.4057" width="2.46486" height="2.46486" fill="white"/>
<rect x="181.578" y="96.1296" width="2.46486" height="2.46486" fill="white"/>
<rect x="181.578" y="74.7676" width="2.46486" height="2.46486" fill="white"/>
<rect x="181.578" y="32.0433" width="2.46486" height="2.46486" fill="white"/>
<rect x="181.578" y="117.492" width="2.46486" height="2.46486" fill="white"/>
<rect x="181.578" y="53.4057" width="2.46486" height="2.46486" fill="white"/>
<rect x="138.854" y="32.044" width="2.46486" height="2.46486" fill="white"/>
<rect x="138.854" y="53.4057" width="2.46486" height="2.46486" fill="white"/>
<rect x="149.535" y="32.0433" width="2.46486" height="2.46486" fill="white"/>
<rect x="149.535" y="53.4057" width="2.46486" height="2.46486" fill="white"/>
<rect x="32.0433" y="85.4489" width="2.46486" height="2.46486" fill="white"/>
<rect x="32.0433" y="64.0864" width="2.46486" height="2.46486" fill="white"/>
<rect x="32.0433" y="106.811" width="2.46486" height="2.46486" fill="white"/>
<rect x="32.0433" y="42.7244" width="2.46486" height="2.46486" fill="white"/>
<rect x="42.7241" y="85.4489" width="2.46486" height="2.46486" fill="white"/>
<rect x="42.7241" y="64.0864" width="2.46486" height="2.46486" fill="white"/>
<rect x="42.7241" y="106.811" width="2.46486" height="2.46486" fill="white"/>
<rect x="42.7241" y="42.7244" width="2.46486" height="2.46486" fill="white"/>
<rect x="53.4055" y="85.4489" width="2.46486" height="2.46486" fill="white"/>
<rect x="53.4055" y="64.0864" width="2.46486" height="2.46486" fill="white"/>
<rect x="53.4055" y="106.811" width="2.46486" height="2.46486" fill="white"/>
<rect x="53.4055" y="42.7244" width="2.46486" height="2.46486" fill="white"/>
<rect x="64.0867" y="85.4489" width="2.46486" height="2.46486" fill="white"/>
<rect x="64.0867" y="64.0864" width="2.46486" height="2.46486" fill="white"/>
<rect x="74.7675" y="85.4489" width="2.46486" height="2.46486" fill="white"/>
<rect x="74.7675" y="64.0864" width="2.46486" height="2.46486" fill="white"/>
<rect x="85.4484" y="85.4489" width="2.46486" height="2.46486" fill="white"/>
<rect x="85.4484" y="64.0864" width="2.46486" height="2.46486" fill="white"/>
<rect x="85.4484" y="106.811" width="2.46486" height="2.46486" fill="white"/>
<rect x="85.4484" y="42.7244" width="2.46486" height="2.46486" fill="white"/>
<rect x="96.1298" y="85.4489" width="2.46486" height="2.46486" fill="white"/>
<rect x="96.1298" y="64.0864" width="2.46486" height="2.46486" fill="white"/>
<rect x="96.1298" y="106.811" width="2.46486" height="2.46486" fill="white"/>
<rect x="96.1298" y="42.7244" width="2.46486" height="2.46486" fill="white"/>
<rect x="106.811" y="85.4489" width="2.46486" height="2.46486" fill="white"/>
<rect x="106.811" y="64.0864" width="2.46486" height="2.46486" fill="white"/>
<rect x="106.811" y="106.811" width="2.46486" height="2.46486" fill="white"/>
<rect x="106.811" y="42.7244" width="2.46486" height="2.46486" fill="white"/>
<rect x="32.0433" y="96.1296" width="2.46486" height="2.46486" fill="white"/>
<rect x="32.0433" y="74.7675" width="2.46486" height="2.46486" fill="white"/>
<rect x="32.0438" y="32.0438" width="2.46486" height="2.46486" fill="white"/>
<rect x="32.0433" y="117.492" width="2.46486" height="2.46486" fill="white"/>
<rect x="32.0433" y="53.4057" width="2.46486" height="2.46486" fill="white"/>
<rect x="42.7241" y="96.1296" width="2.46486" height="2.46486" fill="white"/>
<rect x="42.7241" y="74.7675" width="2.46486" height="2.46486" fill="white"/>
<rect x="42.7241" y="32.0433" width="2.46486" height="2.46486" fill="white"/>
<rect x="42.7241" y="117.492" width="2.46486" height="2.46486" fill="white"/>
<rect x="42.7241" y="53.4057" width="2.46486" height="2.46486" fill="white"/>
<rect x="53.4055" y="96.1296" width="2.46486" height="2.46486" fill="white"/>
<rect x="53.4055" y="74.7675" width="2.46486" height="2.46486" fill="white"/>
<rect x="53.4055" y="32.0433" width="2.46486" height="2.46486" fill="white"/>
<rect x="53.4055" y="117.492" width="2.46486" height="2.46486" fill="white"/>
<rect x="53.4055" y="53.4057" width="2.46486" height="2.46486" fill="white"/>
<rect x="64.0867" y="74.7675" width="2.46486" height="2.46486" fill="white"/>
<rect x="64.0867" y="53.4057" width="2.46486" height="2.46486" fill="white"/>
<rect x="74.7675" y="96.1296" width="2.46486" height="2.46486" fill="white"/>
<rect x="74.7675" y="74.7675" width="2.46486" height="2.46486" fill="white"/>
<rect x="85.4484" y="96.1296" width="2.46486" height="2.46486" fill="white"/>
<rect x="85.4484" y="74.7675" width="2.46486" height="2.46486" fill="white"/>
<rect x="85.4484" y="32.0433" width="2.46486" height="2.46486" fill="white"/>
<rect x="85.4484" y="117.492" width="2.46486" height="2.46486" fill="white"/>
<rect x="85.4484" y="53.4057" width="2.46486" height="2.46486" fill="white"/>
<rect x="96.1298" y="96.1296" width="2.46486" height="2.46486" fill="white"/>
<rect x="96.1298" y="74.7675" width="2.46486" height="2.46486" fill="white"/>
<rect x="96.1298" y="32.0433" width="2.46486" height="2.46486" fill="white"/>
<rect x="96.1298" y="117.492" width="2.46486" height="2.46486" fill="white"/>
<rect x="96.1298" y="53.4057" width="2.46486" height="2.46486" fill="white"/>
<rect x="106.811" y="96.1296" width="2.46486" height="2.46486" fill="white"/>
<rect x="106.811" y="74.7675" width="2.46486" height="2.46486" fill="white"/>
<rect x="106.811" y="32.0433" width="2.46486" height="2.46486" fill="white"/>
<rect x="106.811" y="117.492" width="2.46486" height="2.46486" fill="white"/>
<rect x="106.811" y="53.4057" width="2.46486" height="2.46486" fill="white"/>
<rect x="437.924" y="85.4489" width="2.46486" height="2.46486" fill="white"/>
<rect x="437.924" y="64.0865" width="2.46486" height="2.46486" fill="white"/>
<rect x="437.924" y="106.811" width="2.46486" height="2.46486" fill="white"/>
<rect x="437.924" y="42.7244" width="2.46486" height="2.46486" fill="white"/>
<rect x="448.605" y="85.4489" width="2.46486" height="2.46486" fill="white"/>
<rect x="448.605" y="64.0865" width="2.46486" height="2.46486" fill="white"/>
<rect x="448.605" y="106.811" width="2.46486" height="2.46486" fill="white"/>
<rect x="448.605" y="42.7244" width="2.46486" height="2.46486" fill="white"/>
<rect x="459.286" y="85.4489" width="2.46486" height="2.46486" fill="white"/>
<rect x="459.286" y="64.0865" width="2.46486" height="2.46486" fill="white"/>
<rect x="459.286" y="106.811" width="2.46486" height="2.46486" fill="white"/>
<rect x="459.286" y="42.7244" width="2.46486" height="2.46486" fill="white"/>
<rect x="469.967" y="85.4489" width="2.46486" height="2.46486" fill="white"/>
<rect x="469.967" y="64.0865" width="2.46486" height="2.46486" fill="white"/>
<rect x="469.967" y="42.7244" width="2.46486" height="2.46486" fill="white"/>
<rect x="480.648" y="85.4489" width="2.46486" height="2.46486" fill="white"/>
<rect x="480.648" y="64.0865" width="2.46486" height="2.46486" fill="white"/>
<rect x="480.648" y="106.811" width="2.46486" height="2.46486" fill="white"/>
<rect x="491.329" y="85.4489" width="2.46486" height="2.46486" fill="white"/>
<rect x="491.329" y="64.0865" width="2.46486" height="2.46486" fill="white"/>
<rect x="491.329" y="106.811" width="2.46486" height="2.46486" fill="white"/>
<rect x="502.01" y="85.4489" width="2.46486" height="2.46486" fill="white"/>
<rect x="502.01" y="64.0865" width="2.46486" height="2.46486" fill="white"/>
<rect x="502.01" y="42.7244" width="2.46486" height="2.46486" fill="white"/>
<rect x="512.691" y="85.4489" width="2.46486" height="2.46486" fill="white"/>
<rect x="512.691" y="64.0865" width="2.46486" height="2.46486" fill="white"/>
<rect x="512.691" y="106.811" width="2.46486" height="2.46486" fill="white"/>
<rect x="512.691" y="42.7244" width="2.46486" height="2.46486" fill="white"/>
<rect x="523.372" y="85.4489" width="2.46497" height="2.46486" fill="white"/>
<rect x="523.372" y="64.0865" width="2.46497" height="2.46486" fill="white"/>
<rect x="523.372" y="106.811" width="2.46497" height="2.46487" fill="white"/>
<rect x="523.372" y="42.7244" width="2.46497" height="2.46486" fill="white"/>
<rect x="534.054" y="85.4489" width="2.46486" height="2.46486" fill="white"/>
<rect x="534.054" y="64.0865" width="2.46486" height="2.46486" fill="white"/>
<rect x="534.054" y="106.811" width="2.46486" height="2.46486" fill="white"/>
<rect x="534.054" y="42.7244" width="2.46486" height="2.46486" fill="white"/>
<rect x="437.924" y="96.1296" width="2.46486" height="2.46486" fill="white"/>
<rect x="437.924" y="74.7676" width="2.46486" height="2.46486" fill="white"/>
<rect x="437.924" y="32.0443" width="2.46486" height="2.46486" fill="white"/>
<rect x="437.924" y="117.492" width="2.46486" height="2.46486" fill="white"/>
<rect x="437.924" y="53.4058" width="2.46486" height="2.46486" fill="white"/>
<rect x="448.605" y="96.1296" width="2.46486" height="2.46486" fill="white"/>
<rect x="448.605" y="74.7676" width="2.46486" height="2.46486" fill="white"/>
<rect x="448.605" y="32.0433" width="2.46486" height="2.46486" fill="white"/>
<rect x="448.605" y="117.492" width="2.46486" height="2.46486" fill="white"/>
<rect x="448.605" y="53.4058" width="2.46486" height="2.46486" fill="white"/>
<rect x="459.286" y="96.1296" width="2.46486" height="2.46486" fill="white"/>
<rect x="459.286" y="74.7676" width="2.46486" height="2.46486" fill="white"/>
<rect x="459.286" y="32.0433" width="2.46486" height="2.46486" fill="white"/>
<rect x="459.286" y="117.492" width="2.46486" height="2.46486" fill="white"/>
<rect x="459.286" y="53.4058" width="2.46486" height="2.46486" fill="white"/>
<rect x="469.967" y="74.7676" width="2.46486" height="2.46486" fill="white"/>
<rect x="469.967" y="53.4058" width="2.46486" height="2.46486" fill="white"/>
<rect x="480.648" y="96.1296" width="2.46486" height="2.46486" fill="white"/>
<rect x="480.648" y="74.7676" width="2.46486" height="2.46486" fill="white"/>
<rect x="480.648" y="117.492" width="2.46486" height="2.46486" fill="white"/>
<rect x="491.329" y="96.1296" width="2.46486" height="2.46486" fill="white"/>
<rect x="491.329" y="74.7676" width="2.46486" height="2.46486" fill="white"/>
<rect x="491.329" y="117.492" width="2.46486" height="2.46486" fill="white"/>
<rect x="502.01" y="74.7676" width="2.46486" height="2.46486" fill="white"/>
<rect x="502.01" y="53.4058" width="2.46486" height="2.46486" fill="white"/>
<rect x="512.691" y="96.1296" width="2.46486" height="2.46486" fill="white"/>
<rect x="512.691" y="74.7676" width="2.46486" height="2.46486" fill="white"/>
<rect x="512.691" y="32.0433" width="2.46486" height="2.46486" fill="white"/>
<rect x="512.691" y="117.492" width="2.46486" height="2.46486" fill="white"/>
<rect x="512.691" y="53.4058" width="2.46486" height="2.46486" fill="white"/>
<rect x="523.372" y="96.1296" width="2.46497" height="2.46486" fill="white"/>
<rect x="523.372" y="74.7676" width="2.46497" height="2.46487" fill="white"/>
<rect x="523.372" y="32.0433" width="2.46497" height="2.46486" fill="white"/>
<rect x="523.372" y="117.492" width="2.46497" height="2.46487" fill="white"/>
<rect x="523.372" y="53.4058" width="2.46497" height="2.46486" fill="white"/>
<rect x="534.054" y="96.1296" width="2.46486" height="2.46486" fill="white"/>
<rect x="534.054" y="74.7676" width="2.46486" height="2.46486" fill="white"/>
<rect x="534.054" y="32.0433" width="2.46486" height="2.46486" fill="white"/>
<rect x="534.054" y="117.492" width="2.46486" height="2.46486" fill="white"/>
<rect x="534.054" y="53.4058" width="2.46486" height="2.46486" fill="white"/>
</g>
</svg>
