<svg width="45" height="200" viewBox="0 0 45 200" fill="none" xmlns="http://www.w3.org/2000/svg">
<g style="mix-blend-mode:overlay">
<g opacity="0.3">
<rect width="0.89189" height="0.89189" transform="matrix(-4.37114e-08 -1 -1 4.37114e-08 24.0808 133.433)" fill="white"/>
<rect width="0.89189" height="0.89189" transform="matrix(-4.37114e-08 -1 -1 4.37114e-08 24.0808 63.8651)" fill="white"/>
<rect width="0.89189" height="0.89189" transform="matrix(-4.37114e-08 -1 -1 4.37114e-08 31.8108 133.433)" fill="white"/>
<rect width="0.89189" height="0.89189" transform="matrix(-4.37114e-08 -1 -1 4.37114e-08 0.891846 133.433)" fill="white"/>
<rect width="0.89189" height="0.89189" transform="matrix(-4.37114e-08 -1 -1 4.37114e-08 0.891846 63.8651)" fill="white"/>
<rect width="0.89189" height="0.89189" transform="matrix(-4.37114e-08 -1 -1 4.37114e-08 16.3513 133.433)" fill="white"/>
<rect width="0.89189" height="0.89189" transform="matrix(-4.37114e-08 -1 -1 4.37114e-08 8.62109 133.433)" fill="white"/>
<rect width="0.89189" height="0.89189" transform="matrix(-4.37114e-08 -1 -1 4.37114e-08 8.62109 63.8651)" fill="white"/>
<rect width="0.89189" height="0.89189" transform="matrix(-4.37114e-08 -1 -1 4.37114e-08 24.0808 199.135)" fill="white"/>
<rect width="0.89189" height="0.89189" transform="matrix(-4.37114e-08 -1 -1 4.37114e-08 24.0808 129.567)" fill="white"/>
<rect width="0.89189" height="0.89189" transform="matrix(-4.37114e-08 -1 -1 4.37114e-08 24.0808 59.9996)" fill="white"/>
<rect width="0.89189" height="0.89189" transform="matrix(-4.37114e-08 -1 -1 4.37114e-08 31.8108 199.135)" fill="white"/>
<rect width="0.89189" height="0.89189" transform="matrix(-4.37114e-08 -1 -1 4.37114e-08 31.8108 129.567)" fill="white"/>
<rect width="0.89189" height="0.89189" transform="matrix(-4.37114e-08 -1 -1 4.37114e-08 0.891846 199.135)" fill="white"/>
<rect width="0.89189" height="0.89189" transform="matrix(-4.37114e-08 -1 -1 4.37114e-08 0.891846 129.567)" fill="white"/>
<rect width="0.89189" height="0.89189" transform="matrix(-4.37114e-08 -1 -1 4.37114e-08 0.891846 59.9996)" fill="white"/>
<rect width="0.89189" height="0.89189" transform="matrix(-4.37114e-08 -1 -1 4.37114e-08 16.3513 199.135)" fill="white"/>
<rect width="0.89189" height="0.89189" transform="matrix(-4.37114e-08 -1 -1 4.37114e-08 16.3513 129.567)" fill="white"/>
<rect width="0.89189" height="0.89189" transform="matrix(-4.37114e-08 -1 -1 4.37114e-08 39.5403 199.135)" fill="white"/>
<rect width="0.89189" height="0.89189" transform="matrix(-4.37114e-08 -1 -1 4.37114e-08 8.62109 199.135)" fill="white"/>
<rect width="0.89189" height="0.89189" transform="matrix(-4.37114e-08 -1 -1 4.37114e-08 8.62109 129.567)" fill="white"/>
<rect width="0.89189" height="0.89189" transform="matrix(-4.37114e-08 -1 -1 4.37114e-08 8.62109 59.9996)" fill="white"/>
<rect width="0.89189" height="0.89189" transform="matrix(-4.37114e-08 -1 -1 4.37114e-08 24.0808 195.271)" fill="white"/>
<rect width="0.89189" height="0.89189" transform="matrix(-4.37114e-08 -1 -1 4.37114e-08 24.0808 125.703)" fill="white"/>
<rect width="0.89189" height="0.89189" transform="matrix(-4.37114e-08 -1 -1 4.37114e-08 24.0808 56.1357)" fill="white"/>
<rect width="0.89189" height="0.89189" transform="matrix(-4.37114e-08 -1 -1 4.37114e-08 31.8108 195.271)" fill="white"/>
<rect width="0.89189" height="0.89189" transform="matrix(-4.37114e-08 -1 -1 4.37114e-08 31.8108 125.703)" fill="white"/>
<rect width="0.89189" height="0.89189" transform="matrix(-4.37114e-08 -1 -1 4.37114e-08 31.8108 56.1357)" fill="white"/>
<rect width="0.89189" height="0.89189" transform="matrix(-4.37114e-08 -1 -1 4.37114e-08 0.891846 195.271)" fill="white"/>
<rect width="0.89189" height="0.89189" transform="matrix(-4.37114e-08 -1 -1 4.37114e-08 0.891846 125.703)" fill="white"/>
<rect width="0.89189" height="0.89189" transform="matrix(-4.37114e-08 -1 -1 4.37114e-08 0.891846 56.1357)" fill="white"/>
<rect width="0.89189" height="0.89189" transform="matrix(-4.37114e-08 -1 -1 4.37114e-08 16.3513 195.271)" fill="white"/>
<rect width="0.89189" height="0.89189" transform="matrix(-4.37114e-08 -1 -1 4.37114e-08 16.3513 125.703)" fill="white"/>
<rect width="0.89189" height="0.89189" transform="matrix(-4.37114e-08 -1 -1 4.37114e-08 39.5403 195.271)" fill="white"/>
<rect width="0.89189" height="0.89189" transform="matrix(-4.37114e-08 -1 -1 4.37114e-08 39.5403 125.703)" fill="white"/>
<rect width="0.89189" height="0.89189" transform="matrix(-4.37114e-08 -1 -1 4.37114e-08 8.62109 195.271)" fill="white"/>
<rect width="0.89189" height="0.89189" transform="matrix(-4.37114e-08 -1 -1 4.37114e-08 8.62109 125.703)" fill="white"/>
<rect width="0.89189" height="0.89189" transform="matrix(-4.37114e-08 -1 -1 4.37114e-08 8.62109 56.1357)" fill="white"/>
<rect width="0.89189" height="0.89189" transform="matrix(-4.37114e-08 -1 -1 4.37114e-08 24.0808 121.838)" fill="white"/>
<rect width="0.89189" height="0.89189" transform="matrix(-4.37114e-08 -1 -1 4.37114e-08 24.0808 52.2703)" fill="white"/>
<rect width="0.89189" height="0.89189" transform="matrix(-4.37114e-08 -1 -1 4.37114e-08 31.8108 121.838)" fill="white"/>
<rect width="0.89189" height="0.89189" transform="matrix(-4.37114e-08 -1 -1 4.37114e-08 31.8108 52.2703)" fill="white"/>
<rect width="0.89189" height="0.89189" transform="matrix(-4.37114e-08 -1 -1 4.37114e-08 0.891846 191.405)" fill="white"/>
<rect width="0.89189" height="0.89189" transform="matrix(-4.37114e-08 -1 -1 4.37114e-08 0.891846 121.838)" fill="white"/>
<rect width="0.89189" height="0.89189" transform="matrix(-4.37114e-08 -1 -1 4.37114e-08 0.891846 52.2703)" fill="white"/>
<rect width="0.89189" height="0.89189" transform="matrix(-4.37114e-08 -1 -1 4.37114e-08 16.3513 121.838)" fill="white"/>
<rect width="0.89189" height="0.89189" transform="matrix(-4.37114e-08 -1 -1 4.37114e-08 16.3513 52.2703)" fill="white"/>
<rect width="0.89189" height="0.89189" transform="matrix(-4.37114e-08 -1 -1 4.37114e-08 39.5403 121.838)" fill="white"/>
<rect width="0.89189" height="0.89189" transform="matrix(-4.37114e-08 -1 -1 4.37114e-08 39.5403 52.2703)" fill="white"/>
<rect width="0.89189" height="0.89189" transform="matrix(-4.37114e-08 -1 -1 4.37114e-08 8.62109 191.405)" fill="white"/>
<rect width="0.89189" height="0.89189" transform="matrix(-4.37114e-08 -1 -1 4.37114e-08 8.62109 121.838)" fill="white"/>
<rect width="0.89189" height="0.89189" transform="matrix(-4.37114e-08 -1 -1 4.37114e-08 8.62109 52.2703)" fill="white"/>
<rect width="0.89189" height="0.89189" transform="matrix(-4.37114e-08 -1 -1 4.37114e-08 24.0808 48.4064)" fill="white"/>
<rect width="0.89189" height="0.89189" transform="matrix(-4.37114e-08 -1 -1 4.37114e-08 31.8108 48.4064)" fill="white"/>
<rect width="0.89189" height="0.89189" transform="matrix(-4.37114e-08 -1 -1 4.37114e-08 0.891846 187.541)" fill="white"/>
<rect width="0.89189" height="0.89189" transform="matrix(-4.37114e-08 -1 -1 4.37114e-08 0.891846 117.974)" fill="white"/>
<rect width="0.89189" height="0.89189" transform="matrix(-4.37114e-08 -1 -1 4.37114e-08 0.891846 48.4064)" fill="white"/>
<rect width="0.89189" height="0.89189" transform="matrix(-4.37114e-08 -1 -1 4.37114e-08 16.3513 48.4064)" fill="white"/>
<rect width="0.89189" height="0.89189" transform="matrix(-4.37114e-08 -1 -1 4.37114e-08 39.5403 48.4064)" fill="white"/>
<rect width="0.89189" height="0.89189" transform="matrix(-4.37114e-08 -1 -1 4.37114e-08 8.62109 187.541)" fill="white"/>
<rect width="0.89189" height="0.89189" transform="matrix(-4.37114e-08 -1 -1 4.37114e-08 8.62109 117.974)" fill="white"/>
<rect width="0.89189" height="0.89189" transform="matrix(-4.37114e-08 -1 -1 4.37114e-08 8.62109 48.4064)" fill="white"/>
<rect width="0.89189" height="0.89189" transform="matrix(-4.37114e-08 -1 -1 4.37114e-08 0.891846 183.676)" fill="white"/>
<rect width="0.89189" height="0.89189" transform="matrix(-4.37114e-08 -1 -1 4.37114e-08 0.891846 114.108)" fill="white"/>
<rect width="0.89189" height="0.89189" transform="matrix(-4.37114e-08 -1 -1 4.37114e-08 0.891846 44.5409)" fill="white"/>
<rect width="0.89189" height="0.89189" transform="matrix(-4.37114e-08 -1 -1 4.37114e-08 8.62109 183.676)" fill="white"/>
<rect width="0.89189" height="0.89189" transform="matrix(-4.37114e-08 -1 -1 4.37114e-08 8.62109 114.108)" fill="white"/>
<rect width="0.89189" height="0.89189" transform="matrix(-4.37114e-08 -1 -1 4.37114e-08 8.62109 44.5409)" fill="white"/>
<rect width="0.89189" height="0.89189" transform="matrix(-4.37114e-08 -1 -1 4.37114e-08 0.891846 179.81)" fill="white"/>
<rect width="0.89189" height="0.89189" transform="matrix(-4.37114e-08 -1 -1 4.37114e-08 0.891846 110.243)" fill="white"/>
<rect width="0.89189" height="0.89189" transform="matrix(-4.37114e-08 -1 -1 4.37114e-08 0.891846 40.6754)" fill="white"/>
<rect width="0.89189" height="0.89189" transform="matrix(-4.37114e-08 -1 -1 4.37114e-08 16.3513 179.81)" fill="white"/>
<rect width="0.89189" height="0.89189" transform="matrix(-4.37114e-08 -1 -1 4.37114e-08 39.5403 179.81)" fill="white"/>
<rect width="0.89189" height="0.89189" transform="matrix(-4.37114e-08 -1 -1 4.37114e-08 8.62109 179.81)" fill="white"/>
<rect width="0.89189" height="0.89189" transform="matrix(-4.37114e-08 -1 -1 4.37114e-08 8.62109 110.243)" fill="white"/>
<rect width="0.89189" height="0.89189" transform="matrix(-4.37114e-08 -1 -1 4.37114e-08 8.62109 40.6754)" fill="white"/>
<rect width="0.89189" height="0.89189" transform="matrix(-4.37114e-08 -1 -1 4.37114e-08 31.8108 106.379)" fill="white"/>
<rect width="0.89189" height="0.89189" transform="matrix(-4.37114e-08 -1 -1 4.37114e-08 0.891846 175.946)" fill="white"/>
<rect width="0.89189" height="0.89189" transform="matrix(-4.37114e-08 -1 -1 4.37114e-08 0.891846 106.379)" fill="white"/>
<rect width="0.89189" height="0.89189" transform="matrix(-4.37114e-08 -1 -1 4.37114e-08 0.891846 36.8116)" fill="white"/>
<rect width="0.89189" height="0.89189" transform="matrix(-4.37114e-08 -1 -1 4.37114e-08 16.3513 175.946)" fill="white"/>
<rect width="0.89189" height="0.89189" transform="matrix(-4.37114e-08 -1 -1 4.37114e-08 16.3513 106.379)" fill="white"/>
<rect width="0.89189" height="0.89189" transform="matrix(-4.37114e-08 -1 -1 4.37114e-08 39.5403 175.946)" fill="white"/>
<rect width="0.89189" height="0.89189" transform="matrix(-4.37114e-08 -1 -1 4.37114e-08 8.62109 175.946)" fill="white"/>
<rect width="0.89189" height="0.89189" transform="matrix(-4.37114e-08 -1 -1 4.37114e-08 8.62109 106.379)" fill="white"/>
<rect width="0.89189" height="0.89189" transform="matrix(-4.37114e-08 -1 -1 4.37114e-08 8.62109 36.8116)" fill="white"/>
<rect width="0.89189" height="0.89189" transform="matrix(-4.37114e-08 -1 -1 4.37114e-08 31.8108 102.513)" fill="white"/>
<rect width="0.89189" height="0.89189" transform="matrix(-4.37114e-08 -1 -1 4.37114e-08 0.891846 172.081)" fill="white"/>
<rect width="0.89189" height="0.89189" transform="matrix(-4.37114e-08 -1 -1 4.37114e-08 0.891846 102.513)" fill="white"/>
<rect width="0.89189" height="0.89189" transform="matrix(-4.37114e-08 -1 -1 4.37114e-08 0.891846 32.946)" fill="white"/>
<rect width="0.89189" height="0.89189" transform="matrix(-4.37114e-08 -1 -1 4.37114e-08 16.3513 32.946)" fill="white"/>
<rect width="0.89189" height="0.89189" transform="matrix(-4.37114e-08 -1 -1 4.37114e-08 8.62109 172.081)" fill="white"/>
<rect width="0.89189" height="0.89189" transform="matrix(-4.37114e-08 -1 -1 4.37114e-08 8.62109 102.513)" fill="white"/>
<rect width="0.89189" height="0.89189" transform="matrix(-4.37114e-08 -1 -1 4.37114e-08 8.62109 32.946)" fill="white"/>
<rect width="0.89189" height="0.89189" transform="matrix(-4.37114e-08 -1 -1 4.37114e-08 0.891846 168.217)" fill="white"/>
<rect width="0.89189" height="0.89189" transform="matrix(-4.37114e-08 -1 -1 4.37114e-08 0.891846 98.648)" fill="white"/>
<rect width="0.89189" height="0.89189" transform="matrix(-4.37114e-08 -1 -1 4.37114e-08 0.891846 29.0805)" fill="white"/>
<rect width="0.89189" height="0.89189" transform="matrix(-4.37114e-08 -1 -1 4.37114e-08 39.5403 29.0805)" fill="white"/>
<rect width="0.89189" height="0.89189" transform="matrix(-4.37114e-08 -1 -1 4.37114e-08 8.62109 168.217)" fill="white"/>
<rect width="0.89189" height="0.89189" transform="matrix(-4.37114e-08 -1 -1 4.37114e-08 8.62109 98.648)" fill="white"/>
<rect width="0.89189" height="0.89189" transform="matrix(-4.37114e-08 -1 -1 4.37114e-08 8.62109 29.0805)" fill="white"/>
<rect width="0.89189" height="0.89189" transform="matrix(-4.37114e-08 -1 -1 4.37114e-08 24.0808 94.7842)" fill="white"/>
<rect width="0.89189" height="0.89189" transform="matrix(-4.37114e-08 -1 -1 4.37114e-08 0.891846 164.352)" fill="white"/>
<rect width="0.89189" height="0.89189" transform="matrix(-4.37114e-08 -1 -1 4.37114e-08 0.891846 94.7842)" fill="white"/>
<rect width="0.89189" height="0.89189" transform="matrix(-4.37114e-08 -1 -1 4.37114e-08 0.891846 25.2167)" fill="white"/>
<rect width="0.89189" height="0.89189" transform="matrix(-4.37114e-08 -1 -1 4.37114e-08 24.0808 5.89252)" fill="white"/>
<rect width="0.89189" height="0.89189" transform="matrix(-4.37114e-08 -1 -1 4.37114e-08 31.8108 75.46)" fill="white"/>
<rect width="0.89189" height="0.89189" transform="matrix(-4.37114e-08 -1 -1 4.37114e-08 31.8108 5.89252)" fill="white"/>
<rect width="0.89189" height="0.89189" transform="matrix(-4.37114e-08 -1 -1 4.37114e-08 0.891846 145.027)" fill="white"/>
<rect width="0.89189" height="0.89189" transform="matrix(-4.37114e-08 -1 -1 4.37114e-08 0.891846 75.46)" fill="white"/>
<rect width="0.89189" height="0.89189" transform="matrix(-4.37114e-08 -1 -1 4.37114e-08 0.891846 5.89252)" fill="white"/>
<rect width="0.89189" height="0.89189" transform="matrix(-4.37114e-08 -1 -1 4.37114e-08 16.3513 5.89252)" fill="white"/>
<rect width="0.89189" height="0.89189" transform="matrix(-4.37114e-08 -1 -1 4.37114e-08 39.5403 25.2167)" fill="white"/>
<rect width="0.89189" height="0.89189" transform="matrix(-4.37114e-08 -1 -1 4.37114e-08 8.62109 164.352)" fill="white"/>
<rect width="0.89189" height="0.89189" transform="matrix(-4.37114e-08 -1 -1 4.37114e-08 8.62109 94.7842)" fill="white"/>
<rect width="0.89189" height="0.89189" transform="matrix(-4.37114e-08 -1 -1 4.37114e-08 8.62109 25.2167)" fill="white"/>
<rect width="0.89189" height="0.89189" transform="matrix(-4.37114e-08 -1 -1 4.37114e-08 39.5403 5.89252)" fill="white"/>
<rect width="0.89189" height="0.89189" transform="matrix(-4.37114e-08 -1 -1 4.37114e-08 8.62109 145.027)" fill="white"/>
<rect width="0.89189" height="0.89189" transform="matrix(-4.37114e-08 -1 -1 4.37114e-08 8.62109 75.46)" fill="white"/>
<rect width="0.89189" height="0.89189" transform="matrix(-4.37114e-08 -1 -1 4.37114e-08 8.62109 5.89252)" fill="white"/>
<rect width="0.89189" height="0.89189" transform="matrix(-4.37114e-08 -1 -1 4.37114e-08 24.0808 160.486)" fill="white"/>
<rect width="0.89189" height="0.89189" transform="matrix(-4.37114e-08 -1 -1 4.37114e-08 24.0808 90.9186)" fill="white"/>
<rect width="0.89189" height="0.89189" transform="matrix(-4.37114e-08 -1 -1 4.37114e-08 31.8108 160.486)" fill="white"/>
<rect width="0.89189" height="0.89189" transform="matrix(-4.37114e-08 -1 -1 4.37114e-08 0.891846 160.486)" fill="white"/>
<rect width="0.89189" height="0.89189" transform="matrix(-4.37114e-08 -1 -1 4.37114e-08 0.891846 90.9186)" fill="white"/>
<rect width="0.89189" height="0.89189" transform="matrix(-4.37114e-08 -1 -1 4.37114e-08 0.891846 21.3512)" fill="white"/>
<rect width="0.89189" height="0.89189" transform="matrix(-4.37114e-08 -1 -1 4.37114e-08 24.0808 2.02698)" fill="white"/>
<rect width="0.89189" height="0.89189" transform="matrix(-4.37114e-08 -1 -1 4.37114e-08 31.8108 71.5944)" fill="white"/>
<rect width="0.89189" height="0.89189" transform="matrix(-4.37114e-08 -1 -1 4.37114e-08 31.8108 2.02698)" fill="white"/>
<rect width="0.89189" height="0.89189" transform="matrix(-4.37114e-08 -1 -1 4.37114e-08 0.891846 141.162)" fill="white"/>
<rect width="0.89189" height="0.89189" transform="matrix(-4.37114e-08 -1 -1 4.37114e-08 0.891846 71.5944)" fill="white"/>
<rect width="0.89189" height="0.89189" transform="matrix(-4.37114e-08 -1 -1 4.37114e-08 0.891846 2.02698)" fill="white"/>
<rect width="0.89189" height="0.89189" transform="matrix(-4.37114e-08 -1 -1 4.37114e-08 16.3513 160.486)" fill="white"/>
<rect width="0.89189" height="0.89189" transform="matrix(-4.37114e-08 -1 -1 4.37114e-08 16.3513 90.9186)" fill="white"/>
<rect width="0.89189" height="0.89189" transform="matrix(-4.37114e-08 -1 -1 4.37114e-08 16.3513 21.3512)" fill="white"/>
<rect width="0.89189" height="0.89189" transform="matrix(-4.37114e-08 -1 -1 4.37114e-08 16.3513 2.02698)" fill="white"/>
<rect width="0.89189" height="0.89189" transform="matrix(-4.37114e-08 -1 -1 4.37114e-08 39.5403 160.486)" fill="white"/>
<rect width="0.89189" height="0.89189" transform="matrix(-4.37114e-08 -1 -1 4.37114e-08 39.5403 90.9186)" fill="white"/>
<rect width="0.89189" height="0.89189" transform="matrix(-4.37114e-08 -1 -1 4.37114e-08 8.62109 160.486)" fill="white"/>
<rect width="0.89189" height="0.89189" transform="matrix(-4.37114e-08 -1 -1 4.37114e-08 8.62109 90.9186)" fill="white"/>
<rect width="0.89189" height="0.89189" transform="matrix(-4.37114e-08 -1 -1 4.37114e-08 8.62109 21.3512)" fill="white"/>
<rect width="0.89189" height="0.89189" transform="matrix(-4.37114e-08 -1 -1 4.37114e-08 39.5403 2.02698)" fill="white"/>
<rect width="0.89189" height="0.89189" transform="matrix(-4.37114e-08 -1 -1 4.37114e-08 8.62109 141.162)" fill="white"/>
<rect width="0.89189" height="0.89189" transform="matrix(-4.37114e-08 -1 -1 4.37114e-08 8.62109 71.5944)" fill="white"/>
<rect width="0.89189" height="0.89189" transform="matrix(-4.37114e-08 -1 -1 4.37114e-08 8.62109 2.02698)" fill="white"/>
<rect width="0.89189" height="0.89189" transform="matrix(-4.37114e-08 -1 -1 4.37114e-08 24.0808 156.622)" fill="white"/>
<rect width="0.89189" height="0.89189" transform="matrix(-4.37114e-08 -1 -1 4.37114e-08 24.0808 87.0548)" fill="white"/>
<rect width="0.89189" height="0.89189" transform="matrix(-4.37114e-08 -1 -1 4.37114e-08 31.8108 156.622)" fill="white"/>
<rect width="0.89189" height="0.89189" transform="matrix(-4.37114e-08 -1 -1 4.37114e-08 31.8108 87.0548)" fill="white"/>
<rect width="0.89189" height="0.89189" transform="matrix(-4.37114e-08 -1 -1 4.37114e-08 0.891846 156.622)" fill="white"/>
<rect width="0.89189" height="0.89189" transform="matrix(-4.37114e-08 -1 -1 4.37114e-08 0.891846 87.0548)" fill="white"/>
<rect width="0.89189" height="0.89189" transform="matrix(-4.37114e-08 -1 -1 4.37114e-08 0.891846 17.4874)" fill="white"/>
<rect width="0.89189" height="0.89189" transform="matrix(-4.37114e-08 -1 -1 4.37114e-08 0.891846 137.298)" fill="white"/>
<rect width="0.89189" height="0.89189" transform="matrix(-4.37114e-08 -1 -1 4.37114e-08 0.891846 67.7306)" fill="white"/>
<rect width="0.89189" height="0.89189" transform="matrix(-4.37114e-08 -1 -1 4.37114e-08 16.3513 156.622)" fill="white"/>
<rect width="0.89189" height="0.89189" transform="matrix(-4.37114e-08 -1 -1 4.37114e-08 16.3513 87.0548)" fill="white"/>
<rect width="0.89189" height="0.89189" transform="matrix(-4.37114e-08 -1 -1 4.37114e-08 39.5403 156.622)" fill="white"/>
<rect width="0.89189" height="0.89189" transform="matrix(-4.37114e-08 -1 -1 4.37114e-08 39.5403 87.0548)" fill="white"/>
<rect width="0.89189" height="0.89189" transform="matrix(-4.37114e-08 -1 -1 4.37114e-08 8.62109 156.622)" fill="white"/>
<rect width="0.89189" height="0.89189" transform="matrix(-4.37114e-08 -1 -1 4.37114e-08 8.62109 87.0548)" fill="white"/>
<rect width="0.89189" height="0.89189" transform="matrix(-4.37114e-08 -1 -1 4.37114e-08 8.62109 17.4874)" fill="white"/>
<rect width="0.89189" height="0.89189" transform="matrix(-4.37114e-08 -1 -1 4.37114e-08 8.62109 137.298)" fill="white"/>
<rect width="0.89189" height="0.89189" transform="matrix(-4.37114e-08 -1 -1 4.37114e-08 8.62109 67.7306)" fill="white"/>
<rect width="0.89189" height="0.89189" transform="matrix(-4.37114e-08 -1 -1 4.37114e-08 24.0808 152.757)" fill="white"/>
<rect width="0.89189" height="0.89189" transform="matrix(-4.37114e-08 -1 -1 4.37114e-08 24.0808 83.1893)" fill="white"/>
<rect width="0.89189" height="0.89189" transform="matrix(-4.37114e-08 -1 -1 4.37114e-08 31.8108 152.757)" fill="white"/>
<rect width="0.89189" height="0.89189" transform="matrix(-4.37114e-08 -1 -1 4.37114e-08 31.8108 83.1893)" fill="white"/>
<rect width="0.89189" height="0.89189" transform="matrix(-4.37114e-08 -1 -1 4.37114e-08 0.891846 152.757)" fill="white"/>
<rect width="0.89189" height="0.89189" transform="matrix(-4.37114e-08 -1 -1 4.37114e-08 0.891846 83.1893)" fill="white"/>
<rect width="0.89189" height="0.89189" transform="matrix(-4.37114e-08 -1 -1 4.37114e-08 0.891846 13.6218)" fill="white"/>
<rect width="0.89189" height="0.89189" transform="matrix(-4.37114e-08 -1 -1 4.37114e-08 16.3513 152.757)" fill="white"/>
<rect width="0.89189" height="0.89189" transform="matrix(-4.37114e-08 -1 -1 4.37114e-08 16.3513 83.1893)" fill="white"/>
<rect width="0.89189" height="0.89189" transform="matrix(-4.37114e-08 -1 -1 4.37114e-08 39.5403 83.1893)" fill="white"/>
<rect width="0.89189" height="0.89189" transform="matrix(-4.37114e-08 -1 -1 4.37114e-08 8.62109 152.757)" fill="white"/>
<rect width="0.89189" height="0.89189" transform="matrix(-4.37114e-08 -1 -1 4.37114e-08 8.62109 83.1893)" fill="white"/>
<rect width="0.89189" height="0.89189" transform="matrix(-4.37114e-08 -1 -1 4.37114e-08 8.62109 13.6218)" fill="white"/>
<rect width="0.89189" height="0.89189" transform="matrix(-4.37114e-08 -1 -1 4.37114e-08 24.0808 148.891)" fill="white"/>
<rect width="0.89189" height="0.89189" transform="matrix(-4.37114e-08 -1 -1 4.37114e-08 24.0808 79.3238)" fill="white"/>
<rect width="0.89189" height="0.89189" transform="matrix(-4.37114e-08 -1 -1 4.37114e-08 31.8108 148.891)" fill="white"/>
<rect width="0.89189" height="0.89189" transform="matrix(-4.37114e-08 -1 -1 4.37114e-08 31.8108 79.3238)" fill="white"/>
<rect width="0.89189" height="0.89189" transform="matrix(-4.37114e-08 -1 -1 4.37114e-08 0.891846 148.891)" fill="white"/>
<rect width="0.89189" height="0.89189" transform="matrix(-4.37114e-08 -1 -1 4.37114e-08 0.891846 79.3238)" fill="white"/>
<rect width="0.89189" height="0.89189" transform="matrix(-4.37114e-08 -1 -1 4.37114e-08 0.891846 9.75635)" fill="white"/>
<rect width="0.89189" height="0.89189" transform="matrix(-4.37114e-08 -1 -1 4.37114e-08 16.3513 148.891)" fill="white"/>
<rect width="0.89189" height="0.89189" transform="matrix(-4.37114e-08 -1 -1 4.37114e-08 8.62109 148.891)" fill="white"/>
<rect width="0.89189" height="0.89189" transform="matrix(-4.37114e-08 -1 -1 4.37114e-08 8.62109 79.3238)" fill="white"/>
<rect width="0.89189" height="0.89189" transform="matrix(-4.37114e-08 -1 -1 4.37114e-08 8.62109 9.75635)" fill="white"/>
<rect width="0.89189" height="0.89189" transform="matrix(-4.37114e-08 -1 -1 4.37114e-08 20.2161 133.433)" fill="white"/>
<rect width="0.89189" height="0.89189" transform="matrix(-4.37114e-08 -1 -1 4.37114e-08 27.9453 133.433)" fill="white"/>
<rect width="0.89189" height="0.89189" transform="matrix(-4.37114e-08 -1 -1 4.37114e-08 12.4858 133.433)" fill="white"/>
<rect width="0.89189" height="0.89189" transform="matrix(-4.37114e-08 -1 -1 4.37114e-08 4.75659 133.433)" fill="white"/>
<rect width="0.89189" height="0.89189" transform="matrix(-4.37114e-08 -1 -1 4.37114e-08 4.75659 63.8651)" fill="white"/>
<rect width="0.89189" height="0.89189" transform="matrix(-4.37114e-08 -1 -1 4.37114e-08 20.2161 199.135)" fill="white"/>
<rect width="0.89189" height="0.89189" transform="matrix(-4.37114e-08 -1 -1 4.37114e-08 20.2161 129.567)" fill="white"/>
<rect width="0.89189" height="0.89189" transform="matrix(-4.37114e-08 -1 -1 4.37114e-08 27.9453 199.135)" fill="white"/>
<rect width="0.89189" height="0.89189" transform="matrix(-4.37114e-08 -1 -1 4.37114e-08 27.9453 129.567)" fill="white"/>
<rect width="0.89189" height="0.89189" transform="matrix(-4.37114e-08 -1 -1 4.37114e-08 27.9453 59.9996)" fill="white"/>
<rect width="0.89189" height="0.89189" transform="matrix(-4.37114e-08 -1 -1 4.37114e-08 43.4048 199.135)" fill="white"/>
<rect width="0.89189" height="0.89189" transform="matrix(-4.37114e-08 -1 -1 4.37114e-08 12.4858 199.135)" fill="white"/>
<rect width="0.89189" height="0.89189" transform="matrix(-4.37114e-08 -1 -1 4.37114e-08 12.4858 129.567)" fill="white"/>
<rect width="0.89189" height="0.89189" transform="matrix(-4.37114e-08 -1 -1 4.37114e-08 35.6755 199.135)" fill="white"/>
<rect width="0.89189" height="0.89189" transform="matrix(-4.37114e-08 -1 -1 4.37114e-08 4.75659 199.135)" fill="white"/>
<rect width="0.89189" height="0.89189" transform="matrix(-4.37114e-08 -1 -1 4.37114e-08 4.75659 129.567)" fill="white"/>
<rect width="0.89189" height="0.89189" transform="matrix(-4.37114e-08 -1 -1 4.37114e-08 4.75659 59.9996)" fill="white"/>
<rect width="0.89189" height="0.89189" transform="matrix(-4.37114e-08 -1 -1 4.37114e-08 20.2161 195.271)" fill="white"/>
<rect width="0.89189" height="0.89189" transform="matrix(-4.37114e-08 -1 -1 4.37114e-08 20.2161 125.703)" fill="white"/>
<rect width="0.89189" height="0.89189" transform="matrix(-4.37114e-08 -1 -1 4.37114e-08 27.9453 195.271)" fill="white"/>
<rect width="0.89189" height="0.89189" transform="matrix(-4.37114e-08 -1 -1 4.37114e-08 27.9453 125.703)" fill="white"/>
<rect width="0.89189" height="0.89189" transform="matrix(-4.37114e-08 -1 -1 4.37114e-08 27.9453 56.1357)" fill="white"/>
<rect width="0.89189" height="0.89189" transform="matrix(-4.37114e-08 -1 -1 4.37114e-08 43.4048 195.271)" fill="white"/>
<rect width="0.89189" height="0.89189" transform="matrix(-4.37114e-08 -1 -1 4.37114e-08 43.4048 125.703)" fill="white"/>
<rect width="0.89189" height="0.89189" transform="matrix(-4.37114e-08 -1 -1 4.37114e-08 12.4858 195.271)" fill="white"/>
<rect width="0.89189" height="0.89189" transform="matrix(-4.37114e-08 -1 -1 4.37114e-08 12.4858 125.703)" fill="white"/>
<rect width="0.89189" height="0.89189" transform="matrix(-4.37114e-08 -1 -1 4.37114e-08 35.6755 195.271)" fill="white"/>
<rect width="0.89189" height="0.89189" transform="matrix(-4.37114e-08 -1 -1 4.37114e-08 35.6755 125.703)" fill="white"/>
<rect width="0.89189" height="0.89189" transform="matrix(-4.37114e-08 -1 -1 4.37114e-08 4.75659 195.271)" fill="white"/>
<rect width="0.89189" height="0.89189" transform="matrix(-4.37114e-08 -1 -1 4.37114e-08 4.75659 125.703)" fill="white"/>
<rect width="0.89189" height="0.89189" transform="matrix(-4.37114e-08 -1 -1 4.37114e-08 4.75659 56.1357)" fill="white"/>
<rect width="0.89189" height="0.89189" transform="matrix(-4.37114e-08 -1 -1 4.37114e-08 20.2161 121.838)" fill="white"/>
<rect width="0.89189" height="0.89189" transform="matrix(-4.37114e-08 -1 -1 4.37114e-08 20.2161 52.2703)" fill="white"/>
<rect width="0.89189" height="0.89189" transform="matrix(-4.37114e-08 -1 -1 4.37114e-08 27.9453 121.838)" fill="white"/>
<rect width="0.89189" height="0.89189" transform="matrix(-4.37114e-08 -1 -1 4.37114e-08 27.9453 52.2703)" fill="white"/>
<rect width="0.89189" height="0.89189" transform="matrix(-4.37114e-08 -1 -1 4.37114e-08 43.4048 121.838)" fill="white"/>
<rect width="0.89189" height="0.89189" transform="matrix(-4.37114e-08 -1 -1 4.37114e-08 43.4048 52.2703)" fill="white"/>
<rect width="0.89189" height="0.89189" transform="matrix(-4.37114e-08 -1 -1 4.37114e-08 12.4858 121.838)" fill="white"/>
<rect width="0.89189" height="0.89189" transform="matrix(-4.37114e-08 -1 -1 4.37114e-08 12.4858 52.2703)" fill="white"/>
<rect width="0.89189" height="0.89189" transform="matrix(-4.37114e-08 -1 -1 4.37114e-08 35.6755 121.838)" fill="white"/>
<rect width="0.89189" height="0.89189" transform="matrix(-4.37114e-08 -1 -1 4.37114e-08 35.6755 52.2703)" fill="white"/>
<rect width="0.89189" height="0.89189" transform="matrix(-4.37114e-08 -1 -1 4.37114e-08 4.75659 191.405)" fill="white"/>
<rect width="0.89189" height="0.89189" transform="matrix(-4.37114e-08 -1 -1 4.37114e-08 4.75659 121.838)" fill="white"/>
<rect width="0.89189" height="0.89189" transform="matrix(-4.37114e-08 -1 -1 4.37114e-08 4.75659 52.2703)" fill="white"/>
<rect width="0.89189" height="0.89189" transform="matrix(-4.37114e-08 -1 -1 4.37114e-08 20.2161 48.4064)" fill="white"/>
<rect width="0.89189" height="0.89189" transform="matrix(-4.37114e-08 -1 -1 4.37114e-08 27.9453 48.4064)" fill="white"/>
<rect width="0.89189" height="0.89189" transform="matrix(-4.37114e-08 -1 -1 4.37114e-08 43.4048 48.4064)" fill="white"/>
<rect width="0.89189" height="0.89189" transform="matrix(-4.37114e-08 -1 -1 4.37114e-08 12.4858 48.4064)" fill="white"/>
<rect width="0.89189" height="0.89189" transform="matrix(-4.37114e-08 -1 -1 4.37114e-08 35.6755 48.4064)" fill="white"/>
<rect width="0.89189" height="0.89189" transform="matrix(-4.37114e-08 -1 -1 4.37114e-08 4.75659 187.541)" fill="white"/>
<rect width="0.89189" height="0.89189" transform="matrix(-4.37114e-08 -1 -1 4.37114e-08 4.75659 117.974)" fill="white"/>
<rect width="0.89189" height="0.89189" transform="matrix(-4.37114e-08 -1 -1 4.37114e-08 4.75659 48.4064)" fill="white"/>
<rect width="0.89189" height="0.89189" transform="matrix(-4.37114e-08 -1 -1 4.37114e-08 4.75659 183.676)" fill="white"/>
<rect width="0.89189" height="0.89189" transform="matrix(-4.37114e-08 -1 -1 4.37114e-08 4.75659 114.108)" fill="white"/>
<rect width="0.89189" height="0.89189" transform="matrix(-4.37114e-08 -1 -1 4.37114e-08 4.75659 44.5409)" fill="white"/>
<rect width="0.89189" height="0.89189" transform="matrix(-4.37114e-08 -1 -1 4.37114e-08 20.2161 179.81)" fill="white"/>
<rect width="0.89189" height="0.89189" transform="matrix(-4.37114e-08 -1 -1 4.37114e-08 43.4048 179.81)" fill="white"/>
<rect width="0.89189" height="0.89189" transform="matrix(-4.37114e-08 -1 -1 4.37114e-08 12.4858 179.81)" fill="white"/>
<rect width="0.89189" height="0.89189" transform="matrix(-4.37114e-08 -1 -1 4.37114e-08 4.75659 179.81)" fill="white"/>
<rect width="0.89189" height="0.89189" transform="matrix(-4.37114e-08 -1 -1 4.37114e-08 4.75659 110.243)" fill="white"/>
<rect width="0.89189" height="0.89189" transform="matrix(-4.37114e-08 -1 -1 4.37114e-08 4.75659 40.6754)" fill="white"/>
<rect width="0.89189" height="0.89189" transform="matrix(-4.37114e-08 -1 -1 4.37114e-08 20.2161 106.379)" fill="white"/>
<rect width="0.89189" height="0.89189" transform="matrix(-4.37114e-08 -1 -1 4.37114e-08 43.4048 175.946)" fill="white"/>
<rect width="0.89189" height="0.89189" transform="matrix(-4.37114e-08 -1 -1 4.37114e-08 12.4858 175.946)" fill="white"/>
<rect width="0.89189" height="0.89189" transform="matrix(-4.37114e-08 -1 -1 4.37114e-08 12.4858 106.379)" fill="white"/>
<rect width="0.89189" height="0.89189" transform="matrix(-4.37114e-08 -1 -1 4.37114e-08 35.6755 175.946)" fill="white"/>
<rect width="0.89189" height="0.89189" transform="matrix(-4.37114e-08 -1 -1 4.37114e-08 35.6755 106.379)" fill="white"/>
<rect width="0.89189" height="0.89189" transform="matrix(-4.37114e-08 -1 -1 4.37114e-08 4.75659 175.946)" fill="white"/>
<rect width="0.89189" height="0.89189" transform="matrix(-4.37114e-08 -1 -1 4.37114e-08 4.75659 106.379)" fill="white"/>
<rect width="0.89189" height="0.89189" transform="matrix(-4.37114e-08 -1 -1 4.37114e-08 4.75659 36.8116)" fill="white"/>
<rect width="0.89189" height="0.89189" transform="matrix(-4.37114e-08 -1 -1 4.37114e-08 20.2161 32.946)" fill="white"/>
<rect width="0.89189" height="0.89189" transform="matrix(-4.37114e-08 -1 -1 4.37114e-08 43.4048 32.946)" fill="white"/>
<rect width="0.89189" height="0.89189" transform="matrix(-4.37114e-08 -1 -1 4.37114e-08 12.4858 102.513)" fill="white"/>
<rect width="0.89189" height="0.89189" transform="matrix(-4.37114e-08 -1 -1 4.37114e-08 12.4858 32.946)" fill="white"/>
<rect width="0.89189" height="0.89189" transform="matrix(-4.37114e-08 -1 -1 4.37114e-08 35.6755 102.513)" fill="white"/>
<rect width="0.89189" height="0.89189" transform="matrix(-4.37114e-08 -1 -1 4.37114e-08 4.75659 172.081)" fill="white"/>
<rect width="0.89189" height="0.89189" transform="matrix(-4.37114e-08 -1 -1 4.37114e-08 4.75659 102.513)" fill="white"/>
<rect width="0.89189" height="0.89189" transform="matrix(-4.37114e-08 -1 -1 4.37114e-08 4.75659 32.946)" fill="white"/>
<rect width="0.89189" height="0.89189" transform="matrix(-4.37114e-08 -1 -1 4.37114e-08 43.4048 29.0805)" fill="white"/>
<rect width="0.89189" height="0.89189" transform="matrix(-4.37114e-08 -1 -1 4.37114e-08 35.6755 29.0805)" fill="white"/>
<rect width="0.89189" height="0.89189" transform="matrix(-4.37114e-08 -1 -1 4.37114e-08 4.75659 168.217)" fill="white"/>
<rect width="0.89189" height="0.89189" transform="matrix(-4.37114e-08 -1 -1 4.37114e-08 4.75659 98.648)" fill="white"/>
<rect width="0.89189" height="0.89189" transform="matrix(-4.37114e-08 -1 -1 4.37114e-08 4.75659 29.0805)" fill="white"/>
<rect width="0.89189" height="0.89189" transform="matrix(-4.37114e-08 -1 -1 4.37114e-08 20.2161 5.89252)" fill="white"/>
<rect width="0.89189" height="0.89189" transform="matrix(-4.37114e-08 -1 -1 4.37114e-08 27.9453 75.46)" fill="white"/>
<rect width="0.89189" height="0.89189" transform="matrix(-4.37114e-08 -1 -1 4.37114e-08 27.9453 5.89252)" fill="white"/>
<rect width="0.89189" height="0.89189" transform="matrix(-4.37114e-08 -1 -1 4.37114e-08 43.4048 94.7842)" fill="white"/>
<rect width="0.89189" height="0.89189" transform="matrix(-4.37114e-08 -1 -1 4.37114e-08 43.4048 25.2167)" fill="white"/>
<rect width="0.89189" height="0.89189" transform="matrix(-4.37114e-08 -1 -1 4.37114e-08 43.4048 5.89252)" fill="white"/>
<rect width="0.89189" height="0.89189" transform="matrix(-4.37114e-08 -1 -1 4.37114e-08 12.4858 5.89252)" fill="white"/>
<rect width="0.89189" height="0.89189" transform="matrix(-4.37114e-08 -1 -1 4.37114e-08 35.6755 25.2167)" fill="white"/>
<rect width="0.89189" height="0.89189" transform="matrix(-4.37114e-08 -1 -1 4.37114e-08 4.75659 164.352)" fill="white"/>
<rect width="0.89189" height="0.89189" transform="matrix(-4.37114e-08 -1 -1 4.37114e-08 4.75659 94.7842)" fill="white"/>
<rect width="0.89189" height="0.89189" transform="matrix(-4.37114e-08 -1 -1 4.37114e-08 4.75659 25.2167)" fill="white"/>
<rect width="0.89189" height="0.89189" transform="matrix(-4.37114e-08 -1 -1 4.37114e-08 35.6755 5.89252)" fill="white"/>
<rect width="0.89189" height="0.89189" transform="matrix(-4.37114e-08 -1 -1 4.37114e-08 4.75659 145.027)" fill="white"/>
<rect width="0.89189" height="0.89189" transform="matrix(-4.37114e-08 -1 -1 4.37114e-08 4.75659 75.46)" fill="white"/>
<rect width="0.89189" height="0.89189" transform="matrix(-4.37114e-08 -1 -1 4.37114e-08 4.75659 5.89252)" fill="white"/>
<rect width="0.89189" height="0.89189" transform="matrix(-4.37114e-08 -1 -1 4.37114e-08 20.2161 160.486)" fill="white"/>
<rect width="0.89189" height="0.89189" transform="matrix(-4.37114e-08 -1 -1 4.37114e-08 20.2161 90.9186)" fill="white"/>
<rect width="0.89189" height="0.89189" transform="matrix(-4.37114e-08 -1 -1 4.37114e-08 20.2161 21.3512)" fill="white"/>
<rect width="0.89189" height="0.89189" transform="matrix(-4.37114e-08 -1 -1 4.37114e-08 27.9453 160.486)" fill="white"/>
<rect width="0.89189" height="0.89189" transform="matrix(-4.37114e-08 -1 -1 4.37114e-08 27.9453 90.9186)" fill="white"/>
<rect width="0.89189" height="0.89189" transform="matrix(-4.37114e-08 -1 -1 4.37114e-08 20.2161 2.02698)" fill="white"/>
<rect width="0.89189" height="0.89189" transform="matrix(-4.37114e-08 -1 -1 4.37114e-08 27.9453 2.02698)" fill="white"/>
<rect width="0.89189" height="0.89189" transform="matrix(-4.37114e-08 -1 -1 4.37114e-08 43.4048 160.486)" fill="white"/>
<rect width="0.89189" height="0.89189" transform="matrix(-4.37114e-08 -1 -1 4.37114e-08 43.4048 90.9186)" fill="white"/>
<rect width="0.89189" height="0.89189" transform="matrix(-4.37114e-08 -1 -1 4.37114e-08 43.4048 21.3512)" fill="white"/>
<rect width="0.89189" height="0.89189" transform="matrix(-4.37114e-08 -1 -1 4.37114e-08 12.4858 160.486)" fill="white"/>
<rect width="0.89189" height="0.89189" transform="matrix(-4.37114e-08 -1 -1 4.37114e-08 12.4858 21.3512)" fill="white"/>
<rect width="0.89189" height="0.89189" transform="matrix(-4.37114e-08 -1 -1 4.37114e-08 43.4048 2.02698)" fill="white"/>
<rect width="0.89189" height="0.89189" transform="matrix(-4.37114e-08 -1 -1 4.37114e-08 12.4858 2.02698)" fill="white"/>
<rect width="0.89189" height="0.89189" transform="matrix(-4.37114e-08 -1 -1 4.37114e-08 35.6755 160.486)" fill="white"/>
<rect width="0.89189" height="0.89189" transform="matrix(-4.37114e-08 -1 -1 4.37114e-08 4.75659 160.486)" fill="white"/>
<rect width="0.89189" height="0.89189" transform="matrix(-4.37114e-08 -1 -1 4.37114e-08 4.75659 90.9186)" fill="white"/>
<rect width="0.89189" height="0.89189" transform="matrix(-4.37114e-08 -1 -1 4.37114e-08 4.75659 21.3512)" fill="white"/>
<rect width="0.89189" height="0.89189" transform="matrix(-4.37114e-08 -1 -1 4.37114e-08 35.6755 2.02698)" fill="white"/>
<rect width="0.89189" height="0.89189" transform="matrix(-4.37114e-08 -1 -1 4.37114e-08 4.75659 141.162)" fill="white"/>
<rect width="0.89189" height="0.89189" transform="matrix(-4.37114e-08 -1 -1 4.37114e-08 4.75659 71.5944)" fill="white"/>
<rect width="0.89189" height="0.89189" transform="matrix(-4.37114e-08 -1 -1 4.37114e-08 4.75659 2.02698)" fill="white"/>
<rect width="0.89189" height="0.89189" transform="matrix(-4.37114e-08 -1 -1 4.37114e-08 20.2161 156.622)" fill="white"/>
<rect width="0.89189" height="0.89189" transform="matrix(-4.37114e-08 -1 -1 4.37114e-08 20.2161 87.0548)" fill="white"/>
<rect width="0.89189" height="0.89189" transform="matrix(-4.37114e-08 -1 -1 4.37114e-08 27.9453 156.622)" fill="white"/>
<rect width="0.89189" height="0.89189" transform="matrix(-4.37114e-08 -1 -1 4.37114e-08 27.9453 87.0548)" fill="white"/>
<rect width="0.89189" height="0.89189" transform="matrix(-4.37114e-08 -1 -1 4.37114e-08 43.4048 156.622)" fill="white"/>
<rect width="0.89189" height="0.89189" transform="matrix(-4.37114e-08 -1 -1 4.37114e-08 43.4048 87.0548)" fill="white"/>
<rect width="0.89189" height="0.89189" transform="matrix(-4.37114e-08 -1 -1 4.37114e-08 12.4858 156.622)" fill="white"/>
<rect width="0.89189" height="0.89189" transform="matrix(-4.37114e-08 -1 -1 4.37114e-08 12.4858 87.0548)" fill="white"/>
<rect width="0.89189" height="0.89189" transform="matrix(-4.37114e-08 -1 -1 4.37114e-08 35.6755 156.622)" fill="white"/>
<rect width="0.89189" height="0.89189" transform="matrix(-4.37114e-08 -1 -1 4.37114e-08 35.6755 87.0548)" fill="white"/>
<rect width="0.89189" height="0.89189" transform="matrix(-4.37114e-08 -1 -1 4.37114e-08 4.75659 156.622)" fill="white"/>
<rect width="0.89189" height="0.89189" transform="matrix(-4.37114e-08 -1 -1 4.37114e-08 4.75659 87.0548)" fill="white"/>
<rect width="0.89189" height="0.89189" transform="matrix(-4.37114e-08 -1 -1 4.37114e-08 4.75659 17.4874)" fill="white"/>
<rect width="0.89189" height="0.89189" transform="matrix(-4.37114e-08 -1 -1 4.37114e-08 4.75659 137.298)" fill="white"/>
<rect width="0.89189" height="0.89189" transform="matrix(-4.37114e-08 -1 -1 4.37114e-08 4.75659 67.7306)" fill="white"/>
<rect width="0.89189" height="0.89189" transform="matrix(-4.37114e-08 -1 -1 4.37114e-08 20.2161 152.757)" fill="white"/>
<rect width="0.89189" height="0.89189" transform="matrix(-4.37114e-08 -1 -1 4.37114e-08 20.2161 83.1893)" fill="white"/>
<rect width="0.89189" height="0.89189" transform="matrix(-4.37114e-08 -1 -1 4.37114e-08 27.9453 152.757)" fill="white"/>
<rect width="0.89189" height="0.89189" transform="matrix(-4.37114e-08 -1 -1 4.37114e-08 27.9453 83.1893)" fill="white"/>
<rect width="0.89189" height="0.89189" transform="matrix(-4.37114e-08 -1 -1 4.37114e-08 43.4048 83.1893)" fill="white"/>
<rect width="0.89189" height="0.89189" transform="matrix(-4.37114e-08 -1 -1 4.37114e-08 12.4858 152.757)" fill="white"/>
<rect width="0.89189" height="0.89189" transform="matrix(-4.37114e-08 -1 -1 4.37114e-08 12.4858 83.1893)" fill="white"/>
<rect width="0.89189" height="0.89189" transform="matrix(-4.37114e-08 -1 -1 4.37114e-08 35.6755 83.1893)" fill="white"/>
<rect width="0.89189" height="0.89189" transform="matrix(-4.37114e-08 -1 -1 4.37114e-08 4.75659 152.757)" fill="white"/>
<rect width="0.89189" height="0.89189" transform="matrix(-4.37114e-08 -1 -1 4.37114e-08 4.75659 83.1893)" fill="white"/>
<rect width="0.89189" height="0.89189" transform="matrix(-4.37114e-08 -1 -1 4.37114e-08 4.75659 13.6218)" fill="white"/>
<rect width="0.89189" height="0.89189" transform="matrix(-4.37114e-08 -1 -1 4.37114e-08 20.2161 148.891)" fill="white"/>
<rect width="0.89189" height="0.89189" transform="matrix(-4.37114e-08 -1 -1 4.37114e-08 27.9453 148.891)" fill="white"/>
<rect width="0.89189" height="0.89189" transform="matrix(-4.37114e-08 -1 -1 4.37114e-08 27.9453 79.3238)" fill="white"/>
<rect width="0.89189" height="0.89189" transform="matrix(-4.37114e-08 -1 -1 4.37114e-08 12.4858 148.891)" fill="white"/>
<rect width="0.89189" height="0.89189" transform="matrix(-4.37114e-08 -1 -1 4.37114e-08 4.75659 148.891)" fill="white"/>
<rect width="0.89189" height="0.89189" transform="matrix(-4.37114e-08 -1 -1 4.37114e-08 4.75659 79.3238)" fill="white"/>
<rect width="0.89189" height="0.89189" transform="matrix(-4.37114e-08 -1 -1 4.37114e-08 4.75659 9.75635)" fill="white"/>
</g>
<rect width="0.89189" height="0.89189" transform="matrix(-4.37114e-08 -1 -1 4.37114e-08 31.8108 63.8652)" fill="white"/>
<rect width="0.89189" height="0.89189" transform="matrix(-4.37114e-08 -1 -1 4.37114e-08 16.3513 63.8652)" fill="white"/>
<rect width="0.89189" height="0.89189" transform="matrix(-4.37114e-08 -1 -1 4.37114e-08 39.541 63.8652)" fill="white"/>
<rect width="0.89189" height="0.89189" transform="matrix(-4.37114e-08 -1 -1 4.37114e-08 31.8108 59.9996)" fill="white"/>
<rect width="0.89189" height="0.89189" transform="matrix(-4.37114e-08 -1 -1 4.37114e-08 16.3513 59.9996)" fill="white"/>
<rect width="0.89189" height="0.89189" transform="matrix(-4.37114e-08 -1 -1 4.37114e-08 39.541 59.9996)" fill="white"/>
<rect width="0.89189" height="0.89189" transform="matrix(-4.37114e-08 -1 -1 4.37114e-08 16.3513 56.1342)" fill="white"/>
<rect width="0.89189" height="0.89189" transform="matrix(-4.37114e-08 -1 -1 4.37114e-08 39.541 56.1342)" fill="white"/>
<rect width="0.89189" height="0.89189" transform="matrix(-4.37114e-08 -1 -1 4.37114e-08 24.0815 75.4583)" fill="white"/>
<rect width="0.89189" height="0.89189" transform="matrix(-4.37114e-08 -1 -1 4.37114e-08 16.3513 75.4583)" fill="white"/>
<rect width="0.89189" height="0.89189" transform="matrix(-4.37114e-08 -1 -1 4.37114e-08 39.541 75.4583)" fill="white"/>
<rect width="0.89189" height="0.89189" transform="matrix(-4.37114e-08 -1 -1 4.37114e-08 24.0815 71.5945)" fill="white"/>
<rect width="0.89189" height="0.89189" transform="matrix(-4.37114e-08 -1 -1 4.37114e-08 16.3513 71.5945)" fill="white"/>
<rect width="0.89189" height="0.89189" transform="matrix(-4.37114e-08 -1 -1 4.37114e-08 39.541 71.5945)" fill="white"/>
<rect width="0.89189" height="0.89189" transform="matrix(-4.37114e-08 -1 -1 4.37114e-08 24.0815 67.729)" fill="white"/>
<rect width="0.89189" height="0.89189" transform="matrix(-4.37114e-08 -1 -1 4.37114e-08 31.8108 67.729)" fill="white"/>
<rect width="0.89189" height="0.89189" transform="matrix(-4.37114e-08 -1 -1 4.37114e-08 16.3513 67.729)" fill="white"/>
<rect width="0.89189" height="0.89189" transform="matrix(-4.37114e-08 -1 -1 4.37114e-08 39.541 67.729)" fill="white"/>
<rect width="0.89189" height="0.89189" transform="matrix(-4.37114e-08 -1 -1 4.37114e-08 16.3513 79.3239)" fill="white"/>
<rect width="0.89189" height="0.89189" transform="matrix(-4.37114e-08 -1 -1 4.37114e-08 39.541 79.3239)" fill="white"/>
<rect width="0.89189" height="0.89189" transform="matrix(-4.37114e-08 -1 -1 4.37114e-08 20.2168 63.8652)" fill="white"/>
<rect width="0.89189" height="0.89189" transform="matrix(-4.37114e-08 -1 -1 4.37114e-08 27.9463 63.8652)" fill="white"/>
<rect width="0.89189" height="0.89189" transform="matrix(-4.37114e-08 -1 -1 4.37114e-08 43.4058 63.8652)" fill="white"/>
<rect width="0.89189" height="0.89189" transform="matrix(-4.37114e-08 -1 -1 4.37114e-08 12.4866 63.8652)" fill="white"/>
<rect width="0.89189" height="0.89189" transform="matrix(-4.37114e-08 -1 -1 4.37114e-08 35.6755 63.8652)" fill="white"/>
<rect width="0.89189" height="0.89189" transform="matrix(-4.37114e-08 -1 -1 4.37114e-08 20.2168 59.9996)" fill="white"/>
<rect width="0.89189" height="0.89189" transform="matrix(-4.37114e-08 -1 -1 4.37114e-08 43.4058 59.9996)" fill="white"/>
<rect width="0.89189" height="0.89189" transform="matrix(-4.37114e-08 -1 -1 4.37114e-08 12.4866 59.9996)" fill="white"/>
<rect width="0.89189" height="0.89189" transform="matrix(-4.37114e-08 -1 -1 4.37114e-08 35.6755 59.9996)" fill="white"/>
<rect width="0.89189" height="0.89189" transform="matrix(-4.37114e-08 -1 -1 4.37114e-08 20.2168 56.1342)" fill="white"/>
<rect width="0.89189" height="0.89189" transform="matrix(-4.37114e-08 -1 -1 4.37114e-08 43.4058 56.1342)" fill="white"/>
<rect width="0.89189" height="0.89189" transform="matrix(-4.37114e-08 -1 -1 4.37114e-08 12.4866 56.1342)" fill="white"/>
<rect width="0.89189" height="0.89189" transform="matrix(-4.37114e-08 -1 -1 4.37114e-08 35.6755 56.1342)" fill="white"/>
<rect width="0.89189" height="0.89189" transform="matrix(-4.37114e-08 -1 -1 4.37114e-08 20.2168 75.4583)" fill="white"/>
<rect width="0.89189" height="0.89189" transform="matrix(-4.37114e-08 -1 -1 4.37114e-08 43.4058 75.4583)" fill="white"/>
<rect width="0.89189" height="0.89189" transform="matrix(-4.37114e-08 -1 -1 4.37114e-08 12.4866 75.4583)" fill="white"/>
<rect width="0.89189" height="0.89189" transform="matrix(-4.37114e-08 -1 -1 4.37114e-08 35.6755 75.4583)" fill="white"/>
<rect width="0.89189" height="0.89189" transform="matrix(-4.37114e-08 -1 -1 4.37114e-08 20.2168 71.5945)" fill="white"/>
<rect width="0.89189" height="0.89189" transform="matrix(-4.37114e-08 -1 -1 4.37114e-08 27.9463 71.5945)" fill="white"/>
<rect width="0.89189" height="0.89189" transform="matrix(-4.37114e-08 -1 -1 4.37114e-08 43.4058 71.5945)" fill="white"/>
<rect width="0.89189" height="0.89189" transform="matrix(-4.37114e-08 -1 -1 4.37114e-08 12.4866 71.5945)" fill="white"/>
<rect width="0.89189" height="0.89189" transform="matrix(-4.37114e-08 -1 -1 4.37114e-08 35.6755 71.5945)" fill="white"/>
<rect width="0.89189" height="0.89189" transform="matrix(-4.37114e-08 -1 -1 4.37114e-08 20.2168 67.729)" fill="white"/>
<rect width="0.89189" height="0.89189" transform="matrix(-4.37114e-08 -1 -1 4.37114e-08 27.9463 67.729)" fill="white"/>
<rect width="0.89189" height="0.89189" transform="matrix(-4.37114e-08 -1 -1 4.37114e-08 43.4058 67.729)" fill="white"/>
<rect width="0.89189" height="0.89189" transform="matrix(-4.37114e-08 -1 -1 4.37114e-08 12.4866 67.729)" fill="white"/>
<rect width="0.89189" height="0.89189" transform="matrix(-4.37114e-08 -1 -1 4.37114e-08 35.6755 67.729)" fill="white"/>
<rect width="0.89189" height="0.89189" transform="matrix(-4.37114e-08 -1 -1 4.37114e-08 20.2168 79.3239)" fill="white"/>
<rect width="0.89189" height="0.89189" transform="matrix(-4.37114e-08 -1 -1 4.37114e-08 43.4026 79.3214)" fill="white"/>
<rect width="0.89189" height="0.89189" transform="matrix(-4.37114e-08 -1 -1 4.37114e-08 12.4866 79.3239)" fill="white"/>
<rect width="0.89189" height="0.89189" transform="matrix(-4.37114e-08 -1 -1 4.37114e-08 35.6755 79.3239)" fill="white"/>
<rect width="0.89189" height="0.89189" transform="matrix(-4.37114e-08 -1 -1 4.37114e-08 24.0808 117.974)" fill="white"/>
<rect width="0.89189" height="0.89189" transform="matrix(-4.37114e-08 -1 -1 4.37114e-08 31.811 117.974)" fill="white"/>
<rect width="0.89189" height="0.89189" transform="matrix(-4.37114e-08 -1 -1 4.37114e-08 16.3516 117.974)" fill="white"/>
<rect width="0.89189" height="0.89189" transform="matrix(-4.37114e-08 -1 -1 4.37114e-08 39.5403 117.974)" fill="white"/>
<rect width="0.89189" height="0.89189" transform="matrix(-4.37114e-08 -1 -1 4.37114e-08 24.0808 114.109)" fill="white"/>
<rect width="0.89189" height="0.89189" transform="matrix(-4.37114e-08 -1 -1 4.37114e-08 31.811 114.109)" fill="white"/>
<rect width="0.89189" height="0.89189" transform="matrix(-4.37114e-08 -1 -1 4.37114e-08 16.3516 114.109)" fill="white"/>
<rect width="0.89189" height="0.89189" transform="matrix(-4.37114e-08 -1 -1 4.37114e-08 39.5403 114.109)" fill="white"/>
<rect width="0.89189" height="0.89189" transform="matrix(-4.37114e-08 -1 -1 4.37114e-08 24.0808 110.243)" fill="white"/>
<rect width="0.89189" height="0.89189" transform="matrix(-4.37114e-08 -1 -1 4.37114e-08 31.811 110.243)" fill="white"/>
<rect width="0.89189" height="0.89189" transform="matrix(-4.37114e-08 -1 -1 4.37114e-08 16.3516 110.243)" fill="white"/>
<rect width="0.89189" height="0.89189" transform="matrix(-4.37114e-08 -1 -1 4.37114e-08 39.5403 110.243)" fill="white"/>
<rect width="0.89189" height="0.89189" transform="matrix(-4.37114e-08 -1 -1 4.37114e-08 24.0808 106.379)" fill="white"/>
<rect width="0.89189" height="0.89189" transform="matrix(-4.37114e-08 -1 -1 4.37114e-08 39.5403 106.379)" fill="white"/>
<rect width="0.89189" height="0.89189" transform="matrix(-4.37114e-08 -1 -1 4.37114e-08 24.0808 102.514)" fill="white"/>
<rect width="0.89189" height="0.89189" transform="matrix(-4.37114e-08 -1 -1 4.37114e-08 16.3516 102.514)" fill="white"/>
<rect width="0.89189" height="0.89189" transform="matrix(-4.37114e-08 -1 -1 4.37114e-08 39.5403 102.514)" fill="white"/>
<rect width="0.89189" height="0.89189" transform="matrix(-4.37114e-08 -1 -1 4.37114e-08 24.0808 98.6482)" fill="white"/>
<rect width="0.89189" height="0.89189" transform="matrix(-4.37114e-08 -1 -1 4.37114e-08 31.811 98.6482)" fill="white"/>
<rect width="0.89189" height="0.89189" transform="matrix(-4.37114e-08 -1 -1 4.37114e-08 16.3516 98.6482)" fill="white"/>
<rect width="0.89189" height="0.89189" transform="matrix(-4.37114e-08 -1 -1 4.37114e-08 39.5403 98.6482)" fill="white"/>
<rect width="0.89189" height="0.89189" transform="matrix(-4.37114e-08 -1 -1 4.37114e-08 31.811 94.7844)" fill="white"/>
<rect width="0.89189" height="0.89189" transform="matrix(-4.37114e-08 -1 -1 4.37114e-08 16.3516 94.7844)" fill="white"/>
<rect width="0.89189" height="0.89189" transform="matrix(-4.37114e-08 -1 -1 4.37114e-08 39.5403 94.7844)" fill="white"/>
<rect width="0.89189" height="0.89189" transform="matrix(-4.37114e-08 -1 -1 4.37114e-08 31.811 90.9189)" fill="white"/>
<rect width="0.89189" height="0.89189" transform="matrix(-4.37114e-08 -1 -1 4.37114e-08 20.2161 117.974)" fill="white"/>
<rect width="0.89189" height="0.89189" transform="matrix(-4.37114e-08 -1 -1 4.37114e-08 27.9456 117.974)" fill="white"/>
<rect width="0.89189" height="0.89189" transform="matrix(-4.37114e-08 -1 -1 4.37114e-08 43.4016 117.974)" fill="white"/>
<rect width="0.89189" height="0.89189" transform="matrix(-4.37114e-08 -1 -1 4.37114e-08 12.4861 117.974)" fill="white"/>
<rect width="0.89189" height="0.89189" transform="matrix(-4.37114e-08 -1 -1 4.37114e-08 35.6758 117.974)" fill="white"/>
<rect width="0.89189" height="0.89189" transform="matrix(-4.37114e-08 -1 -1 4.37114e-08 20.2161 114.109)" fill="white"/>
<rect width="0.89189" height="0.89189" transform="matrix(-4.37114e-08 -1 -1 4.37114e-08 27.9456 114.109)" fill="white"/>
<rect width="0.89189" height="0.89189" transform="matrix(-4.37114e-08 -1 -1 4.37114e-08 43.405 114.109)" fill="white"/>
<rect width="0.89189" height="0.89189" transform="matrix(-4.37114e-08 -1 -1 4.37114e-08 12.4861 114.109)" fill="white"/>
<rect width="0.89189" height="0.89189" transform="matrix(-4.37114e-08 -1 -1 4.37114e-08 35.6758 114.109)" fill="white"/>
<rect width="0.89189" height="0.89189" transform="matrix(-4.37114e-08 -1 -1 4.37114e-08 20.2161 110.243)" fill="white"/>
<rect width="0.89189" height="0.89189" transform="matrix(-4.37114e-08 -1 -1 4.37114e-08 27.9456 110.243)" fill="white"/>
<rect width="0.89189" height="0.89189" transform="matrix(-4.37114e-08 -1 -1 4.37114e-08 43.405 110.243)" fill="white"/>
<rect width="0.89189" height="0.89189" transform="matrix(-4.37114e-08 -1 -1 4.37114e-08 12.4861 110.243)" fill="white"/>
<rect width="0.89189" height="0.89189" transform="matrix(-4.37114e-08 -1 -1 4.37114e-08 35.6758 110.243)" fill="white"/>
<rect width="0.89189" height="0.89189" transform="matrix(-4.37114e-08 -1 -1 4.37114e-08 27.9456 106.379)" fill="white"/>
<rect width="0.89189" height="0.89189" transform="matrix(-4.37114e-08 -1 -1 4.37114e-08 43.405 106.379)" fill="white"/>
<rect width="0.89189" height="0.89189" transform="matrix(-4.37114e-08 -1 -1 4.37114e-08 20.2161 102.514)" fill="white"/>
<rect width="0.89189" height="0.89189" transform="matrix(-4.37114e-08 -1 -1 4.37114e-08 27.9456 102.514)" fill="white"/>
<rect width="0.89189" height="0.89189" transform="matrix(-4.37114e-08 -1 -1 4.37114e-08 43.405 102.514)" fill="white"/>
<rect width="0.89189" height="0.89189" transform="matrix(-4.37114e-08 -1 -1 4.37114e-08 20.2161 98.6482)" fill="white"/>
<rect width="0.89189" height="0.89189" transform="matrix(-4.37114e-08 -1 -1 4.37114e-08 27.9456 98.6482)" fill="white"/>
<rect width="0.89189" height="0.89189" transform="matrix(-4.37114e-08 -1 -1 4.37114e-08 43.405 98.6482)" fill="white"/>
<rect width="0.89189" height="0.89189" transform="matrix(-4.37114e-08 -1 -1 4.37114e-08 12.4861 98.6482)" fill="white"/>
<rect width="0.89189" height="0.89189" transform="matrix(-4.37114e-08 -1 -1 4.37114e-08 35.6758 98.6482)" fill="white"/>
<rect width="0.89189" height="0.89189" transform="matrix(-4.37114e-08 -1 -1 4.37114e-08 20.2161 94.7844)" fill="white"/>
<rect width="0.89189" height="0.89189" transform="matrix(-4.37114e-08 -1 -1 4.37114e-08 27.9456 94.7844)" fill="white"/>
<rect width="0.89189" height="0.89189" transform="matrix(-4.37114e-08 -1 -1 4.37114e-08 12.4861 94.7844)" fill="white"/>
<rect width="0.89189" height="0.89189" transform="matrix(-4.37114e-08 -1 -1 4.37114e-08 35.6758 94.7844)" fill="white"/>
<rect width="0.89189" height="0.89189" transform="matrix(-4.37114e-08 -1 -1 4.37114e-08 12.4861 90.9189)" fill="white"/>
<rect width="0.89189" height="0.89189" transform="matrix(-4.37114e-08 -1 -1 4.37114e-08 35.6758 90.9189)" fill="white"/>
<rect width="0.89189" height="0.89189" transform="matrix(-4.37114e-08 -1 -1 4.37114e-08 39.5403 133.432)" fill="white"/>
<rect width="0.89189" height="0.89189" transform="matrix(-4.37114e-08 -1 -1 4.37114e-08 39.5403 129.567)" fill="white"/>
<rect width="0.89189" height="0.89189" transform="matrix(-4.37114e-08 -1 -1 4.37114e-08 24.0808 145.027)" fill="white"/>
<rect width="0.89189" height="0.89189" transform="matrix(-4.37114e-08 -1 -1 4.37114e-08 31.811 145.027)" fill="white"/>
<rect width="0.89189" height="0.89189" transform="matrix(-4.37114e-08 -1 -1 4.37114e-08 16.3516 145.027)" fill="white"/>
<rect width="0.89189" height="0.89189" transform="matrix(-4.37114e-08 -1 -1 4.37114e-08 39.5403 145.027)" fill="white"/>
<rect width="0.89189" height="0.89189" transform="matrix(-4.37114e-08 -1 -1 4.37114e-08 24.0808 141.162)" fill="white"/>
<rect width="0.89189" height="0.89189" transform="matrix(-4.37114e-08 -1 -1 4.37114e-08 31.811 141.162)" fill="white"/>
<rect width="0.89189" height="0.89189" transform="matrix(-4.37114e-08 -1 -1 4.37114e-08 16.3516 141.162)" fill="white"/>
<rect width="0.89189" height="0.89189" transform="matrix(-4.37114e-08 -1 -1 4.37114e-08 39.5403 141.162)" fill="white"/>
<rect width="0.89189" height="0.89189" transform="matrix(-4.37114e-08 -1 -1 4.37114e-08 24.0808 137.298)" fill="white"/>
<rect width="0.89189" height="0.89189" transform="matrix(-4.37114e-08 -1 -1 4.37114e-08 31.811 137.298)" fill="white"/>
<rect width="0.89189" height="0.89189" transform="matrix(-4.37114e-08 -1 -1 4.37114e-08 16.3516 137.298)" fill="white"/>
<rect width="0.89189" height="0.89189" transform="matrix(-4.37114e-08 -1 -1 4.37114e-08 39.5403 137.298)" fill="white"/>
<rect width="0.89189" height="0.89189" transform="matrix(-4.37114e-08 -1 -1 4.37114e-08 39.5403 152.757)" fill="white"/>
<rect width="0.89189" height="0.89189" transform="matrix(-4.37114e-08 -1 -1 4.37114e-08 39.5403 148.891)" fill="white"/>
<rect width="0.89189" height="0.89189" transform="matrix(-4.37114e-08 -1 -1 4.37114e-08 43.405 133.432)" fill="white"/>
<rect width="0.89189" height="0.89189" transform="matrix(-4.37114e-08 -1 -1 4.37114e-08 35.6758 133.432)" fill="white"/>
<rect width="0.89189" height="0.89189" transform="matrix(-4.37114e-08 -1 -1 4.37114e-08 43.405 129.567)" fill="white"/>
<rect width="0.89189" height="0.89189" transform="matrix(-4.37114e-08 -1 -1 4.37114e-08 35.6758 129.567)" fill="white"/>
<rect width="0.89189" height="0.89189" transform="matrix(-4.37114e-08 -1 -1 4.37114e-08 20.2161 145.027)" fill="white"/>
<rect width="0.89189" height="0.89189" transform="matrix(-4.37114e-08 -1 -1 4.37114e-08 27.9456 145.027)" fill="white"/>
<rect width="0.89189" height="0.89189" transform="matrix(-4.37114e-08 -1 -1 4.37114e-08 43.405 145.027)" fill="white"/>
<rect width="0.89189" height="0.89189" transform="matrix(-4.37114e-08 -1 -1 4.37114e-08 12.4861 145.027)" fill="white"/>
<rect width="0.89189" height="0.89189" transform="matrix(-4.37114e-08 -1 -1 4.37114e-08 35.6758 145.027)" fill="white"/>
<rect width="0.89189" height="0.89189" transform="matrix(-4.37114e-08 -1 -1 4.37114e-08 20.2161 141.162)" fill="white"/>
<rect width="0.89189" height="0.89189" transform="matrix(-4.37114e-08 -1 -1 4.37114e-08 27.9456 141.162)" fill="white"/>
<rect width="0.89189" height="0.89189" transform="matrix(-4.37114e-08 -1 -1 4.37114e-08 43.405 141.162)" fill="white"/>
<rect width="0.89189" height="0.89189" transform="matrix(-4.37114e-08 -1 -1 4.37114e-08 12.4861 141.162)" fill="white"/>
<rect width="0.89189" height="0.89189" transform="matrix(-4.37114e-08 -1 -1 4.37114e-08 35.6758 141.162)" fill="white"/>
<rect width="0.89189" height="0.89189" transform="matrix(-4.37114e-08 -1 -1 4.37114e-08 20.2161 137.298)" fill="white"/>
<rect width="0.89189" height="0.89189" transform="matrix(-4.37114e-08 -1 -1 4.37114e-08 27.9456 137.298)" fill="white"/>
<rect width="0.89189" height="0.89189" transform="matrix(-4.37114e-08 -1 -1 4.37114e-08 43.405 137.298)" fill="white"/>
<rect width="0.89189" height="0.89189" transform="matrix(-4.37114e-08 -1 -1 4.37114e-08 12.4861 137.298)" fill="white"/>
<rect width="0.89189" height="0.89189" transform="matrix(-4.37114e-08 -1 -1 4.37114e-08 35.6758 137.298)" fill="white"/>
<rect width="0.89189" height="0.89189" transform="matrix(-4.37114e-08 -1 -1 4.37114e-08 43.4016 152.755)" fill="white"/>
<rect width="0.89189" height="0.89189" transform="matrix(-4.37114e-08 -1 -1 4.37114e-08 35.6758 152.757)" fill="white"/>
<rect width="0.89189" height="0.89189" transform="matrix(-4.37114e-08 -1 -1 4.37114e-08 43.405 148.891)" fill="white"/>
<rect width="0.89189" height="0.89189" transform="matrix(-4.37114e-08 -1 -1 4.37114e-08 35.6758 148.891)" fill="white"/>
<rect width="0.89189" height="0.89189" transform="matrix(-4.37114e-08 -1 -1 4.37114e-08 24.0808 191.405)" fill="white"/>
<rect width="0.89189" height="0.89189" transform="matrix(-4.37114e-08 -1 -1 4.37114e-08 31.811 191.405)" fill="white"/>
<rect width="0.89189" height="0.89189" transform="matrix(-4.37114e-08 -1 -1 4.37114e-08 16.3516 191.405)" fill="white"/>
<rect width="0.89189" height="0.89189" transform="matrix(-4.37114e-08 -1 -1 4.37114e-08 39.5403 191.405)" fill="white"/>
<rect width="0.89189" height="0.89189" transform="matrix(-4.37114e-08 -1 -1 4.37114e-08 24.0808 187.541)" fill="white"/>
<rect width="0.89189" height="0.89189" transform="matrix(-4.37114e-08 -1 -1 4.37114e-08 31.811 187.541)" fill="white"/>
<rect width="0.89189" height="0.89189" transform="matrix(-4.37114e-08 -1 -1 4.37114e-08 16.3516 187.541)" fill="white"/>
<rect width="0.89189" height="0.89189" transform="matrix(-4.37114e-08 -1 -1 4.37114e-08 39.5403 187.541)" fill="white"/>
<rect width="0.89189" height="0.89189" transform="matrix(-4.37114e-08 -1 -1 4.37114e-08 24.0808 183.676)" fill="white"/>
<rect width="0.89189" height="0.89189" transform="matrix(-4.37114e-08 -1 -1 4.37114e-08 31.811 183.676)" fill="white"/>
<rect width="0.89189" height="0.89189" transform="matrix(-4.37114e-08 -1 -1 4.37114e-08 16.3516 183.676)" fill="white"/>
<rect width="0.89189" height="0.89189" transform="matrix(-4.37114e-08 -1 -1 4.37114e-08 39.5403 183.676)" fill="white"/>
<rect width="0.89189" height="0.89189" transform="matrix(-4.37114e-08 -1 -1 4.37114e-08 24.0808 179.81)" fill="white"/>
<rect width="0.89189" height="0.89189" transform="matrix(-4.37114e-08 -1 -1 4.37114e-08 31.811 179.81)" fill="white"/>
<rect width="0.89189" height="0.89189" transform="matrix(-4.37114e-08 -1 -1 4.37114e-08 24.0808 175.946)" fill="white"/>
<rect width="0.89189" height="0.89189" transform="matrix(-4.37114e-08 -1 -1 4.37114e-08 31.811 175.946)" fill="white"/>
<rect width="0.89189" height="0.89189" transform="matrix(-4.37114e-08 -1 -1 4.37114e-08 24.0808 172.081)" fill="white"/>
<rect width="0.89189" height="0.89189" transform="matrix(-4.37114e-08 -1 -1 4.37114e-08 31.811 172.081)" fill="white"/>
<rect width="0.89189" height="0.89189" transform="matrix(-4.37114e-08 -1 -1 4.37114e-08 16.3516 172.081)" fill="white"/>
<rect width="0.89189" height="0.89189" transform="matrix(-4.37114e-08 -1 -1 4.37114e-08 39.5403 172.081)" fill="white"/>
<rect width="0.89189" height="0.89189" transform="matrix(-4.37114e-08 -1 -1 4.37114e-08 24.0808 168.217)" fill="white"/>
<rect width="0.89189" height="0.89189" transform="matrix(-4.37114e-08 -1 -1 4.37114e-08 31.811 168.217)" fill="white"/>
<rect width="0.89189" height="0.89189" transform="matrix(-4.37114e-08 -1 -1 4.37114e-08 16.3516 168.217)" fill="white"/>
<rect width="0.89189" height="0.89189" transform="matrix(-4.37114e-08 -1 -1 4.37114e-08 39.5403 168.217)" fill="white"/>
<rect width="0.89189" height="0.89189" transform="matrix(-4.37114e-08 -1 -1 4.37114e-08 24.0808 164.351)" fill="white"/>
<rect width="0.89189" height="0.89189" transform="matrix(-4.37114e-08 -1 -1 4.37114e-08 31.811 164.351)" fill="white"/>
<rect width="0.89189" height="0.89189" transform="matrix(-4.37114e-08 -1 -1 4.37114e-08 16.3516 164.351)" fill="white"/>
<rect width="0.89189" height="0.89189" transform="matrix(-4.37114e-08 -1 -1 4.37114e-08 39.5403 164.351)" fill="white"/>
<rect width="0.89189" height="0.89189" transform="matrix(-4.37114e-08 -1 -1 4.37114e-08 20.2161 191.405)" fill="white"/>
<rect width="0.89189" height="0.89189" transform="matrix(-4.37114e-08 -1 -1 4.37114e-08 27.9456 191.405)" fill="white"/>
<rect width="0.89189" height="0.89189" transform="matrix(-4.37114e-08 -1 -1 4.37114e-08 43.4041 191.403)" fill="white"/>
<rect width="0.89189" height="0.89189" transform="matrix(-4.37114e-08 -1 -1 4.37114e-08 12.4861 191.405)" fill="white"/>
<rect width="0.89189" height="0.89189" transform="matrix(-4.37114e-08 -1 -1 4.37114e-08 35.6758 191.405)" fill="white"/>
<rect width="0.89189" height="0.89189" transform="matrix(-4.37114e-08 -1 -1 4.37114e-08 20.2161 187.541)" fill="white"/>
<rect width="0.89189" height="0.89189" transform="matrix(-4.37114e-08 -1 -1 4.37114e-08 27.9463 187.541)" fill="white"/>
<rect width="0.89189" height="0.89189" transform="matrix(-4.37114e-08 -1 -1 4.37114e-08 43.405 187.541)" fill="white"/>
<rect width="0.89189" height="0.89189" transform="matrix(-4.37114e-08 -1 -1 4.37114e-08 12.4861 187.541)" fill="white"/>
<rect width="0.89189" height="0.89189" transform="matrix(-4.37114e-08 -1 -1 4.37114e-08 35.6758 187.541)" fill="white"/>
<rect width="0.89189" height="0.89189" transform="matrix(-4.37114e-08 -1 -1 4.37114e-08 20.2161 183.676)" fill="white"/>
<rect width="0.89189" height="0.89189" transform="matrix(-4.37114e-08 -1 -1 4.37114e-08 27.9463 183.676)" fill="white"/>
<rect width="0.89189" height="0.89189" transform="matrix(-4.37114e-08 -1 -1 4.37114e-08 43.405 183.676)" fill="white"/>
<rect width="0.89189" height="0.89189" transform="matrix(-4.37114e-08 -1 -1 4.37114e-08 12.4861 183.676)" fill="white"/>
<rect width="0.89189" height="0.89189" transform="matrix(-4.37114e-08 -1 -1 4.37114e-08 35.6758 183.676)" fill="white"/>
<rect width="0.89189" height="0.89189" transform="matrix(-4.37114e-08 -1 -1 4.37114e-08 27.9463 179.81)" fill="white"/>
<rect width="0.89189" height="0.89189" transform="matrix(-4.37114e-08 -1 -1 4.37114e-08 35.6758 179.81)" fill="white"/>
<rect width="0.89189" height="0.89189" transform="matrix(-4.37114e-08 -1 -1 4.37114e-08 20.2161 175.946)" fill="white"/>
<rect width="0.89189" height="0.89189" transform="matrix(-4.37114e-08 -1 -1 4.37114e-08 27.9463 175.946)" fill="white"/>
<rect width="0.89189" height="0.89189" transform="matrix(-4.37114e-08 -1 -1 4.37114e-08 20.2161 172.081)" fill="white"/>
<rect width="0.89189" height="0.89189" transform="matrix(-4.37114e-08 -1 -1 4.37114e-08 27.9463 172.081)" fill="white"/>
<rect width="0.89189" height="0.89189" transform="matrix(-4.37114e-08 -1 -1 4.37114e-08 43.405 172.081)" fill="white"/>
<rect width="0.89189" height="0.89189" transform="matrix(-4.37114e-08 -1 -1 4.37114e-08 12.4861 172.081)" fill="white"/>
<rect width="0.89189" height="0.89189" transform="matrix(-4.37114e-08 -1 -1 4.37114e-08 35.6758 172.081)" fill="white"/>
<rect width="0.89189" height="0.89189" transform="matrix(-4.37114e-08 -1 -1 4.37114e-08 20.2161 168.217)" fill="white"/>
<rect width="0.89189" height="0.89189" transform="matrix(-4.37114e-08 -1 -1 4.37114e-08 27.9463 168.217)" fill="white"/>
<rect width="0.89189" height="0.89189" transform="matrix(-4.37114e-08 -1 -1 4.37114e-08 43.405 168.217)" fill="white"/>
<rect width="0.89189" height="0.89189" transform="matrix(-4.37114e-08 -1 -1 4.37114e-08 12.4861 168.217)" fill="white"/>
<rect width="0.89189" height="0.89189" transform="matrix(-4.37114e-08 -1 -1 4.37114e-08 35.6758 168.217)" fill="white"/>
<rect width="0.89189" height="0.89189" transform="matrix(-4.37114e-08 -1 -1 4.37114e-08 20.2161 164.351)" fill="white"/>
<rect width="0.89189" height="0.89189" transform="matrix(-4.37114e-08 -1 -1 4.37114e-08 27.9463 164.351)" fill="white"/>
<rect width="0.89189" height="0.89189" transform="matrix(-4.37114e-08 -1 -1 4.37114e-08 43.405 164.351)" fill="white"/>
<rect width="0.89189" height="0.89189" transform="matrix(-4.37114e-08 -1 -1 4.37114e-08 12.4861 164.351)" fill="white"/>
<rect width="0.89189" height="0.89189" transform="matrix(-4.37114e-08 -1 -1 4.37114e-08 35.6758 164.351)" fill="white"/>
<rect width="0.89189" height="0.89189" transform="matrix(-4.37114e-08 -1 -1 4.37114e-08 24.0808 44.5408)" fill="white"/>
<rect width="0.89189" height="0.89189" transform="matrix(-4.37114e-08 -1 -1 4.37114e-08 31.811 44.5408)" fill="white"/>
<rect width="0.89189" height="0.89189" transform="matrix(-4.37114e-08 -1 -1 4.37114e-08 16.3516 44.5408)" fill="white"/>
<rect width="0.89189" height="0.89189" transform="matrix(-4.37114e-08 -1 -1 4.37114e-08 39.5403 44.5408)" fill="white"/>
<rect width="0.89189" height="0.89189" transform="matrix(-4.37114e-08 -1 -1 4.37114e-08 24.0808 40.6752)" fill="white"/>
<rect width="0.89189" height="0.89189" transform="matrix(-4.37114e-08 -1 -1 4.37114e-08 31.811 40.6752)" fill="white"/>
<rect width="0.89189" height="0.89189" transform="matrix(-4.37114e-08 -1 -1 4.37114e-08 16.3516 40.6752)" fill="white"/>
<rect width="0.89189" height="0.89189" transform="matrix(-4.37114e-08 -1 -1 4.37114e-08 39.5403 40.6752)" fill="white"/>
<rect width="0.89189" height="0.89189" transform="matrix(-4.37114e-08 -1 -1 4.37114e-08 24.0808 36.8114)" fill="white"/>
<rect width="0.89189" height="0.89189" transform="matrix(-4.37114e-08 -1 -1 4.37114e-08 31.811 36.8114)" fill="white"/>
<rect width="0.89189" height="0.89189" transform="matrix(-4.37114e-08 -1 -1 4.37114e-08 16.3516 36.8114)" fill="white"/>
<rect width="0.89189" height="0.89189" transform="matrix(-4.37114e-08 -1 -1 4.37114e-08 39.5403 36.8114)" fill="white"/>
<rect width="0.89189" height="0.89189" transform="matrix(-4.37114e-08 -1 -1 4.37114e-08 24.0808 32.9459)" fill="white"/>
<rect width="0.89189" height="0.89189" transform="matrix(-4.37114e-08 -1 -1 4.37114e-08 31.811 32.9459)" fill="white"/>
<rect width="0.89189" height="0.89189" transform="matrix(-4.37114e-08 -1 -1 4.37114e-08 39.5403 32.9459)" fill="white"/>
<rect width="0.89189" height="0.89189" transform="matrix(-4.37114e-08 -1 -1 4.37114e-08 24.0808 29.0821)" fill="white"/>
<rect width="0.89189" height="0.89189" transform="matrix(-4.37114e-08 -1 -1 4.37114e-08 31.811 29.0821)" fill="white"/>
<rect width="0.89189" height="0.89189" transform="matrix(-4.37114e-08 -1 -1 4.37114e-08 16.3516 29.0821)" fill="white"/>
<rect width="0.89189" height="0.89189" transform="matrix(-4.37114e-08 -1 -1 4.37114e-08 24.0808 25.2166)" fill="white"/>
<rect width="0.89189" height="0.89189" transform="matrix(-4.37114e-08 -1 -1 4.37114e-08 31.811 25.2166)" fill="white"/>
<rect width="0.89189" height="0.89189" transform="matrix(-4.37114e-08 -1 -1 4.37114e-08 16.3516 25.2166)" fill="white"/>
<rect width="0.89189" height="0.89189" transform="matrix(-4.37114e-08 -1 -1 4.37114e-08 24.0808 21.3511)" fill="white"/>
<rect width="0.89189" height="0.89189" transform="matrix(-4.37114e-08 -1 -1 4.37114e-08 31.811 21.3511)" fill="white"/>
<rect width="0.89189" height="0.89189" transform="matrix(-4.37114e-08 -1 -1 4.37114e-08 39.5403 21.3511)" fill="white"/>
<rect width="0.89189" height="0.89189" transform="matrix(-4.37114e-08 -1 -1 4.37114e-08 24.0808 17.4872)" fill="white"/>
<rect width="0.89189" height="0.89189" transform="matrix(-4.37114e-08 -1 -1 4.37114e-08 31.811 17.4872)" fill="white"/>
<rect width="0.89189" height="0.89189" transform="matrix(-4.37114e-08 -1 -1 4.37114e-08 16.3516 17.4872)" fill="white"/>
<rect width="0.89189" height="0.89189" transform="matrix(-4.37114e-08 -1 -1 4.37114e-08 39.5403 17.4872)" fill="white"/>
<rect width="0.89189" height="0.89189" transform="matrix(-4.37114e-08 -1 -1 4.37114e-08 24.0808 13.6217)" fill="white"/>
<rect width="0.89189" height="0.89189" transform="matrix(-4.37114e-08 -1 -1 4.37114e-08 31.811 13.6217)" fill="white"/>
<rect width="0.89189" height="0.89189" transform="matrix(-4.37114e-08 -1 -1 4.37114e-08 16.3516 13.6217)" fill="white"/>
<rect width="0.89189" height="0.89189" transform="matrix(-4.37114e-08 -1 -1 4.37114e-08 39.5403 13.6217)" fill="white"/>
<rect width="0.89189" height="0.89189" transform="matrix(-4.37114e-08 -1 -1 4.37114e-08 24.0808 9.75787)" fill="white"/>
<rect width="0.89189" height="0.89189" transform="matrix(-4.37114e-08 -1 -1 4.37114e-08 31.811 9.75787)" fill="white"/>
<rect width="0.89189" height="0.89189" transform="matrix(-4.37114e-08 -1 -1 4.37114e-08 16.3516 9.75787)" fill="white"/>
<rect width="0.89189" height="0.89189" transform="matrix(-4.37114e-08 -1 -1 4.37114e-08 39.5403 9.75787)" fill="white"/>
<rect width="0.89189" height="0.89189" transform="matrix(-4.37114e-08 -1 -1 4.37114e-08 20.2161 44.5408)" fill="white"/>
<rect width="0.89189" height="0.89189" transform="matrix(-4.37114e-08 -1 -1 4.37114e-08 27.9456 44.5408)" fill="white"/>
<rect width="0.89189" height="0.89189" transform="matrix(-4.37114e-08 -1 -1 4.37114e-08 43.4016 44.5408)" fill="white"/>
<rect width="0.89189" height="0.89189" transform="matrix(-4.37114e-08 -1 -1 4.37114e-08 12.4861 44.5408)" fill="white"/>
<rect width="0.89189" height="0.89189" transform="matrix(-4.37114e-08 -1 -1 4.37114e-08 35.6758 44.5408)" fill="white"/>
<rect width="0.89189" height="0.89189" transform="matrix(-4.37114e-08 -1 -1 4.37114e-08 20.2161 40.6752)" fill="white"/>
<rect width="0.89189" height="0.89189" transform="matrix(-4.37114e-08 -1 -1 4.37114e-08 27.9456 40.6752)" fill="white"/>
<rect width="0.89189" height="0.89189" transform="matrix(-4.37114e-08 -1 -1 4.37114e-08 43.405 40.6752)" fill="white"/>
<rect width="0.89189" height="0.89189" transform="matrix(-4.37114e-08 -1 -1 4.37114e-08 12.4861 40.6752)" fill="white"/>
<rect width="0.89189" height="0.89189" transform="matrix(-4.37114e-08 -1 -1 4.37114e-08 35.6758 40.6752)" fill="white"/>
<rect width="0.89189" height="0.89189" transform="matrix(-4.37114e-08 -1 -1 4.37114e-08 20.2161 36.8114)" fill="white"/>
<rect width="0.89189" height="0.89189" transform="matrix(-4.37114e-08 -1 -1 4.37114e-08 27.9456 36.8114)" fill="white"/>
<rect width="0.89189" height="0.89189" transform="matrix(-4.37114e-08 -1 -1 4.37114e-08 43.405 36.8114)" fill="white"/>
<rect width="0.89189" height="0.89189" transform="matrix(-4.37114e-08 -1 -1 4.37114e-08 12.4861 36.8114)" fill="white"/>
<rect width="0.89189" height="0.89189" transform="matrix(-4.37114e-08 -1 -1 4.37114e-08 35.6758 36.8114)" fill="white"/>
<rect width="0.89189" height="0.89189" transform="matrix(-4.37114e-08 -1 -1 4.37114e-08 27.9456 32.9459)" fill="white"/>
<rect width="0.89189" height="0.89189" transform="matrix(-4.37114e-08 -1 -1 4.37114e-08 35.6758 32.9459)" fill="white"/>
<rect width="0.89189" height="0.89189" transform="matrix(-4.37114e-08 -1 -1 4.37114e-08 20.2161 29.0821)" fill="white"/>
<rect width="0.89189" height="0.89189" transform="matrix(-4.37114e-08 -1 -1 4.37114e-08 27.9456 29.0821)" fill="white"/>
<rect width="0.89189" height="0.89189" transform="matrix(-4.37114e-08 -1 -1 4.37114e-08 12.4861 29.0821)" fill="white"/>
<rect width="0.89189" height="0.89189" transform="matrix(-4.37114e-08 -1 -1 4.37114e-08 20.2161 25.2166)" fill="white"/>
<rect width="0.89189" height="0.89189" transform="matrix(-4.37114e-08 -1 -1 4.37114e-08 27.9456 25.2166)" fill="white"/>
<rect width="0.89189" height="0.89189" transform="matrix(-4.37114e-08 -1 -1 4.37114e-08 12.4861 25.2166)" fill="white"/>
<rect width="0.89189" height="0.89189" transform="matrix(-4.37114e-08 -1 -1 4.37114e-08 27.9456 21.3511)" fill="white"/>
<rect width="0.89189" height="0.89189" transform="matrix(-4.37114e-08 -1 -1 4.37114e-08 35.6758 21.3511)" fill="white"/>
<rect width="0.89189" height="0.89189" transform="matrix(-4.37114e-08 -1 -1 4.37114e-08 20.2161 17.4872)" fill="white"/>
<rect width="0.89189" height="0.89189" transform="matrix(-4.37114e-08 -1 -1 4.37114e-08 27.9456 17.4872)" fill="white"/>
<rect width="0.89189" height="0.89189" transform="matrix(-4.37114e-08 -1 -1 4.37114e-08 43.405 17.4872)" fill="white"/>
<rect width="0.89189" height="0.89189" transform="matrix(-4.37114e-08 -1 -1 4.37114e-08 12.4861 17.4872)" fill="white"/>
<rect width="0.89189" height="0.89189" transform="matrix(-4.37114e-08 -1 -1 4.37114e-08 35.6758 17.4872)" fill="white"/>
<rect width="0.89189" height="0.89189" transform="matrix(-4.37114e-08 -1 -1 4.37114e-08 20.2161 13.6217)" fill="white"/>
<rect width="0.89189" height="0.89189" transform="matrix(-4.37114e-08 -1 -1 4.37114e-08 27.9456 13.6217)" fill="white"/>
<rect width="0.89189" height="0.89189" transform="matrix(-4.37114e-08 -1 -1 4.37114e-08 43.405 13.6217)" fill="white"/>
<rect width="0.89189" height="0.89189" transform="matrix(-4.37114e-08 -1 -1 4.37114e-08 12.4861 13.6217)" fill="white"/>
<rect width="0.89189" height="0.89189" transform="matrix(-4.37114e-08 -1 -1 4.37114e-08 35.6758 13.6217)" fill="white"/>
<rect width="0.89189" height="0.89189" transform="matrix(-4.37114e-08 -1 -1 4.37114e-08 20.2161 9.75787)" fill="white"/>
<rect width="0.89189" height="0.89189" transform="matrix(-4.37114e-08 -1 -1 4.37114e-08 27.9463 9.75787)" fill="white"/>
<rect width="0.89189" height="0.89189" transform="matrix(-4.37114e-08 -1 -1 4.37114e-08 43.405 9.75787)" fill="white"/>
<rect width="0.89189" height="0.89189" transform="matrix(-4.37114e-08 -1 -1 4.37114e-08 12.4861 9.75787)" fill="white"/>
<rect width="0.89189" height="0.89189" transform="matrix(-4.37114e-08 -1 -1 4.37114e-08 35.6758 9.75787)" fill="white"/>
</g>
</svg>
