<svg width="13" height="14" viewBox="0 0 13 14" fill="none" xmlns="http://www.w3.org/2000/svg">
<path d="M7.7 7H4.9C3.60044 7 2.3541 7.51625 1.43518 8.43518C0.516249 9.35411 0 10.6004 0 11.9V13.3C0 13.4857 0.0737498 13.6637 0.205025 13.795C0.336301 13.9263 0.514349 14 0.7 14H11.9C12.0857 14 12.2637 13.9263 12.395 13.795C12.5263 13.6637 12.6 13.4857 12.6 13.3V11.9C12.6 10.6004 12.0838 9.35411 11.1648 8.43518C10.2459 7.51625 8.99956 7 7.7 7Z" fill="#FF244C"/>
<path d="M6.2999 6.3C8.0396 6.3 9.4499 4.8897 9.4499 3.15C9.4499 1.4103 8.0396 0 6.2999 0C4.56021 0 3.1499 1.4103 3.1499 3.15C3.1499 4.8897 4.56021 6.3 6.2999 6.3Z" fill="#FF244C"/>
</svg>
