<svg  width="92" height="20" viewBox="0 0 92 20" fill="none" xmlns:xlink="http://www.w3.org/2000/svg">
<path class="mob_logo_1" d="M17.0171 5.27225C17.1459 5.40299 17.2216 5.57825 17.2293 5.76323C17.237 5.9482 17.1761 6.12936 17.0586 6.2707C17.0396 6.29424 17.0192 6.31778 16.9994 6.33994C16.8845 6.47426 16.7852 6.5899 16.7852 6.70276C16.7852 6.8537 16.9654 6.96656 17.2048 6.96656H19.2391C19.2989 6.96675 19.3561 6.99105 19.3983 7.03414C19.4405 7.07723 19.4642 7.13559 19.4642 7.19644V9.26742C19.4642 9.49592 19.5628 9.67109 19.6968 9.69187C19.7059 9.69258 19.715 9.69258 19.724 9.69187C19.7687 9.69025 19.8122 9.67715 19.8505 9.65378C19.933 9.60222 20.01 9.54213 20.0804 9.47445C20.1028 9.45437 20.126 9.4336 20.1484 9.41421C20.1709 9.39483 20.1804 9.3879 20.1967 9.37544L20.2069 9.36921C20.2205 9.35951 20.2348 9.35051 20.2491 9.34151L20.2606 9.33528C20.2747 9.32697 20.289 9.31935 20.3035 9.31243L20.3151 9.30689L20.3504 9.29166C20.528 9.23661 20.7178 9.23806 20.8945 9.29581L20.9034 9.29997C20.9197 9.30689 20.936 9.31451 20.9516 9.32282L20.97 9.3332L21.0115 9.35882L21.0244 9.36713C21.0624 9.39356 21.0979 9.42346 21.1305 9.45645C21.1475 9.47376 21.1632 9.49176 21.1788 9.51046C21.2078 9.5464 21.2333 9.58512 21.255 9.62609L21.2618 9.63924C21.2693 9.65448 21.2761 9.66902 21.2829 9.68494C21.2897 9.70087 21.2876 9.69602 21.2904 9.70225C21.2982 9.72173 21.305 9.7416 21.3108 9.7618V9.77357C21.3155 9.79019 21.3196 9.8075 21.323 9.82412C21.3264 9.84073 21.3264 9.83935 21.3278 9.84697L21.3339 9.89128V9.91274C21.3339 9.9349 21.3373 9.95637 21.3373 9.98198C21.3374 10.1227 21.2979 10.2606 21.2236 10.3793C21.1493 10.498 21.0432 10.5926 20.9178 10.6519C20.7924 10.7112 20.653 10.7328 20.5159 10.7141C20.3789 10.6954 20.2499 10.6371 20.1443 10.5463L20.0763 10.4867C20.0437 10.457 20.0117 10.4293 19.9804 10.403C19.8879 10.3254 19.8029 10.2686 19.7199 10.2686C19.6934 10.2691 19.6672 10.275 19.6429 10.2859C19.6186 10.2968 19.5967 10.3126 19.5785 10.3323C19.4954 10.4337 19.4531 10.5633 19.4601 10.6952V12.7661C19.4588 12.8266 19.4346 12.8841 19.3927 12.9269C19.3508 12.9697 19.2943 12.9944 19.235 12.996H17.2048C17.0754 12.9888 16.9482 13.0316 16.8484 13.1158C16.8289 13.1342 16.8132 13.1564 16.8023 13.1812C16.7914 13.206 16.7856 13.2327 16.7852 13.2598C16.7852 13.3727 16.8845 13.4883 16.9994 13.6226L17.0586 13.6919C17.1691 13.8251 17.2298 13.9939 17.23 14.1683C17.2294 14.3578 17.1573 14.5399 17.0286 14.6769C16.8999 14.8138 16.7243 14.8952 16.5383 14.9041C16.3523 14.913 16.1701 14.8487 16.0293 14.7247C15.8885 14.6006 15.8 14.4262 15.782 14.2375C15.7808 14.2144 15.7808 14.1913 15.782 14.1683C15.7819 13.9939 15.8424 13.8252 15.9527 13.6919L16.0126 13.6226C16.1268 13.4883 16.2261 13.3727 16.2261 13.2598C16.2271 13.2502 16.2271 13.2404 16.2261 13.2307C16.2264 13.2275 16.2264 13.2243 16.2261 13.2211C16.2249 13.215 16.2233 13.209 16.2214 13.203C16.2214 13.1982 16.2214 13.194 16.2166 13.1899C16.2118 13.1857 16.2132 13.1809 16.2112 13.1767C16.2091 13.1726 16.205 13.1657 16.2016 13.1601L16.1976 13.1532C16.193 13.1462 16.188 13.1395 16.1826 13.1331C16.1551 13.1015 16.1219 13.0756 16.0847 13.057L16.0704 13.0514C16.0595 13.0459 16.0473 13.041 16.035 13.0362L16.02 13.0299C16.0024 13.0244 15.9833 13.0189 15.9643 13.0147H15.9541C15.9337 13.0106 15.9126 13.0071 15.8908 13.0043H15.882C15.8595 13.0043 15.8371 13.0043 15.814 13.0043H13.7695C13.7096 13.0043 13.6522 12.9801 13.6098 12.937C13.5675 12.8939 13.5437 12.8354 13.5437 12.7745V10.6945C13.5385 10.615 13.5601 10.5361 13.6049 10.4708C13.6083 10.4674 13.611 10.466 13.611 10.4646C13.6532 10.4701 13.7695 10.5726 13.8389 10.6342L13.9069 10.6965C14.0408 10.8118 14.2042 10.8856 14.378 10.9094C14.5518 10.9332 14.7286 10.9059 14.8876 10.8308C15.0466 10.7556 15.1813 10.6358 15.2756 10.4853C15.3699 10.3349 15.4201 10.1601 15.4201 9.98164C15.4201 9.80315 15.3699 9.62838 15.2756 9.47793C15.1813 9.32748 15.0466 9.20763 14.8876 9.13249C14.7286 9.05736 14.5518 9.03007 14.378 9.05386C14.2042 9.07764 14.0408 9.1515 13.9069 9.26673L13.8389 9.32836C13.7709 9.39136 13.6505 9.49592 13.6131 9.49869C13.5934 9.49038 13.5451 9.41006 13.5451 9.26812V7.19713C13.5464 7.13661 13.5707 7.07895 13.6127 7.03614C13.6548 6.99334 13.7114 6.96866 13.7709 6.96726H15.8051C15.9345 6.97454 16.0618 6.93175 16.1615 6.84747C16.1809 6.82895 16.1964 6.80665 16.2071 6.78192C16.2179 6.75718 16.2236 6.7305 16.2241 6.70345C16.2241 6.59059 16.1248 6.47496 16.0098 6.34063L15.9507 6.27139C15.8309 6.12564 15.7709 5.93851 15.7831 5.74888C15.7953 5.55925 15.8788 5.3817 16.0163 5.25315C16.1538 5.1246 16.3347 5.05492 16.5213 5.05861C16.7079 5.0623 16.886 5.13906 17.0185 5.27294L17.0171 5.27225Z" fill="#F732A2"/>
<path class="mob_logo_2" d="M12.3711 3.13066H9.04259C8.79774 3.13066 8.5801 3.05727 8.45904 2.93402C8.42724 2.90384 8.40175 2.86743 8.38411 2.82697C8.36646 2.78652 8.35702 2.74286 8.35634 2.6986C8.35634 2.51442 8.51889 2.32471 8.7066 2.10521L8.80386 1.99027C8.95005 1.81412 9.04372 1.5991 9.07386 1.37054C9.10399 1.14198 9.06932 0.909423 8.97393 0.700261C8.87855 0.491098 8.72642 0.314052 8.53548 0.189985C8.34455 0.0659175 8.12275 0 7.89623 0C7.66972 0 7.44792 0.0659175 7.25698 0.189985C7.06604 0.314052 6.91392 0.491098 6.81853 0.700261C6.72315 0.909423 6.68848 1.14198 6.71861 1.37054C6.74874 1.5991 6.84242 1.81412 6.9886 1.99027L7.08586 2.10521C7.27358 2.32471 7.43545 2.51442 7.43545 2.6986C7.43545 2.83293 7.34771 2.95479 7.194 3.03373C7.0549 3.10003 6.90278 3.13318 6.7492 3.13066H3.42066C3.32271 3.13066 3.22878 3.17028 3.15952 3.24078C3.09026 3.31129 3.05135 3.40693 3.05135 3.50664V6.89942C3.05366 7.05413 3.02279 7.20748 2.96089 7.34879C2.85887 7.56552 2.71469 7.59737 2.63851 7.59737C2.46576 7.59737 2.28757 7.43811 2.08081 7.25116L1.95498 7.13969C1.78195 6.99086 1.57074 6.8955 1.34624 6.86482C1.12174 6.83414 0.893297 6.86944 0.687844 6.96655C0.48239 7.06365 0.308483 7.21852 0.186616 7.41291C0.0647487 7.6073 0 7.8331 0 8.0637C0 8.2943 0.0647487 8.5201 0.186616 8.71449C0.308483 8.90888 0.48239 9.06375 0.687844 9.16085C0.893297 9.25796 1.12174 9.29326 1.34624 9.26258C1.57074 9.2319 1.78195 9.13654 1.95498 8.98771L2.08081 8.87624C2.28485 8.69206 2.46576 8.53004 2.63851 8.53004C2.68005 8.53122 2.72093 8.54083 2.75877 8.55831C2.79661 8.57578 2.83064 8.60078 2.85887 8.63182C2.97789 8.75299 3.04931 8.97802 3.04931 9.23006V12.6194C3.05156 12.7185 3.09129 12.8129 3.16021 12.8829C3.22913 12.953 3.32194 12.9932 3.4193 12.9953H6.7492C6.97704 12.9953 7.10627 12.9123 7.11987 12.879C7.11579 12.8181 6.94712 12.6208 6.84782 12.5037C6.81449 12.4643 6.7798 12.4248 6.74784 12.3853C6.64799 12.2647 6.5668 12.1293 6.50707 11.9837C6.37989 11.6722 6.37989 11.1252 6.50707 10.8129C6.59685 10.592 6.73616 10.3956 6.91386 10.2393C7.09156 10.0831 7.30272 9.97136 7.53044 9.91309C7.75816 9.85481 7.99612 9.8516 8.22527 9.90373C8.45442 9.95586 8.66841 10.0619 8.85011 10.2133C8.8882 10.2451 8.92561 10.2825 8.96097 10.3157C9.22783 10.5867 9.38491 10.9499 9.40103 11.3333C9.41716 11.7166 9.29116 12.0921 9.04803 12.3853C9.01538 12.4248 8.98002 12.4643 8.94805 12.5037C8.84875 12.6194 8.68348 12.8126 8.676 12.8832C8.676 12.8832 8.68008 12.8873 8.68552 12.8936C8.73381 12.9427 8.86712 12.9953 9.04531 12.9953H12.3779C12.4264 12.9953 12.4745 12.9856 12.5193 12.9667C12.5641 12.9478 12.6048 12.9201 12.6391 12.8852C12.6734 12.8503 12.7006 12.8089 12.7191 12.7633C12.7377 12.7176 12.7472 12.6687 12.7472 12.6194V3.50664C12.7449 3.40646 12.7044 3.31115 12.6341 3.24094C12.5639 3.17074 12.4696 3.13118 12.3711 3.13066Z" fill="#FFD81A"/>
<path class="mob_logo_3" d="M13.8192 15.4334C13.9884 15.4334 14.1522 15.4942 14.2816 15.6052L14.3367 15.6536C14.3918 15.7028 14.4836 15.7845 14.5156 15.7859C14.5545 15.7349 14.5728 15.6708 14.5666 15.6065V13.9891C14.5656 13.942 14.5468 13.8971 14.5141 13.8637C14.4815 13.8303 14.4374 13.811 14.3911 13.8098H10.1261C10.0795 13.8098 10.0348 13.8286 10.0017 13.862C9.96873 13.8955 9.95009 13.941 9.94991 13.9884V15.5975C9.94564 15.6595 9.96245 15.7212 9.99752 15.772C9.99923 15.774 10.0013 15.7757 10.0036 15.7769C10.0685 15.742 10.1279 15.6974 10.1798 15.6446L10.2349 15.5962C10.3392 15.5063 10.4666 15.4488 10.602 15.4302C10.7374 15.4117 10.8752 15.433 10.9991 15.4916C11.123 15.5502 11.2279 15.6437 11.3013 15.7609C11.3747 15.8782 11.4137 16.0145 11.4135 16.1535V16.1591C11.4135 16.2981 11.3745 16.4342 11.3011 16.5514C11.2276 16.6687 11.1228 16.7621 10.999 16.8207C10.8752 16.8793 10.7375 16.9007 10.6021 16.8824C10.4667 16.864 10.3393 16.8067 10.2349 16.7172L10.1798 16.6687C10.1247 16.6195 10.0329 16.5378 10.0009 16.5364C9.96168 16.5872 9.94338 16.6515 9.94991 16.7158V18.3305C9.95095 18.3777 9.96985 18.4227 10.0027 18.4561C10.0355 18.4895 10.0797 18.5087 10.1261 18.5098H11.7121C11.8131 18.5042 11.9125 18.5375 11.9903 18.6033C12.0054 18.6177 12.0175 18.635 12.0259 18.6543C12.0343 18.6736 12.0389 18.6944 12.0393 18.7154C12.0393 18.8034 11.9617 18.8934 11.872 18.9986L11.8257 19.0526C11.7343 19.163 11.6869 19.3043 11.6929 19.4486C11.699 19.5929 11.758 19.7295 11.8584 19.8316C11.9375 19.9121 12.0384 19.9669 12.1482 19.9891C12.2579 20.0113 12.3717 19.9998 12.4751 19.9561C12.5784 19.9125 12.6668 19.8386 12.7289 19.7439C12.791 19.6491 12.8242 19.5377 12.8241 19.4238C12.8231 19.2876 12.775 19.1562 12.6881 19.0526L12.6419 18.9986C12.5521 18.8934 12.4752 18.8034 12.4752 18.7154C12.4776 18.6804 12.4896 18.6468 12.51 18.6185C12.5303 18.5902 12.5581 18.5684 12.5902 18.5555C12.6563 18.5241 12.7287 18.5084 12.8017 18.5098H14.3884C14.435 18.5096 14.4797 18.4906 14.5125 18.457C14.5454 18.4234 14.5639 18.3779 14.5639 18.3305V16.7192C14.5683 16.6572 14.5515 16.5956 14.5163 16.5447L14.5102 16.5392C14.4451 16.5741 14.3857 16.619 14.334 16.6722L14.2789 16.7206C14.1908 16.7964 14.086 16.8495 13.9735 16.8752C13.8609 16.901 13.744 16.8988 13.6324 16.8686C13.5209 16.8385 13.4182 16.7815 13.333 16.7023C13.2478 16.6232 13.1826 16.5242 13.143 16.4139C13.1033 16.3036 13.0904 16.1852 13.1054 16.0688C13.1203 15.9523 13.1626 15.8413 13.2287 15.745C13.2948 15.6488 13.3828 15.5702 13.4851 15.5159C13.5874 15.4617 13.7011 15.4334 13.8164 15.4334H13.8192Z" fill="#8572B3"/>
<path class="mob_logo_letter" d="M90.8272 8.88375C90.6705 8.88388 90.5172 8.83667 90.3868 8.74809C90.2564 8.65951 90.1547 8.53353 90.0946 8.38611C90.0346 8.23868 90.0188 8.07644 90.0494 7.9199C90.0799 7.76336 90.1554 7.61956 90.2663 7.50671C90.3771 7.39386 90.5184 7.31702 90.6721 7.28591C90.8259 7.25481 90.9853 7.27084 91.1301 7.33198C91.2749 7.39312 91.3987 7.49662 91.4857 7.62938C91.5727 7.76214 91.6191 7.91819 91.6189 8.07779C91.6186 8.29143 91.535 8.49621 91.3867 8.64728C91.2383 8.79835 91.0371 8.88338 90.8272 8.88375ZM90.8272 7.41931C90.6993 7.41918 90.5742 7.45768 90.4677 7.52995C90.3612 7.60222 90.2782 7.70501 90.2292 7.82532C90.1801 7.94563 90.1672 8.07805 90.1921 8.20583C90.217 8.3336 90.2785 8.451 90.369 8.54316C90.4594 8.63531 90.5746 8.6981 90.7001 8.72356C90.8256 8.74902 90.9557 8.73602 91.0739 8.68621C91.1922 8.63639 91.2932 8.55199 91.3643 8.44369C91.4354 8.33539 91.4734 8.20805 91.4734 8.07779C91.473 7.90338 91.4049 7.73621 91.2838 7.61282C91.1627 7.48944 90.9986 7.41986 90.8272 7.41931Z" fill="#231F20"/>
<path class="mob_logo_letter" d="M91.0034 7.70583C91.0314 7.71784 91.0562 7.73662 91.0755 7.76052C91.0919 7.7814 91.105 7.80476 91.1142 7.82977C91.1241 7.85605 91.129 7.88402 91.1285 7.91216C91.1284 7.95056 91.119 7.98835 91.1013 8.02225C91.0818 8.05901 91.0488 8.0864 91.0095 8.09842C91.041 8.10967 91.0677 8.13169 91.085 8.16073C91.1023 8.19882 91.11 8.24071 91.1074 8.2826V8.33522C91.1067 8.35976 91.1081 8.38432 91.1115 8.40861C91.1131 8.41775 91.1166 8.42642 91.1218 8.43407C91.1269 8.44171 91.1336 8.44814 91.1414 8.45293V8.47301H90.9639C90.9592 8.45501 90.9551 8.44116 90.9531 8.43077C90.949 8.40791 90.9467 8.38476 90.9463 8.36153V8.29229C90.9498 8.25697 90.9406 8.22154 90.9204 8.19258C90.8942 8.17281 90.8617 8.1639 90.8293 8.16766H90.6722V8.47509H90.5151V7.68782H90.883C90.9239 7.68641 90.9647 7.69251 91.0034 7.70583ZM90.6715 7.82215V8.02987H90.8443C90.8707 8.03117 90.8972 8.02668 90.9218 8.01671C90.9373 8.00852 90.9499 7.99572 90.9581 7.98C90.9662 7.96429 90.9694 7.94642 90.9673 7.92878C90.9696 7.91013 90.9666 7.89123 90.9588 7.87422C90.951 7.8572 90.9386 7.84276 90.9231 7.83253C90.8998 7.82231 90.8744 7.8178 90.849 7.81938L90.6715 7.82215Z" fill="#231F20"/>
<path class="mob_logo_letter" d="M30.0266 12.1238C29.3249 11.9939 28.6356 11.8023 27.9665 11.5512C27.3851 11.337 26.8403 11.0314 26.3519 10.6455C25.9118 10.2956 25.5505 9.8539 25.2922 9.35001C25.0388 8.85379 24.912 8.27678 24.912 7.619C24.9034 6.98688 25.0434 6.36182 25.3201 5.79589C25.5887 5.25391 25.9608 4.77184 26.4144 4.37785C26.8848 3.97278 27.4245 3.65963 28.0066 3.45418C28.6135 3.23548 29.2529 3.1247 29.8967 3.12667C30.3549 3.12645 30.8119 3.17448 31.2603 3.27C31.698 3.36139 32.1241 3.50333 32.5301 3.69306C32.9223 3.87635 33.2884 4.11275 33.6183 4.39585C33.9397 4.66984 34.2127 4.99767 34.4257 5.36522C34.4956 5.47731 34.5391 5.60432 34.5528 5.73635C34.5645 5.8601 34.5565 5.98495 34.529 6.10609C34.502 6.22474 34.4587 6.33894 34.4005 6.44537C34.3474 6.54553 34.2785 6.63607 34.1964 6.71333C34.1054 6.80477 33.9981 6.87763 33.8802 6.92798C33.7541 6.98421 33.6196 7.01838 33.4823 7.02907C33.337 7.04079 33.1907 7.02887 33.0491 6.99375C32.8946 6.95483 32.7481 6.88824 32.6165 6.79711C32.4057 6.61247 32.2066 6.45345 32.0194 6.32004C31.8358 6.18734 31.6396 6.07368 31.4338 5.98077C31.2222 5.8865 31.0002 5.81839 30.7727 5.77789C30.5001 5.73158 30.224 5.7098 29.9477 5.71281C29.6155 5.71023 29.2846 5.75426 28.9642 5.84367C28.6805 5.92115 28.413 6.05042 28.1746 6.22519C27.9592 6.38319 27.7795 6.58621 27.6475 6.82065C27.5173 7.05715 27.4507 7.32439 27.4543 7.59546C27.4543 7.92919 27.5403 8.20316 27.7121 8.41734C27.9072 8.65027 28.1513 8.83556 28.4262 8.95949C28.7695 9.12028 29.1283 9.24419 29.4968 9.32924C29.9048 9.42848 30.3478 9.5298 30.8257 9.6332C31.3687 9.77525 31.9023 9.95217 32.4234 10.1629C32.9213 10.3631 33.387 10.6383 33.8047 10.9792C34.2103 11.3128 34.5431 11.7288 34.782 12.2006C35.0273 12.6821 35.1502 13.2561 35.1507 13.9226C35.1563 14.566 35.0167 15.2021 34.7426 15.7818C34.4712 16.351 34.0911 16.8594 33.6245 17.2774C33.1336 17.7139 32.5655 18.0514 31.9507 18.2716C31.2847 18.5138 30.582 18.6345 29.8749 18.6282C29.3003 18.6312 28.7281 18.5529 28.1746 18.3956C27.6567 18.25 27.1592 18.0378 26.694 17.7641C26.2608 17.511 25.8657 17.1957 25.5207 16.828C25.2007 16.4897 24.9359 16.1014 24.7366 15.6779C24.6419 15.497 24.584 15.2984 24.5665 15.0942C24.553 14.9246 24.575 14.7539 24.6311 14.5936C24.6841 14.4456 24.7655 14.3097 24.8705 14.1941C24.9735 14.0821 25.0942 13.9885 25.2276 13.9171C25.5482 13.7426 25.8468 13.7048 26.1233 13.8036C26.3999 13.9023 26.6829 14.1428 26.9721 14.525C27.2878 14.999 27.7141 15.3858 28.2127 15.6509C28.7114 15.9168 29.2966 16.0497 29.9681 16.0497C30.2943 16.0503 30.6191 16.0062 30.9339 15.9189C31.2357 15.8379 31.5224 15.7072 31.7827 15.5318C32.0244 15.3695 32.2297 15.1572 32.3853 14.9086C32.5398 14.6548 32.6191 14.3611 32.6138 14.0625C32.6138 13.7135 32.5358 13.4297 32.3798 13.2109C32.2209 12.9897 32.0146 12.8084 31.7766 12.6805C31.5149 12.5358 31.2366 12.4247 30.9482 12.3495C30.6385 12.2706 30.3313 12.1953 30.0266 12.1238Z" fill="#231F20"/>
<path class="mob_logo_letter" d="M39.4722 7.40426H43.5455C43.715 7.40391 43.8827 7.4405 44.0372 7.51158C44.3452 7.65084 44.5914 7.90153 44.7282 8.21507C44.7981 8.37212 44.834 8.54259 44.8336 8.71498C44.8346 8.8853 44.8006 9.05393 44.7337 9.21005C44.6701 9.36202 44.5777 9.49968 44.4616 9.61511C44.3433 9.73202 44.205 9.82589 44.0535 9.89207C43.8942 9.96005 43.723 9.99444 43.5502 9.99316H39.4722V13.0079C39.4697 13.4158 39.5515 13.8197 39.7123 14.1933C39.9507 14.7471 40.3433 15.2177 40.8415 15.547C41.3398 15.8763 41.9218 16.0498 42.5158 16.0462C42.8691 16.0496 43.2206 15.9954 43.5571 15.8855C43.8863 15.773 44.1892 15.5925 44.4467 15.3551C44.5268 15.2813 44.6108 15.212 44.6983 15.1474C44.7867 15.0844 44.8833 15.0343 44.9853 14.9985C45.1811 14.9266 45.3912 14.904 45.5974 14.9328C45.8227 14.9683 46.0315 15.0746 46.1946 15.2367C46.3292 15.3629 46.4316 15.5204 46.4932 15.6958C46.551 15.868 46.5741 16.0502 46.5612 16.2317C46.549 16.4194 46.5029 16.6032 46.4251 16.7739C46.3469 16.9494 46.2355 17.1075 46.0973 17.2392C45.635 17.6947 45.0853 18.0482 44.4827 18.2778C43.8534 18.5154 43.1869 18.6341 42.5158 18.6281C41.7701 18.6337 41.0312 18.4836 40.3448 18.1871C39.6843 17.9033 39.0825 17.495 38.571 16.9837C38.0607 16.4707 37.6533 15.8616 37.3713 15.1903C37.077 14.4926 36.9278 13.7403 36.9333 12.9809V5.33397C36.9314 5.16114 36.9633 4.98965 37.0273 4.82953C37.0912 4.6694 37.1858 4.52385 37.3056 4.40138C37.4254 4.2789 37.568 4.18195 37.725 4.1162C37.882 4.05044 38.0503 4.0172 38.2201 4.0184C38.3871 4.01752 38.5524 4.05195 38.7057 4.11949C38.855 4.18406 38.9903 4.27821 39.1036 4.39646C39.2188 4.51651 39.3111 4.6574 39.3756 4.8119C39.4423 4.97413 39.4761 5.14841 39.4749 5.32428L39.4722 7.40426Z" fill="#231F20"/>
<path class="mob_logo_letter" d="M50.4393 13.1359C50.4363 13.5262 50.5101 13.9133 50.6562 14.2742C50.7945 14.6184 50.9971 14.9321 51.2527 15.1979C51.5173 15.4681 51.8322 15.682 52.1789 15.8272C52.5256 15.9723 52.8971 16.0458 53.272 16.0433C53.6472 16.05 54.0191 15.9707 54.3602 15.8113C54.6734 15.6625 54.9516 15.4472 55.1763 15.1799C55.404 14.9036 55.5787 14.5863 55.6912 14.2444C55.814 13.8761 55.8753 13.4895 55.8728 13.1006V8.69133C55.8723 8.51877 55.908 8.34809 55.9775 8.19072C56.0454 8.03579 56.143 7.8962 56.2645 7.78013C56.3858 7.66335 56.5265 7.56956 56.6801 7.50317C56.8355 7.43546 57.0028 7.40082 57.1718 7.40138C57.3389 7.40048 57.5043 7.43515 57.6575 7.50317C57.8063 7.5686 57.9414 7.66264 58.0553 7.78013C58.1696 7.89733 58.2592 8.03705 58.3185 8.19072C58.3811 8.34991 58.413 8.51988 58.4124 8.69133V13.0646C58.4171 13.8012 58.2882 14.5324 58.0322 15.2214C57.7922 15.8741 57.4326 16.4744 56.9726 16.9905C56.5034 17.5129 55.9314 17.9288 55.2938 18.2109C54.6561 18.4931 53.9672 18.6352 53.272 18.628C52.5496 18.6337 51.834 18.4855 51.1711 18.1932C50.5347 17.9128 49.9574 17.51 49.4708 17.0071C48.9835 16.5021 48.5942 15.908 48.3234 15.256C48.0416 14.5816 47.8983 13.8556 47.9024 13.1227V8.69133C47.9028 8.35007 48.0352 8.0227 48.271 7.78013C48.3849 7.66264 48.52 7.5686 48.6689 7.50317C48.8254 7.43598 48.9935 7.40137 49.1633 7.40137C49.3332 7.40137 49.5013 7.43598 49.6578 7.50317C49.8098 7.56844 49.9482 7.66241 50.0659 7.78013C50.1829 7.89687 50.2754 8.03655 50.3379 8.19072C50.4038 8.34907 50.4376 8.51935 50.4372 8.69133L50.4393 13.1359Z" fill="#231F20"/>
<path class="mob_logo_letter" d="M71.1219 12.9337V12.9932C71.1153 13.4989 71.0445 14.0016 70.9111 14.4888C70.7816 14.9613 70.5906 15.414 70.3432 15.8349C69.5983 17.1019 68.4042 18.0296 67.0071 18.4265C65.8014 18.7643 64.519 18.6784 63.3671 18.1828C62.7063 17.8945 62.106 17.4799 61.5987 16.9614C61.0921 16.4398 60.6871 15.8252 60.4051 15.1501C60.1156 14.4504 59.9664 13.6988 59.9664 12.9396C59.9664 12.1803 60.1156 11.4288 60.4051 10.7291C60.9697 9.369 62.0316 8.28569 63.3664 7.7081C64.5646 7.1925 65.9025 7.12096 67.1472 7.50592C67.6536 7.66657 68.1359 7.89697 68.5809 8.19071V4.47319C68.5792 4.29196 68.611 4.11202 68.6748 3.94281C68.7348 3.78392 68.8242 3.6382 68.938 3.51352C69.05 3.39149 69.1854 3.29416 69.3359 3.22755C69.497 3.15845 69.6705 3.12404 69.8453 3.12646C70.018 3.12526 70.1892 3.15964 70.3486 3.22755C70.5013 3.29335 70.6388 3.39073 70.7526 3.51352C70.8679 3.63875 70.9601 3.78419 71.0246 3.94281C71.0924 4.11105 71.1264 4.29138 71.1246 4.47319L71.1219 12.9337ZM68.5816 12.9455C68.5842 12.5297 68.5025 12.1179 68.3415 11.7358C68.1879 11.3678 67.9652 11.0338 67.6859 10.7526C67.4075 10.4738 67.0811 10.2496 66.7228 10.0914C66.3488 9.93004 65.9467 9.84691 65.5404 9.84691C65.1342 9.84691 64.7321 9.93004 64.358 10.0914C63.9981 10.2491 63.67 10.4733 63.3902 10.7526C63.1114 11.0331 62.8904 11.3674 62.74 11.7358C62.583 12.1189 62.5034 12.5303 62.506 12.9455C62.5042 13.3565 62.5837 13.7636 62.74 14.1426C62.8904 14.5114 63.1091 14.8473 63.3841 15.1321C63.6603 15.4164 63.9884 15.6431 64.3499 15.7995C64.7252 15.9632 65.1297 16.0462 65.5381 16.0433C65.9453 16.0468 66.3488 15.9638 66.7228 15.7995C67.452 15.4796 68.0324 14.8863 68.3436 14.1426C68.503 13.7645 68.5841 13.3569 68.5816 12.9455Z" fill="#231F20"/>
<path class="mob_logo_letter" d="M73.6377 4.77071C73.6366 4.57817 73.6746 4.38747 73.7492 4.21055C73.89 3.86882 74.1569 3.59705 74.4926 3.45376C74.6626 3.37917 74.8458 3.3407 75.0309 3.3407C75.2161 3.3407 75.3992 3.37917 75.5692 3.45376C75.7363 3.52664 75.889 3.62961 76.0202 3.75772C76.1524 3.88974 76.2573 4.0474 76.3287 4.22139C76.4001 4.39538 76.4365 4.58216 76.4357 4.77071C76.4365 4.95741 76.3985 5.14217 76.3242 5.31286C76.2524 5.48046 76.1491 5.63217 76.0202 5.75946C75.8894 5.88802 75.7366 5.99105 75.5692 6.06343C75.3993 6.13834 75.2161 6.17698 75.0309 6.17698C74.8457 6.17698 74.6625 6.13834 74.4926 6.06343C74.3265 5.99218 74.1755 5.88897 74.0478 5.75946C73.9216 5.63102 73.8203 5.47951 73.7492 5.31286C73.6749 5.14217 73.6369 4.95741 73.6377 4.77071ZM76.3065 17.1994C76.3082 17.3733 76.2744 17.5456 76.2072 17.7055C76.1427 17.8569 76.0503 17.9944 75.9352 18.1106C75.757 18.2914 75.53 18.4143 75.2831 18.4636C75.0362 18.5129 74.7805 18.4864 74.5484 18.3875C74.3966 18.3219 74.2582 18.2279 74.1403 18.1106C74.0203 17.9927 73.9251 17.851 73.8608 17.6943C73.7965 17.5376 73.7643 17.3692 73.7662 17.1994V8.6911C73.7652 8.52042 73.8012 8.35161 73.8716 8.19673C73.9402 8.04352 74.0353 7.90419 74.1525 7.78544C74.2724 7.66363 74.4147 7.56719 74.5714 7.50171C74.7281 7.43623 74.8959 7.40299 75.0653 7.40392C75.2323 7.40302 75.3978 7.43769 75.5509 7.50571C75.7002 7.57027 75.8355 7.66442 75.9488 7.78267C76.18 8.0251 76.3083 8.35042 76.3058 8.68833L76.3065 17.1994Z" fill="#231F20"/>
<path class="mob_logo_letter" d="M78.1911 12.9454C78.1858 12.1851 78.3374 11.4321 78.6359 10.7352C78.9229 10.0615 79.332 9.44893 79.8418 8.92943C80.3521 8.41114 80.9548 7.99661 81.6176 7.70803C82.3029 7.41328 83.0392 7.26141 83.7832 7.26141C84.5271 7.26141 85.2634 7.41328 85.9487 7.70803C86.6095 7.99613 87.2098 8.41078 87.717 8.92943C88.2213 9.4498 88.6248 10.0622 88.9066 10.7345C89.1965 11.433 89.346 12.1836 89.346 12.9419C89.346 13.7002 89.1965 14.4508 88.9066 15.1493C88.6246 15.8244 88.2196 16.439 87.7129 16.9606C87.2058 17.4793 86.6054 17.8939 85.9446 18.182C85.2593 18.4768 84.523 18.6287 83.7791 18.6287C83.0352 18.6287 82.2988 18.4768 81.6135 18.182C80.2755 17.5974 79.2093 16.5117 78.6353 15.1493C78.3382 14.4541 78.187 13.7035 78.1911 12.9454ZM80.7307 12.9454C80.7289 13.357 80.8107 13.7646 80.9708 14.1426C81.282 14.8865 81.8627 15.4799 82.5922 15.7995C82.9654 15.9634 83.3679 16.0465 83.7743 16.0432C84.1826 16.046 84.5871 15.963 84.9625 15.7995C85.3237 15.6428 85.6515 15.4161 85.9276 15.132C86.2026 14.8472 86.4213 14.5113 86.5717 14.1426C86.7279 13.7636 86.8075 13.3564 86.8056 12.9454C86.8083 12.5303 86.7287 12.1189 86.5717 11.7358C86.422 11.3684 86.2032 11.0344 85.9276 10.7525C85.65 10.4719 85.3225 10.2475 84.9625 10.0913C84.5884 9.92997 84.1863 9.84684 83.7801 9.84684C83.3739 9.84684 82.9718 9.92997 82.5977 10.0913C82.2363 10.2482 81.9069 10.4725 81.6265 10.7525C81.3471 11.0337 81.1244 11.3677 80.9708 11.7358C80.8108 12.1181 80.73 12.5298 80.7335 12.9454H80.7307Z" fill="#231F20"/>
</svg>
