<svg width="344" height="302" viewBox="0 0 344 302" fill="none" xmlns="http://www.w3.org/2000/svg">
<path d="M151.825 301.788C231.372 301.788 295.858 237.237 295.858 157.609C295.858 77.9813 231.372 13.4303 151.825 13.4303C72.2787 13.4303 7.79333 77.9813 7.79333 157.609C7.79333 237.237 72.2787 301.788 151.825 301.788Z" fill="#051227"/>
<path d="M284.447 65.2553L283.684 66.0273L284.455 66.7915L285.219 66.0195L284.447 65.2553Z" fill="white"/>
<path d="M277.552 58.4594L276.788 59.2314L277.56 59.9956L278.323 59.2236L277.552 58.4594Z" fill="white"/>
<path d="M291.343 72.0511L290.58 72.8231L291.351 73.5873L292.115 72.8153L291.343 72.0511Z" fill="white"/>
<path d="M270.726 51.5945L269.962 52.3665L270.733 53.1307L271.497 52.3587L270.726 51.5945Z" fill="white"/>
<path d="M287.876 61.7689L287.113 62.5409L287.884 63.3051L288.648 62.5331L287.876 61.7689Z" fill="white"/>
<path d="M280.981 54.973L280.217 55.7451L280.989 56.5092L281.752 55.7372L280.981 54.973Z" fill="white"/>
<path d="M294.703 68.6348L293.939 69.4069L294.711 70.1711L295.474 69.399L294.703 68.6348Z" fill="white"/>
<path d="M274.085 48.1782L273.322 48.9502L274.093 49.7144L274.856 48.9424L274.085 48.1782Z" fill="white"/>
<path d="M291.236 58.3526L290.473 59.1246L291.244 59.8888L292.008 59.1168L291.236 58.3526Z" fill="white"/>
<path d="M284.34 51.5568L283.577 52.3289L284.348 53.0931L285.112 52.321L284.34 51.5568Z" fill="white"/>
<path d="M298.132 65.1484L297.368 65.9204L298.14 66.6846L298.903 65.9126L298.132 65.1484Z" fill="white"/>
<path d="M277.514 44.6917L276.751 45.4637L277.522 46.2279L278.286 45.4559L277.514 44.6917Z" fill="white"/>
<path d="M294.665 54.8662L293.902 55.6382L294.673 56.4024L295.436 55.6304L294.665 54.8662Z" fill="white"/>
<path d="M287.77 48.0712L287.006 48.8432L287.778 49.6074L288.541 48.8354L287.77 48.0712Z" fill="white"/>
<path d="M298.095 51.5194L297.331 52.2914L298.103 53.0556L298.866 52.2836L298.095 51.5194Z" fill="white"/>
<path d="M291.2 44.7245L290.436 45.4965L291.207 46.2607L291.971 45.4887L291.2 44.7245Z" fill="white"/>
<path d="M301.524 48.0329L300.761 48.8049L301.532 49.5691L302.295 48.7971L301.524 48.0329Z" fill="white"/>
<path d="M294.628 41.2372L293.865 42.0092L294.636 42.7734L295.4 42.0014L294.628 41.2372Z" fill="white"/>
<path d="M308.35 54.8989L307.587 55.671L308.358 56.4352L309.122 55.6631L308.35 54.8989Z" fill="white"/>
<path d="M287.733 34.4422L286.97 35.2142L287.741 35.9784L288.504 35.2064L287.733 34.4422Z" fill="white"/>
<path d="M304.884 44.6175L304.12 45.3895L304.892 46.1537L305.655 45.3817L304.884 44.6175Z" fill="white"/>
<path d="M297.988 37.8217L297.225 38.5937L297.996 39.3579L298.76 38.5859L297.988 37.8217Z" fill="white"/>
<path d="M311.779 51.4124L311.016 52.1844L311.787 52.9486L312.551 52.1766L311.779 51.4124Z" fill="white"/>
<path d="M291.162 30.9558L290.399 31.7278L291.17 32.492L291.933 31.72L291.162 30.9558Z" fill="white"/>
<path d="M308.313 41.1303L307.549 41.9023L308.32 42.6665L309.084 41.8945L308.313 41.1303Z" fill="white"/>
<path d="M301.417 34.3353L300.654 35.1074L301.425 35.8716L302.189 35.0995L301.417 34.3353Z" fill="white"/>
<path d="M315.139 47.9962L314.376 48.7682L315.147 49.5324L315.91 48.7604L315.139 47.9962Z" fill="white"/>
<path d="M294.522 27.5396L293.758 28.3116L294.529 29.0758L295.293 28.3038L294.522 27.5396Z" fill="white"/>
<path d="M287.93 68.6879L287.167 69.46L287.938 70.2242L288.702 69.4521L287.93 68.6879Z" fill="white"/>
<path d="M281.035 61.8921L280.271 62.6641L281.043 63.4283L281.806 62.6563L281.035 61.8921Z" fill="white"/>
<path d="M267.243 48.1619L266.479 48.9339L267.251 49.6981L268.014 48.9261L267.243 48.1619Z" fill="white"/>
<path d="M294.826 75.4837L294.063 76.2557L294.834 77.0199L295.597 76.2479L294.826 75.4837Z" fill="white"/>
<path d="M274.069 55.0278L273.306 55.7998L274.077 56.564L274.84 55.792L274.069 55.0278Z" fill="white"/>
<path d="M291.29 65.2717L290.527 66.0437L291.298 66.8079L292.061 66.0359L291.29 65.2717Z" fill="white"/>
<path d="M284.464 58.4058L283.7 59.1778L284.471 59.942L285.235 59.17L284.464 58.4058Z" fill="white"/>
<path d="M270.673 44.815L269.909 45.587L270.68 46.3512L271.444 45.5792L270.673 44.815Z" fill="white"/>
<path d="M298.186 72.0675L297.422 72.8395L298.194 73.6037L298.957 72.8317L298.186 72.0675Z" fill="white"/>
<path d="M277.568 51.6109L276.805 52.3829L277.576 53.1471L278.339 52.375L277.568 51.6109Z" fill="white"/>
<path d="M294.719 61.7852L293.956 62.5572L294.727 63.3214L295.49 62.5494L294.719 61.7852Z" fill="white"/>
<path d="M287.823 54.9895L287.06 55.7615L287.831 56.5257L288.595 55.7536L287.823 54.9895Z" fill="white"/>
<path d="M274.102 41.3286L273.338 42.1006L274.11 42.8648L274.873 42.0928L274.102 41.3286Z" fill="white"/>
<path d="M301.615 68.581L300.851 69.353L301.622 70.1172L302.386 69.3452L301.615 68.581Z" fill="white"/>
<path d="M280.928 48.1945L280.164 48.9666L280.936 49.7307L281.699 48.9587L280.928 48.1945Z" fill="white"/>
<path d="M291.253 51.503L290.489 52.275L291.26 53.0392L292.024 52.2672L291.253 51.503Z" fill="white"/>
<path d="M284.357 44.7081L283.594 45.4801L284.365 46.2443L285.128 45.4723L284.357 44.7081Z" fill="white"/>
<path d="M301.508 54.8825L300.745 55.6545L301.516 56.4187L302.279 55.6467L301.508 54.8825Z" fill="white"/>
<path d="M294.612 48.0868L293.849 48.8588L294.62 49.623L295.383 48.851L294.612 48.0868Z" fill="white"/>
<path d="M304.867 51.4663L304.104 52.2383L304.875 53.0025L305.639 52.2305L304.867 51.4663Z" fill="white"/>
<path d="M298.041 44.6004L297.278 45.3724L298.049 46.1366L298.812 45.3646L298.041 44.6004Z" fill="white"/>
<path d="M284.25 31.0097L283.487 31.7817L284.258 32.5459L285.021 31.7739L284.25 31.0097Z" fill="white"/>
<path d="M311.763 58.2621L310.999 59.0341L311.771 59.7983L312.534 59.0263L311.763 58.2621Z" fill="white"/>
<path d="M291.146 37.8055L290.382 38.5775L291.154 39.3417L291.917 38.5696L291.146 37.8055Z" fill="white"/>
<path d="M308.296 47.9799L307.533 48.7519L308.304 49.5161L309.068 48.7441L308.296 47.9799Z" fill="white"/>
<path d="M301.401 41.185L300.638 41.957L301.409 42.7212L302.172 41.9492L301.401 41.185Z" fill="white"/>
<path d="M287.679 27.5232L286.916 28.2952L287.687 29.0594L288.45 28.2874L287.679 27.5232Z" fill="white"/>
<path d="M315.192 54.7756L314.429 55.5476L315.2 56.3118L315.964 55.5398L315.192 54.7756Z" fill="white"/>
<path d="M294.575 34.319L293.811 35.091L294.583 35.8552L295.346 35.0832L294.575 34.319Z" fill="white"/>
<path d="M311.725 44.4935L310.962 45.2655L311.733 46.0297L312.497 45.2577L311.725 44.4935Z" fill="white"/>
<path d="M304.83 37.6976L304.066 38.4697L304.838 39.2339L305.601 38.4618L304.83 37.6976Z" fill="white"/>
<path d="M291.039 24.107L290.275 24.879L291.047 25.6432L291.81 24.8712L291.039 24.107Z" fill="white"/>
<path d="M318.622 51.4289L317.858 52.2009L318.63 52.9651L319.393 52.1931L318.622 51.4289Z" fill="white"/>
<path d="M297.934 30.9027L297.171 31.6747L297.942 32.4389L298.706 31.6669L297.934 30.9027Z" fill="white"/>
<path d="M134.759 260.904L0 141.809L43.7029 92.1362L131.405 169.657L296.647 0L344 46.2162L134.759 260.904Z" fill="#FF244C"/>
<path d="M43.2256 159.75L42.4979 160.556L43.3028 161.284L44.0306 160.478L43.2256 159.75Z" fill="white"/>
<path d="M36.0173 153.254L35.2896 154.06L36.0946 154.789L36.8223 153.983L36.0173 153.254Z" fill="white"/>
<path d="M50.4346 166.245L49.7068 167.051L50.5118 167.78L51.2395 166.974L50.4346 166.245Z" fill="white"/>
<path d="M28.8086 146.759L28.0809 147.565L28.8858 148.293L29.6136 147.488L28.8086 146.759Z" fill="white"/>
<path d="M46.4332 156.109L45.7054 156.915L46.5104 157.643L47.2382 156.837L46.4332 156.109Z" fill="white"/>
<path d="M39.2983 149.679L38.5706 150.485L39.3755 151.214L40.1032 150.408L39.2983 149.679Z" fill="white"/>
<path d="M53.6421 162.604L52.9144 163.41L53.7194 164.138L54.4471 163.332L53.6421 162.604Z" fill="white"/>
<path d="M32.0893 143.184L31.3616 143.99L32.1666 144.719L32.8943 143.913L32.0893 143.184Z" fill="white"/>
<path d="M49.7149 152.533L48.9872 153.339L49.7922 154.068L50.5199 153.262L49.7149 152.533Z" fill="white"/>
<path d="M42.5062 146.038L41.7784 146.844L42.5834 147.572L43.3111 146.767L42.5062 146.038Z" fill="white"/>
<path d="M56.8576 159.102L56.1299 159.908L56.9349 160.636L57.6626 159.83L56.8576 159.102Z" fill="white"/>
<path d="M35.2969 139.543L34.5692 140.349L35.3742 141.077L36.1019 140.271L35.2969 139.543Z" fill="white"/>
<path d="M52.9958 148.959L52.2681 149.764L53.0731 150.493L53.8008 149.687L52.9958 148.959Z" fill="white"/>
<path d="M45.7869 142.463L45.0591 143.269L45.8641 143.998L46.5918 143.192L45.7869 142.463Z" fill="white"/>
<path d="M56.1374 145.391L55.4097 146.196L56.2147 146.925L56.9424 146.119L56.1374 145.391Z" fill="white"/>
<path d="M48.9944 138.822L48.2667 139.628L49.0717 140.356L49.7994 139.551L48.9944 138.822Z" fill="white"/>
<path d="M59.4182 141.816L58.6904 142.621L59.4954 143.35L60.2231 142.544L59.4182 141.816Z" fill="white"/>
<path d="M52.2754 135.247L51.5477 136.053L52.3527 136.781L53.0804 135.976L52.2754 135.247Z" fill="white"/>
<path d="M66.6271 148.311L65.8994 149.117L66.7044 149.845L67.4321 149.039L66.6271 148.311Z" fill="white"/>
<path d="M45.0662 128.752L44.3384 129.558L45.1434 130.286L45.8711 129.48L45.0662 128.752Z" fill="white"/>
<path d="M62.6257 138.175L61.898 138.981L62.703 139.709L63.4307 138.903L62.6257 138.175Z" fill="white"/>
<path d="M55.5561 131.672L54.8284 132.478L55.6333 133.206L56.3611 132.401L55.5561 131.672Z" fill="white"/>
<path d="M69.8347 144.67L69.107 145.476L69.912 146.204L70.6397 145.398L69.8347 144.67Z" fill="white"/>
<path d="M48.3471 125.177L47.6194 125.983L48.4244 126.711L49.1521 125.906L48.3471 125.177Z" fill="white"/>
<path d="M65.9067 134.6L65.179 135.405L65.9839 136.134L66.7116 135.328L65.9067 134.6Z" fill="white"/>
<path d="M58.6977 128.104L57.97 128.91L58.775 129.639L59.5027 128.833L58.6977 128.104Z" fill="white"/>
<path d="M73.1154 141.095L72.3877 141.901L73.1927 142.629L73.9204 141.823L73.1154 141.095Z" fill="white"/>
<path d="M51.5547 121.536L50.827 122.342L51.6319 123.07L52.3597 122.264L51.5547 121.536Z" fill="white"/>
<path d="M46.7974 163.034L46.0697 163.84L46.8747 164.568L47.6024 163.762L46.7974 163.034Z" fill="white"/>
<path d="M39.5884 156.539L38.8607 157.345L39.6657 158.073L40.3934 157.267L39.5884 156.539Z" fill="white"/>
<path d="M25.2367 143.475L24.509 144.281L25.314 145.01L26.0417 144.204L25.2367 143.475Z" fill="white"/>
<path d="M53.9333 169.463L53.2056 170.269L54.0106 170.997L54.7383 170.192L53.9333 169.463Z" fill="white"/>
<path d="M32.4457 149.97L31.718 150.776L32.523 151.505L33.2507 150.699L32.4457 149.97Z" fill="white"/>
<path d="M50.0051 159.393L49.2773 160.199L50.0823 160.927L50.81 160.121L50.0051 159.393Z" fill="white"/>
<path d="M42.7961 152.898L42.0684 153.703L42.8733 154.432L43.6011 153.626L42.7961 152.898Z" fill="white"/>
<path d="M28.5174 139.9L27.7897 140.706L28.5947 141.434L29.3224 140.628L28.5174 139.9Z" fill="white"/>
<path d="M57.2141 165.888L56.4863 166.694L57.2913 167.422L58.019 166.617L57.2141 165.888Z" fill="white"/>
<path d="M35.7264 146.395L34.9987 147.201L35.8037 147.93L36.5314 147.124L35.7264 146.395Z" fill="white"/>
<path d="M53.286 155.818L52.5583 156.624L53.3633 157.352L54.091 156.546L53.286 155.818Z" fill="white"/>
<path d="M46.077 149.323L45.3493 150.128L46.1543 150.857L46.882 150.051L46.077 149.323Z" fill="white"/>
<path d="M31.7261 136.259L30.9984 137.064L31.8033 137.793L32.5311 136.987L31.7261 136.259Z" fill="white"/>
<path d="M60.4947 162.313L59.767 163.119L60.572 163.847L61.2997 163.042L60.4947 162.313Z" fill="white"/>
<path d="M38.934 142.754L38.2063 143.56L39.0113 144.289L39.739 143.483L38.934 142.754Z" fill="white"/>
<path d="M49.3577 145.748L48.63 146.554L49.435 147.282L50.1627 146.476L49.3577 145.748Z" fill="white"/>
<path d="M42.1487 139.253L41.421 140.058L42.226 140.787L42.9537 139.981L42.1487 139.253Z" fill="white"/>
<path d="M59.7743 148.602L59.0466 149.408L59.8516 150.136L60.5793 149.33L59.7743 148.602Z" fill="white"/>
<path d="M52.5663 142.106L51.8386 142.912L52.6436 143.641L53.3713 142.835L52.5663 142.106Z" fill="white"/>
<path d="M63.0552 145.027L62.3275 145.833L63.1325 146.561L63.8602 145.755L63.0552 145.027Z" fill="white"/>
<path d="M55.8473 138.531L55.1196 139.337L55.9246 140.066L56.6523 139.26L55.8473 138.531Z" fill="white"/>
<path d="M41.4293 125.541L40.7015 126.347L41.5065 127.075L42.2342 126.269L41.4293 125.541Z" fill="white"/>
<path d="M70.2643 151.522L69.5366 152.328L70.3415 153.056L71.0693 152.251L70.2643 151.522Z" fill="white"/>
<path d="M48.6383 132.036L47.9106 132.842L48.7156 133.57L49.4433 132.765L48.6383 132.036Z" fill="white"/>
<path d="M66.2638 141.385L65.5361 142.191L66.3411 142.92L67.0688 142.114L66.2638 141.385Z" fill="white"/>
<path d="M59.128 134.956L58.4003 135.762L59.2053 136.491L59.933 135.685L59.128 134.956Z" fill="white"/>
<path d="M44.7103 121.966L43.9825 122.772L44.7875 123.5L45.5152 122.694L44.7103 121.966Z" fill="white"/>
<path d="M73.4056 147.954L72.6779 148.76L73.4828 149.489L74.2106 148.683L73.4056 147.954Z" fill="white"/>
<path d="M51.9192 128.461L51.1915 129.267L51.9965 129.996L52.7242 129.19L51.9192 128.461Z" fill="white"/>
<path d="M69.5446 137.81L68.8168 138.616L69.6218 139.345L70.3495 138.539L69.5446 137.81Z" fill="white"/>
<path d="M62.3356 131.315L61.6078 132.121L62.4128 132.849L63.1405 132.044L62.3356 131.315Z" fill="white"/>
<path d="M47.991 118.391L47.2632 119.197L48.0682 119.925L48.7959 119.119L47.991 118.391Z" fill="white"/>
<path d="M76.6865 144.379L75.9588 145.185L76.7638 145.914L77.4915 145.108L76.6865 144.379Z" fill="white"/>
<path d="M55.1266 124.82L54.3989 125.626L55.2038 126.354L55.9316 125.548L55.1266 124.82Z" fill="white"/>
<path d="M278.802 41.7631L278.038 42.5352L278.81 43.2992L279.573 42.5271L278.802 41.7631Z" fill="white"/>
<path d="M285.592 34.86L284.828 35.6321L285.6 36.3961L286.363 35.624L285.592 34.86Z" fill="white"/>
<path d="M272.012 48.667L271.249 49.4391L272.02 50.2031L272.783 49.4309L272.012 48.667Z" fill="white"/>
<path d="M292.452 28.0257L291.689 28.7978L292.46 29.5618L293.223 28.7896L292.452 28.0257Z" fill="white"/>
<path d="M282.285 45.196L281.522 45.9681L282.293 46.7321L283.057 45.96L282.285 45.196Z" fill="white"/>
<path d="M289.075 38.2931L288.312 39.0652L289.083 39.8292L289.846 39.0571L289.075 38.2931Z" fill="white"/>
<path d="M275.425 52.0305L274.662 52.8026L275.433 53.5666L276.196 52.7945L275.425 52.0305Z" fill="white"/>
<path d="M295.865 31.3893L295.102 32.1614L295.873 32.9254L296.636 32.1533L295.865 31.3893Z" fill="white"/>
<path d="M285.699 48.5604L284.935 49.3325L285.707 50.0965L286.47 49.3244L285.699 48.5604Z" fill="white"/>
<path d="M292.488 41.6566L291.725 42.4288L292.497 43.1928L293.26 42.4206L292.488 41.6566Z" fill="white"/>
<path d="M278.909 55.4644L278.145 56.2365L278.917 57.0005L279.68 56.2284L278.909 55.4644Z" fill="white"/>
<path d="M299.348 34.8222L298.585 35.5943L299.357 36.3583L300.12 35.5861L299.348 34.8222Z" fill="white"/>
<path d="M289.112 52.0637L288.349 52.8359L289.121 53.5999L289.884 52.8277L289.112 52.0637Z" fill="white"/>
<path d="M295.903 45.1598L295.139 45.9319L295.911 46.6959L296.674 45.9238L295.903 45.1598Z" fill="white"/>
<path d="M292.526 55.4273L291.763 56.1994L292.534 56.9634L293.297 56.1912L292.526 55.4273Z" fill="white"/>
<path d="M299.316 48.5234L298.553 49.2955L299.324 50.0595L300.087 49.2874L299.316 48.5234Z" fill="white"/>
<path d="M296.009 58.8603L295.246 59.6324L296.017 60.3964L296.781 59.6242L296.009 58.8603Z" fill="white"/>
<path d="M302.799 51.9563L302.036 52.7285L302.807 53.4924L303.57 52.7203L302.799 51.9563Z" fill="white"/>
<path d="M289.149 65.6947L288.386 66.4668L289.158 67.2308L289.921 66.4587L289.149 65.6947Z" fill="white"/>
<path d="M309.589 45.0526L308.825 45.8247L309.597 46.5887L310.36 45.8166L309.589 45.0526Z" fill="white"/>
<path d="M299.423 62.2238L298.659 62.9959L299.431 63.7599L300.194 62.9878L299.423 62.2238Z" fill="white"/>
<path d="M306.212 55.3199L305.449 56.092L306.221 56.856L306.984 56.0838L306.212 55.3199Z" fill="white"/>
<path d="M292.633 69.1277L291.87 69.8998L292.641 70.6638L293.404 69.8917L292.633 69.1277Z" fill="white"/>
<path d="M313.072 48.4855L312.309 49.2576L313.08 50.0216L313.844 49.2495L313.072 48.4855Z" fill="white"/>
<path d="M302.906 65.6568L302.143 66.429L302.914 67.1929L303.677 66.4208L302.906 65.6568Z" fill="white"/>
<path d="M309.696 58.753L308.933 59.5251L309.704 60.2891L310.467 59.5169L309.696 58.753Z" fill="white"/>
<path d="M296.046 72.4913L295.283 73.2634L296.054 74.0273L296.817 73.2552L296.046 72.4913Z" fill="white"/>
<path d="M316.486 51.8491L315.722 52.6213L316.494 53.3853L317.257 52.6131L316.486 51.8491Z" fill="white"/>
<path d="M275.372 45.2505L274.609 46.0226L275.38 46.7866L276.143 46.0145L275.372 45.2505Z" fill="white"/>
<path d="M282.162 38.3466L281.399 39.1188L282.17 39.8828L282.933 39.1106L282.162 38.3466Z" fill="white"/>
<path d="M295.811 24.6085L295.048 25.3806L295.82 26.1446L296.583 25.3725L295.811 24.6085Z" fill="white"/>
<path d="M268.582 52.1544L267.819 52.9265L268.59 53.6905L269.354 52.9184L268.582 52.1544Z" fill="white"/>
<path d="M288.952 31.4428L288.189 32.2149L288.96 32.9789L289.723 32.2068L288.952 31.4428Z" fill="white"/>
<path d="M278.785 48.6141L278.022 49.3862L278.794 50.1502L279.557 49.378L278.785 48.6141Z" fill="white"/>
<path d="M285.646 41.7796L284.882 42.5518L285.654 43.3157L286.417 42.5436L285.646 41.7796Z" fill="white"/>
<path d="M299.225 27.9719L298.462 28.7441L299.233 29.5081L299.996 28.7359L299.225 27.9719Z" fill="white"/>
<path d="M271.996 55.518L271.232 56.2902L272.004 57.0541L272.767 56.282L271.996 55.518Z" fill="white"/>
<path d="M292.435 34.8758L291.672 35.6479L292.443 36.4119L293.206 35.6398L292.435 34.8758Z" fill="white"/>
<path d="M282.269 52.047L281.506 52.8192L282.277 53.5831L283.04 52.811L282.269 52.047Z" fill="white"/>
<path d="M289.059 45.1432L288.295 45.9153L289.067 46.6793L289.83 45.9072L289.059 45.1432Z" fill="white"/>
<path d="M302.709 31.4059L301.945 32.178L302.717 32.942L303.48 32.1699L302.709 31.4059Z" fill="white"/>
<path d="M275.479 58.951L274.716 59.7231L275.487 60.4871L276.25 59.715L275.479 58.951Z" fill="white"/>
<path d="M295.848 38.2393L295.085 39.0115L295.856 39.7755L296.62 39.0033L295.848 38.2393Z" fill="white"/>
<path d="M292.542 48.5762L291.779 49.3483L292.55 50.1123L293.313 49.3402L292.542 48.5762Z" fill="white"/>
<path d="M299.332 41.6724L298.568 42.4446L299.34 43.2086L300.103 42.4364L299.332 41.6724Z" fill="white"/>
<path d="M289.166 58.8437L288.402 59.6158L289.174 60.3798L289.937 59.6077L289.166 58.8437Z" fill="white"/>
<path d="M295.956 51.9406L295.192 52.7128L295.964 53.4767L296.727 52.7046L295.956 51.9406Z" fill="white"/>
<path d="M292.579 62.2072L291.816 62.9793L292.587 63.7433L293.35 62.9712L292.579 62.2072Z" fill="white"/>
<path d="M299.439 55.3736L298.676 56.1458L299.447 56.9097L300.21 56.1376L299.439 55.3736Z" fill="white"/>
<path d="M313.019 41.5659L312.255 42.338L313.027 43.102L313.79 42.3299L313.019 41.5659Z" fill="white"/>
<path d="M285.789 69.111L285.026 69.8831L285.797 70.6471L286.56 69.875L285.789 69.111Z" fill="white"/>
<path d="M306.229 48.4699L305.466 49.242L306.237 50.006L307 49.2339L306.229 48.4699Z" fill="white"/>
<path d="M296.063 65.6411L295.299 66.4132L296.071 67.1772L296.834 66.4051L296.063 65.6411Z" fill="white"/>
<path d="M302.852 58.7371L302.089 59.5093L302.861 60.2733L303.624 59.5011L302.852 58.7371Z" fill="white"/>
<path d="M316.502 44.9991L315.739 45.7712L316.51 46.5352L317.273 45.763L316.502 44.9991Z" fill="white"/>
<path d="M289.272 72.5441L288.509 73.3162L289.28 74.0802L290.044 73.3081L289.272 72.5441Z" fill="white"/>
<path d="M309.642 51.8334L308.879 52.6055L309.65 53.3695L310.413 52.5974L309.642 51.8334Z" fill="white"/>
<path d="M299.477 69.1443L298.713 69.9164L299.485 70.6804L300.248 69.9082L299.477 69.1443Z" fill="white"/>
<path d="M306.267 62.2405L305.503 63.0126L306.275 63.7766L307.038 63.0045L306.267 62.2405Z" fill="white"/>
<path d="M319.915 48.3625L319.152 49.1346L319.924 49.8986L320.687 49.1265L319.915 48.3625Z" fill="white"/>
<path d="M292.616 75.9778L291.853 76.7499L292.624 77.5139L293.388 76.7417L292.616 75.9778Z" fill="white"/>
<path d="M313.056 55.3365L312.293 56.1086L313.064 56.8726L313.827 56.1005L313.056 55.3365Z" fill="white"/>
<path d="M131.405 169.657L129.951 162.93L278.396 10.9615L296.647 0L131.405 169.657Z" fill="white"/>
<path opacity="0.2" d="M135.351 165.608L131.405 169.657L129.951 162.93L135.351 165.608Z" fill="#070707"/>
<path d="M43.7921 92.5195H49.8098L129.951 162.93L131.399 169.65L43.7921 92.5195Z" fill="white"/>
</svg>
