<svg width="66" height="57" viewBox="0 0 66 57" fill="none" xmlns="http://www.w3.org/2000/svg">
<path d="M63.9375 0H2.0625C0.922231 0 0 0.922231 0 2.0625V43.3125C0 44.4528 0.922231 45.375 2.0625 45.375H63.9375C65.0778 45.375 66 44.4528 66 43.3125V2.0625C66 0.922231 65.0778 0 63.9375 0ZM61.875 41.25H4.125V4.125H61.875V41.25Z" fill="white"/>
<path d="M46.2589 53.6249C43.006 53.6249 40.366 50.9849 40.366 47.7321H25.6339C25.6339 50.9849 22.9939 53.6249 19.741 53.6249C18.9278 53.6249 18.2678 54.2879 18.2678 55.0981C18.2678 55.9084 18.9278 56.5713 19.741 56.5713H46.2589C47.0692 56.5713 47.7321 55.9084 47.7321 55.0981C47.7321 54.2879 47.0692 53.6249 46.2589 53.6249Z" fill="white"/>
</svg>
